999
dxfrw 0.6.3
  0
SECTION
  2
HEADER
  9
$ACADVER
  1
AC1021
  9
$DWGCODEPAGE
  3
ANSI_1252
  9
$INSBASE
 10
0
 20
0
 30
0
  9
$EXTMIN
 10
10000000000
 20
10000000000
 30
0
  9
$EXTMAX
 10
-10000000000
 20
-10000000000
 30
0
  9
$LIMMIN
 10
0
 20
0
  9
$LIMMAX
 10
420
 20
297
  9
$ORTHOMODE
 70
    0
  9
$REGENMODE
 70
    1
  9
$FILLMODE
 70
    1
  9
$QTEXTMODE
 70
    0
  9
$MIRRTEXT
 70
    0
  9
$LTSCALE
 40
1
  9
$ATTMODE
 70
    0
  9
$TEXTSIZE
 40
2.5
  9
$TRACEWID
 40
15.68
  9
$TEXTSTYLE
  7
STANDARD
  9
$CLAYER
  8
0
  9
$CELTYPE
  6
BYLAYER
  9
$CECOLOR
 62
  256
  9
$CELTSCALE
 40
1
  9
$DISPSILH
 70
    0
  9
$DIMSCALE
 40
2.5
  9
$DIMASZ
 40
2.5
  9
$DIMEXO
 40
0.625
  9
$DIMDLI
 40
3.75
  9
$DIMRND
 40
0
  9
$DIMDLE
 40
0
  9
$DIMEXE
 40
1.25
  9
$DIMTP
 40
0
  9
$DIMTM
 40
0
  9
$DIMTXT
 40
2.5
  9
$DIMCEN
 40
2.5
  9
$DIMTSZ
 40
0
  9
$DIMTOL
 70
    0
  9
$DIMLIM
 70
    0
  9
$DIMTIH
 70
    0
  9
$DIMTOH
 70
    0
  9
$DIMSE1
 70
    0
  9
$DIMSE2
 70
    0
  9
$DIMTAD
 70
    1
  9
$DIMZIN
 70
    8
  9
$DIMBLK
  1

  9
$DIMASO
 70
    1
  9
$DIMSHO
 70
    1
  9
$DIMPOST
  1

  9
$DIMAPOST
  1

  9
$DIMALT
 70
    0
  9
$DIMALTD
 70
    3
  9
$DIMALTF
 40
0.03937
  9
$DIMLFAC
 40
1
  9
$DIMTOFL
 70
    1
  9
$DIMTVP
 40
0
  9
$DIMTIX
 70
    0
  9
$DIMSOXD
 70
    0
  9
$DIMSAH
 70
    0
  9
$DIMBLK1
  1

  9
$DIMBLK2
  1

  9
$DIMSTYLE
  2
Standard
  9
$DIMCLRD
 70
    0
  9
$DIMCLRE
 70
    0
  9
$DIMCLRT
 70
    0
  9
$DIMTFAC
 40
1
  9
$DIMGAP
 40
0.625
  9
$DIMJUST
 70
    0
  9
$DIMSD1
 70
    0
  9
$DIMSD2
 70
    0
  9
$DIMTOLJ
 70
    0
  9
$DIMTZIN
 70
    8
  9
$DIMALTZ
 70
    0
  9
$DIMALTTZ
 70
    0
  9
$DIMUPT
 70
    0
  9
$DIMDEC
 70
    4
  9
$DIMTDEC
 70
    2
  9
$DIMALTU
 70
    2
  9
$DIMALTTD
 70
    3
  9
$DIMTXSTY
  7
STANDARD
  9
$DIMAUNIT
 70
    0
  9
$DIMADEC
 70
    0
  9
$DIMALTRND
 40
0
  9
$DIMAZIN
 70
    0
  9
$DIMDSEP
 70
   44
  9
$DIMATFIT
 70
    3
  9
$DIMFRAC
 70
    0
  9
$DIMLDRBLK
  1
STANDARD
  9
$DIMLUNIT
 70
    2
  9
$DIMLWD
 70
   -2
  9
$DIMLWE
 70
   -2
  9
$DIMTMOVE
 70
    0
  9
$DIMFXL
 40
1
  9
$DIMFXLON
 70
    0
  9
$DIMJOGANG
 40
0.7854
  9
$DIMTFILL
 70
    0
  9
$DIMTFILLCLR
 70
    0
  9
$DIMARCSYM
 70
    0
  9
$DIMLTYPE
  6

  9
$DIMLTEX1
  6

  9
$DIMLTEX2
  6

  9
$LUNITS
 70
    2
  9
$LUPREC
 70
    4
  9
$SKETCHINC
 40
1
  9
$FILLETRAD
 40
0
  9
$AUNITS
 70
    0
  9
$AUPREC
 70
    2
  9
$MENU
  1
.
  9
$ELEVATION
 40
0
  9
$PELEVATION
 40
0
  9
$THICKNESS
 40
0
  9
$LIMCHECK
 70
    0
  9
$CHAMFERA
 40
0
  9
$CHAMFERB
 40
0
  9
$CHAMFERC
 40
0
  9
$CHAMFERD
 40
0
  9
$SKPOLY
 70
    0
  9
$USRTIMER
 70
    1
  9
$ANGBASE
 50
0
  9
$ANGDIR
 70
    0
  9
$PDMODE
 70
   34
  9
$PDSIZE
 40
0
  9
$PLINEWID
 40
0
  9
$SPLFRAME
 70
    0
  9
$SPLINETYPE
 70
    2
  9
$SPLINESEGS
 70
    8
  9
$HANDSEED
  5
20000
  9
$SURFTAB1
 70
    6
  9
$SURFTAB2
 70
    6
  9
$SURFTYPE
 70
    6
  9
$SURFU
 70
    6
  9
$SURFV
 70
    6
  9
$UCSBASE
  2

  9
$UCSNAME
  2

  9
$UCSORG
 10
0
 20
0
 30
0
  9
$UCSXDIR
 10
1
 20
0
 30
0
  9
$UCSYDIR
 10
0
 20
1
 30
0
  9
$UCSORTHOREF
  2

  9
$UCSORTHOVIEW
 70
    0
  9
$UCSORGTOP
 10
0
 20
0
 30
0
  9
$UCSORGBOTTOM
 10
0
 20
0
 30
0
  9
$UCSORGLEFT
 10
0
 20
0
 30
0
  9
$UCSORGRIGHT
 10
0
 20
0
 30
0
  9
$UCSORGFRONT
 10
0
 20
0
 30
0
  9
$UCSORGBACK
 10
0
 20
0
 30
0
  9
$PUCSBASE
  2

  9
$PUCSNAME
  2

  9
$PUCSORG
 10
0
 20
0
 30
0
  9
$PUCSXDIR
 10
1
 20
0
 30
0
  9
$PUCSYDIR
 10
0
 20
1
 30
0
  9
$PUCSORTHOREF
  2

  9
$PUCSORTHOVIEW
 70
    0
  9
$PUCSORGTOP
 10
0
 20
0
 30
0
  9
$PUCSORGBOTTOM
 10
0
 20
0
 30
0
  9
$PUCSORGLEFT
 10
0
 20
0
 30
0
  9
$PUCSORGRIGHT
 10
0
 20
0
 30
0
  9
$PUCSORGFRONT
 10
0
 20
0
 30
0
  9
$PUCSORGBACK
 10
0
 20
0
 30
0
  9
$USERI1
 70
    0
  9
$USERI2
 70
    0
  9
$USERI3
 70
    0
  9
$USERI4
 70
    0
  9
$USERI5
 70
    0
  9
$USERR1
 40
0
  9
$USERR2
 40
0
  9
$USERR3
 40
0
  9
$USERR4
 40
0
  9
$USERR5
 40
0
  9
$WORLDVIEW
 70
    1
  9
$SHADEDGE
 70
    3
  9
$SHADEDIF
 70
   70
  9
$TILEMODE
 70
    1
  9
$MAXACTVP
 70
   64
  9
$PINSBASE
 10
0
 20
0
 30
0
  9
$PLIMCHECK
 70
    0
  9
$PEXTMIN
 10
0
 20
0
 30
0
  9
$PEXTMAX
 10
0
 20
0
 30
0
  9
$GRIDMODE
 70
    1
  9
$SNAPSTYLE
 70
    0
  9
$PLIMMIN
 10
0
 20
0
  9
$PLIMMAX
 10
210
 20
297
  9
$UNITMODE
 70
    0
  9
$VISRETAIN
 70
    1
  9
$PLINEGEN
 70
    0
  9
$PSLTSCALE
 70
    1
  9
$TREEDEPTH
 70
 3020
  9
$CMLSTYLE
  2
Standard
  9
$CMLJUST
 70
    0
  9
$CMLSCALE
 40
20
  9
$PROXYGRAPHICS
 70
    1
  9
$MEASUREMENT
 70
    1
  9
$CELWEIGHT
370
   -1
  9
$ENDCAPS
280
    0
  9
$JOINSTYLE
280
    0
  9
$LWDISPLAY
290
    0
  9
$INSUNITS
 70
    0
  9
$HYPERLINKBASE
  1

  9
$STYLESHEET
  1

  9
$XEDIT
290
    1
  9
$CEPSNTYPE
380
    0
  9
$PSTYLEMODE
290
    1
  9
$EXTNAMES
290
    1
  9
$PSVPSCALE
 40
0
  9
$OLESTARTUP
290
    0
  9
$SORTENTS
280
  127
  9
$INDEXCTL
280
    0
  9
$HIDETEXT
280
    1
  9
$XCLIPFRAME
290
    0
  9
$HALOGAP
280
    0
  9
$OBSCOLOR
 70
  257
  9
$OBSLTYPE
280
    0
  9
$INTERSECTIONDISPLAY
280
    0
  9
$INTERSECTIONCOLOR
 70
  257
  9
$DIMASSOC
280
    1
  9
$PROJECTNAME
  1

  9
$CAMERADISPLAY
290
    0
  9
$LENSLENGTH
 40
50
  9
$CAMERAHEIGHT
 40
0
  9
$STEPSPERSEC
 40
2
  9
$STEPSIZE
 40
50
  9
$3DDWFPREC
 40
2
  9
$PSOLWIDTH
 40
5
  9
$PSOLHEIGHT
 40
80
  9
$LOFTANG1
 40
1.570796326794897
  9
$LOFTANG2
 40
1.570796326794897
  9
$LOFTMAG1
 40
0
  9
$LOFTMAG2
 40
0
  9
$LOFTPARAM
 70
    7
  9
$LOFTNORMALS
280
    1
  9
$LATITUDE
 40
1
  9
$LONGITUDE
 40
1
  9
$NORTHDIRECTION
 40
0
  9
$TIMEZONE
 70
-8000
  9
$LIGHTGLYPHDISPLAY
280
    1
  9
$TILEMODELIGHTSYNCH
280
    1
  9
$SOLIDHIST
280
    1
  9
$SHOWHIST
280
    1
  9
$DWFFRAME
280
    2
  9
$DGNFRAME
280
    0
  9
$REALWORLDSCALE
290
    1
  9
$INTERFERECOLOR
 62
    1
  9
$CSHADOW
280
    0
  9
$SHADOWPLANELOCATION
 40
0
  0
ENDSEC
  0
SECTION
  2
CLASSES
  0
ENDSEC
  0
SECTION
  2
TABLES
  0
TABLE
  2
VPORT
  5
8
330
0
100
AcDbSymbolTable
 70
    1
  0
VPORT
  5
31
330
2
100
AcDbSymbolTableRecord
100
AcDbViewportTableRecord
  2
*ACTIVE
 70
    0
 10
0
 20
0
 11
1
 21
1
 12
118.993804320828
 22
72.77149188801839
 13
0
 23
0
 14
10
 24
10
 15
10
 25
10
 16
0
 26
0
 36
1
 17
0
 27
0
 37
0
 40
224.2355156864398
 41
1.308347529812606
 42
50
 43
0
 44
0
 50
0
 51
0
 71
    0
 72
  100
 73
    1
 74
    3
 75
    0
 76
    1
 77
    0
 78
    0
281
    0
 65
    1
110
0
120
0
130
0
111
1
121
0
131
0
112
0
122
1
132
0
 79
    0
146
0
348
10020
 60
    7
 61
    5
292
1
282
    1
141
0
142
0
 63
  250
421
3358443
  0
ENDTAB
  0
TABLE
  2
LTYPE
  5
5
330
0
100
AcDbSymbolTable
 70
    4
  0
LTYPE
  5
14
330
5
100
AcDbSymbolTableRecord
100
AcDbLinetypeTableRecord
  2
ByBlock
 70
    0
  3

 72
   65
 73
    0
 40
0
  0
LTYPE
  5
15
330
5
100
AcDbSymbolTableRecord
100
AcDbLinetypeTableRecord
  2
ByLayer
 70
    0
  3

 72
   65
 73
    0
 40
0
  0
LTYPE
  5
16
330
5
100
AcDbSymbolTableRecord
100
AcDbLinetypeTableRecord
  2
Continuous
 70
    0
  3
Solid line
 72
   65
 73
    0
 40
0
  0
LTYPE
  5
32
330
5
100
AcDbSymbolTableRecord
100
AcDbLinetypeTableRecord
  2
DOT
 70
    0
  3
Dot . . . . . . . . . . . . . . . . . . . . . .
 72
   65
 73
    2
 40
6.35
 49
0
 74
    0
 49
-6.35
 74
    0
  0
LTYPE
  5
33
330
5
100
AcDbSymbolTableRecord
100
AcDbLinetypeTableRecord
  2
DOTTINY
 70
    0
  3
Dot (.15x) .....................................
 72
   65
 73
    2
 40
0.9525
 49
0
 74
    0
 49
-0.9525
 74
    0
  0
LTYPE
  5
34
330
5
100
AcDbSymbolTableRecord
100
AcDbLinetypeTableRecord
  2
DOT2
 70
    0
  3
Dot (.5x) .....................................
 72
   65
 73
    2
 40
3.175
 49
0
 74
    0
 49
-3.175
 74
    0
  0
LTYPE
  5
35
330
5
100
AcDbSymbolTableRecord
100
AcDbLinetypeTableRecord
  2
DOTX2
 70
    0
  3
Dot (2x) .  .  .  .  .  .  .  .  .  .  .  .  .
 72
   65
 73
    2
 40
12.7
 49
0
 74
    0
 49
-12.7
 74
    0
  0
LTYPE
  5
36
330
5
100
AcDbSymbolTableRecord
100
AcDbLinetypeTableRecord
  2
DASHED
 70
    0
  3
Dashed _ _ _ _ _ _ _ _ _ _ _ _ _ _ _ _ _
 72
   65
 73
    2
 40
19.05
 49
12.7
 74
    0
 49
-6.35
 74
    0
  0
LTYPE
  5
37
330
5
100
AcDbSymbolTableRecord
100
AcDbLinetypeTableRecord
  2
DASHEDTINY
 70
    0
  3
Dashed (.15x) _ _ _ _ _ _ _ _ _ _ _ _ _ _ _ _ _
 72
   65
 73
    2
 40
2.8575
 49
1.905
 74
    0
 49
-0.9525
 74
    0
  0
LTYPE
  5
38
330
5
100
AcDbSymbolTableRecord
100
AcDbLinetypeTableRecord
  2
DASHED2
 70
    0
  3
Dashed (.5x) _ _ _ _ _ _ _ _ _ _ _ _ _ _ _ _ _
 72
   65
 73
    2
 40
9.524999999999999
 49
6.35
 74
    0
 49
-3.175
 74
    0
  0
LTYPE
  5
39
330
5
100
AcDbSymbolTableRecord
100
AcDbLinetypeTableRecord
  2
DASHEDX2
 70
    0
  3
Dashed (2x) ____  ____  ____  ____  ____  ___
 72
   65
 73
    2
 40
38.09999999999999
 49
25.4
 74
    0
 49
-12.7
 74
    0
  0
LTYPE
  5
3A
330
5
100
AcDbSymbolTableRecord
100
AcDbLinetypeTableRecord
  2
DASHDOT
 70
    0
  3
Dash dot __ . __ . __ . __ . __ . __ . __ . __
 72
   65
 73
    4
 40
25.4
 49
12.7
 74
    0
 49
-6.35
 74
    0
 49
0
 74
    0
 49
-6.35
 74
    0
  0
LTYPE
  5
3B
330
5
100
AcDbSymbolTableRecord
100
AcDbLinetypeTableRecord
  2
DASHDOTTINY
 70
    0
  3
Dash dot (.15x) _._._._._._._._._._._._._._._.
 72
   65
 73
    4
 40
3.81
 49
1.905
 74
    0
 49
-0.9525
 74
    0
 49
0
 74
    0
 49
-0.9525
 74
    0
  0
LTYPE
  5
3C
330
5
100
AcDbSymbolTableRecord
100
AcDbLinetypeTableRecord
  2
DASHDOT2
 70
    0
  3
Dash dot (.5x) _._._._._._._._._._._._._._._.
 72
   65
 73
    4
 40
12.7
 49
6.35
 74
    0
 49
-3.175
 74
    0
 49
0
 74
    0
 49
-3.175
 74
    0
  0
LTYPE
  5
3D
330
5
100
AcDbSymbolTableRecord
100
AcDbLinetypeTableRecord
  2
DASHDOTX2
 70
    0
  3
Dash dot (2x) ____  .  ____  .  ____  .  ___
 72
   65
 73
    4
 40
50.8
 49
25.4
 74
    0
 49
-12.7
 74
    0
 49
0
 74
    0
 49
-12.7
 74
    0
  0
LTYPE
  5
3E
330
5
100
AcDbSymbolTableRecord
100
AcDbLinetypeTableRecord
  2
DIVIDE
 70
    0
  3
Divide ____ . . ____ . . ____ . . ____ . . ____
 72
   65
 73
    6
 40
31.75
 49
12.7
 74
    0
 49
-6.35
 74
    0
 49
0
 74
    0
 49
-6.35
 74
    0
 49
0
 74
    0
 49
-6.35
 74
    0
  0
LTYPE
  5
3F
330
5
100
AcDbSymbolTableRecord
100
AcDbLinetypeTableRecord
  2
DIVIDETINY
 70
    0
  3
Divide (.15x) __..__..__..__..__..__..__..__.._
 72
   65
 73
    6
 40
4.7625
 49
1.905
 74
    0
 49
-0.9525
 74
    0
 49
0
 74
    0
 49
-0.9525
 74
    0
 49
0
 74
    0
 49
-0.9525
 74
    0
  0
LTYPE
  5
40
330
5
100
AcDbSymbolTableRecord
100
AcDbLinetypeTableRecord
  2
DIVIDE2
 70
    0
  3
Divide (.5x) __..__..__..__..__..__..__..__.._
 72
   65
 73
    6
 40
15.875
 49
6.35
 74
    0
 49
-3.175
 74
    0
 49
0
 74
    0
 49
-3.175
 74
    0
 49
0
 74
    0
 49
-3.175
 74
    0
  0
LTYPE
  5
41
330
5
100
AcDbSymbolTableRecord
100
AcDbLinetypeTableRecord
  2
DIVIDEX2
 70
    0
  3
Divide (2x) ________  .  .  ________  .  .  _
 72
   65
 73
    6
 40
63.5
 49
25.4
 74
    0
 49
-12.7
 74
    0
 49
0
 74
    0
 49
-12.7
 74
    0
 49
0
 74
    0
 49
-12.7
 74
    0
  0
LTYPE
  5
42
330
5
100
AcDbSymbolTableRecord
100
AcDbLinetypeTableRecord
  2
BORDER
 70
    0
  3
Border __ __ . __ __ . __ __ . __ __ . __ __ .
 72
   65
 73
    6
 40
44.45
 49
12.7
 74
    0
 49
-6.35
 74
    0
 49
12.7
 74
    0
 49
-6.35
 74
    0
 49
0
 74
    0
 49
-6.35
 74
    0
  0
LTYPE
  5
43
330
5
100
AcDbSymbolTableRecord
100
AcDbLinetypeTableRecord
  2
BORDERTINY
 70
    0
  3
Border (.15x) __.__.__.__.__.__.__.__.__.__.__.
 72
   65
 73
    6
 40
6.6675
 49
1.905
 74
    0
 49
-0.9525
 74
    0
 49
1.905
 74
    0
 49
-0.9525
 74
    0
 49
0
 74
    0
 49
-0.9525
 74
    0
  0
LTYPE
  5
44
330
5
100
AcDbSymbolTableRecord
100
AcDbLinetypeTableRecord
  2
BORDER2
 70
    0
  3
Border (.5x) __.__.__.__.__.__.__.__.__.__.__.
 72
   65
 73
    6
 40
22.225
 49
6.35
 74
    0
 49
-3.175
 74
    0
 49
6.35
 74
    0
 49
-3.175
 74
    0
 49
0
 74
    0
 49
-3.175
 74
    0
  0
LTYPE
  5
45
330
5
100
AcDbSymbolTableRecord
100
AcDbLinetypeTableRecord
  2
BORDERX2
 70
    0
  3
Border (2x) ____  ____  .  ____  ____  .  ___
 72
   65
 73
    6
 40
88.89999999999999
 49
25.4
 74
    0
 49
-12.7
 74
    0
 49
25.4
 74
    0
 49
-12.7
 74
    0
 49
0
 74
    0
 49
-12.7
 74
    0
  0
LTYPE
  5
46
330
5
100
AcDbSymbolTableRecord
100
AcDbLinetypeTableRecord
  2
CENTER
 70
    0
  3
Center ____ _ ____ _ ____ _ ____ _ ____ _ ____
 72
   65
 73
    4
 40
50.8
 49
31.75
 74
    0
 49
-6.35
 74
    0
 49
6.35
 74
    0
 49
-6.35
 74
    0
  0
LTYPE
  5
47
330
5
100
AcDbSymbolTableRecord
100
AcDbLinetypeTableRecord
  2
CENTERTINY
 70
    0
  3
Center (.15x) ___ _ ___ _ ___ _ ___ _ ___ _ ___
 72
   65
 73
    4
 40
7.62
 49
4.7625
 74
    0
 49
-0.9525
 74
    0
 49
0.9525
 74
    0
 49
-0.9525
 74
    0
  0
LTYPE
  5
48
330
5
100
AcDbSymbolTableRecord
100
AcDbLinetypeTableRecord
  2
CENTER2
 70
    0
  3
Center (.5x) ___ _ ___ _ ___ _ ___ _ ___ _ ___
 72
   65
 73
    4
 40
28.575
 49
19.05
 74
    0
 49
-3.175
 74
    0
 49
3.175
 74
    0
 49
-3.175
 74
    0
  0
LTYPE
  5
49
330
5
100
AcDbSymbolTableRecord
100
AcDbLinetypeTableRecord
  2
CENTERX2
 70
    0
  3
Center (2x) ________  __  ________  __  _____
 72
   65
 73
    4
 40
101.6
 49
63.5
 74
    0
 49
-12.7
 74
    0
 49
12.7
 74
    0
 49
-12.7
 74
    0
  0
ENDTAB
  0
TABLE
  2
LAYER
  5
2
330
0
100
AcDbSymbolTable
 70
    1
  0
LAYER
  5
10
330
2
100
AcDbSymbolTableRecord
100
AcDbLayerTableRecord
  2
0
 70
    0
 62
    7
  6
CONTINUOUS
370
    0
390
F
  0
LAYER
  5
4A
330
2
100
AcDbSymbolTableRecord
100
AcDbLayerTableRecord
  2
border
 70
    0
 62
    7
  6
CONTINUOUS
370
   25
390
F
  0
LAYER
  5
4B
330
2
100
AcDbSymbolTableRecord
100
AcDbLayerTableRecord
  2
default
 70
    0
 62
    7
  6
CONTINUOUS
370
   -3
390
F
  0
LAYER
  5
4C
330
2
100
AcDbSymbolTableRecord
100
AcDbLayerTableRecord
  2
hatch
 70
    0
 62
  113
  6
CONTINUOUS
370
   18
390
F
  0
LAYER
  5
4D
330
2
100
AcDbSymbolTableRecord
100
AcDbLayerTableRecord
  2
text
 70
    0
 62
    4
  6
CONTINUOUS
370
   18
390
F
  0
ENDTAB
  0
TABLE
  2
STYLE
  5
3
330
0
100
AcDbSymbolTable
 70
    3
  0
STYLE
  5
4E
330
2
100
AcDbSymbolTableRecord
100
AcDbTextStyleTableRecord
  2
iso8859-11
 70
    0
 40
0
 41
1
 50
0
 71
    0
 42
1
  3
iso8859-11
  4

  0
STYLE
  5
4F
330
2
100
AcDbSymbolTableRecord
100
AcDbTextStyleTableRecord
  2
normal#0.200000#1.200000
 70
    0
 40
0
 41
1
 50
0
 71
    0
 42
1
  3
normal#0.200000#1.200000
  4

  0
STYLE
  5
50
330
2
100
AcDbSymbolTableRecord
100
AcDbTextStyleTableRecord
  2
normal#0.500000#1.200000
 70
    0
 40
0
 41
1
 50
0
 71
    0
 42
1
  3
normal#0.500000#1.200000
  4

  0
STYLE
  5
51
330
2
100
AcDbSymbolTableRecord
100
AcDbTextStyleTableRecord
  2
normal#0.500000#0.900000
 70
    0
 40
0
 41
1
 50
0
 71
    0
 42
1
  3
normal#0.500000#0.900000
  4

  0
STYLE
  5
52
330
2
100
AcDbSymbolTableRecord
100
AcDbTextStyleTableRecord
  2
normal#0.500000#1.500000
 70
    0
 40
0
 41
1
 50
0
 71
    0
 42
1
  3
normal#0.500000#1.500000
  4

  0
STYLE
  5
53
330
2
100
AcDbSymbolTableRecord
100
AcDbTextStyleTableRecord
  2
iso
 70
    0
 40
0
 41
1
 50
0
 71
    0
 42
1
  3
iso
  4

  0
STYLE
  5
54
330
2
100
AcDbSymbolTableRecord
100
AcDbTextStyleTableRecord
  2
Standard
 70
    0
 40
0
 41
1
 50
0
 71
    0
 42
1
  3
txt
  4

  0
ENDTAB
  0
TABLE
  2
VIEW
  5
6
330
0
100
AcDbSymbolTable
 70
    0
  0
ENDTAB
  0
TABLE
  2
UCS
  5
7
330
0
100
AcDbSymbolTable
 70
    0
  0
ENDTAB
  0
TABLE
  2
APPID
  5
9
330
0
100
AcDbSymbolTable
 70
    1
  0
APPID
  5
12
330
9
100
AcDbSymbolTableRecord
100
AcDbRegAppTableRecord
  2
ACAD
 70
    0
  0
APPID
  5
55
330
9
100
AcDbSymbolTableRecord
100
AcDbRegAppTableRecord
  2
LibreCad
 70
    0
  0
ENDTAB
  0
TABLE
  2
DIMSTYLE
  5
A
330
0
100
AcDbSymbolTable
 70
    1
100
AcDbDimStyleTable
 71
    1
  0
DIMSTYLE
105
56
330
A
100
AcDbSymbolTableRecord
100
AcDbDimStyleTableRecord
  2
Standard
 70
    0
 40
2.5
 41
2.5
 42
0.625
 43
0.38
 44
1.25
 45
0
 46
0
 47
0
 48
0
 49
1
140
2.5
141
0.09
142
0
143
25.4
144
1
145
0
146
1
147
0.625
148
0
 71
    0
 72
    0
 73
    0
 74
    1
 75
    0
 76
    0
 77
    0
 78
    8
 79
    0
170
    0
171
    2
172
    0
173
    0
174
    0
175
    0
176
    0
177
    0
178
    0
179
    0
271
    4
272
    4
273
    2
274
    2
275
    0
276
    0
277
    2
278
   44
279
    0
280
    0
281
    0
282
    0
283
    1
284
    0
285
    0
286
    0
288
    0
289
    3
340
STANDARD
341

371
   -2
372
   -2
  0
ENDTAB
  0
TABLE
  2
BLOCK_RECORD
  5
1
330
0
100
AcDbSymbolTable
 70
    2
  0
BLOCK_RECORD
  5
1F
330
1
100
AcDbSymbolTableRecord
100
AcDbBlockTableRecord
  2
*Model_Space
 70
    0
280
    1
281
    0
  0
BLOCK_RECORD
  5
1E
330
1
100
AcDbSymbolTableRecord
100
AcDbBlockTableRecord
  2
*Paper_Space
 70
    0
280
    1
281
    0
  0
BLOCK_RECORD
  5
57
330
1
100
AcDbSymbolTableRecord
100
AcDbBlockTableRecord
  2
a3
 70
    0
280
    1
281
    0
  0
ENDTAB
  0
ENDSEC
  0
SECTION
  2
BLOCKS
  0
BLOCK
  5
20
330
1F
100
AcDbEntity
  8
0
100
AcDbBlockBegin
  2
*Model_Space
 70
    0
 10
0
 20
0
 30
0
  3
*Model_Space
  1

  0
ENDBLK
  5
21
330
1F
100
AcDbEntity
  8
0
100
AcDbBlockEnd
  0
BLOCK
  5
1C
330
1B
100
AcDbEntity
  8
0
100
AcDbBlockBegin
  2
*Paper_Space
 70
    0
 10
0
 20
0
 30
0
  3
*Paper_Space
  1

  0
ENDBLK
  5
1D
330
1F
100
AcDbEntity
  8
0
100
AcDbBlockEnd
  0
BLOCK
  5
58
330
57
100
AcDbEntity
  8
0
100
AcDbBlockBegin
  2
a3
 70
    0
 10
0
 20
0
  3
a3
  1

  0
HATCH
  5
5A
100
AcDbEntity
  8
hatch
  6
ByLayer
 62
  256
370
   -1
100
AcDbHatch
 10
0
 20
0
 30
0
210
0
220
0
230
1
  2
ansi31
 70
    0
 71
    0
 91
    1
 92
    0
 93
    3
 72
    1
 10
124.999976
 20
287.0000239999999
 11
122.4999759999999
 21
291.3301510189223
 72
    1
 10
122.4999759999999
 20
291.3301510189223
 11
127.499976
 21
291.3301510189222
 72
    1
 10
127.499976
 20
291.3301510189222
 11
124.999976
 21
287.0000239999999
 97
    0
 75
    0
 76
    1
 52
4.71238898038469
 41
0.5
 77
    0
 78
    0
 98
    0
  0
HATCH
  5
5B
100
AcDbEntity
  8
hatch
  6
ByLayer
 62
  256
370
   -1
100
AcDbHatch
 10
0
 20
0
 30
0
210
0
220
0
230
1
  2
ansi31
 70
    0
 71
    0
 91
    1
 92
    0
 93
    3
 72
    1
 10
229.9999760000001
 20
287.0000239999999
 11
227.4999760000001
 21
291.3301510189222
 72
    1
 10
227.4999760000001
 20
291.3301510189222
 11
232.4999759999999
 21
291.3301510189223
 72
    1
 10
232.4999759999999
 20
291.3301510189223
 11
229.9999760000001
 21
287.0000239999999
 97
    0
 75
    0
 76
    1
 52
4.71238898038469
 41
0.5
 77
    0
 78
    0
 98
    0
  0
HATCH
  5
5C
100
AcDbEntity
  8
hatch
  6
ByLayer
 62
  256
370
   -1
100
AcDbHatch
 10
0
 20
0
 30
0
210
0
220
0
230
1
  2
ansi31
 70
    0
 71
    0
 91
    1
 92
    0
 93
    3
 72
    1
 10
314.9999999999999
 20
287.0000240000001
 11
312.4999999999999
 21
291.3301510189223
 72
    1
 10
312.4999999999999
 20
291.3301510189223
 11
317.4999999999999
 21
291.3301510189223
 72
    1
 10
317.4999999999999
 20
291.3301510189223
 11
314.9999999999999
 21
287.0000240000001
 97
    0
 75
    0
 76
    1
 52
4.71238898038469
 41
0.5
 77
    0
 78
    0
 98
    0
  0
HATCH
  5
5D
100
AcDbEntity
  8
hatch
  6
ByLayer
 62
  256
370
   -1
100
AcDbHatch
 10
0
 20
0
 30
0
210
0
220
0
230
1
  2
ansi31
 70
    0
 71
    0
 91
    1
 92
    0
 93
    3
 72
    1
 10
315
 20
9.999976000000061
 11
312.5
 21
5.669848981077877
 72
    1
 10
312.5
 20
5.669848981077877
 11
317.5
 21
5.669848981077905
 72
    1
 10
317.5
 20
5.669848981077905
 11
315
 21
9.999976000000061
 97
    0
 75
    0
 76
    1
 52
4.71238898038469
 41
0.5
 77
    0
 78
    0
 98
    0
  0
HATCH
  5
5E
100
AcDbEntity
  8
hatch
  6
ByLayer
 62
  256
370
   -1
100
AcDbHatch
 10
0
 20
0
 30
0
210
0
220
0
230
1
  2
ansi31
 70
    0
 71
    0
 91
    1
 92
    0
 93
    3
 72
    1
 10
229.9999760000001
 20
9.999976000000089
 11
227.4999760000001
 21
5.669848981077877
 72
    1
 10
227.4999760000001
 20
5.669848981077877
 11
232.4999760000001
 21
5.669848981077877
 72
    1
 10
232.4999760000001
 20
5.669848981077877
 11
229.9999760000001
 21
9.999976000000089
 97
    0
 75
    0
 76
    1
 52
4.71238898038469
 41
0.5
 77
    0
 78
    0
 98
    0
  0
HATCH
  5
5F
100
AcDbEntity
  8
hatch
  6
ByLayer
 62
  256
370
   -1
100
AcDbHatch
 10
0
 20
0
 30
0
210
0
220
0
230
1
  2
ansi31
 70
    0
 71
    0
 91
    1
 92
    0
 93
    3
 72
    1
 10
124.9999760000001
 20
9.999976000000061
 11
122.499976
 21
5.669848981077848
 72
    1
 10
122.499976
 20
5.669848981077848
 11
127.4999760000001
 21
5.669848981077848
 72
    1
 10
127.4999760000001
 20
5.669848981077848
 11
124.9999760000001
 21
9.999976000000061
 97
    0
 75
    0
 76
    1
 52
4.71238898038469
 41
0.5
 77
    0
 78
    0
 98
    0
  0
HATCH
  5
60
100
AcDbEntity
  8
hatch
  6
ByLayer
 62
  256
370
   -1
100
AcDbHatch
 10
0
 20
0
 30
0
210
0
220
0
230
1
  2
ansi31
 70
    0
 71
    0
 91
    1
 92
    0
 93
    3
 72
    1
 10
410.0000000000002
 20
148.5000000000001
 11
414.3301270189227
 21
146.0000000000002
 72
    1
 10
414.3301270189227
 20
146.0000000000002
 11
414.3301270189222
 21
150.9999999999998
 72
    1
 10
414.3301270189222
 20
150.9999999999998
 11
410.0000000000002
 21
148.5000000000001
 97
    0
 75
    0
 76
    1
 52
3.141592653589793
 41
0.5
 77
    0
 78
    0
 98
    0
  0
HATCH
  5
61
100
AcDbEntity
  8
hatch
  6
ByLayer
 62
  256
370
   -1
100
AcDbHatch
 10
0
 20
0
 30
0
210
0
220
0
230
1
  2
ansi31
 70
    0
 71
    0
 91
    1
 92
    0
 93
    3
 72
    1
 10
19.99999999999989
 20
148.5
 11
15.66987298107769
 21
146
 72
    1
 10
15.66987298107769
 20
146
 11
15.66987298107769
 21
151
 72
    1
 10
15.66987298107769
 20
151
 11
19.99999999999989
 21
148.5
 97
    0
 75
    0
 76
    1
 52
0
 41
0.5
 77
    0
 78
    0
 98
    0
  0
LINE
  5
62
100
AcDbEntity
  8
border
  6
CONTINUOUS
 62
    7
370
    0
100
AcDbLine
 10
20.00000000000002
 20
287
 11
20
 21
10
  0
LINE
  5
63
100
AcDbEntity
  8
border
  6
CONTINUOUS
 62
    7
370
    0
100
AcDbLine
 10
20
 20
10
 11
410
 21
10
  0
LINE
  5
64
100
AcDbEntity
  8
border
  6
CONTINUOUS
 62
    7
370
    0
100
AcDbLine
 10
373.600021
 20
65.250094
 11
373.600021
 21
58.875052
  0
LINE
  5
65
100
AcDbEntity
  8
border
  6
CONTINUOUS
 62
    7
370
    0
100
AcDbLine
 10
397
 20
26.999987
 11
397
 21
14.250042
  0
LINE
  5
66
100
AcDbEntity
  8
border
  6
CONTINUOUS
 62
    7
370
    0
100
AcDbLine
 10
365.8000340000001
 20
14.250107
 11
365.8000340000001
 21
10.000098
  0
LINE
  5
67
100
AcDbEntity
  8
border
  6
CONTINUOUS
 62
    7
370
    0
100
AcDbLine
 10
303.400024
 20
65.250097
 11
303.400024
 21
27.000059
  0
LINE
  5
68
100
AcDbEntity
  8
border
  6
CONTINUOUS
 62
    7
370
    0
100
AcDbLine
 10
287.8000179999999
 20
48.25009
 11
287.8000179999999
 21
27.000136
  0
LINE
  5
69
100
AcDbEntity
  8
border
  6
CONTINUOUS
 62
    7
370
    0
100
AcDbLine
 10
277.400024
 20
65.25009
 11
277.400024
 21
10.000094
  0
LINE
  5
6A
100
AcDbEntity
  8
border
  6
CONTINUOUS
 62
    7
370
    0
100
AcDbLine
 10
321.6000059999999
 20
65.250139
 11
321.6000059999999
 21
10.000097
  0
LINE
  5
6B
100
AcDbEntity
  8
border
  6
CONTINUOUS
 62
    7
370
    0
100
AcDbLine
 10
269.6000059999999
 20
48.250082
 11
269.6000369999999
 21
10.000099
  0
LINE
  5
6C
100
AcDbEntity
  8
border
  6
CONTINUOUS
 62
    7
370
    0
100
AcDbLine
 10
256.6000059999999
 20
48.250101
 11
256.6000059999999
 21
10.000091
  0
LINE
  5
6D
100
AcDbEntity
  8
border
  6
CONTINUOUS
 62
    7
370
    0
100
AcDbLine
 10
230.600006
 20
48.250113
 11
230.600006
 21
10.000093
  0
LINE
  5
6E
100
AcDbEntity
  8
border
  6
CONTINUOUS
 62
    7
370
    0
100
AcDbLine
 10
222.800018
 20
31.250075
 11
321.6000059999999
 21
31.250092
  0
LINE
  5
6F
100
AcDbEntity
  8
border
  6
CONTINUOUS
 62
    7
370
    0
100
AcDbLine
 10
222.800018
 20
35.50008
 11
321.6000059999999
 21
35.500115
  0
LINE
  5
70
100
AcDbEntity
  8
border
  6
CONTINUOUS
 62
    7
370
    0
100
AcDbLine
 10
222.800018
 20
39.750116
 11
321.6000369999999
 21
39.750067
  0
LINE
  5
71
100
AcDbEntity
  8
border
  6
CONTINUOUS
 62
    7
370
    0
100
AcDbLine
 10
222.800018
 20
44.000097
 11
321.6000369999999
 21
44.000086
  0
LINE
  5
72
100
AcDbEntity
  8
border
  6
CONTINUOUS
 62
    7
370
    0
100
AcDbLine
 10
222.800018
 20
22.750055
 11
277.400024
 21
22.750061
  0
LINE
  5
73
100
AcDbEntity
  8
border
  6
CONTINUOUS
 62
    7
370
    0
100
AcDbLine
 10
222.800018
 20
18.500054
 11
277.400024
 21
18.500122
  0
LINE
  5
74
100
AcDbEntity
  8
border
  6
CONTINUOUS
 62
    7
370
    0
100
AcDbLine
 10
321.6000059999999
 20
58.87512
 11
410
 21
58.87504
  0
LINE
  5
75
100
AcDbEntity
  8
border
  6
CONTINUOUS
 62
    7
370
    0
100
AcDbLine
 10
222.800018
 20
14.250083
 11
410
 21
14.25009
  0
LINE
  5
76
100
AcDbEntity
  8
border
  6
CONTINUOUS
 62
    7
370
    0
100
AcDbLine
 10
222.800018
 20
48.250086
 11
410.000061
 21
48.250101
  0
LINE
  5
77
100
AcDbEntity
  8
border
  6
CONTINUOUS
 62
    7
370
    0
100
AcDbLine
 10
222.800018
 20
27.000107
 11
410.000061
 21
26.999993
  0
LINE
  5
78
100
AcDbEntity
  8
border
  6
CONTINUOUS
 62
    7
370
    0
100
AcDbLine
 10
222.800018
 20
65.250086
 11
410
 21
65.25016599999999
  0
LINE
  5
79
100
AcDbEntity
  8
border
  6
CONTINUOUS
 62
    7
370
    0
100
AcDbLine
 10
410.000061
 20
65.250181
 11
410
 21
10
  0
LINE
  5
7A
100
AcDbEntity
  8
border
  6
CONTINUOUS
 62
    7
370
    0
100
AcDbLine
 10
410
 20
10
 11
222.800018
 21
10.000101
  0
LINE
  5
7B
100
AcDbEntity
  8
border
  6
CONTINUOUS
 62
    7
370
    0
100
AcDbLine
 10
222.800018
 20
65.250086
 11
222.800018
 21
10.000101
  0
LINE
  5
7C
100
AcDbEntity
  8
default
  6
DASHDOT
 62
    7
370
    0
100
AcDbLine
 10
280.2711420000001
 20
57.242876
 11
300.2711420000001
 21
57.242876
  0
CIRCLE
  5
7D
100
AcDbEntity
  8
default
  6
CONTINUOUS
 62
    7
370
    0
100
AcDbCircle
 10
295.4711420000001
 20
57.242876
 40
2.8
  0
CIRCLE
  5
7E
100
AcDbEntity
  8
default
  6
CONTINUOUS
 62
    7
370
    0
100
AcDbCircle
 10
295.4711420000001
 20
57.242876
 40
1.6
  0
LINE
  5
7F
100
AcDbEntity
  8
default
  6
CONTINUOUS
 62
    7
370
    0
100
AcDbLine
 10
282.6711419999999
 20
58.842876
 11
282.6711419999999
 21
55.642876
  0
LINE
  5
80
100
AcDbEntity
  8
default
  6
CONTINUOUS
 62
    7
370
    0
100
AcDbLine
 10
282.6711419999999
 20
55.642876
 11
289.071142
 21
54.442876
  0
LINE
  5
81
100
AcDbEntity
  8
default
  6
CONTINUOUS
 62
    7
370
    0
100
AcDbLine
 10
289.071142
 20
60.042876
 11
289.071142
 21
54.442876
  0
LINE
  5
82
100
AcDbEntity
  8
default
  6
CONTINUOUS
 62
    7
370
    0
100
AcDbLine
 10
282.6711419999999
 20
58.842876
 11
289.071142
 21
60.042876
  0
LINE
  5
83
100
AcDbEntity
  8
default
  6
DASHDOT
 62
    7
370
    0
100
AcDbLine
 10
295.4711420000001
 20
52.442876
 11
295.4711420000001
 21
62.042876
  0
MTEXT
  5
84
100
AcDbEntity
  8
text
  6
ByLayer
 62
  256
370
   -1
100
AcDbMText
 10
322.726257
 20
60.81260492786925
 30
0
 40
2.5
 41
18.88984131895054
 71
    7
 72
    5
  1
scale  1 : 1
  7
normal#0.500000#1.500000
210
0
220
0
230
1
 50
0
 73
    1
 44
0.96
  0
MTEXT
  5
85
100
AcDbEntity
  8
text
  6
ByLayer
 62
  256
370
   -1
100
AcDbMText
 10
374.726242
 20
60.53487722222222
 30
0
 40
2.5
 41
9.722224238102887
 71
    7
 72
    5
  1
(mass)
  7
normal#0.500000#1.500000
210
0
220
0
230
1
 50
0
 73
    1
 44
0.96
  0
MTEXT
  5
86
100
AcDbEntity
  8
text
  6
ByLayer
 62
  256
370
   -1
100
AcDbMText
 10
322.7620850000001
 20
54.51309666666666
 30
0
 40
2.5
 41
38.68055628571858
 71
    7
 72
    5
  1
(material, specification)
  7
normal#0.500000#1.500000
210
0
220
0
230
1
 50
0
 73
    1
 44
0.96
  0
MTEXT
  5
87
100
AcDbEntity
  8
text
  6
ByLayer
 62
  256
370
   -1
100
AcDbMText
 10
290.6053770000001
 20
44.87508999999989
 30
0
 40
2.5
 41
6.6666666666669
 71
    7
 72
    5
  1
date
  7
normal#0.500000#1.200000
210
0
220
0
230
1
 50
0
 73
    1
 44
0.96
  0
MTEXT
  5
88
100
AcDbEntity
  8
text
  6
ByLayer
 62
  256
370
   -1
100
AcDbMText
 10
308.1733400000001
 20
44.87508199999989
 30
0
 40
2.5
 41
7.500000000000348
 71
    7
 72
    5
  1
name
  7
normal#0.500000#1.200000
210
0
220
0
230
1
 50
0
 73
    1
 44
0.96
  0
MTEXT
  5
89
100
AcDbEntity
  8
text
  6
ByLayer
 62
  256
370
   -1
100
AcDbMText
 10
277.713043
 20
39.79171466666655
 30
0
 40
2.5
 41
8.611112396829338
 71
    7
 72
    5
  1
desig.
  7
normal#0.500000#1.200000
210
0
220
0
230
1
 50
0
 73
    1
 44
0.96
  0
MTEXT
  5
8A
100
AcDbEntity
  8
text
  6
ByLayer
 62
  256
370
   -1
100
AcDbMText
 10
277.898956
 20
36.37514499999989
 30
0
 40
2.5
 41
11.38888888888912
 71
    7
 72
    5
  1
check'd
  7
normal#0.500000#1.200000
210
0
220
0
230
1
 50
0
 73
    1
 44
0.96
  0
MTEXT
  5
8B
100
AcDbEntity
  8
text
  6
ByLayer
 62
  256
370
   -1
100
AcDbMText
 10
277.898956
 20
32.12510899999989
 30
0
 40
2.5
 41
7.500000000000234
 71
    7
 72
    5
  1
auth.
  7
normal#0.500000#1.200000
210
0
220
0
230
1
 50
0
 73
    1
 44
0.96
  0
MTEXT
  5
8C
100
AcDbEntity
  8
text
  6
ByLayer
 62
  256
370
   -1
100
AcDbMText
 10
223.114746
 20
10.87509599999988
 30
0
 40
2.5
 41
3.888888888888967
 71
    7
 72
    5
  1
loc
  7
normal#0.500000#1.200000
210
0
220
0
230
1
 50
0
 73
    1
 44
0.96
  0
MTEXT
  5
8D
100
AcDbEntity
  8
text
  6
ByLayer
 62
  256
370
   -1
100
AcDbMText
 10
236.185455
 20
10.04176166666655
 30
0
 40
2.5
 41
10.55555555555614
 71
    7
 72
    5
  1
change
  7
normal#0.500000#1.200000
210
0
220
0
230
1
 50
0
 73
    1
 44
0.96
  0
MTEXT
  5
8E
100
AcDbEntity
  8
text
  6
ByLayer
 62
  256
370
   -1
100
AcDbMText
 10
258.411652
 20
10.87513199999989
 30
0
 40
2.5
 41
6.6666666666669
 71
    7
 72
    5
  1
date
  7
normal#0.500000#1.200000
210
0
220
0
230
1
 50
0
 73
    1
 44
0.96
  0
MTEXT
  5
8F
100
AcDbEntity
  8
text
  6
ByLayer
 62
  256
370
   -1
100
AcDbMText
 10
269.6750489999999
 20
10.87506499999988
 30
0
 40
2.5
 41
7.500000000000348
 71
    7
 72
    5
  1
name
  7
normal#0.200000#1.200000
210
0
220
0
230
1
 50
0
 73
    1
 44
0.96
  0
MTEXT
  5
90
100
AcDbEntity
  8
text
  6
ByLayer
 62
  256
370
   -1
100
AcDbMText
 10
278.6523440000001
 20
10.04172966666655
 30
0
 40
2.5
 41
11.38888888888901
 71
    7
 72
    5
  1
project
  7
normal#0.500000#1.200000
210
0
220
0
230
1
 50
0
 73
    1
 44
0.96
  0
MTEXT
  5
91
100
AcDbEntity
  8
text
  6
ByLayer
 62
  256
370
   -1
100
AcDbMText
 10
323.2767329999999
 20
10.04178766666667
 30
0
 40
2.5
 41
13.33333461905145
 71
    7
 72
    5
  1
replaces
  7
normal#0.500000#1.500000
210
0
220
0
230
1
 50
0
 73
    1
 44
0.96
  0
MTEXT
  5
92
100
AcDbEntity
  8
text
  6
ByLayer
 62
  256
370
   -1
100
AcDbMText
 10
367.4767300000001
 20
10.04186066666667
 30
0
 40
2.5
 41
19.09722222222245
 71
    7
 72
    5
  1
replaced by
  7
normal#0.500000#1.500000
210
0
220
0
230
1
 50
0
 73
    1
 44
0.96
  0
MTEXT
  5
93
100
AcDbEntity
  8
text
  6
ByLayer
 62
  256
370
   -1
100
AcDbMText
 10
399.839905
 20
15.2375699422954
 30
0
 40
2
 41
6.889650832938207
 71
    7
 72
    5
  1
sheet
  7
normal#0.500000#0.900000
210
0
220
0
230
1
 50
0
 73
    1
 44
0.96
  0
MTEXT
  5
94
100
AcDbEntity
  8
text
  6
ByLayer
 62
  256
370
   -1
100
AcDbMText
 10
322.496576
 20
27.91470066666667
 30
0
 40
2.5
 41
16.59722222222268
 71
    7
 72
    5
  1
part name
  7
normal#0.500000#0.900000
210
0
220
0
230
1
 50
0
 73
    1
 44
0.96
  0
MTEXT
  5
95
100
AcDbEntity
  8
text
  6
ByLayer
 62
  256
370
   -1
100
AcDbMText
 10
322.2766879999999
 20
14.50148366666667
 30
0
 40
2.5
 41
20.20833333333379
 71
    7
 72
    5
  1
part number
  7
normal#0.500000#0.900000
210
0
220
0
230
1
 50
0
 73
    1
 44
0.96
  0
LINE
  5
96
100
AcDbEntity
  8
border
  6
CONTINUOUS
 62
    7
370
    0
100
AcDbLine
 10
20.00000000000002
 20
287
 11
410
 21
287
  0
LINE
  5
97
100
AcDbEntity
  8
border
  6
CONTINUOUS
 62
    7
370
    0
100
AcDbLine
 10
410
 20
287
 11
410
 21
10
  0
ENDBLK
  5
59
330
57
100
AcDbEntity
  8
0
100
AcDbBlockEnd
  0
ENDSEC
  0
SECTION
  2
ENTITIES
  0
MTEXT
  5
98
100
AcDbEntity
  8
text
  6
ByLayer
 62
  256
370
   -1
100
AcDbMText
 10
100.0295722730518
 20
51.48804706093865
 30
0
 40
2.5
 41
18.88984131895054
 71
    7
 72
    5
  1
scale  1 : 1
  7
normal#0.500000#1.500000
210
0
220
0
230
1
 50
0
 73
    1
 44
0.96
  0
MTEXT
  5
99
100
AcDbEntity
  8
text
  6
ByLayer
 62
  256
370
   -1
100
AcDbMText
 10
152.0295572730517
 20
51.21031935529165
 30
0
 40
2.5
 41
9.722224238102887
 71
    7
 72
    5
  1
(mass)
  7
normal#0.500000#1.500000
210
0
220
0
230
1
 50
0
 73
    1
 44
0.96
  0
MTEXT
  5
9A
100
AcDbEntity
  8
text
  6
ByLayer
 62
  256
370
   -1
100
AcDbMText
 10
100.0654002730518
 20
45.18853879973593
 30
0
 40
2.5
 41
38.68055628571858
 71
    7
 72
    5
  1
(material, specification)
  7
normal#0.500000#1.500000
210
0
220
0
230
1
 50
0
 73
    1
 44
0.96
  0
MTEXT
  5
9B
100
AcDbEntity
  8
text
  6
ByLayer
 62
  256
370
   -1
100
AcDbMText
 10
67.90869227305186
 20
35.55053213306918
 30
0
 40
2.5
 41
6.6666666666669
 71
    7
 72
    5
  1
date
  7
normal#0.500000#1.200000
210
0
220
0
230
1
 50
0
 73
    1
 44
0.96
  0
MTEXT
  5
9C
100
AcDbEntity
  8
text
  6
ByLayer
 62
  256
370
   -1
100
AcDbMText
 10
85.47665527305182
 20
35.55052413306935
 30
0
 40
2.5
 41
7.500000000000348
 71
    7
 72
    5
  1
name
  7
normal#0.500000#1.200000
210
0
220
0
230
1
 50
0
 73
    1
 44
0.96
  0
MTEXT
  5
9D
100
AcDbEntity
  8
text
  6
ByLayer
 62
  256
370
   -1
100
AcDbMText
 10
55.01635827305174
 20
30.46715679973608
 30
0
 40
2.5
 41
8.611112396829338
 71
    7
 72
    5
  1
desig.
  7
normal#0.500000#1.200000
210
0
220
0
230
1
 50
0
 73
    1
 44
0.96
  0
MTEXT
  5
9E
100
AcDbEntity
  8
text
  6
ByLayer
 62
  256
370
   -1
100
AcDbMText
 10
55.20227127305176
 20
22.80055113306913
 30
0
 40
2.5
 41
7.500000000000234
 71
    7
 72
    5
  1
auth.
  7
normal#0.500000#1.200000
210
0
220
0
230
1
 50
0
 73
    1
 44
0.96
  0
MTEXT
  5
9F
100
AcDbEntity
  8
text
  6
ByLayer
 62
  256
370
   -1
100
AcDbMText
 10
0.4180612730517339
 20
1.550538133068976
 30
0
 40
2.5
 41
3.888888888888967
 71
    7
 72
    5
  1
loc
  7
normal#0.500000#1.200000
210
0
220
0
230
1
 50
0
 73
    1
 44
0.96
  0
MTEXT
  5
A0
100
AcDbEntity
  8
text
  6
ByLayer
 62
  256
370
   -1
100
AcDbMText
 10
13.48877027305181
 20
0.7172037997357918
 30
0
 40
2.5
 41
10.55555555555614
 71
    7
 72
    5
  1
change
  7
normal#0.500000#1.200000
210
0
220
0
230
1
 50
0
 73
    1
 44
0.96
  0
MTEXT
  5
A1
100
AcDbEntity
  8
text
  6
ByLayer
 62
  256
370
   -1
100
AcDbMText
 10
35.71496727305177
 20
1.550574133069523
 30
0
 40
2.5
 41
6.6666666666669
 71
    7
 72
    5
  1
date
  7
normal#0.500000#1.200000
210
0
220
0
230
1
 50
0
 73
    1
 44
0.96
  0
MTEXT
  5
A2
100
AcDbEntity
  8
text
  6
ByLayer
 62
  256
370
   -1
100
AcDbMText
 10
46.97836427305171
 20
1.550507133068924
 30
0
 40
2.5
 41
7.500000000000348
 71
    7
 72
    5
  1
name
  7
normal#0.200000#1.200000
210
0
220
0
230
1
 50
0
 73
    1
 44
0.96
  0
MTEXT
  5
A3
100
AcDbEntity
  8
text
  6
ByLayer
 62
  256
370
   -1
100
AcDbMText
 10
55.95565927305185
 20
0.7171717997356239
 30
0
 40
2.5
 41
11.38888888888901
 71
    7
 72
    5
  1
project
  7
normal#0.500000#1.200000
210
0
220
0
230
1
 50
0
 73
    1
 44
0.96
  0
MTEXT
  5
A4
100
AcDbEntity
  8
text
  6
ByLayer
 62
  256
370
   -1
100
AcDbMText
 10
100.5800482730517
 20
0.7172297997365256
 30
0
 40
2.5
 41
13.33333461905145
 71
    7
 72
    5
  1
replaces
  7
normal#0.500000#1.500000
210
0
220
0
230
1
 50
0
 73
    1
 44
0.96
  0
MTEXT
  5
A5
100
AcDbEntity
  8
text
  6
ByLayer
 62
  256
370
   -1
100
AcDbMText
 10
144.7800452730519
 20
0.7173027997343588
 30
0
 40
2.5
 41
19.09722222222245
 71
    7
 72
    5
  1
replaced by
  7
normal#0.500000#1.500000
210
0
220
0
230
1
 50
0
 73
    1
 44
0.96
  0
MTEXT
  5
A6
100
AcDbEntity
  8
text
  6
ByLayer
 62
  256
370
   -1
100
AcDbMText
 10
177.1432202730518
 20
5.913012075366119
 30
0
 40
2
 41
6.889650832938207
 71
    7
 72
    5
  1
sheet
  7
normal#0.500000#0.900000
210
0
220
0
230
1
 50
0
 73
    1
 44
0.96
  0
MTEXT
  5
A7
100
AcDbEntity
  8
text
  6
ByLayer
 62
  256
370
   -1
100
AcDbMText
 10
99.79989127305177
 20
18.59014279973566
 30
0
 40
2.5
 41
16.59722222222268
 71
    7
 72
    5
  1
part name
  7
normal#0.500000#0.900000
210
0
220
0
230
1
 50
0
 73
    1
 44
0.96
  0
MTEXT
  5
A8
100
AcDbEntity
  8
text
  6
ByLayer
 62
  256
370
   -1
100
AcDbMText
 10
99.58000327305169
 20
5.176925799736086
 30
0
 40
2.5
 41
20.20833333333379
 71
    7
 72
    5
  1
part number
  7
normal#0.500000#0.900000
210
0
220
0
230
1
 50
0
 73
    1
 44
0.96
  0
MTEXT
  5
A9
100
AcDbEntity
  8
text
  6
ByLayer
 62
  256
370
   -1
100
AcDbMText
 10
0.4180612730517339
 20
5.800621424735576
 30
0
 40
2.5
 41
3.055555555555555
 71
    7
 72
    5
  1
A1
  7
normal#0.500000#1.200000
210
0
220
0
230
1
 50
0
 73
    1
 44
0.96
  0
MTEXT
  5
AA
100
AcDbEntity
  8
text
  6
ByLayer
 62
  256
370
   -1
100
AcDbMText
 10
9.505249858595192
 20
4.967286942445687
 30
0
 40
2.5
 41
20.76389017460735
 71
    7
 72
    5
  1
initial design
  7
normal#0.500000#1.200000
210
0
220
0
230
1
 50
0
 73
    1
 44
0.96
  0
MTEXT
  5
AB
100
AcDbEntity
  8
text
  6
ByLayer
 62
  256
370
   -1
100
AcDbMText
 10
33.92238307909858
 20
5.80065735770518
 30
0
 40
2.5
 41
13.05555555555556
 71
    7
 72
    5
  1
01/01/01
  7
iso8859-11
210
0
220
0
230
1
 50
0
 73
    1
 44
0.96
  0
MTEXT
  5
AC
100
AcDbEntity
  8
text
  6
ByLayer
 62
  256
370
   -1
100
AcDbMText
 10
47.97424437666584
 20
5.800590461974533
 30
0
 40
2.5
 41
5.555555555555865
 71
    7
 72
    5
  1
DDil
  7
normal#0.200000#1.200000
210
0
220
0
230
1
 50
0
 73
    1
 44
0.96
  0
MTEXT
  5
AD
100
AcDbEntity
  8
text
  6
ByLayer
 62
  256
370
   -1
100
AcDbMText
 10
65.41635227305161
 20
31.30048379974111
 30
0
 40
2.5
 41
14.44444444444444
 71
    7
 72
    5
  1
07/01/04
  7
normal#0.500000#1.200000
210
0
220
0
230
1
 50
0
 73
    1
 44
0.96
  0
MTEXT
  5
AE
100
AcDbEntity
  8
text
  6
ByLayer
 62
  256
370
   -1
100
AcDbMText
 10
65.60226527305164
 20
27.05058079974099
 30
0
 40
2.5
 41
4.722222222222339
 71
    7
 72
    5
  1
tbd
  7
normal#0.500000#1.200000
210
0
220
0
230
1
 50
0
 73
    1
 44
0.96
  0
MTEXT
  5
AF
100
AcDbEntity
  8
text
  6
ByLayer
 62
  256
370
   -1
100
AcDbMText
 10
65.60226527305164
 20
22.800544799741
 30
0
 40
2.5
 41
4.722222222222339
 71
    7
 72
    5
  1
tbd
  7
normal#0.500000#1.200000
210
0
220
0
230
1
 50
0
 73
    1
 44
0.96
  0
MTEXT
  5
B0
100
AcDbEntity
  8
text
  6
ByLayer
 62
  256
370
   -1
100
AcDbMText
 10
81.01635827305174
 20
31.30047429973953
 30
0
 40
2.5
 41
3.055555555555672
 71
    7
 72
    5
  1
dil
  7
normal#0.500000#1.200000
210
0
220
0
230
1
 50
0
 73
    1
 44
0.96
  0
MTEXT
  5
B1
100
AcDbEntity
  8
text
  6
ByLayer
 62
  256
370
   -1
100
AcDbMText
 10
81.20227127305176
 20
27.05057129973952
 30
0
 40
2.5
 41
3.055555555555672
 71
    7
 72
    5
  1
dil
  7
normal#0.500000#1.200000
210
0
220
0
230
1
 50
0
 73
    1
 44
0.96
  0
MTEXT
  5
B2
100
AcDbEntity
  8
text
  6
ByLayer
 62
  256
370
   -1
100
AcDbMText
 10
81.20227127305176
 20
22.80053529973953
 30
0
 40
2.5
 41
3.055555555555672
 71
    7
 72
    5
  1
dil
  7
normal#0.500000#1.200000
210
0
220
0
230
1
 50
0
 73
    1
 44
0.96
  0
MTEXT
  5
B3
100
AcDbEntity
  8
text
  6
ByLayer
 62
  256
370
   -1
100
AcDbMText
 10
142.2124012481356
 20
29.31559015329879
 30
0
 40
4
 41
13.6681905547653
 71
    5
 72
    5
  1
title\Psub t
  7
iso
210
0
220
0
230
1
 50
0
 73
    2
 44
0.96
  0
MTEXT
  5
B4
100
AcDbEntity
  8
text
  6
ByLayer
 62
  256
370
   -1
100
AcDbMText
 10
145.7975696211467
 20
11.19057226752105
 30
0
 40
8
 41
38.22222222222321
 71
    5
 72
    5
  1
DD00NN
  7
iso
210
0
220
0
230
1
 50
0
 73
    2
 44
0.96
  0
MTEXT
  5
B5
100
AcDbEntity
  8
text
  6
ByLayer
 62
  256
370
   -1
100
AcDbMText
 10
71.09303684053904
 20
0.7171723657703541
 30
0
 40
2.5
 41
11.38888888888901
 71
    7
 72
    5
  1
project
  7
normal#0.500000#1.200000
210
0
220
0
230
1
 50
0
 73
    1
 44
0.96
  0
MTEXT
  5
B6
100
AcDbEntity
  8
text
  6
ByLayer
 62
  256
370
   -1
100
AcDbMText
 10
180.4541972269194
 20
12.38562839185804
 30
0
 40
4
 41
6.222222222222221
 71
    5
 72
    5
  1
1/1
  7
iso
210
0
220
0
230
1
 50
0
 73
    2
 44
0.96
  0
MTEXT
  5
B7
100
AcDbEntity
  8
text
  6
ByLayer
 62
  256
370
   -1
100
AcDbMText
 10
55.20227127305176
 20
27.050587133069
 30
0
 40
2.5
 41
8.333333333333565
 71
    7
 72
    5
  1
check
  7
normal#0.500000#1.200000
210
0
220
0
230
1
 50
0
 73
    1
 44
0.96
  0
LINE
  5
B8
100
AcDbEntity
  8
border
  6
ByLayer
 62
  256
370
   -1
100
AcDbLine
 10
150.8000029999999
 20
55.24999300000031
 11
150.8000029999999
 21
48.87495100000026
  0
LINE
  5
B9
100
AcDbEntity
  8
border
  6
ByLayer
 62
  256
370
   -1
100
AcDbLine
 10
174.199982
 20
16.99988600000034
 11
174.199982
 21
4.249940999999689
  0
LINE
  5
BA
100
AcDbEntity
  8
border
  6
ByLayer
 62
  256
370
   -1
100
AcDbLine
 10
143.0000160000001
 20
4.250006000001751
 11
143.0000160000001
 21
-2.999999775710194e-06
  0
LINE
  5
BB
100
AcDbEntity
  8
border
  6
ByLayer
 62
  256
370
   -1
100
AcDbLine
 10
80.60000600000001
 20
55.24999600000033
 11
80.60000600000001
 21
16.99995800000052
  0
LINE
  5
BC
100
AcDbEntity
  8
border
  6
ByLayer
 62
  256
370
   -1
100
AcDbLine
 10
64.99999999999989
 20
38.24998900000049
 11
64.99999999999989
 21
17.00003500000039
  0
LINE
  5
BD
100
AcDbEntity
  8
border
  6
ByLayer
 62
  256
370
   -1
100
AcDbLine
 10
54.60000600000001
 20
55.24998900000039
 11
54.60000600000001
 21
-7.000000804779916e-06
  0
LINE
  5
BE
100
AcDbEntity
  8
border
  6
ByLayer
 62
  256
370
   -1
100
AcDbLine
 10
98.79998799999987
 20
55.25003800000038
 11
98.79998799999987
 21
-3.999999069748128e-06
  0
LINE
  5
BF
100
AcDbEntity
  8
border
  6
ByLayer
 62
  256
370
   -1
100
AcDbLine
 10
46.79998799999987
 20
38.24998100000016
 11
46.80001899999991
 21
-1.999999753365955e-06
  0
LINE
  5
C0
100
AcDbEntity
  8
border
  6
ByLayer
 62
  256
370
   -1
100
AcDbLine
 10
33.79998799999987
 20
38.25000000000055
 11
33.79998799999987
 21
-9.999999056375941e-06
  0
LINE
  5
C1
100
AcDbEntity
  8
border
  6
ByLayer
 62
  256
370
   -1
100
AcDbLine
 10
7.799987999999985
 20
38.25001200000036
 11
7.799987999999985
 21
-8.000000002894581e-06
  0
LINE
  5
C2
100
AcDbEntity
  8
border
  6
ByLayer
 62
  256
370
   -1
100
AcDbLine
 10
0
 20
21.24997400000012
 11
98.79998799999987
 21
21.2499910000007
  0
LINE
  5
C3
100
AcDbEntity
  8
border
  6
ByLayer
 62
  256
370
   -1
100
AcDbLine
 10
0
 20
25.49997900000029
 11
98.79998799999987
 21
25.50001400000036
  0
LINE
  5
C4
100
AcDbEntity
  8
border
  6
ByLayer
 62
  256
370
   -1
100
AcDbLine
 10
0
 20
29.75001500000032
 11
98.80001899999991
 21
29.74996600000032
  0
LINE
  5
C5
100
AcDbEntity
  8
border
  6
ByLayer
 62
  256
370
   -1
100
AcDbLine
 10
0
 20
33.99999600000024
 11
98.80001899999991
 21
33.99998500000012
  0
LINE
  5
C6
100
AcDbEntity
  8
border
  6
ByLayer
 62
  256
370
   -1
100
AcDbLine
 10
0
 20
12.74995400000009
 11
54.60000600000001
 21
12.74996000000058
  0
LINE
  5
C7
100
AcDbEntity
  8
border
  6
ByLayer
 62
  256
370
   -1
100
AcDbLine
 10
0
 20
8.499953000000374
 11
54.60000600000001
 21
8.500021000000601
  0
LINE
  5
C8
100
AcDbEntity
  8
border
  6
ByLayer
 62
  256
370
   -1
100
AcDbLine
 10
98.79998799999987
 20
48.87501900000023
 11
187.199982
 21
48.87493900000049
  0
LINE
  5
C9
100
AcDbEntity
  8
border
  6
ByLayer
 62
  256
370
   -1
100
AcDbLine
 10
0
 20
4.249982000000198
 11
187.199982
 21
4.249988999999507
  0
LINE
  5
CA
100
AcDbEntity
  8
border
  6
ByLayer
 62
  256
370
   -1
100
AcDbLine
 10
0
 20
38.24998500000019
 11
187.2000429999999
 21
38.25000000000054
  0
LINE
  5
CB
100
AcDbEntity
  8
border
  6
ByLayer
 62
  256
370
   -1
100
AcDbLine
 10
0
 20
17.00000600000048
 11
187.2000429999999
 21
16.99989200000069
  0
LINE
  5
CC
100
AcDbEntity
  8
border
  6
ByLayer
 62
  256
370
   -1
100
AcDbLine
 10
0
 20
55.24998500000029
 11
187.199982
 21
55.25006500000027
  0
LINE
  5
CD
100
AcDbEntity
  8
border
  6
ByLayer
 62
  256
370
   -1
100
AcDbLine
 10
187.2000429999999
 20
55.2500800000005
 11
187.199982
 21
-0.0001009999997112487
  0
LINE
  5
CE
100
AcDbEntity
  8
border
  6
ByLayer
 62
  256
370
   -1
100
AcDbLine
 10
187.199982
 20
-0.0001009999997112487
 11
0
 21
0
  0
LINE
  5
CF
100
AcDbEntity
  8
border
  6
ByLayer
 62
  256
370
   -1
100
AcDbLine
 10
0
 20
55.24998500000029
 11
0
 21
0
  0
LINE
  5
D0
100
AcDbEntity
  8
default
  6
ByLayer
 62
  256
370
   -1
100
AcDbLine
 10
57.47112400000003
 20
47.24277500000031
 11
77.47112400000003
 21
47.24277500000022
  0
CIRCLE
  5
D1
100
AcDbEntity
  8
default
  6
ByLayer
 62
  256
370
   -1
100
AcDbCircle
 10
72.67112400000008
 20
47.24277500000007
 40
2.8
  0
CIRCLE
  5
D2
100
AcDbEntity
  8
default
  6
ByLayer
 62
  256
370
   -1
100
AcDbCircle
 10
72.67112400000008
 20
47.24277500000007
 40
1.6
  0
LINE
  5
D3
100
AcDbEntity
  8
default
  6
ByLayer
 62
  256
370
   -1
100
AcDbLine
 10
59.8711239999999
 20
48.8427750000003
 11
59.8711239999999
 21
45.64277500000038
  0
LINE
  5
D4
100
AcDbEntity
  8
default
  6
ByLayer
 62
  256
370
   -1
100
AcDbLine
 10
59.8711239999999
 20
45.64277500000038
 11
66.27112399999999
 21
44.44277500000028
  0
LINE
  5
D5
100
AcDbEntity
  8
default
  6
ByLayer
 62
  256
370
   -1
100
AcDbLine
 10
66.27112399999999
 20
50.0427750000004
 11
66.27112399999999
 21
44.44277500000028
  0
LINE
  5
D6
100
AcDbEntity
  8
default
  6
ByLayer
 62
  256
370
   -1
100
AcDbLine
 10
59.8711239999999
 20
48.8427750000003
 11
66.27112399999999
 21
50.0427750000004
  0
LINE
  5
D7
100
AcDbEntity
  8
default
  6
ByLayer
 62
  256
370
   -1
100
AcDbLine
 10
72.67112400000008
 20
42.44277500000022
 11
72.67112400000008
 21
52.04277500000039
  0
LINE
  5
D8
100
AcDbEntity
  8
border
  6
ByLayer
 62
  256
370
   -1
100
AcDbLine
 10
187.199982
 20
276.9998990000003
 11
187.199982
 21
-0.0001009999997112487
  0
LWPOLYLINE
  5
D9
100
AcDbEntity
  8
border
  6
ByLayer
 62
  256
370
   -1
100
AcDbPolyline
 90
    4
 70
    1
 43
0
 10
-0.1033332730517884
 20
0.05034320382936208
 10
187.194875956375
 20
0.05034320382936208
 10
187.194875956375
 20
276.914489461288
 10
-0.1033332730517884
 20
276.914489461288
  0
ENDSEC
  0
SECTION
  2
OBJECTS
  0
DICTIONARY
  5
C
330
0
100
AcDbDictionary
281
    1
  3
ACAD_GROUP
350
D
  0
DICTIONARY
  5
D
330
C
100
AcDbDictionary
281
    1
  0
ENDSEC
  0
EOF
