999
dxfrw 0.6.3
  0
SECTION
  2
HEADER
  9
$ACADVER
  1
AC1021
  9
$DWGCODEPAGE
  3
ANSI_1250
  9
$INSBASE
 10
0
 20
0
 30
0
  9
$EXTMIN
 10
0
 20
0
 30
0
  9
$EXTMAX
 10
399.9734
 20
276.9874
 30
0
  9
$LIMMIN
 10
0
 20
0
  9
$LIMMAX
 10
420
 20
297
  9
$ORTHOMODE
 70
    0
  9
$REGENMODE
 70
    1
  9
$FILLMODE
 70
    1
  9
$QTEXTMODE
 70
    0
  9
$MIRRTEXT
 70
    0
  9
$LTSCALE
 40
1
  9
$ATTMODE
 70
    0
  9
$TEXTSIZE
 40
2.5
  9
$TRACEWID
 40
15.68
  9
$TEXTSTYLE
  7
STANDARD
  9
$CLAYER
  8
text
  9
$CELTYPE
  6
BYLAYER
  9
$CECOLOR
 62
  256
  9
$CELTSCALE
 40
1
  9
$DISPSILH
 70
    0
  9
$DIMSCALE
 40
1
  9
$DIMASZ
 40
2.5
  9
$DIMEXO
 40
0.625
  9
$DIMDLI
 40
3.75
  9
$DIMRND
 40
0
  9
$DIMDLE
 40
0
  9
$DIMEXE
 40
1.25
  9
$DIMTP
 40
0
  9
$DIMTM
 40
0
  9
$DIMTXT
 40
2.5
  9
$DIMCEN
 40
2.5
  9
$DIMTSZ
 40
0
  9
$DIMTOL
 70
    0
  9
$DIMLIM
 70
    0
  9
$DIMTIH
 70
    0
  9
$DIMTOH
 70
    0
  9
$DIMSE1
 70
    0
  9
$DIMSE2
 70
    0
  9
$DIMTAD
 70
    1
  9
$DIMZIN
 70
    1
  9
$DIMBLK
  1

  9
$DIMASO
 70
    1
  9
$DIMSHO
 70
    1
  9
$DIMPOST
  1

  9
$DIMAPOST
  1

  9
$DIMALT
 70
    0
  9
$DIMALTD
 70
    3
  9
$DIMALTF
 40
0.03937
  9
$DIMLFAC
 40
1
  9
$DIMTOFL
 70
    1
  9
$DIMTVP
 40
0
  9
$DIMTIX
 70
    0
  9
$DIMSOXD
 70
    0
  9
$DIMSAH
 70
    0
  9
$DIMBLK1
  1

  9
$DIMBLK2
  1

  9
$DIMSTYLE
  2
Standard
  9
$DIMCLRD
 70
    0
  9
$DIMCLRE
 70
    0
  9
$DIMCLRT
 70
    0
  9
$DIMTFAC
 40
1
  9
$DIMGAP
 40
0.625
  9
$DIMJUST
 70
    0
  9
$DIMSD1
 70
    0
  9
$DIMSD2
 70
    0
  9
$DIMTOLJ
 70
    0
  9
$DIMTZIN
 70
    8
  9
$DIMALTZ
 70
    0
  9
$DIMALTTZ
 70
    0
  9
$DIMUPT
 70
    0
  9
$DIMDEC
 70
    0
  9
$DIMTDEC
 70
    2
  9
$DIMALTU
 70
    2
  9
$DIMALTTD
 70
    3
  9
$DIMTXSTY
  7
standard
  9
$DIMAUNIT
 70
    0
  9
$DIMADEC
 70
    2
  9
$DIMALTRND
 40
0
  9
$DIMAZIN
 70
    0
  9
$DIMDSEP
 70
    0
  9
$DIMATFIT
 70
    3
  9
$DIMFRAC
 70
    0
  9
$DIMLDRBLK
  1
STANDARD
  9
$DIMLUNIT
 70
    2
  9
$DIMLWD
 70
   -2
  9
$DIMLWE
 70
   -2
  9
$DIMTMOVE
 70
    0
  9
$DIMFXL
 40
1
  9
$DIMFXLON
 70
    0
  9
$DIMJOGANG
 40
0.7854
  9
$DIMTFILL
 70
    0
  9
$DIMTFILLCLR
 70
    0
  9
$DIMARCSYM
 70
    0
  9
$DIMLTYPE
  6

  9
$DIMLTEX1
  6

  9
$DIMLTEX2
  6

  9
$LUNITS
 70
    2
  9
$LUPREC
 70
    4
  9
$SKETCHINC
 40
1
  9
$FILLETRAD
 40
0
  9
$AUNITS
 70
    0
  9
$AUPREC
 70
    2
  9
$MENU
  1
.
  9
$ELEVATION
 40
0
  9
$PELEVATION
 40
0
  9
$THICKNESS
 40
0
  9
$LIMCHECK
 70
    0
  9
$CHAMFERA
 40
0
  9
$CHAMFERB
 40
0
  9
$CHAMFERC
 40
0
  9
$CHAMFERD
 40
0
  9
$SKPOLY
 70
    0
  9
$USRTIMER
 70
    1
  9
$ANGBASE
 50
0
  9
$ANGDIR
 70
    1
  9
$PDMODE
 70
   34
  9
$PDSIZE
 40
0
  9
$PLINEWID
 40
0
  9
$SPLFRAME
 70
    0
  9
$SPLINETYPE
 70
    2
  9
$SPLINESEGS
 70
    8
  9
$HANDSEED
  5
20000
  9
$SURFTAB1
 70
    6
  9
$SURFTAB2
 70
    6
  9
$SURFTYPE
 70
    6
  9
$SURFU
 70
    6
  9
$SURFV
 70
    6
  9
$UCSBASE
  2

  9
$UCSNAME
  2

  9
$UCSORG
 10
0
 20
0
 30
0
  9
$UCSXDIR
 10
1
 20
0
 30
0
  9
$UCSYDIR
 10
0
 20
1
 30
0
  9
$UCSORTHOREF
  2

  9
$UCSORTHOVIEW
 70
    0
  9
$UCSORGTOP
 10
0
 20
0
 30
0
  9
$UCSORGBOTTOM
 10
0
 20
0
 30
0
  9
$UCSORGLEFT
 10
0
 20
0
 30
0
  9
$UCSORGRIGHT
 10
0
 20
0
 30
0
  9
$UCSORGFRONT
 10
0
 20
0
 30
0
  9
$UCSORGBACK
 10
0
 20
0
 30
0
  9
$PUCSBASE
  2

  9
$PUCSNAME
  2

  9
$PUCSORG
 10
0
 20
0
 30
0
  9
$PUCSXDIR
 10
1
 20
0
 30
0
  9
$PUCSYDIR
 10
0
 20
1
 30
0
  9
$PUCSORTHOREF
  2

  9
$PUCSORTHOVIEW
 70
    0
  9
$PUCSORGTOP
 10
0
 20
0
 30
0
  9
$PUCSORGBOTTOM
 10
0
 20
0
 30
0
  9
$PUCSORGLEFT
 10
0
 20
0
 30
0
  9
$PUCSORGRIGHT
 10
0
 20
0
 30
0
  9
$PUCSORGFRONT
 10
0
 20
0
 30
0
  9
$PUCSORGBACK
 10
0
 20
0
 30
0
  9
$USERI1
 70
    0
  9
$USERI2
 70
    0
  9
$USERI3
 70
    0
  9
$USERI4
 70
    0
  9
$USERI5
 70
    0
  9
$USERR1
 40
0
  9
$USERR2
 40
0
  9
$USERR3
 40
0
  9
$USERR4
 40
0
  9
$USERR5
 40
0
  9
$WORLDVIEW
 70
    1
  9
$SHADEDGE
 70
    3
  9
$SHADEDIF
 70
   70
  9
$TILEMODE
 70
    1
  9
$MAXACTVP
 70
   64
  9
$PINSBASE
 10
13.61423516015529
 20
12.5
 30
0
  9
$PLIMCHECK
 70
    0
  9
$PEXTMIN
 10
0
 20
0
 30
0
  9
$PEXTMAX
 10
0
 20
0
 30
0
  9
$GRIDMODE
 70
    1
  9
$SNAPSTYLE
 70
    0
  9
$GRIDUNIT
 10
0
 20
0
  9
$PLIMMIN
 10
0
 20
0
  9
$PLIMMAX
 10
420
 20
297
  9
$UNITMODE
 70
    0
  9
$VISRETAIN
 70
    1
  9
$PLINEGEN
 70
    0
  9
$PSLTSCALE
 70
    1
  9
$TREEDEPTH
 70
 3020
  9
$CMLSTYLE
  2
Standard
  9
$CMLJUST
 70
    0
  9
$CMLSCALE
 40
20
  9
$PROXYGRAPHICS
 70
    1
  9
$MEASUREMENT
 70
    0
  9
$CELWEIGHT
370
   -1
  9
$ENDCAPS
280
    0
  9
$JOINSTYLE
280
    0
  9
$LWDISPLAY
290
    0
  9
$INSUNITS
 70
    4
  9
$HYPERLINKBASE
  1

  9
$STYLESHEET
  1

  9
$XEDIT
290
    1
  9
$CEPSNTYPE
380
    0
  9
$PSTYLEMODE
290
    1
  9
$EXTNAMES
290
    1
  9
$PSVPSCALE
 40
0.9819902979358563
  9
$OLESTARTUP
290
    0
  9
$SORTENTS
280
  127
  9
$INDEXCTL
280
    0
  9
$HIDETEXT
280
    1
  9
$XCLIPFRAME
290
    0
  9
$HALOGAP
280
    0
  9
$OBSCOLOR
 70
  257
  9
$OBSLTYPE
280
    0
  9
$INTERSECTIONDISPLAY
280
    0
  9
$INTERSECTIONCOLOR
 70
  257
  9
$DIMASSOC
280
    1
  9
$PROJECTNAME
  1

  9
$CAMERADISPLAY
290
    0
  9
$LENSLENGTH
 40
50
  9
$CAMERAHEIGHT
 40
0
  9
$STEPSPERSEC
 40
2
  9
$STEPSIZE
 40
50
  9
$3DDWFPREC
 40
2
  9
$PSOLWIDTH
 40
5
  9
$PSOLHEIGHT
 40
80
  9
$LOFTANG1
 40
1.570796326794897
  9
$LOFTANG2
 40
1.570796326794897
  9
$LOFTMAG1
 40
0
  9
$LOFTMAG2
 40
0
  9
$LOFTPARAM
 70
    7
  9
$LOFTNORMALS
280
    1
  9
$LATITUDE
 40
1
  9
$LONGITUDE
 40
1
  9
$NORTHDIRECTION
 40
0
  9
$TIMEZONE
 70
-8000
  9
$LIGHTGLYPHDISPLAY
280
    1
  9
$TILEMODELIGHTSYNCH
280
    1
  9
$SOLIDHIST
280
    1
  9
$SHOWHIST
280
    1
  9
$DWFFRAME
280
    2
  9
$DGNFRAME
280
    0
  9
$REALWORLDSCALE
290
    1
  9
$INTERFERECOLOR
 62
    1
  9
$CSHADOW
280
    0
  9
$SHADOWPLANELOCATION
 40
0
  0
ENDSEC
  0
SECTION
  2
CLASSES
  0
ENDSEC
  0
SECTION
  2
TABLES
  0
TABLE
  2
VPORT
  5
8
330
0
100
AcDbSymbolTable
 70
    1
  0
VPORT
  5
31
330
2
100
AcDbSymbolTableRecord
100
AcDbViewportTableRecord
  2
*ACTIVE
 70
    0
 10
0
 20
0
 11
1
 21
1
 12
273.1657216180559
 22
167.193174306202
 13
0
 23
0
 14
10
 24
10
 15
10
 25
10
 16
0
 26
0
 36
1
 17
0
 27
0
 37
0
 40
443.2230188245782
 41
1.552504038772213
 42
50
 43
0
 44
0
 50
0
 51
0
 71
    0
 72
  100
 73
    1
 74
    3
 75
    0
 76
    1
 77
    0
 78
    0
281
    0
 65
    1
110
0
120
0
130
0
111
1
121
0
131
0
112
0
122
1
132
0
 79
    0
146
0
348
10020
 60
    7
 61
    5
292
1
282
    1
141
0
142
0
 63
  250
421
3358443
  0
ENDTAB
  0
TABLE
  2
LTYPE
  5
5
330
0
100
AcDbSymbolTable
 70
    4
  0
LTYPE
  5
14
330
5
100
AcDbSymbolTableRecord
100
AcDbLinetypeTableRecord
  2
ByBlock
 70
    0
  3

 72
   65
 73
    0
 40
0
  0
LTYPE
  5
15
330
5
100
AcDbSymbolTableRecord
100
AcDbLinetypeTableRecord
  2
ByLayer
 70
    0
  3

 72
   65
 73
    0
 40
0
  0
LTYPE
  5
16
330
5
100
AcDbSymbolTableRecord
100
AcDbLinetypeTableRecord
  2
Continuous
 70
    0
  3
Solid line
 72
   65
 73
    0
 40
0
  0
LTYPE
  5
32
330
5
100
AcDbSymbolTableRecord
100
AcDbLinetypeTableRecord
  2
DOT
 70
    0
  3
Dot . . . . . . . . . . . . . . . . . . . . . .
 72
   65
 73
    2
 40
6.35
 49
0
 74
    0
 49
-6.35
 74
    0
  0
LTYPE
  5
33
330
5
100
AcDbSymbolTableRecord
100
AcDbLinetypeTableRecord
  2
DOTTINY
 70
    0
  3
Dot (.15x) .....................................
 72
   65
 73
    2
 40
0.9525
 49
0
 74
    0
 49
-0.9525
 74
    0
  0
LTYPE
  5
34
330
5
100
AcDbSymbolTableRecord
100
AcDbLinetypeTableRecord
  2
DOT2
 70
    0
  3
Dot (.5x) .....................................
 72
   65
 73
    2
 40
3.175
 49
0
 74
    0
 49
-3.175
 74
    0
  0
LTYPE
  5
35
330
5
100
AcDbSymbolTableRecord
100
AcDbLinetypeTableRecord
  2
DOTX2
 70
    0
  3
Dot (2x) .  .  .  .  .  .  .  .  .  .  .  .  .
 72
   65
 73
    2
 40
12.7
 49
0
 74
    0
 49
-12.7
 74
    0
  0
LTYPE
  5
36
330
5
100
AcDbSymbolTableRecord
100
AcDbLinetypeTableRecord
  2
DASHED
 70
    0
  3
Dashed _ _ _ _ _ _ _ _ _ _ _ _ _ _ _ _ _
 72
   65
 73
    2
 40
19.05
 49
12.7
 74
    0
 49
-6.35
 74
    0
  0
LTYPE
  5
37
330
5
100
AcDbSymbolTableRecord
100
AcDbLinetypeTableRecord
  2
DASHEDTINY
 70
    0
  3
Dashed (.15x) _ _ _ _ _ _ _ _ _ _ _ _ _ _ _ _ _
 72
   65
 73
    2
 40
2.8575
 49
1.905
 74
    0
 49
-0.9525
 74
    0
  0
LTYPE
  5
38
330
5
100
AcDbSymbolTableRecord
100
AcDbLinetypeTableRecord
  2
DASHED2
 70
    0
  3
Dashed (.5x) _ _ _ _ _ _ _ _ _ _ _ _ _ _ _ _ _
 72
   65
 73
    2
 40
9.524999999999999
 49
6.35
 74
    0
 49
-3.175
 74
    0
  0
LTYPE
  5
39
330
5
100
AcDbSymbolTableRecord
100
AcDbLinetypeTableRecord
  2
DASHEDX2
 70
    0
  3
Dashed (2x) ____  ____  ____  ____  ____  ___
 72
   65
 73
    2
 40
38.09999999999999
 49
25.4
 74
    0
 49
-12.7
 74
    0
  0
LTYPE
  5
3A
330
5
100
AcDbSymbolTableRecord
100
AcDbLinetypeTableRecord
  2
DASHDOT
 70
    0
  3
Dash dot __ . __ . __ . __ . __ . __ . __ . __
 72
   65
 73
    4
 40
25.4
 49
12.7
 74
    0
 49
-6.35
 74
    0
 49
0
 74
    0
 49
-6.35
 74
    0
  0
LTYPE
  5
3B
330
5
100
AcDbSymbolTableRecord
100
AcDbLinetypeTableRecord
  2
DASHDOTTINY
 70
    0
  3
Dash dot (.15x) _._._._._._._._._._._._._._._.
 72
   65
 73
    4
 40
3.81
 49
1.905
 74
    0
 49
-0.9525
 74
    0
 49
0
 74
    0
 49
-0.9525
 74
    0
  0
LTYPE
  5
3C
330
5
100
AcDbSymbolTableRecord
100
AcDbLinetypeTableRecord
  2
DASHDOT2
 70
    0
  3
Dash dot (.5x) _._._._._._._._._._._._._._._.
 72
   65
 73
    4
 40
12.7
 49
6.35
 74
    0
 49
-3.175
 74
    0
 49
0
 74
    0
 49
-3.175
 74
    0
  0
LTYPE
  5
3D
330
5
100
AcDbSymbolTableRecord
100
AcDbLinetypeTableRecord
  2
DASHDOTX2
 70
    0
  3
Dash dot (2x) ____  .  ____  .  ____  .  ___
 72
   65
 73
    4
 40
50.8
 49
25.4
 74
    0
 49
-12.7
 74
    0
 49
0
 74
    0
 49
-12.7
 74
    0
  0
LTYPE
  5
3E
330
5
100
AcDbSymbolTableRecord
100
AcDbLinetypeTableRecord
  2
DIVIDE
 70
    0
  3
Divide ____ . . ____ . . ____ . . ____ . . ____
 72
   65
 73
    6
 40
31.75
 49
12.7
 74
    0
 49
-6.35
 74
    0
 49
0
 74
    0
 49
-6.35
 74
    0
 49
0
 74
    0
 49
-6.35
 74
    0
  0
LTYPE
  5
3F
330
5
100
AcDbSymbolTableRecord
100
AcDbLinetypeTableRecord
  2
DIVIDETINY
 70
    0
  3
Divide (.15x) __..__..__..__..__..__..__..__.._
 72
   65
 73
    6
 40
4.7625
 49
1.905
 74
    0
 49
-0.9525
 74
    0
 49
0
 74
    0
 49
-0.9525
 74
    0
 49
0
 74
    0
 49
-0.9525
 74
    0
  0
LTYPE
  5
40
330
5
100
AcDbSymbolTableRecord
100
AcDbLinetypeTableRecord
  2
DIVIDE2
 70
    0
  3
Divide (.5x) __..__..__..__..__..__..__..__.._
 72
   65
 73
    6
 40
15.875
 49
6.35
 74
    0
 49
-3.175
 74
    0
 49
0
 74
    0
 49
-3.175
 74
    0
 49
0
 74
    0
 49
-3.175
 74
    0
  0
LTYPE
  5
41
330
5
100
AcDbSymbolTableRecord
100
AcDbLinetypeTableRecord
  2
DIVIDEX2
 70
    0
  3
Divide (2x) ________  .  .  ________  .  .  _
 72
   65
 73
    6
 40
63.5
 49
25.4
 74
    0
 49
-12.7
 74
    0
 49
0
 74
    0
 49
-12.7
 74
    0
 49
0
 74
    0
 49
-12.7
 74
    0
  0
LTYPE
  5
42
330
5
100
AcDbSymbolTableRecord
100
AcDbLinetypeTableRecord
  2
BORDER
 70
    0
  3
Border __ __ . __ __ . __ __ . __ __ . __ __ .
 72
   65
 73
    6
 40
44.45
 49
12.7
 74
    0
 49
-6.35
 74
    0
 49
12.7
 74
    0
 49
-6.35
 74
    0
 49
0
 74
    0
 49
-6.35
 74
    0
  0
LTYPE
  5
43
330
5
100
AcDbSymbolTableRecord
100
AcDbLinetypeTableRecord
  2
BORDERTINY
 70
    0
  3
Border (.15x) __.__.__.__.__.__.__.__.__.__.__.
 72
   65
 73
    6
 40
6.6675
 49
1.905
 74
    0
 49
-0.9525
 74
    0
 49
1.905
 74
    0
 49
-0.9525
 74
    0
 49
0
 74
    0
 49
-0.9525
 74
    0
  0
LTYPE
  5
44
330
5
100
AcDbSymbolTableRecord
100
AcDbLinetypeTableRecord
  2
BORDER2
 70
    0
  3
Border (.5x) __.__.__.__.__.__.__.__.__.__.__.
 72
   65
 73
    6
 40
22.225
 49
6.35
 74
    0
 49
-3.175
 74
    0
 49
6.35
 74
    0
 49
-3.175
 74
    0
 49
0
 74
    0
 49
-3.175
 74
    0
  0
LTYPE
  5
45
330
5
100
AcDbSymbolTableRecord
100
AcDbLinetypeTableRecord
  2
BORDERX2
 70
    0
  3
Border (2x) ____  ____  .  ____  ____  .  ___
 72
   65
 73
    6
 40
88.89999999999999
 49
25.4
 74
    0
 49
-12.7
 74
    0
 49
25.4
 74
    0
 49
-12.7
 74
    0
 49
0
 74
    0
 49
-12.7
 74
    0
  0
LTYPE
  5
46
330
5
100
AcDbSymbolTableRecord
100
AcDbLinetypeTableRecord
  2
CENTER
 70
    0
  3
Center ____ _ ____ _ ____ _ ____ _ ____ _ ____
 72
   65
 73
    4
 40
50.8
 49
31.75
 74
    0
 49
-6.35
 74
    0
 49
6.35
 74
    0
 49
-6.35
 74
    0
  0
LTYPE
  5
47
330
5
100
AcDbSymbolTableRecord
100
AcDbLinetypeTableRecord
  2
CENTERTINY
 70
    0
  3
Center (.15x) ___ _ ___ _ ___ _ ___ _ ___ _ ___
 72
   65
 73
    4
 40
7.62
 49
4.7625
 74
    0
 49
-0.9525
 74
    0
 49
0.9525
 74
    0
 49
-0.9525
 74
    0
  0
LTYPE
  5
48
330
5
100
AcDbSymbolTableRecord
100
AcDbLinetypeTableRecord
  2
CENTER2
 70
    0
  3
Center (.5x) ___ _ ___ _ ___ _ ___ _ ___ _ ___
 72
   65
 73
    4
 40
28.575
 49
19.05
 74
    0
 49
-3.175
 74
    0
 49
3.175
 74
    0
 49
-3.175
 74
    0
  0
LTYPE
  5
49
330
5
100
AcDbSymbolTableRecord
100
AcDbLinetypeTableRecord
  2
CENTERX2
 70
    0
  3
Center (2x) ________  __  ________  __  _____
 72
   65
 73
    4
 40
101.6
 49
63.5
 74
    0
 49
-12.7
 74
    0
 49
12.7
 74
    0
 49
-12.7
 74
    0
  0
ENDTAB
  0
TABLE
  2
LAYER
  5
2
330
0
100
AcDbSymbolTable
 70
    1
  0
LAYER
  5
10
330
2
100
AcDbSymbolTableRecord
100
AcDbLayerTableRecord
  2
0
 70
    0
 62
    7
  6
CONTINUOUS
370
    0
390
F
  0
LAYER
  5
4A
330
2
100
AcDbSymbolTableRecord
100
AcDbLayerTableRecord
  2
text
 70
    0
 62
    7
  6
CONTINUOUS
370
    0
390
F
  0
ENDTAB
  0
TABLE
  2
STYLE
  5
3
330
0
100
AcDbSymbolTable
 70
    3
  0
STYLE
  5
4B
330
2
100
AcDbSymbolTableRecord
100
AcDbTextStyleTableRecord
  2
normallatin2
 70
    0
 40
0
 41
1
 50
0
 71
    0
 42
1
  3
normallatin2
  4

  0
STYLE
  5
4C
330
2
100
AcDbSymbolTableRecord
100
AcDbTextStyleTableRecord
  2
Standard
 70
    0
 40
0
 41
1
 50
0
 71
    0
 42
1
  3
txt
  4

  0
ENDTAB
  0
TABLE
  2
VIEW
  5
6
330
0
100
AcDbSymbolTable
 70
    0
  0
ENDTAB
  0
TABLE
  2
UCS
  5
7
330
0
100
AcDbSymbolTable
 70
    0
  0
ENDTAB
  0
TABLE
  2
APPID
  5
9
330
0
100
AcDbSymbolTable
 70
    1
  0
APPID
  5
12
330
9
100
AcDbSymbolTableRecord
100
AcDbRegAppTableRecord
  2
ACAD
 70
    0
  0
APPID
  5
4D
330
9
100
AcDbSymbolTableRecord
100
AcDbRegAppTableRecord
  2
LibreCad
 70
    0
  0
ENDTAB
  0
TABLE
  2
DIMSTYLE
  5
A
330
0
100
AcDbSymbolTable
 70
    1
100
AcDbDimStyleTable
 71
    1
  0
DIMSTYLE
105
4E
330
A
100
AcDbSymbolTableRecord
100
AcDbDimStyleTableRecord
  2
Standard
 70
    0
 40
1
 41
2.5
 42
0.625
 43
0.38
 44
1.25
 45
0
 46
0
 47
0
 48
0
 49
1
140
2.5
141
0.09
142
0
143
25.4
144
1
145
0
146
1
147
0.625
148
0
 71
    0
 72
    0
 73
    0
 74
    1
 75
    0
 76
    0
 77
    0
 78
    1
 79
    0
170
    0
171
    2
172
    0
173
    0
174
    0
175
    0
176
    0
177
    0
178
    0
179
    2
271
    0
272
    4
273
    2
274
    2
275
    0
276
    0
277
    2
278
    0
279
    0
280
    0
281
    0
282
    0
283
    1
284
    0
285
    0
286
    0
288
    0
289
    3
340
standard
341

371
   -2
372
   -2
  0
ENDTAB
  0
TABLE
  2
BLOCK_RECORD
  5
1
330
0
100
AcDbSymbolTable
 70
    2
  0
BLOCK_RECORD
  5
1F
330
1
100
AcDbSymbolTableRecord
100
AcDbBlockTableRecord
  2
*Model_Space
 70
    0
280
    1
281
    0
  0
BLOCK_RECORD
  5
1E
330
1
100
AcDbSymbolTableRecord
100
AcDbBlockTableRecord
  2
*Paper_Space
 70
    0
280
    1
281
    0
  0
BLOCK_RECORD
  5
4F
330
1
100
AcDbSymbolTableRecord
100
AcDbBlockTableRecord
  2
*D5
 70
    0
280
    1
281
    0
  0
BLOCK_RECORD
  5
52
330
1
100
AcDbSymbolTableRecord
100
AcDbBlockTableRecord
  2
*D9
 70
    0
280
    1
281
    0
  0
BLOCK_RECORD
  5
55
330
1
100
AcDbSymbolTableRecord
100
AcDbBlockTableRecord
  2
*D14
 70
    0
280
    1
281
    0
  0
BLOCK_RECORD
  5
58
330
1
100
AcDbSymbolTableRecord
100
AcDbBlockTableRecord
  2
*D2
 70
    0
280
    1
281
    0
  0
BLOCK_RECORD
  5
5B
330
1
100
AcDbSymbolTableRecord
100
AcDbBlockTableRecord
  2
*D4
 70
    0
280
    1
281
    0
  0
BLOCK_RECORD
  5
5E
330
1
100
AcDbSymbolTableRecord
100
AcDbBlockTableRecord
  2
*D7
 70
    0
280
    1
281
    0
  0
BLOCK_RECORD
  5
61
330
1
100
AcDbSymbolTableRecord
100
AcDbBlockTableRecord
  2
*D10
 70
    0
280
    1
281
    0
  0
BLOCK_RECORD
  5
64
330
1
100
AcDbSymbolTableRecord
100
AcDbBlockTableRecord
  2
*D13
 70
    0
280
    1
281
    0
  0
BLOCK_RECORD
  5
67
330
1
100
AcDbSymbolTableRecord
100
AcDbBlockTableRecord
  2
*D3
 70
    0
280
    1
281
    0
  0
BLOCK_RECORD
  5
6A
330
1
100
AcDbSymbolTableRecord
100
AcDbBlockTableRecord
  2
*D11
 70
    0
280
    1
281
    0
  0
BLOCK_RECORD
  5
6D
330
1
100
AcDbSymbolTableRecord
100
AcDbBlockTableRecord
  2
*D1
 70
    0
280
    1
281
    0
  0
BLOCK_RECORD
  5
70
330
1
100
AcDbSymbolTableRecord
100
AcDbBlockTableRecord
  2
*D8
 70
    0
280
    1
281
    0
  0
BLOCK_RECORD
  5
73
330
1
100
AcDbSymbolTableRecord
100
AcDbBlockTableRecord
  2
*D6
 70
    0
280
    1
281
    0
  0
BLOCK_RECORD
  5
76
330
1
100
AcDbSymbolTableRecord
100
AcDbBlockTableRecord
  2
*D12
 70
    0
280
    1
281
    0
  0
ENDTAB
  0
ENDSEC
  0
SECTION
  2
BLOCKS
  0
BLOCK
  5
20
330
1F
100
AcDbEntity
  8
0
100
AcDbBlockBegin
  2
*Model_Space
 70
    0
 10
0
 20
0
 30
0
  3
*Model_Space
  1

  0
ENDBLK
  5
21
330
1F
100
AcDbEntity
  8
0
100
AcDbBlockEnd
  0
BLOCK
  5
1C
330
1B
100
AcDbEntity
  8
0
100
AcDbBlockBegin
  2
*Paper_Space
 70
    0
 10
0
 20
0
 30
0
  3
*Paper_Space
  1

  0
ENDBLK
  5
1D
330
1F
100
AcDbEntity
  8
0
100
AcDbBlockEnd
  0
BLOCK
  5
50
330
4F
100
AcDbEntity
  8
0
100
AcDbBlockBegin
  2
*D5
 70
    1
 10
0
 20
0
  3
*D5
  1

  0
LINE
  5
79
100
AcDbEntity
  8
0
  6
ByBlock
 62
    0
370
   -2
100
AcDbLine
 10
49.3674
 20
96.995
 11
28.7424
 21
96.995
  0
LINE
  5
7A
100
AcDbEntity
  8
0
  6
ByBlock
 62
    0
370
   -2
100
AcDbLine
 10
49.3674
 20
131.995
 11
28.7424
 21
131.995
  0
LINE
  5
7B
100
AcDbEntity
  8
0
  6
ByBlock
 62
    0
370
   -2
100
AcDbLine
 10
29.9924
 20
96.995
 11
29.9924
 21
131.995
  0
SOLID
  5
7C
100
AcDbEntity
  8
0
  6
ByBlock
 62
    0
370
   -2
100
AcDbTrace
 10
29.9924
 20
96.995
 30
0
 11
29.57611534222716
 21
99.495
 31
0
 12
30.40868465777285
 22
99.495
 32
0
 13
30.40868465777285
 23
99.495
 33
0
  0
SOLID
  5
7D
100
AcDbEntity
  8
0
  6
ByBlock
 62
    0
370
   -2
100
AcDbTrace
 10
29.9924
 20
131.995
 30
0
 11
30.40868465777285
 21
129.495
 31
0
 12
29.57611534222716
 22
129.495
 32
0
 13
29.57611534222716
 23
129.495
 33
0
  0
MTEXT
  5
7E
100
AcDbEntity
  8
0
  6
CONTINUOUS
 62
    0
370
   -2
100
AcDbMText
 10
28.1174
 20
114.495
 30
0
 40
2.5
 41
3.055555555555866
 71
    5
 72
    1
  1
35
  7
standard
210
0
220
0
230
1
 50
90
 73
    2
 44
1
  0
ENDBLK
  5
51
330
4F
100
AcDbEntity
  8
0
100
AcDbBlockEnd
  0
BLOCK
  5
53
330
52
100
AcDbEntity
  8
0
100
AcDbBlockBegin
  2
*D9
 70
    1
 10
0
 20
0
  3
*D9
  1

  0
LINE
  5
7F
100
AcDbEntity
  8
0
  6
ByBlock
 62
    0
370
   -2
100
AcDbLine
 10
163.9924
 20
56.37
 11
163.9924
 21
35.745
  0
LINE
  5
80
100
AcDbEntity
  8
0
  6
ByBlock
 62
    0
370
   -2
100
AcDbLine
 10
181.9924
 20
56.37
 11
181.9924
 21
35.745
  0
LINE
  5
81
100
AcDbEntity
  8
0
  6
ByBlock
 62
    0
370
   -2
100
AcDbLine
 10
163.9924
 20
36.995
 11
181.9924
 21
36.995
  0
SOLID
  5
82
100
AcDbEntity
  8
0
  6
ByBlock
 62
    0
370
   -2
100
AcDbTrace
 10
163.9924
 20
36.995
 30
0
 11
166.4924
 21
37.41128465777285
 31
0
 12
166.4924
 22
36.57871534222716
 32
0
 13
166.4924
 23
36.57871534222716
 33
0
  0
SOLID
  5
83
100
AcDbEntity
  8
0
  6
ByBlock
 62
    0
370
   -2
100
AcDbTrace
 10
181.9924
 20
36.995
 30
0
 11
179.4924
 21
36.57871534222716
 31
0
 12
179.4924
 22
37.41128465777285
 32
0
 13
179.4924
 23
37.41128465777285
 33
0
  0
MTEXT
  5
84
100
AcDbEntity
  8
0
  6
CONTINUOUS
 62
    0
370
   -2
100
AcDbMText
 10
172.9924
 20
38.87
 30
0
 40
2.5
 41
2.5
 71
    5
 72
    1
  1
18
  7
standard
210
0
220
0
230
1
 50
0
 73
    2
 44
1
  0
ENDBLK
  5
54
330
52
100
AcDbEntity
  8
0
100
AcDbBlockEnd
  0
BLOCK
  5
56
330
55
100
AcDbEntity
  8
0
100
AcDbBlockBegin
  2
*D14
 70
    1
 10
0
 20
0
  3
*D14
  1

  0
LINE
  5
85
100
AcDbEntity
  8
0
  6
ByBlock
 62
    0
370
   -2
100
AcDbLine
 10
248.6337941725435
 20
173.0298744451764
 11
262.4591540823347
 21
186.8552343549675
  0
LINE
  5
86
100
AcDbEntity
  8
0
  6
ByBlock
 62
    0
370
   -2
100
AcDbLine
 10
259.9289713597549
 20
161.734697257965
 11
273.754331269546
 21
175.5600571677561
  0
LINE
  5
87
100
AcDbEntity
  8
0
  6
ByBlock
 62
    0
370
   -2
100
AcDbLine
 10
261.5752706058515
 20
185.9713508784843
 11
272.8704477930629
 21
174.6761736912729
  0
SOLID
  5
88
100
AcDbEntity
  8
0
  6
ByBlock
 62
    0
370
   -2
100
AcDbTrace
 10
261.5752706058515
 20
185.9713508784843
 30
0
 11
263.637395263233
 21
184.4979416299331
 31
0
 12
263.0486798544028
 22
183.9092262211028
 32
0
 13
263.0486798544028
 23
183.9092262211028
 33
0
  0
SOLID
  5
89
100
AcDbEntity
  8
0
  6
ByBlock
 62
    0
370
   -2
100
AcDbTrace
 10
272.8704477930629
 20
174.6761736912729
 30
0
 11
270.8083231356814
 21
176.1495829398242
 31
0
 12
271.3970385445116
 22
176.7382983486544
 32
0
 13
271.3970385445116
 23
176.7382983486544
 33
0
  0
MTEXT
  5
8A
100
AcDbEntity
  8
0
  6
CONTINUOUS
 62
    0
370
   -2
100
AcDbMText
 10
268.5486844141818
 20
181.6495874996034
 30
0
 40
2.5
 41
2.500000000000155
 71
    5
 72
    1
  1
16
  7
standard
210
0
220
0
230
1
 50
314.9999999999998
 73
    2
 44
1
  0
ENDBLK
  5
57
330
55
100
AcDbEntity
  8
0
100
AcDbBlockEnd
  0
BLOCK
  5
59
330
58
100
AcDbEntity
  8
0
100
AcDbBlockBegin
  2
*D2
 70
    1
 10
0
 20
0
  3
*D2
  1

  0
LINE
  5
8B
100
AcDbEntity
  8
0
  6
ByBlock
 62
    0
370
   -2
100
AcDbLine
 10
340.6174
 20
206.995
 11
371.2424
 21
206.995
  0
LINE
  5
8C
100
AcDbEntity
  8
0
  6
ByBlock
 62
    0
370
   -2
100
AcDbLine
 10
340.6174
 20
226.995
 11
371.2424
 21
226.995
  0
LINE
  5
8D
100
AcDbEntity
  8
0
  6
ByBlock
 62
    0
370
   -2
100
AcDbLine
 10
369.9924
 20
206.995
 11
369.9924
 21
226.995
  0
SOLID
  5
8E
100
AcDbEntity
  8
0
  6
ByBlock
 62
    0
370
   -2
100
AcDbTrace
 10
369.9924
 20
206.995
 30
0
 11
369.5761153422271
 21
209.495
 31
0
 12
370.4086846577728
 22
209.495
 32
0
 13
370.4086846577728
 23
209.495
 33
0
  0
SOLID
  5
8F
100
AcDbEntity
  8
0
  6
ByBlock
 62
    0
370
   -2
100
AcDbTrace
 10
369.9924
 20
226.995
 30
0
 11
370.4086846577728
 21
224.495
 31
0
 12
369.5761153422271
 22
224.495
 32
0
 13
369.5761153422271
 23
224.495
 33
0
  0
MTEXT
  5
90
100
AcDbEntity
  8
0
  6
CONTINUOUS
 62
    0
370
   -2
100
AcDbMText
 10
368.1174
 20
216.995
 30
0
 40
2.5
 41
3.055555555555556
 71
    5
 72
    1
  1
20
  7
standard
210
0
220
0
230
1
 50
90
 73
    2
 44
1
  0
ENDBLK
  5
5A
330
58
100
AcDbEntity
  8
0
100
AcDbBlockEnd
  0
BLOCK
  5
5C
330
5B
100
AcDbEntity
  8
0
100
AcDbBlockBegin
  2
*D4
 70
    1
 10
0
 20
0
  3
*D4
  1

  0
LINE
  5
91
100
AcDbEntity
  8
0
  6
ByBlock
 62
    0
370
   -2
100
AcDbLine
 10
49.3674
 20
56.995
 11
28.7424
 21
56.995
  0
LINE
  5
92
100
AcDbEntity
  8
0
  6
ByBlock
 62
    0
370
   -2
100
AcDbLine
 10
49.3674
 20
96.995
 11
28.7424
 21
96.995
  0
LINE
  5
93
100
AcDbEntity
  8
0
  6
ByBlock
 62
    0
370
   -2
100
AcDbLine
 10
29.9924
 20
56.995
 11
29.9924
 21
96.995
  0
SOLID
  5
94
100
AcDbEntity
  8
0
  6
ByBlock
 62
    0
370
   -2
100
AcDbTrace
 10
29.9924
 20
56.995
 30
0
 11
29.57611534222716
 21
59.495
 31
0
 12
30.40868465777285
 22
59.495
 32
0
 13
30.40868465777285
 23
59.495
 33
0
  0
SOLID
  5
95
100
AcDbEntity
  8
0
  6
ByBlock
 62
    0
370
   -2
100
AcDbTrace
 10
29.9924
 20
96.995
 30
0
 11
30.40868465777285
 21
94.495
 31
0
 12
29.57611534222716
 22
94.495
 32
0
 13
29.57611534222716
 23
94.495
 33
0
  0
MTEXT
  5
96
100
AcDbEntity
  8
0
  6
CONTINUOUS
 62
    0
370
   -2
100
AcDbMText
 10
28.1174
 20
76.995
 30
0
 40
2.5
 41
3.333333333333333
 71
    5
 72
    1
  1
40
  7
standard
210
0
220
0
230
1
 50
90
 73
    2
 44
1
  0
ENDBLK
  5
5D
330
5B
100
AcDbEntity
  8
0
100
AcDbBlockEnd
  0
BLOCK
  5
5F
330
5E
100
AcDbEntity
  8
0
100
AcDbBlockBegin
  2
*D7
 70
    1
 10
0
 20
0
  3
*D7
  1

  0
LINE
  5
97
100
AcDbEntity
  8
0
  6
ByBlock
 62
    0
370
   -2
100
AcDbLine
 10
145.9924
 20
56.37
 11
145.9924
 21
35.745
  0
LINE
  5
98
100
AcDbEntity
  8
0
  6
ByBlock
 62
    0
370
   -2
100
AcDbLine
 10
49.9924
 20
56.37
 11
49.9924
 21
35.745
  0
LINE
  5
99
100
AcDbEntity
  8
0
  6
ByBlock
 62
    0
370
   -2
100
AcDbLine
 10
145.9924
 20
36.995
 11
49.9924
 21
36.995
  0
SOLID
  5
9A
100
AcDbEntity
  8
0
  6
ByBlock
 62
    0
370
   -2
100
AcDbTrace
 10
145.9924
 20
36.995
 30
0
 11
143.4924
 21
36.57871534222716
 31
0
 12
143.4924
 22
37.41128465777285
 32
0
 13
143.4924
 23
37.41128465777285
 33
0
  0
SOLID
  5
9B
100
AcDbEntity
  8
0
  6
ByBlock
 62
    0
370
   -2
100
AcDbTrace
 10
49.9924
 20
36.995
 30
0
 11
52.4924
 21
37.41128465777285
 31
0
 12
52.4924
 22
36.57871534222716
 32
0
 13
52.4924
 23
36.57871534222716
 33
0
  0
MTEXT
  5
9C
100
AcDbEntity
  8
0
  6
CONTINUOUS
 62
    0
370
   -2
100
AcDbMText
 10
97.9924
 20
38.87
 30
0
 40
2.5
 41
3.055555555555866
 71
    5
 72
    1
  1
96
  7
standard
210
0
220
0
230
1
 50
360
 73
    2
 44
1
  0
ENDBLK
  5
60
330
5E
100
AcDbEntity
  8
0
100
AcDbBlockEnd
  0
BLOCK
  5
62
330
61
100
AcDbEntity
  8
0
100
AcDbBlockBegin
  2
*D10
 70
    1
 10
0
 20
0
  3
*D10
  1

  0
LINE
  5
9D
100
AcDbEntity
  8
0
  6
ByBlock
 62
    0
370
   -2
100
AcDbLine
 10
181.9924
 20
56.37
 11
181.9924
 21
35.745
  0
LINE
  5
9E
100
AcDbEntity
  8
0
  6
ByBlock
 62
    0
370
   -2
100
AcDbLine
 10
199.9924
 20
56.37
 11
199.9924
 21
35.745
  0
LINE
  5
9F
100
AcDbEntity
  8
0
  6
ByBlock
 62
    0
370
   -2
100
AcDbLine
 10
181.9924
 20
36.995
 11
199.9924
 21
36.995
  0
SOLID
  5
A0
100
AcDbEntity
  8
0
  6
ByBlock
 62
    0
370
   -2
100
AcDbTrace
 10
181.9924
 20
36.995
 30
0
 11
184.4924
 21
37.41128465777285
 31
0
 12
184.4924
 22
36.57871534222716
 32
0
 13
184.4924
 23
36.57871534222716
 33
0
  0
SOLID
  5
A1
100
AcDbEntity
  8
0
  6
ByBlock
 62
    0
370
   -2
100
AcDbTrace
 10
199.9924
 20
36.995
 30
0
 11
197.4924
 21
36.57871534222716
 31
0
 12
197.4924
 22
37.41128465777285
 32
0
 13
197.4924
 23
37.41128465777285
 33
0
  0
MTEXT
  5
A2
100
AcDbEntity
  8
0
  6
CONTINUOUS
 62
    0
370
   -2
100
AcDbMText
 10
190.9924
 20
38.87
 30
0
 40
2.5
 41
2.5
 71
    5
 72
    1
  1
18
  7
standard
210
0
220
0
230
1
 50
0
 73
    2
 44
1
  0
ENDBLK
  5
63
330
61
100
AcDbEntity
  8
0
100
AcDbBlockEnd
  0
BLOCK
  5
65
330
64
100
AcDbEntity
  8
0
100
AcDbBlockBegin
  2
*D13
 70
    1
 10
0
 20
0
  3
*D13
  1

  0
LINE
  5
A3
100
AcDbEntity
  8
0
  6
ByBlock
 62
    0
370
   -2
100
AcDbLine
 10
235.9924
 20
56.37
 11
235.9924
 21
35.745
  0
LINE
  5
A4
100
AcDbEntity
  8
0
  6
ByBlock
 62
    0
370
   -2
100
AcDbLine
 10
253.9924
 20
56.37
 11
253.9924
 21
35.745
  0
LINE
  5
A5
100
AcDbEntity
  8
0
  6
ByBlock
 62
    0
370
   -2
100
AcDbLine
 10
235.9924
 20
36.995
 11
253.9924
 21
36.995
  0
SOLID
  5
A6
100
AcDbEntity
  8
0
  6
ByBlock
 62
    0
370
   -2
100
AcDbTrace
 10
235.9924
 20
36.995
 30
0
 11
238.4924
 21
37.41128465777285
 31
0
 12
238.4924
 22
36.57871534222716
 32
0
 13
238.4924
 23
36.57871534222716
 33
0
  0
SOLID
  5
A7
100
AcDbEntity
  8
0
  6
ByBlock
 62
    0
370
   -2
100
AcDbTrace
 10
253.9924
 20
36.995
 30
0
 11
251.4924
 21
36.57871534222716
 31
0
 12
251.4924
 22
37.41128465777285
 32
0
 13
251.4924
 23
37.41128465777285
 33
0
  0
MTEXT
  5
A8
100
AcDbEntity
  8
0
  6
CONTINUOUS
 62
    0
370
   -2
100
AcDbMText
 10
244.9924
 20
38.87
 30
0
 40
2.5
 41
2.5
 71
    5
 72
    1
  1
18
  7
standard
210
0
220
0
230
1
 50
0
 73
    2
 44
1
  0
ENDBLK
  5
66
330
64
100
AcDbEntity
  8
0
100
AcDbBlockEnd
  0
BLOCK
  5
68
330
67
100
AcDbEntity
  8
0
100
AcDbBlockBegin
  2
*D3
 70
    1
 10
0
 20
0
  3
*D3
  1

  0
LINE
  5
A9
100
AcDbEntity
  8
0
  6
ByBlock
 62
    0
370
   -2
100
AcDbLine
 10
49.9924
 20
227.62
 11
49.9924
 21
248.245
  0
LINE
  5
AA
100
AcDbEntity
  8
0
  6
ByBlock
 62
    0
370
   -2
100
AcDbLine
 10
349.9924
 20
227.62
 11
349.9924
 21
248.245
  0
LINE
  5
AB
100
AcDbEntity
  8
0
  6
ByBlock
 62
    0
370
   -2
100
AcDbLine
 10
49.9924
 20
246.995
 11
349.9924
 21
246.995
  0
SOLID
  5
AC
100
AcDbEntity
  8
0
  6
ByBlock
 62
    0
370
   -2
100
AcDbTrace
 10
49.9924
 20
246.995
 30
0
 11
52.4924
 21
247.4112846577729
 31
0
 12
52.4924
 22
246.5787153422272
 32
0
 13
52.4924
 23
246.5787153422272
 33
0
  0
SOLID
  5
AD
100
AcDbEntity
  8
0
  6
ByBlock
 62
    0
370
   -2
100
AcDbTrace
 10
349.9924
 20
246.995
 30
0
 11
347.4924
 21
246.5787153422272
 31
0
 12
347.4924
 22
247.4112846577729
 32
0
 13
347.4924
 23
247.4112846577729
 33
0
  0
MTEXT
  5
AE
100
AcDbEntity
  8
0
  6
CONTINUOUS
 62
    0
370
   -2
100
AcDbMText
 10
199.9924
 20
248.87
 30
0
 40
2.5
 41
5.000000000000155
 71
    5
 72
    1
  1
300
  7
standard
210
0
220
0
230
1
 50
0
 73
    2
 44
1
  0
ENDBLK
  5
69
330
67
100
AcDbEntity
  8
0
100
AcDbBlockEnd
  0
BLOCK
  5
6B
330
6A
100
AcDbEntity
  8
0
100
AcDbBlockBegin
  2
*D11
 70
    1
 10
0
 20
0
  3
*D11
  1

  0
LINE
  5
AF
100
AcDbEntity
  8
0
  6
ByBlock
 62
    0
370
   -2
100
AcDbLine
 10
199.9924
 20
56.37
 11
199.9924
 21
35.745
  0
LINE
  5
B0
100
AcDbEntity
  8
0
  6
ByBlock
 62
    0
370
   -2
100
AcDbLine
 10
217.9924
 20
56.37
 11
217.9924
 21
35.745
  0
LINE
  5
B1
100
AcDbEntity
  8
0
  6
ByBlock
 62
    0
370
   -2
100
AcDbLine
 10
199.9924
 20
36.995
 11
217.9924
 21
36.995
  0
SOLID
  5
B2
100
AcDbEntity
  8
0
  6
ByBlock
 62
    0
370
   -2
100
AcDbTrace
 10
199.9924
 20
36.995
 30
0
 11
202.4924
 21
37.41128465777285
 31
0
 12
202.4924
 22
36.57871534222716
 32
0
 13
202.4924
 23
36.57871534222716
 33
0
  0
SOLID
  5
B3
100
AcDbEntity
  8
0
  6
ByBlock
 62
    0
370
   -2
100
AcDbTrace
 10
217.9924
 20
36.995
 30
0
 11
215.4924
 21
36.57871534222716
 31
0
 12
215.4924
 22
37.41128465777285
 32
0
 13
215.4924
 23
37.41128465777285
 33
0
  0
MTEXT
  5
B4
100
AcDbEntity
  8
0
  6
CONTINUOUS
 62
    0
370
   -2
100
AcDbMText
 10
208.9924
 20
38.87
 30
0
 40
2.5
 41
2.5
 71
    5
 72
    1
  1
18
  7
standard
210
0
220
0
230
1
 50
0
 73
    2
 44
1
  0
ENDBLK
  5
6C
330
6A
100
AcDbEntity
  8
0
100
AcDbBlockEnd
  0
BLOCK
  5
6E
330
6D
100
AcDbEntity
  8
0
100
AcDbBlockBegin
  2
*D1
 70
    1
 10
0
 20
0
  3
*D1
  1

  0
LINE
  5
B5
100
AcDbEntity
  8
0
  6
ByBlock
 62
    0
370
   -2
100
AcDbLine
 10
350.6174
 20
56.995
 11
371.2424
 21
56.995
  0
LINE
  5
B6
100
AcDbEntity
  8
0
  6
ByBlock
 62
    0
370
   -2
100
AcDbLine
 10
350.6174
 20
206.995
 11
371.2424
 21
206.995
  0
LINE
  5
B7
100
AcDbEntity
  8
0
  6
ByBlock
 62
    0
370
   -2
100
AcDbLine
 10
369.9924
 20
56.995
 11
369.9924
 21
206.995
  0
SOLID
  5
B8
100
AcDbEntity
  8
0
  6
ByBlock
 62
    0
370
   -2
100
AcDbTrace
 10
369.9924
 20
56.995
 30
0
 11
369.5761153422271
 21
59.495
 31
0
 12
370.4086846577728
 22
59.495
 32
0
 13
370.4086846577728
 23
59.495
 33
0
  0
SOLID
  5
B9
100
AcDbEntity
  8
0
  6
ByBlock
 62
    0
370
   -2
100
AcDbTrace
 10
369.9924
 20
206.995
 30
0
 11
370.4086846577728
 21
204.495
 31
0
 12
369.5761153422271
 22
204.495
 32
0
 13
369.5761153422271
 23
204.495
 33
0
  0
MTEXT
  5
BA
100
AcDbEntity
  8
0
  6
CONTINUOUS
 62
    0
370
   -2
100
AcDbMText
 10
368.1174
 20
131.995
 30
0
 40
2.5
 41
4.444444444444599
 71
    5
 72
    1
  1
150
  7
standard
210
0
220
0
230
1
 50
90
 73
    2
 44
1
  0
ENDBLK
  5
6F
330
6D
100
AcDbEntity
  8
0
100
AcDbBlockEnd
  0
BLOCK
  5
71
330
70
100
AcDbEntity
  8
0
100
AcDbBlockBegin
  2
*D8
 70
    1
 10
0
 20
0
  3
*D8
  1

  0
LINE
  5
BB
100
AcDbEntity
  8
0
  6
ByBlock
 62
    0
370
   -2
100
AcDbLine
 10
145.9924
 20
56.37
 11
145.9924
 21
35.745
  0
LINE
  5
BC
100
AcDbEntity
  8
0
  6
ByBlock
 62
    0
370
   -2
100
AcDbLine
 10
163.9924
 20
56.37
 11
163.9924
 21
35.745
  0
LINE
  5
BD
100
AcDbEntity
  8
0
  6
ByBlock
 62
    0
370
   -2
100
AcDbLine
 10
145.9924
 20
36.995
 11
163.9924
 21
36.995
  0
SOLID
  5
BE
100
AcDbEntity
  8
0
  6
ByBlock
 62
    0
370
   -2
100
AcDbTrace
 10
145.9924
 20
36.995
 30
0
 11
148.4924
 21
37.41128465777285
 31
0
 12
148.4924
 22
36.57871534222716
 32
0
 13
148.4924
 23
36.57871534222716
 33
0
  0
SOLID
  5
BF
100
AcDbEntity
  8
0
  6
ByBlock
 62
    0
370
   -2
100
AcDbTrace
 10
163.9924
 20
36.995
 30
0
 11
161.4924
 21
36.57871534222716
 31
0
 12
161.4924
 22
37.41128465777285
 32
0
 13
161.4924
 23
37.41128465777285
 33
0
  0
MTEXT
  5
C0
100
AcDbEntity
  8
0
  6
CONTINUOUS
 62
    0
370
   -2
100
AcDbMText
 10
154.9924
 20
38.87
 30
0
 40
2.5
 41
2.5
 71
    5
 72
    1
  1
18
  7
standard
210
0
220
0
230
1
 50
0
 73
    2
 44
1
  0
ENDBLK
  5
72
330
70
100
AcDbEntity
  8
0
100
AcDbBlockEnd
  0
BLOCK
  5
74
330
73
100
AcDbEntity
  8
0
100
AcDbBlockBegin
  2
*D6
 70
    1
 10
0
 20
0
  3
*D6
  1

  0
LINE
  5
C1
100
AcDbEntity
  8
0
  6
ByBlock
 62
    0
370
   -2
100
AcDbLine
 10
49.3674
 20
131.995
 11
28.7424
 21
131.995
  0
LINE
  5
C2
100
AcDbEntity
  8
0
  6
ByBlock
 62
    0
370
   -2
100
AcDbLine
 10
49.3674
 20
166.995
 11
28.7424
 21
166.995
  0
LINE
  5
C3
100
AcDbEntity
  8
0
  6
ByBlock
 62
    0
370
   -2
100
AcDbLine
 10
29.9924
 20
131.995
 11
29.9924
 21
166.995
  0
SOLID
  5
C4
100
AcDbEntity
  8
0
  6
ByBlock
 62
    0
370
   -2
100
AcDbTrace
 10
29.9924
 20
131.995
 30
0
 11
29.57611534222716
 21
134.495
 31
0
 12
30.40868465777285
 22
134.495
 32
0
 13
30.40868465777285
 23
134.495
 33
0
  0
SOLID
  5
C5
100
AcDbEntity
  8
0
  6
ByBlock
 62
    0
370
   -2
100
AcDbTrace
 10
29.9924
 20
166.995
 30
0
 11
30.40868465777285
 21
164.495
 31
0
 12
29.57611534222716
 22
164.495
 32
0
 13
29.57611534222716
 23
164.495
 33
0
  0
MTEXT
  5
C6
100
AcDbEntity
  8
0
  6
CONTINUOUS
 62
    0
370
   -2
100
AcDbMText
 10
28.1174
 20
149.495
 30
0
 40
2.5
 41
3.055555555555866
 71
    5
 72
    1
  1
35
  7
standard
210
0
220
0
230
1
 50
90
 73
    2
 44
1
  0
ENDBLK
  5
75
330
73
100
AcDbEntity
  8
0
100
AcDbBlockEnd
  0
BLOCK
  5
77
330
76
100
AcDbEntity
  8
0
100
AcDbBlockBegin
  2
*D12
 70
    1
 10
0
 20
0
  3
*D12
  1

  0
LINE
  5
C7
100
AcDbEntity
  8
0
  6
ByBlock
 62
    0
370
   -2
100
AcDbLine
 10
217.9924
 20
56.37
 11
217.9924
 21
35.745
  0
LINE
  5
C8
100
AcDbEntity
  8
0
  6
ByBlock
 62
    0
370
   -2
100
AcDbLine
 10
235.9924
 20
56.37
 11
235.9924
 21
35.745
  0
LINE
  5
C9
100
AcDbEntity
  8
0
  6
ByBlock
 62
    0
370
   -2
100
AcDbLine
 10
217.9924
 20
36.995
 11
235.9924
 21
36.995
  0
SOLID
  5
CA
100
AcDbEntity
  8
0
  6
ByBlock
 62
    0
370
   -2
100
AcDbTrace
 10
217.9924
 20
36.995
 30
0
 11
220.4924
 21
37.41128465777285
 31
0
 12
220.4924
 22
36.57871534222716
 32
0
 13
220.4924
 23
36.57871534222716
 33
0
  0
SOLID
  5
CB
100
AcDbEntity
  8
0
  6
ByBlock
 62
    0
370
   -2
100
AcDbTrace
 10
235.9924
 20
36.995
 30
0
 11
233.4924
 21
36.57871534222716
 31
0
 12
233.4924
 22
37.41128465777285
 32
0
 13
233.4924
 23
37.41128465777285
 33
0
  0
MTEXT
  5
CC
100
AcDbEntity
  8
0
  6
CONTINUOUS
 62
    0
370
   -2
100
AcDbMText
 10
226.9924
 20
38.87
 30
0
 40
2.5
 41
2.5
 71
    5
 72
    1
  1
18
  7
standard
210
0
220
0
230
1
 50
0
 73
    2
 44
1
  0
ENDBLK
  5
78
330
76
100
AcDbEntity
  8
0
100
AcDbBlockEnd
  0
ENDSEC
  0
SECTION
  2
ENTITIES
  0
LINE
  5
CD
100
AcDbEntity
  8
0
  6
ByLayer
 62
  256
370
   -1
100
AcDbLine
 10
289.9914
 20
33.98600000000002
 11
289.9914
 21
1.982000000000028
  0
LINE
  5
CE
100
AcDbEntity
  8
0
  6
ByLayer
 62
  256
370
   -1
100
AcDbLine
 10
289.9914
 20
1.982000000000028
 11
397.9924
 21
1.982000000000028
  0
LINE
  5
CF
100
AcDbEntity
  8
0
  6
ByLayer
 62
  256
370
   -1
100
AcDbLine
 10
397.9924
 20
1.982000000000028
 11
397.9924
 21
33.98600000000002
  0
LINE
  5
D0
100
AcDbEntity
  8
0
  6
ByLayer
 62
  256
370
   -1
100
AcDbLine
 10
397.9924
 20
33.98600000000002
 11
289.9914
 21
33.98600000000002
  0
LINE
  5
D1
100
AcDbEntity
  8
0
  6
ByLayer
 62
  256
370
   -1
100
AcDbLine
 10
0
 20
276.9874
 11
0
 21
0
  0
LINE
  5
D2
100
AcDbEntity
  8
0
  6
ByLayer
 62
  256
370
   -1
100
AcDbLine
 10
0
 20
0
 11
399.9734
 21
0
  0
LINE
  5
D3
100
AcDbEntity
  8
0
  6
ByLayer
 62
  256
370
   -1
100
AcDbLine
 10
399.9734
 20
0
 11
399.9734
 21
276.9874
  0
LINE
  5
D4
100
AcDbEntity
  8
0
  6
ByLayer
 62
  256
370
   -1
100
AcDbLine
 10
399.9734
 20
276.9874
 11
0
 21
276.9874
  0
LINE
  5
D5
100
AcDbEntity
  8
0
  6
ByLayer
 62
  256
370
   -1
100
AcDbLine
 10
1.981199999999999
 20
275.0062
 11
1.981199999999999
 21
1.982000000000028
  0
LINE
  5
D6
100
AcDbEntity
  8
0
  6
ByLayer
 62
  256
370
   -1
100
AcDbLine
 10
1.981199999999999
 20
1.982000000000028
 11
397.9924
 21
1.982000000000028
  0
LINE
  5
D7
100
AcDbEntity
  8
0
  6
ByLayer
 62
  256
370
   -1
100
AcDbLine
 10
397.9924
 20
1.982000000000028
 11
397.9924
 21
275.0062
  0
LINE
  5
D8
100
AcDbEntity
  8
0
  6
ByLayer
 62
  256
370
   -1
100
AcDbLine
 10
397.9924
 20
275.0062
 11
1.981199999999999
 21
275.0062
  0
LINE
  5
D9
100
AcDbEntity
  8
0
  6
ByLayer
 62
  256
370
   -1
100
AcDbLine
 10
49.9872
 20
275.0062
 11
49.9872
 21
276.9874
  0
LINE
  5
DA
100
AcDbEntity
  8
0
  6
ByLayer
 62
  256
370
   -1
100
AcDbLine
 10
99.99940000000001
 20
275.0062
 11
99.99940000000001
 21
276.9874
  0
LINE
  5
DB
100
AcDbEntity
  8
0
  6
ByLayer
 62
  256
370
   -1
100
AcDbLine
 10
149.9874
 20
275.0062
 11
149.9874
 21
276.9874
  0
LINE
  5
DC
100
AcDbEntity
  8
0
  6
ByLayer
 62
  256
370
   -1
100
AcDbLine
 10
199.9994
 20
275.0062
 11
199.9994
 21
276.9874
  0
LINE
  5
DD
100
AcDbEntity
  8
0
  6
ByLayer
 62
  256
370
   -1
100
AcDbLine
 10
249.9864
 20
275.0062
 11
249.9864
 21
276.9874
  0
LINE
  5
DE
100
AcDbEntity
  8
0
  6
ByLayer
 62
  256
370
   -1
100
AcDbLine
 10
299.9994
 20
275.0062
 11
299.9994
 21
276.9874
  0
LINE
  5
DF
100
AcDbEntity
  8
0
  6
ByLayer
 62
  256
370
   -1
100
AcDbLine
 10
349.9864
 20
275.0062
 11
349.9864
 21
276.9874
  0
LINE
  5
E0
100
AcDbEntity
  8
0
  6
ByLayer
 62
  256
370
   -1
100
AcDbLine
 10
25.9842
 20
275.4126
 11
25.24760000000001
 21
275.4126
  0
LINE
  5
E1
100
AcDbEntity
  8
0
  6
ByLayer
 62
  256
370
   -1
100
AcDbLine
 10
25.6032
 20
275.4126
 11
25.6032
 21
276.708
  0
LINE
  5
E2
100
AcDbEntity
  8
0
  6
ByLayer
 62
  256
370
   -1
100
AcDbLine
 10
25.6032
 20
276.708
 11
25.47620000000001
 21
276.5302
  0
LINE
  5
E3
100
AcDbEntity
  8
0
  6
ByLayer
 62
  256
370
   -1
100
AcDbLine
 10
25.47620000000001
 20
276.5302
 11
25.3746
 21
276.4032
  0
LINE
  5
E4
100
AcDbEntity
  8
0
  6
ByLayer
 62
  256
370
   -1
100
AcDbLine
 10
25.3746
 20
276.4032
 11
25.24760000000001
 21
276.3524
  0
LINE
  5
E5
100
AcDbEntity
  8
0
  6
ByLayer
 62
  256
370
   -1
100
AcDbLine
 10
75.23480000000001
 20
276.6064
 11
75.2856
 21
276.6572
  0
LINE
  5
E6
100
AcDbEntity
  8
0
  6
ByLayer
 62
  256
370
   -1
100
AcDbLine
 10
75.2856
 20
276.6572
 11
75.4126
 21
276.708
  0
LINE
  5
E7
100
AcDbEntity
  8
0
  6
ByLayer
 62
  256
370
   -1
100
AcDbLine
 10
75.4126
 20
276.708
 11
75.7174
 21
276.708
  0
LINE
  5
E8
100
AcDbEntity
  8
0
  6
ByLayer
 62
  256
370
   -1
100
AcDbLine
 10
75.7174
 20
276.708
 11
75.84440000000001
 21
276.6572
  0
LINE
  5
E9
100
AcDbEntity
  8
0
  6
ByLayer
 62
  256
370
   -1
100
AcDbLine
 10
75.84440000000001
 20
276.6572
 11
75.8952
 21
276.6064
  0
LINE
  5
EA
100
AcDbEntity
  8
0
  6
ByLayer
 62
  256
370
   -1
100
AcDbLine
 10
75.8952
 20
276.6064
 11
75.9714
 21
276.4794
  0
LINE
  5
EB
100
AcDbEntity
  8
0
  6
ByLayer
 62
  256
370
   -1
100
AcDbLine
 10
75.9714
 20
276.4794
 11
75.9714
 21
276.3524
  0
LINE
  5
EC
100
AcDbEntity
  8
0
  6
ByLayer
 62
  256
370
   -1
100
AcDbLine
 10
75.9714
 20
276.3524
 11
75.8952
 21
276.1746
  0
LINE
  5
ED
100
AcDbEntity
  8
0
  6
ByLayer
 62
  256
370
   -1
100
AcDbLine
 10
75.8952
 20
276.1746
 11
75.15860000000001
 21
275.4126
  0
LINE
  5
EE
100
AcDbEntity
  8
0
  6
ByLayer
 62
  256
370
   -1
100
AcDbLine
 10
75.15860000000001
 20
275.4126
 11
75.9714
 21
275.4126
  0
LINE
  5
EF
100
AcDbEntity
  8
0
  6
ByLayer
 62
  256
370
   -1
100
AcDbLine
 10
125.1714
 20
276.708
 11
125.9844
 21
276.708
  0
LINE
  5
F0
100
AcDbEntity
  8
0
  6
ByLayer
 62
  256
370
   -1
100
AcDbLine
 10
125.9844
 20
276.708
 11
125.5524
 21
276.2254
  0
LINE
  5
F1
100
AcDbEntity
  8
0
  6
ByLayer
 62
  256
370
   -1
100
AcDbLine
 10
125.5524
 20
276.2254
 11
125.7304
 21
276.2254
  0
LINE
  5
F2
100
AcDbEntity
  8
0
  6
ByLayer
 62
  256
370
   -1
100
AcDbLine
 10
125.7304
 20
276.2254
 11
125.8574
 21
276.1746
  0
LINE
  5
F3
100
AcDbEntity
  8
0
  6
ByLayer
 62
  256
370
   -1
100
AcDbLine
 10
125.8574
 20
276.1746
 11
125.9074
 21
276.0984
  0
LINE
  5
F4
100
AcDbEntity
  8
0
  6
ByLayer
 62
  256
370
   -1
100
AcDbLine
 10
125.9074
 20
276.0984
 11
125.9844
 21
275.9714
  0
LINE
  5
F5
100
AcDbEntity
  8
0
  6
ByLayer
 62
  256
370
   -1
100
AcDbLine
 10
125.9844
 20
275.9714
 11
125.9844
 21
275.6666
  0
LINE
  5
F6
100
AcDbEntity
  8
0
  6
ByLayer
 62
  256
370
   -1
100
AcDbLine
 10
125.9844
 20
275.6666
 11
125.9074
 21
275.5396
  0
LINE
  5
F7
100
AcDbEntity
  8
0
  6
ByLayer
 62
  256
370
   -1
100
AcDbLine
 10
125.9074
 20
275.5396
 11
125.8574
 21
275.4888
  0
LINE
  5
F8
100
AcDbEntity
  8
0
  6
ByLayer
 62
  256
370
   -1
100
AcDbLine
 10
125.8574
 20
275.4888
 11
125.7304
 21
275.4126
  0
LINE
  5
F9
100
AcDbEntity
  8
0
  6
ByLayer
 62
  256
370
   -1
100
AcDbLine
 10
125.7304
 20
275.4126
 11
125.3744
 21
275.4126
  0
LINE
  5
FA
100
AcDbEntity
  8
0
  6
ByLayer
 62
  256
370
   -1
100
AcDbLine
 10
125.3744
 20
275.4126
 11
125.2474
 21
275.4888
  0
LINE
  5
FB
100
AcDbEntity
  8
0
  6
ByLayer
 62
  256
370
   -1
100
AcDbLine
 10
125.2474
 20
275.4888
 11
125.1714
 21
275.5396
  0
LINE
  5
FC
100
AcDbEntity
  8
0
  6
ByLayer
 62
  256
370
   -1
100
AcDbLine
 10
175.8444
 20
276.2762
 11
175.8444
 21
275.4126
  0
LINE
  5
FD
100
AcDbEntity
  8
0
  6
ByLayer
 62
  256
370
   -1
100
AcDbLine
 10
175.5394
 20
276.7842
 11
175.2344
 21
275.8444
  0
LINE
  5
FE
100
AcDbEntity
  8
0
  6
ByLayer
 62
  256
370
   -1
100
AcDbLine
 10
175.2344
 20
275.8444
 11
176.0224
 21
275.8444
  0
LINE
  5
FF
100
AcDbEntity
  8
0
  6
ByLayer
 62
  256
370
   -1
100
AcDbLine
 10
225.9074
 20
276.708
 11
225.2984
 21
276.708
  0
LINE
  5
100
100
AcDbEntity
  8
0
  6
ByLayer
 62
  256
370
   -1
100
AcDbLine
 10
225.2984
 20
276.708
 11
225.2474
 21
276.0984
  0
LINE
  5
101
100
AcDbEntity
  8
0
  6
ByLayer
 62
  256
370
   -1
100
AcDbLine
 10
225.2474
 20
276.0984
 11
225.2984
 21
276.1746
  0
LINE
  5
102
100
AcDbEntity
  8
0
  6
ByLayer
 62
  256
370
   -1
100
AcDbLine
 10
225.2984
 20
276.1746
 11
225.4254
 21
276.2254
  0
LINE
  5
103
100
AcDbEntity
  8
0
  6
ByLayer
 62
  256
370
   -1
100
AcDbLine
 10
225.4254
 20
276.2254
 11
225.7294
 21
276.2254
  0
LINE
  5
104
100
AcDbEntity
  8
0
  6
ByLayer
 62
  256
370
   -1
100
AcDbLine
 10
225.7294
 20
276.2254
 11
225.8564
 21
276.1746
  0
LINE
  5
105
100
AcDbEntity
  8
0
  6
ByLayer
 62
  256
370
   -1
100
AcDbLine
 10
225.8564
 20
276.1746
 11
225.9074
 21
276.0984
  0
LINE
  5
106
100
AcDbEntity
  8
0
  6
ByLayer
 62
  256
370
   -1
100
AcDbLine
 10
225.9074
 20
276.0984
 11
225.9834
 21
275.9714
  0
LINE
  5
107
100
AcDbEntity
  8
0
  6
ByLayer
 62
  256
370
   -1
100
AcDbLine
 10
225.9834
 20
275.9714
 11
225.9834
 21
275.6666
  0
LINE
  5
108
100
AcDbEntity
  8
0
  6
ByLayer
 62
  256
370
   -1
100
AcDbLine
 10
225.9834
 20
275.6666
 11
225.9074
 21
275.5396
  0
LINE
  5
109
100
AcDbEntity
  8
0
  6
ByLayer
 62
  256
370
   -1
100
AcDbLine
 10
225.9074
 20
275.5396
 11
225.8564
 21
275.4888
  0
LINE
  5
10A
100
AcDbEntity
  8
0
  6
ByLayer
 62
  256
370
   -1
100
AcDbLine
 10
225.8564
 20
275.4888
 11
225.7294
 21
275.4126
  0
LINE
  5
10B
100
AcDbEntity
  8
0
  6
ByLayer
 62
  256
370
   -1
100
AcDbLine
 10
225.7294
 20
275.4126
 11
225.4254
 21
275.4126
  0
LINE
  5
10C
100
AcDbEntity
  8
0
  6
ByLayer
 62
  256
370
   -1
100
AcDbLine
 10
225.4254
 20
275.4126
 11
225.2984
 21
275.4888
  0
LINE
  5
10D
100
AcDbEntity
  8
0
  6
ByLayer
 62
  256
370
   -1
100
AcDbLine
 10
225.2984
 20
275.4888
 11
225.2474
 21
275.5396
  0
LINE
  5
10E
100
AcDbEntity
  8
0
  6
ByLayer
 62
  256
370
   -1
100
AcDbLine
 10
275.8444
 20
276.708
 11
275.5904
 21
276.708
  0
LINE
  5
10F
100
AcDbEntity
  8
0
  6
ByLayer
 62
  256
370
   -1
100
AcDbLine
 10
275.5904
 20
276.708
 11
275.4634
 21
276.6572
  0
LINE
  5
110
100
AcDbEntity
  8
0
  6
ByLayer
 62
  256
370
   -1
100
AcDbLine
 10
275.4634
 20
276.6572
 11
275.4124
 21
276.6064
  0
LINE
  5
111
100
AcDbEntity
  8
0
  6
ByLayer
 62
  256
370
   -1
100
AcDbLine
 10
275.4124
 20
276.6064
 11
275.2854
 21
276.4032
  0
LINE
  5
112
100
AcDbEntity
  8
0
  6
ByLayer
 62
  256
370
   -1
100
AcDbLine
 10
275.2854
 20
276.4032
 11
275.2344
 21
276.1746
  0
LINE
  5
113
100
AcDbEntity
  8
0
  6
ByLayer
 62
  256
370
   -1
100
AcDbLine
 10
275.2344
 20
276.1746
 11
275.2344
 21
275.6666
  0
LINE
  5
114
100
AcDbEntity
  8
0
  6
ByLayer
 62
  256
370
   -1
100
AcDbLine
 10
275.2344
 20
275.6666
 11
275.2854
 21
275.5396
  0
LINE
  5
115
100
AcDbEntity
  8
0
  6
ByLayer
 62
  256
370
   -1
100
AcDbLine
 10
275.2854
 20
275.5396
 11
275.3614
 21
275.4888
  0
LINE
  5
116
100
AcDbEntity
  8
0
  6
ByLayer
 62
  256
370
   -1
100
AcDbLine
 10
275.3614
 20
275.4888
 11
275.4634
 21
275.4126
  0
LINE
  5
117
100
AcDbEntity
  8
0
  6
ByLayer
 62
  256
370
   -1
100
AcDbLine
 10
275.4634
 20
275.4126
 11
275.7174
 21
275.4126
  0
LINE
  5
118
100
AcDbEntity
  8
0
  6
ByLayer
 62
  256
370
   -1
100
AcDbLine
 10
275.7174
 20
275.4126
 11
275.8444
 21
275.4888
  0
LINE
  5
119
100
AcDbEntity
  8
0
  6
ByLayer
 62
  256
370
   -1
100
AcDbLine
 10
275.8444
 20
275.4888
 11
275.8944
 21
275.5396
  0
LINE
  5
11A
100
AcDbEntity
  8
0
  6
ByLayer
 62
  256
370
   -1
100
AcDbLine
 10
275.8944
 20
275.5396
 11
275.9714
 21
275.6666
  0
LINE
  5
11B
100
AcDbEntity
  8
0
  6
ByLayer
 62
  256
370
   -1
100
AcDbLine
 10
275.9714
 20
275.6666
 11
275.9714
 21
275.9714
  0
LINE
  5
11C
100
AcDbEntity
  8
0
  6
ByLayer
 62
  256
370
   -1
100
AcDbLine
 10
275.9714
 20
275.9714
 11
275.8944
 21
276.0984
  0
LINE
  5
11D
100
AcDbEntity
  8
0
  6
ByLayer
 62
  256
370
   -1
100
AcDbLine
 10
275.8944
 20
276.0984
 11
275.8444
 21
276.1746
  0
LINE
  5
11E
100
AcDbEntity
  8
0
  6
ByLayer
 62
  256
370
   -1
100
AcDbLine
 10
275.8444
 20
276.1746
 11
275.7174
 21
276.2254
  0
LINE
  5
11F
100
AcDbEntity
  8
0
  6
ByLayer
 62
  256
370
   -1
100
AcDbLine
 10
275.7174
 20
276.2254
 11
275.4634
 21
276.2254
  0
LINE
  5
120
100
AcDbEntity
  8
0
  6
ByLayer
 62
  256
370
   -1
100
AcDbLine
 10
275.4634
 20
276.2254
 11
275.3614
 21
276.1746
  0
LINE
  5
121
100
AcDbEntity
  8
0
  6
ByLayer
 62
  256
370
   -1
100
AcDbLine
 10
275.3614
 20
276.1746
 11
275.2854
 21
276.0984
  0
LINE
  5
122
100
AcDbEntity
  8
0
  6
ByLayer
 62
  256
370
   -1
100
AcDbLine
 10
275.2854
 20
276.0984
 11
275.2344
 21
275.9714
  0
LINE
  5
123
100
AcDbEntity
  8
0
  6
ByLayer
 62
  256
370
   -1
100
AcDbLine
 10
325.1704
 20
276.708
 11
326.0343999999999
 21
276.708
  0
LINE
  5
124
100
AcDbEntity
  8
0
  6
ByLayer
 62
  256
370
   -1
100
AcDbLine
 10
326.0343999999999
 20
276.708
 11
325.4754
 21
275.4126
  0
LINE
  5
125
100
AcDbEntity
  8
0
  6
ByLayer
 62
  256
370
   -1
100
AcDbLine
 10
375.4624
 20
276.1746
 11
375.3614
 21
276.2254
  0
LINE
  5
126
100
AcDbEntity
  8
0
  6
ByLayer
 62
  256
370
   -1
100
AcDbLine
 10
375.3614
 20
276.2254
 11
375.2854
 21
276.2762
  0
LINE
  5
127
100
AcDbEntity
  8
0
  6
ByLayer
 62
  256
370
   -1
100
AcDbLine
 10
375.2854
 20
276.2762
 11
375.2344
 21
276.4032
  0
LINE
  5
128
100
AcDbEntity
  8
0
  6
ByLayer
 62
  256
370
   -1
100
AcDbLine
 10
375.2344
 20
276.4032
 11
375.2344
 21
276.4794
  0
LINE
  5
129
100
AcDbEntity
  8
0
  6
ByLayer
 62
  256
370
   -1
100
AcDbLine
 10
375.2344
 20
276.4794
 11
375.2854
 21
276.6064
  0
LINE
  5
12A
100
AcDbEntity
  8
0
  6
ByLayer
 62
  256
370
   -1
100
AcDbLine
 10
375.2854
 20
276.6064
 11
375.3614
 21
276.6572
  0
LINE
  5
12B
100
AcDbEntity
  8
0
  6
ByLayer
 62
  256
370
   -1
100
AcDbLine
 10
375.3614
 20
276.6572
 11
375.4624
 21
276.708
  0
LINE
  5
12C
100
AcDbEntity
  8
0
  6
ByLayer
 62
  256
370
   -1
100
AcDbLine
 10
375.4624
 20
276.708
 11
375.7164
 21
276.708
  0
LINE
  5
12D
100
AcDbEntity
  8
0
  6
ByLayer
 62
  256
370
   -1
100
AcDbLine
 10
375.7164
 20
276.708
 11
375.8434
 21
276.6572
  0
LINE
  5
12E
100
AcDbEntity
  8
0
  6
ByLayer
 62
  256
370
   -1
100
AcDbLine
 10
375.8434
 20
276.6572
 11
375.8944
 21
276.6064
  0
LINE
  5
12F
100
AcDbEntity
  8
0
  6
ByLayer
 62
  256
370
   -1
100
AcDbLine
 10
375.8944
 20
276.6064
 11
375.9704
 21
276.4794
  0
LINE
  5
130
100
AcDbEntity
  8
0
  6
ByLayer
 62
  256
370
   -1
100
AcDbLine
 10
375.9704
 20
276.4794
 11
375.9704
 21
276.4032
  0
LINE
  5
131
100
AcDbEntity
  8
0
  6
ByLayer
 62
  256
370
   -1
100
AcDbLine
 10
375.9704
 20
276.4032
 11
375.8944
 21
276.2762
  0
LINE
  5
132
100
AcDbEntity
  8
0
  6
ByLayer
 62
  256
370
   -1
100
AcDbLine
 10
375.8944
 20
276.2762
 11
375.8434
 21
276.2254
  0
LINE
  5
133
100
AcDbEntity
  8
0
  6
ByLayer
 62
  256
370
   -1
100
AcDbLine
 10
375.8434
 20
276.2254
 11
375.7164
 21
276.1746
  0
LINE
  5
134
100
AcDbEntity
  8
0
  6
ByLayer
 62
  256
370
   -1
100
AcDbLine
 10
375.7164
 20
276.1746
 11
375.4624
 21
276.1746
  0
LINE
  5
135
100
AcDbEntity
  8
0
  6
ByLayer
 62
  256
370
   -1
100
AcDbLine
 10
375.4624
 20
276.1746
 11
375.3614
 21
276.0984
  0
LINE
  5
136
100
AcDbEntity
  8
0
  6
ByLayer
 62
  256
370
   -1
100
AcDbLine
 10
375.3614
 20
276.0984
 11
375.2854
 21
276.0476
  0
LINE
  5
137
100
AcDbEntity
  8
0
  6
ByLayer
 62
  256
370
   -1
100
AcDbLine
 10
375.2854
 20
276.0476
 11
375.2344
 21
275.9206
  0
LINE
  5
138
100
AcDbEntity
  8
0
  6
ByLayer
 62
  256
370
   -1
100
AcDbLine
 10
375.2344
 20
275.9206
 11
375.2344
 21
275.6666
  0
LINE
  5
139
100
AcDbEntity
  8
0
  6
ByLayer
 62
  256
370
   -1
100
AcDbLine
 10
375.2344
 20
275.6666
 11
375.2854
 21
275.5396
  0
LINE
  5
13A
100
AcDbEntity
  8
0
  6
ByLayer
 62
  256
370
   -1
100
AcDbLine
 10
375.2854
 20
275.5396
 11
375.3614
 21
275.4888
  0
LINE
  5
13B
100
AcDbEntity
  8
0
  6
ByLayer
 62
  256
370
   -1
100
AcDbLine
 10
375.3614
 20
275.4888
 11
375.4624
 21
275.4126
  0
LINE
  5
13C
100
AcDbEntity
  8
0
  6
ByLayer
 62
  256
370
   -1
100
AcDbLine
 10
375.4624
 20
275.4126
 11
375.7164
 21
275.4126
  0
LINE
  5
13D
100
AcDbEntity
  8
0
  6
ByLayer
 62
  256
370
   -1
100
AcDbLine
 10
375.7164
 20
275.4126
 11
375.8434
 21
275.4888
  0
LINE
  5
13E
100
AcDbEntity
  8
0
  6
ByLayer
 62
  256
370
   -1
100
AcDbLine
 10
375.8434
 20
275.4888
 11
375.8944
 21
275.5396
  0
LINE
  5
13F
100
AcDbEntity
  8
0
  6
ByLayer
 62
  256
370
   -1
100
AcDbLine
 10
375.8944
 20
275.5396
 11
375.9704
 21
275.6666
  0
LINE
  5
140
100
AcDbEntity
  8
0
  6
ByLayer
 62
  256
370
   -1
100
AcDbLine
 10
375.9704
 20
275.6666
 11
375.9704
 21
275.9206
  0
LINE
  5
141
100
AcDbEntity
  8
0
  6
ByLayer
 62
  256
370
   -1
100
AcDbLine
 10
375.9704
 20
275.9206
 11
375.8944
 21
276.0476
  0
LINE
  5
142
100
AcDbEntity
  8
0
  6
ByLayer
 62
  256
370
   -1
100
AcDbLine
 10
375.8944
 20
276.0476
 11
375.8434
 21
276.0984
  0
LINE
  5
143
100
AcDbEntity
  8
0
  6
ByLayer
 62
  256
370
   -1
100
AcDbLine
 10
375.8434
 20
276.0984
 11
375.7164
 21
276.1746
  0
LINE
  5
144
100
AcDbEntity
  8
0
  6
ByLayer
 62
  256
370
   -1
100
AcDbLine
 10
49.9872
 20
1.982000000000028
 11
49.9872
 21
0
  0
LINE
  5
145
100
AcDbEntity
  8
0
  6
ByLayer
 62
  256
370
   -1
100
AcDbLine
 10
99.99940000000001
 20
1.982000000000028
 11
99.99940000000001
 21
0
  0
LINE
  5
146
100
AcDbEntity
  8
0
  6
ByLayer
 62
  256
370
   -1
100
AcDbLine
 10
149.9874
 20
1.982000000000028
 11
149.9874
 21
0
  0
LINE
  5
147
100
AcDbEntity
  8
0
  6
ByLayer
 62
  256
370
   -1
100
AcDbLine
 10
199.9994
 20
1.982000000000028
 11
199.9994
 21
0
  0
LINE
  5
148
100
AcDbEntity
  8
0
  6
ByLayer
 62
  256
370
   -1
100
AcDbLine
 10
249.9864
 20
1.982000000000028
 11
249.9864
 21
0
  0
LINE
  5
149
100
AcDbEntity
  8
0
  6
ByLayer
 62
  256
370
   -1
100
AcDbLine
 10
299.9994
 20
1.982000000000028
 11
299.9994
 21
0
  0
LINE
  5
14A
100
AcDbEntity
  8
0
  6
ByLayer
 62
  256
370
   -1
100
AcDbLine
 10
349.9864
 20
1.982000000000028
 11
349.9864
 21
0
  0
LINE
  5
14B
100
AcDbEntity
  8
0
  6
ByLayer
 62
  256
370
   -1
100
AcDbLine
 10
25.9842
 20
0.4069999999999823
 11
25.24760000000001
 21
0.4069999999999823
  0
LINE
  5
14C
100
AcDbEntity
  8
0
  6
ByLayer
 62
  256
370
   -1
100
AcDbLine
 10
25.6032
 20
0.4069999999999823
 11
25.6032
 21
1.701999999999998
  0
LINE
  5
14D
100
AcDbEntity
  8
0
  6
ByLayer
 62
  256
370
   -1
100
AcDbLine
 10
25.6032
 20
1.701999999999998
 11
25.47620000000001
 21
1.524000000000001
  0
LINE
  5
14E
100
AcDbEntity
  8
0
  6
ByLayer
 62
  256
370
   -1
100
AcDbLine
 10
25.47620000000001
 20
1.524000000000001
 11
25.3746
 21
1.396999999999991
  0
LINE
  5
14F
100
AcDbEntity
  8
0
  6
ByLayer
 62
  256
370
   -1
100
AcDbLine
 10
25.3746
 20
1.396999999999991
 11
25.24760000000001
 21
1.34699999999998
  0
LINE
  5
150
100
AcDbEntity
  8
0
  6
ByLayer
 62
  256
370
   -1
100
AcDbLine
 10
75.23480000000001
 20
1.600999999999999
 11
75.2856
 21
1.65100000000001
  0
LINE
  5
151
100
AcDbEntity
  8
0
  6
ByLayer
 62
  256
370
   -1
100
AcDbLine
 10
75.2856
 20
1.65100000000001
 11
75.4126
 21
1.701999999999998
  0
LINE
  5
152
100
AcDbEntity
  8
0
  6
ByLayer
 62
  256
370
   -1
100
AcDbLine
 10
75.4126
 20
1.701999999999998
 11
75.7174
 21
1.701999999999998
  0
LINE
  5
153
100
AcDbEntity
  8
0
  6
ByLayer
 62
  256
370
   -1
100
AcDbLine
 10
75.7174
 20
1.701999999999998
 11
75.84440000000001
 21
1.65100000000001
  0
LINE
  5
154
100
AcDbEntity
  8
0
  6
ByLayer
 62
  256
370
   -1
100
AcDbLine
 10
75.84440000000001
 20
1.65100000000001
 11
75.8952
 21
1.600999999999999
  0
LINE
  5
155
100
AcDbEntity
  8
0
  6
ByLayer
 62
  256
370
   -1
100
AcDbLine
 10
75.8952
 20
1.600999999999999
 11
75.9714
 21
1.47399999999999
  0
LINE
  5
156
100
AcDbEntity
  8
0
  6
ByLayer
 62
  256
370
   -1
100
AcDbLine
 10
75.9714
 20
1.47399999999999
 11
75.9714
 21
1.34699999999998
  0
LINE
  5
157
100
AcDbEntity
  8
0
  6
ByLayer
 62
  256
370
   -1
100
AcDbLine
 10
75.9714
 20
1.34699999999998
 11
75.8952
 21
1.168999999999983
  0
LINE
  5
158
100
AcDbEntity
  8
0
  6
ByLayer
 62
  256
370
   -1
100
AcDbLine
 10
75.8952
 20
1.168999999999983
 11
75.15860000000001
 21
0.4069999999999823
  0
LINE
  5
159
100
AcDbEntity
  8
0
  6
ByLayer
 62
  256
370
   -1
100
AcDbLine
 10
75.15860000000001
 20
0.4069999999999823
 11
75.9714
 21
0.4069999999999823
  0
LINE
  5
15A
100
AcDbEntity
  8
0
  6
ByLayer
 62
  256
370
   -1
100
AcDbLine
 10
125.1714
 20
1.701999999999998
 11
125.9844
 21
1.701999999999998
  0
LINE
  5
15B
100
AcDbEntity
  8
0
  6
ByLayer
 62
  256
370
   -1
100
AcDbLine
 10
125.9844
 20
1.701999999999998
 11
125.5524
 21
1.220000000000027
  0
LINE
  5
15C
100
AcDbEntity
  8
0
  6
ByLayer
 62
  256
370
   -1
100
AcDbLine
 10
125.5524
 20
1.220000000000027
 11
125.7304
 21
1.220000000000027
  0
LINE
  5
15D
100
AcDbEntity
  8
0
  6
ByLayer
 62
  256
370
   -1
100
AcDbLine
 10
125.7304
 20
1.220000000000027
 11
125.8574
 21
1.168999999999983
  0
LINE
  5
15E
100
AcDbEntity
  8
0
  6
ByLayer
 62
  256
370
   -1
100
AcDbLine
 10
125.8574
 20
1.168999999999983
 11
125.9074
 21
1.093000000000018
  0
LINE
  5
15F
100
AcDbEntity
  8
0
  6
ByLayer
 62
  256
370
   -1
100
AcDbLine
 10
125.9074
 20
1.093000000000018
 11
125.9844
 21
0.9660000000000082
  0
LINE
  5
160
100
AcDbEntity
  8
0
  6
ByLayer
 62
  256
370
   -1
100
AcDbLine
 10
125.9844
 20
0.9660000000000082
 11
125.9844
 21
0.6610000000000014
  0
LINE
  5
161
100
AcDbEntity
  8
0
  6
ByLayer
 62
  256
370
   -1
100
AcDbLine
 10
125.9844
 20
0.6610000000000014
 11
125.9074
 21
0.5339999999999918
  0
LINE
  5
162
100
AcDbEntity
  8
0
  6
ByLayer
 62
  256
370
   -1
100
AcDbLine
 10
125.9074
 20
0.5339999999999918
 11
125.8574
 21
0.4830000000000041
  0
LINE
  5
163
100
AcDbEntity
  8
0
  6
ByLayer
 62
  256
370
   -1
100
AcDbLine
 10
125.8574
 20
0.4830000000000041
 11
125.7304
 21
0.4069999999999823
  0
LINE
  5
164
100
AcDbEntity
  8
0
  6
ByLayer
 62
  256
370
   -1
100
AcDbLine
 10
125.7304
 20
0.4069999999999823
 11
125.3744
 21
0.4069999999999823
  0
LINE
  5
165
100
AcDbEntity
  8
0
  6
ByLayer
 62
  256
370
   -1
100
AcDbLine
 10
125.3744
 20
0.4069999999999823
 11
125.2474
 21
0.4830000000000041
  0
LINE
  5
166
100
AcDbEntity
  8
0
  6
ByLayer
 62
  256
370
   -1
100
AcDbLine
 10
125.2474
 20
0.4830000000000041
 11
125.1714
 21
0.5339999999999918
  0
LINE
  5
167
100
AcDbEntity
  8
0
  6
ByLayer
 62
  256
370
   -1
100
AcDbLine
 10
175.8444
 20
1.269999999999982
 11
175.8444
 21
0.4069999999999823
  0
LINE
  5
168
100
AcDbEntity
  8
0
  6
ByLayer
 62
  256
370
   -1
100
AcDbLine
 10
175.5394
 20
1.77800000000002
 11
175.2344
 21
0.8389999999999986
  0
LINE
  5
169
100
AcDbEntity
  8
0
  6
ByLayer
 62
  256
370
   -1
100
AcDbLine
 10
175.2344
 20
0.8389999999999986
 11
176.0224
 21
0.8389999999999986
  0
LINE
  5
16A
100
AcDbEntity
  8
0
  6
ByLayer
 62
  256
370
   -1
100
AcDbLine
 10
225.9074
 20
1.701999999999998
 11
225.2984
 21
1.701999999999998
  0
LINE
  5
16B
100
AcDbEntity
  8
0
  6
ByLayer
 62
  256
370
   -1
100
AcDbLine
 10
225.2984
 20
1.701999999999998
 11
225.2474
 21
1.093000000000018
  0
LINE
  5
16C
100
AcDbEntity
  8
0
  6
ByLayer
 62
  256
370
   -1
100
AcDbLine
 10
225.2474
 20
1.093000000000018
 11
225.2984
 21
1.168999999999983
  0
LINE
  5
16D
100
AcDbEntity
  8
0
  6
ByLayer
 62
  256
370
   -1
100
AcDbLine
 10
225.2984
 20
1.168999999999983
 11
225.4254
 21
1.220000000000027
  0
LINE
  5
16E
100
AcDbEntity
  8
0
  6
ByLayer
 62
  256
370
   -1
100
AcDbLine
 10
225.4254
 20
1.220000000000027
 11
225.7294
 21
1.220000000000027
  0
LINE
  5
16F
100
AcDbEntity
  8
0
  6
ByLayer
 62
  256
370
   -1
100
AcDbLine
 10
225.7294
 20
1.220000000000027
 11
225.8564
 21
1.168999999999983
  0
LINE
  5
170
100
AcDbEntity
  8
0
  6
ByLayer
 62
  256
370
   -1
100
AcDbLine
 10
225.8564
 20
1.168999999999983
 11
225.9074
 21
1.093000000000018
  0
LINE
  5
171
100
AcDbEntity
  8
0
  6
ByLayer
 62
  256
370
   -1
100
AcDbLine
 10
225.9074
 20
1.093000000000018
 11
225.9834
 21
0.9660000000000082
  0
LINE
  5
172
100
AcDbEntity
  8
0
  6
ByLayer
 62
  256
370
   -1
100
AcDbLine
 10
225.9834
 20
0.9660000000000082
 11
225.9834
 21
0.6610000000000014
  0
LINE
  5
173
100
AcDbEntity
  8
0
  6
ByLayer
 62
  256
370
   -1
100
AcDbLine
 10
225.9834
 20
0.6610000000000014
 11
225.9074
 21
0.5339999999999918
  0
LINE
  5
174
100
AcDbEntity
  8
0
  6
ByLayer
 62
  256
370
   -1
100
AcDbLine
 10
225.9074
 20
0.5339999999999918
 11
225.8564
 21
0.4830000000000041
  0
LINE
  5
175
100
AcDbEntity
  8
0
  6
ByLayer
 62
  256
370
   -1
100
AcDbLine
 10
225.8564
 20
0.4830000000000041
 11
225.7294
 21
0.4069999999999823
  0
LINE
  5
176
100
AcDbEntity
  8
0
  6
ByLayer
 62
  256
370
   -1
100
AcDbLine
 10
225.7294
 20
0.4069999999999823
 11
225.4254
 21
0.4069999999999823
  0
LINE
  5
177
100
AcDbEntity
  8
0
  6
ByLayer
 62
  256
370
   -1
100
AcDbLine
 10
225.4254
 20
0.4069999999999823
 11
225.2984
 21
0.4830000000000041
  0
LINE
  5
178
100
AcDbEntity
  8
0
  6
ByLayer
 62
  256
370
   -1
100
AcDbLine
 10
225.2984
 20
0.4830000000000041
 11
225.2474
 21
0.5339999999999918
  0
LINE
  5
179
100
AcDbEntity
  8
0
  6
ByLayer
 62
  256
370
   -1
100
AcDbLine
 10
275.8444
 20
1.701999999999998
 11
275.5904
 21
1.701999999999998
  0
LINE
  5
17A
100
AcDbEntity
  8
0
  6
ByLayer
 62
  256
370
   -1
100
AcDbLine
 10
275.5904
 20
1.701999999999998
 11
275.4634
 21
1.65100000000001
  0
LINE
  5
17B
100
AcDbEntity
  8
0
  6
ByLayer
 62
  256
370
   -1
100
AcDbLine
 10
275.4634
 20
1.65100000000001
 11
275.4124
 21
1.600999999999999
  0
LINE
  5
17C
100
AcDbEntity
  8
0
  6
ByLayer
 62
  256
370
   -1
100
AcDbLine
 10
275.4124
 20
1.600999999999999
 11
275.2854
 21
1.396999999999991
  0
LINE
  5
17D
100
AcDbEntity
  8
0
  6
ByLayer
 62
  256
370
   -1
100
AcDbLine
 10
275.2854
 20
1.396999999999991
 11
275.2344
 21
1.168999999999983
  0
LINE
  5
17E
100
AcDbEntity
  8
0
  6
ByLayer
 62
  256
370
   -1
100
AcDbLine
 10
275.2344
 20
1.168999999999983
 11
275.2344
 21
0.6610000000000014
  0
LINE
  5
17F
100
AcDbEntity
  8
0
  6
ByLayer
 62
  256
370
   -1
100
AcDbLine
 10
275.2344
 20
0.6610000000000014
 11
275.2854
 21
0.5339999999999918
  0
LINE
  5
180
100
AcDbEntity
  8
0
  6
ByLayer
 62
  256
370
   -1
100
AcDbLine
 10
275.2854
 20
0.5339999999999918
 11
275.3614
 21
0.4830000000000041
  0
LINE
  5
181
100
AcDbEntity
  8
0
  6
ByLayer
 62
  256
370
   -1
100
AcDbLine
 10
275.3614
 20
0.4830000000000041
 11
275.4634
 21
0.4069999999999823
  0
LINE
  5
182
100
AcDbEntity
  8
0
  6
ByLayer
 62
  256
370
   -1
100
AcDbLine
 10
275.4634
 20
0.4069999999999823
 11
275.7174
 21
0.4069999999999823
  0
LINE
  5
183
100
AcDbEntity
  8
0
  6
ByLayer
 62
  256
370
   -1
100
AcDbLine
 10
275.7174
 20
0.4069999999999823
 11
275.8444
 21
0.4830000000000041
  0
LINE
  5
184
100
AcDbEntity
  8
0
  6
ByLayer
 62
  256
370
   -1
100
AcDbLine
 10
275.8444
 20
0.4830000000000041
 11
275.8944
 21
0.5339999999999918
  0
LINE
  5
185
100
AcDbEntity
  8
0
  6
ByLayer
 62
  256
370
   -1
100
AcDbLine
 10
275.8944
 20
0.5339999999999918
 11
275.9714
 21
0.6610000000000014
  0
LINE
  5
186
100
AcDbEntity
  8
0
  6
ByLayer
 62
  256
370
   -1
100
AcDbLine
 10
275.9714
 20
0.6610000000000014
 11
275.9714
 21
0.9660000000000082
  0
LINE
  5
187
100
AcDbEntity
  8
0
  6
ByLayer
 62
  256
370
   -1
100
AcDbLine
 10
275.9714
 20
0.9660000000000082
 11
275.8944
 21
1.093000000000018
  0
LINE
  5
188
100
AcDbEntity
  8
0
  6
ByLayer
 62
  256
370
   -1
100
AcDbLine
 10
275.8944
 20
1.093000000000018
 11
275.8444
 21
1.168999999999983
  0
LINE
  5
189
100
AcDbEntity
  8
0
  6
ByLayer
 62
  256
370
   -1
100
AcDbLine
 10
275.8444
 20
1.168999999999983
 11
275.7174
 21
1.220000000000027
  0
LINE
  5
18A
100
AcDbEntity
  8
0
  6
ByLayer
 62
  256
370
   -1
100
AcDbLine
 10
275.7174
 20
1.220000000000027
 11
275.4634
 21
1.220000000000027
  0
LINE
  5
18B
100
AcDbEntity
  8
0
  6
ByLayer
 62
  256
370
   -1
100
AcDbLine
 10
275.4634
 20
1.220000000000027
 11
275.3614
 21
1.168999999999983
  0
LINE
  5
18C
100
AcDbEntity
  8
0
  6
ByLayer
 62
  256
370
   -1
100
AcDbLine
 10
275.3614
 20
1.168999999999983
 11
275.2854
 21
1.093000000000018
  0
LINE
  5
18D
100
AcDbEntity
  8
0
  6
ByLayer
 62
  256
370
   -1
100
AcDbLine
 10
275.2854
 20
1.093000000000018
 11
275.2344
 21
0.9660000000000082
  0
LINE
  5
18E
100
AcDbEntity
  8
0
  6
ByLayer
 62
  256
370
   -1
100
AcDbLine
 10
325.1704
 20
1.701999999999998
 11
326.0343999999999
 21
1.701999999999998
  0
LINE
  5
18F
100
AcDbEntity
  8
0
  6
ByLayer
 62
  256
370
   -1
100
AcDbLine
 10
326.0343999999999
 20
1.701999999999998
 11
325.4754
 21
0.4069999999999823
  0
LINE
  5
190
100
AcDbEntity
  8
0
  6
ByLayer
 62
  256
370
   -1
100
AcDbLine
 10
375.4624
 20
1.168999999999983
 11
375.3614
 21
1.220000000000027
  0
LINE
  5
191
100
AcDbEntity
  8
0
  6
ByLayer
 62
  256
370
   -1
100
AcDbLine
 10
375.3614
 20
1.220000000000027
 11
375.2854
 21
1.269999999999982
  0
LINE
  5
192
100
AcDbEntity
  8
0
  6
ByLayer
 62
  256
370
   -1
100
AcDbLine
 10
375.2854
 20
1.269999999999982
 11
375.2344
 21
1.396999999999991
  0
LINE
  5
193
100
AcDbEntity
  8
0
  6
ByLayer
 62
  256
370
   -1
100
AcDbLine
 10
375.2344
 20
1.396999999999991
 11
375.2344
 21
1.47399999999999
  0
LINE
  5
194
100
AcDbEntity
  8
0
  6
ByLayer
 62
  256
370
   -1
100
AcDbLine
 10
375.2344
 20
1.47399999999999
 11
375.2854
 21
1.600999999999999
  0
LINE
  5
195
100
AcDbEntity
  8
0
  6
ByLayer
 62
  256
370
   -1
100
AcDbLine
 10
375.2854
 20
1.600999999999999
 11
375.3614
 21
1.65100000000001
  0
LINE
  5
196
100
AcDbEntity
  8
0
  6
ByLayer
 62
  256
370
   -1
100
AcDbLine
 10
375.3614
 20
1.65100000000001
 11
375.4624
 21
1.701999999999998
  0
LINE
  5
197
100
AcDbEntity
  8
0
  6
ByLayer
 62
  256
370
   -1
100
AcDbLine
 10
375.4624
 20
1.701999999999998
 11
375.7164
 21
1.701999999999998
  0
LINE
  5
198
100
AcDbEntity
  8
0
  6
ByLayer
 62
  256
370
   -1
100
AcDbLine
 10
375.7164
 20
1.701999999999998
 11
375.8434
 21
1.65100000000001
  0
LINE
  5
199
100
AcDbEntity
  8
0
  6
ByLayer
 62
  256
370
   -1
100
AcDbLine
 10
375.8434
 20
1.65100000000001
 11
375.8944
 21
1.600999999999999
  0
LINE
  5
19A
100
AcDbEntity
  8
0
  6
ByLayer
 62
  256
370
   -1
100
AcDbLine
 10
375.8944
 20
1.600999999999999
 11
375.9704
 21
1.47399999999999
  0
LINE
  5
19B
100
AcDbEntity
  8
0
  6
ByLayer
 62
  256
370
   -1
100
AcDbLine
 10
375.9704
 20
1.47399999999999
 11
375.9704
 21
1.396999999999991
  0
LINE
  5
19C
100
AcDbEntity
  8
0
  6
ByLayer
 62
  256
370
   -1
100
AcDbLine
 10
375.9704
 20
1.396999999999991
 11
375.8944
 21
1.269999999999982
  0
LINE
  5
19D
100
AcDbEntity
  8
0
  6
ByLayer
 62
  256
370
   -1
100
AcDbLine
 10
375.8944
 20
1.269999999999982
 11
375.8434
 21
1.220000000000027
  0
LINE
  5
19E
100
AcDbEntity
  8
0
  6
ByLayer
 62
  256
370
   -1
100
AcDbLine
 10
375.8434
 20
1.220000000000027
 11
375.7164
 21
1.168999999999983
  0
LINE
  5
19F
100
AcDbEntity
  8
0
  6
ByLayer
 62
  256
370
   -1
100
AcDbLine
 10
375.7164
 20
1.168999999999983
 11
375.4624
 21
1.168999999999983
  0
LINE
  5
1A0
100
AcDbEntity
  8
0
  6
ByLayer
 62
  256
370
   -1
100
AcDbLine
 10
375.4624
 20
1.168999999999983
 11
375.3614
 21
1.093000000000018
  0
LINE
  5
1A1
100
AcDbEntity
  8
0
  6
ByLayer
 62
  256
370
   -1
100
AcDbLine
 10
375.3614
 20
1.093000000000018
 11
375.2854
 21
1.04200000000003
  0
LINE
  5
1A2
100
AcDbEntity
  8
0
  6
ByLayer
 62
  256
370
   -1
100
AcDbLine
 10
375.2854
 20
1.04200000000003
 11
375.2344
 21
0.9150000000000205
  0
LINE
  5
1A3
100
AcDbEntity
  8
0
  6
ByLayer
 62
  256
370
   -1
100
AcDbLine
 10
375.2344
 20
0.9150000000000205
 11
375.2344
 21
0.6610000000000014
  0
LINE
  5
1A4
100
AcDbEntity
  8
0
  6
ByLayer
 62
  256
370
   -1
100
AcDbLine
 10
375.2344
 20
0.6610000000000014
 11
375.2854
 21
0.5339999999999918
  0
LINE
  5
1A5
100
AcDbEntity
  8
0
  6
ByLayer
 62
  256
370
   -1
100
AcDbLine
 10
375.2854
 20
0.5339999999999918
 11
375.3614
 21
0.4830000000000041
  0
LINE
  5
1A6
100
AcDbEntity
  8
0
  6
ByLayer
 62
  256
370
   -1
100
AcDbLine
 10
375.3614
 20
0.4830000000000041
 11
375.4624
 21
0.4069999999999823
  0
LINE
  5
1A7
100
AcDbEntity
  8
0
  6
ByLayer
 62
  256
370
   -1
100
AcDbLine
 10
375.4624
 20
0.4069999999999823
 11
375.7164
 21
0.4069999999999823
  0
LINE
  5
1A8
100
AcDbEntity
  8
0
  6
ByLayer
 62
  256
370
   -1
100
AcDbLine
 10
375.7164
 20
0.4069999999999823
 11
375.8434
 21
0.4830000000000041
  0
LINE
  5
1A9
100
AcDbEntity
  8
0
  6
ByLayer
 62
  256
370
   -1
100
AcDbLine
 10
375.8434
 20
0.4830000000000041
 11
375.8944
 21
0.5339999999999918
  0
LINE
  5
1AA
100
AcDbEntity
  8
0
  6
ByLayer
 62
  256
370
   -1
100
AcDbLine
 10
375.8944
 20
0.5339999999999918
 11
375.9704
 21
0.6610000000000014
  0
LINE
  5
1AB
100
AcDbEntity
  8
0
  6
ByLayer
 62
  256
370
   -1
100
AcDbLine
 10
375.9704
 20
0.6610000000000014
 11
375.9704
 21
0.9150000000000205
  0
LINE
  5
1AC
100
AcDbEntity
  8
0
  6
ByLayer
 62
  256
370
   -1
100
AcDbLine
 10
375.9704
 20
0.9150000000000205
 11
375.8944
 21
1.04200000000003
  0
LINE
  5
1AD
100
AcDbEntity
  8
0
  6
ByLayer
 62
  256
370
   -1
100
AcDbLine
 10
375.8944
 20
1.04200000000003
 11
375.8434
 21
1.093000000000018
  0
LINE
  5
1AE
100
AcDbEntity
  8
0
  6
ByLayer
 62
  256
370
   -1
100
AcDbLine
 10
375.8434
 20
1.093000000000018
 11
375.7164
 21
1.168999999999983
  0
LINE
  5
1AF
100
AcDbEntity
  8
0
  6
ByLayer
 62
  256
370
   -1
100
AcDbLine
 10
0
 20
227.0002
 11
1.981199999999999
 21
227.0002
  0
LINE
  5
1B0
100
AcDbEntity
  8
0
  6
ByLayer
 62
  256
370
   -1
100
AcDbLine
 10
0
 20
176.988
 11
1.981199999999999
 21
176.988
  0
LINE
  5
1B1
100
AcDbEntity
  8
0
  6
ByLayer
 62
  256
370
   -1
100
AcDbLine
 10
0
 20
127
 11
1.981199999999999
 21
127
  0
LINE
  5
1B2
100
AcDbEntity
  8
0
  6
ByLayer
 62
  256
370
   -1
100
AcDbLine
 10
0
 20
76.988
 11
1.981199999999999
 21
76.988
  0
LINE
  5
1B3
100
AcDbEntity
  8
0
  6
ByLayer
 62
  256
370
   -1
100
AcDbLine
 10
0
 20
27.00099999999998
 11
1.981199999999999
 21
27.00099999999998
  0
LINE
  5
1B4
100
AcDbEntity
  8
0
  6
ByLayer
 62
  256
370
   -1
100
AcDbLine
 10
0.6858000000000004
 20
251.7906
 11
1.295400000000001
 21
251.7906
  0
LINE
  5
1B5
100
AcDbEntity
  8
0
  6
ByLayer
 62
  256
370
   -1
100
AcDbLine
 10
0.5587999999999997
 20
251.4096
 11
0.9906000000000006
 21
252.705
  0
LINE
  5
1B6
100
AcDbEntity
  8
0
  6
ByLayer
 62
  256
370
   -1
100
AcDbLine
 10
0.9906000000000006
 20
252.705
 11
1.4224
 21
251.4096
  0
LINE
  5
1B7
100
AcDbEntity
  8
0
  6
ByLayer
 62
  256
370
   -1
100
AcDbLine
 10
1.0922
 20
202.1082
 11
1.27
 21
202.0574
  0
LINE
  5
1B8
100
AcDbEntity
  8
0
  6
ByLayer
 62
  256
370
   -1
100
AcDbLine
 10
1.27
 20
202.0574
 11
1.3462
 21
201.9812
  0
LINE
  5
1B9
100
AcDbEntity
  8
0
  6
ByLayer
 62
  256
370
   -1
100
AcDbLine
 10
1.3462
 20
201.9812
 11
1.397
 21
201.8542
  0
LINE
  5
1BA
100
AcDbEntity
  8
0
  6
ByLayer
 62
  256
370
   -1
100
AcDbLine
 10
1.397
 20
201.8542
 11
1.397
 21
201.6764
  0
LINE
  5
1BB
100
AcDbEntity
  8
0
  6
ByLayer
 62
  256
370
   -1
100
AcDbLine
 10
1.397
 20
201.6764
 11
1.3462
 21
201.5494
  0
LINE
  5
1BC
100
AcDbEntity
  8
0
  6
ByLayer
 62
  256
370
   -1
100
AcDbLine
 10
1.3462
 20
201.5494
 11
1.27
 21
201.4986
  0
LINE
  5
1BD
100
AcDbEntity
  8
0
  6
ByLayer
 62
  256
370
   -1
100
AcDbLine
 10
1.27
 20
201.4986
 11
1.1684
 21
201.4224
  0
LINE
  5
1BE
100
AcDbEntity
  8
0
  6
ByLayer
 62
  256
370
   -1
100
AcDbLine
 10
1.1684
 20
201.4224
 11
0.6603999999999992
 21
201.4224
  0
LINE
  5
1BF
100
AcDbEntity
  8
0
  6
ByLayer
 62
  256
370
   -1
100
AcDbLine
 10
0.6603999999999992
 20
201.4224
 11
0.6603999999999992
 21
202.7178
  0
LINE
  5
1C0
100
AcDbEntity
  8
0
  6
ByLayer
 62
  256
370
   -1
100
AcDbLine
 10
0.6603999999999992
 20
202.7178
 11
1.0922
 21
202.7178
  0
LINE
  5
1C1
100
AcDbEntity
  8
0
  6
ByLayer
 62
  256
370
   -1
100
AcDbLine
 10
1.0922
 20
202.7178
 11
1.219200000000001
 21
202.667
  0
LINE
  5
1C2
100
AcDbEntity
  8
0
  6
ByLayer
 62
  256
370
   -1
100
AcDbLine
 10
1.219200000000001
 20
202.667
 11
1.27
 21
202.6162
  0
LINE
  5
1C3
100
AcDbEntity
  8
0
  6
ByLayer
 62
  256
370
   -1
100
AcDbLine
 10
1.27
 20
202.6162
 11
1.3462
 21
202.4892
  0
LINE
  5
1C4
100
AcDbEntity
  8
0
  6
ByLayer
 62
  256
370
   -1
100
AcDbLine
 10
1.3462
 20
202.4892
 11
1.3462
 21
202.3622
  0
LINE
  5
1C5
100
AcDbEntity
  8
0
  6
ByLayer
 62
  256
370
   -1
100
AcDbLine
 10
1.3462
 20
202.3622
 11
1.27
 21
202.2352
  0
LINE
  5
1C6
100
AcDbEntity
  8
0
  6
ByLayer
 62
  256
370
   -1
100
AcDbLine
 10
1.27
 20
202.2352
 11
1.219200000000001
 21
202.1844
  0
LINE
  5
1C7
100
AcDbEntity
  8
0
  6
ByLayer
 62
  256
370
   -1
100
AcDbLine
 10
1.219200000000001
 20
202.1844
 11
1.0922
 21
202.1082
  0
LINE
  5
1C8
100
AcDbEntity
  8
0
  6
ByLayer
 62
  256
370
   -1
100
AcDbLine
 10
1.0922
 20
202.1082
 11
0.6603999999999992
 21
202.1082
  0
LINE
  5
1C9
100
AcDbEntity
  8
0
  6
ByLayer
 62
  256
370
   -1
100
AcDbLine
 10
1.397
 20
151.537
 11
1.3462
 21
151.486
  0
LINE
  5
1CA
100
AcDbEntity
  8
0
  6
ByLayer
 62
  256
370
   -1
100
AcDbLine
 10
1.3462
 20
151.486
 11
1.1684
 21
151.41
  0
LINE
  5
1CB
100
AcDbEntity
  8
0
  6
ByLayer
 62
  256
370
   -1
100
AcDbLine
 10
1.1684
 20
151.41
 11
1.041399999999999
 21
151.41
  0
LINE
  5
1CC
100
AcDbEntity
  8
0
  6
ByLayer
 62
  256
370
   -1
100
AcDbLine
 10
1.041399999999999
 20
151.41
 11
0.8382000000000005
 21
151.486
  0
LINE
  5
1CD
100
AcDbEntity
  8
0
  6
ByLayer
 62
  256
370
   -1
100
AcDbLine
 10
0.8382000000000005
 20
151.486
 11
0.7365999999999993
 21
151.613
  0
LINE
  5
1CE
100
AcDbEntity
  8
0
  6
ByLayer
 62
  256
370
   -1
100
AcDbLine
 10
0.7365999999999993
 20
151.613
 11
0.6603999999999992
 21
151.74
  0
LINE
  5
1CF
100
AcDbEntity
  8
0
  6
ByLayer
 62
  256
370
   -1
100
AcDbLine
 10
0.6603999999999992
 20
151.74
 11
0.6096000000000004
 21
151.969
  0
LINE
  5
1D0
100
AcDbEntity
  8
0
  6
ByLayer
 62
  256
370
   -1
100
AcDbLine
 10
0.6096000000000004
 20
151.969
 11
0.6096000000000004
 21
152.172
  0
LINE
  5
1D1
100
AcDbEntity
  8
0
  6
ByLayer
 62
  256
370
   -1
100
AcDbLine
 10
0.6096000000000004
 20
152.172
 11
0.6603999999999992
 21
152.4
  0
LINE
  5
1D2
100
AcDbEntity
  8
0
  6
ByLayer
 62
  256
370
   -1
100
AcDbLine
 10
0.6603999999999992
 20
152.4
 11
0.7365999999999993
 21
152.527
  0
LINE
  5
1D3
100
AcDbEntity
  8
0
  6
ByLayer
 62
  256
370
   -1
100
AcDbLine
 10
0.7365999999999993
 20
152.527
 11
0.8382000000000005
 21
152.654
  0
LINE
  5
1D4
100
AcDbEntity
  8
0
  6
ByLayer
 62
  256
370
   -1
100
AcDbLine
 10
0.8382000000000005
 20
152.654
 11
1.041399999999999
 21
152.705
  0
LINE
  5
1D5
100
AcDbEntity
  8
0
  6
ByLayer
 62
  256
370
   -1
100
AcDbLine
 10
1.041399999999999
 20
152.705
 11
1.1684
 21
152.705
  0
LINE
  5
1D6
100
AcDbEntity
  8
0
  6
ByLayer
 62
  256
370
   -1
100
AcDbLine
 10
1.1684
 20
152.705
 11
1.3462
 21
152.654
  0
LINE
  5
1D7
100
AcDbEntity
  8
0
  6
ByLayer
 62
  256
370
   -1
100
AcDbLine
 10
1.3462
 20
152.654
 11
1.397
 21
152.604
  0
LINE
  5
1D8
100
AcDbEntity
  8
0
  6
ByLayer
 62
  256
370
   -1
100
AcDbLine
 10
0.6603999999999992
 20
101.423
 11
0.6603999999999992
 21
102.718
  0
LINE
  5
1D9
100
AcDbEntity
  8
0
  6
ByLayer
 62
  256
370
   -1
100
AcDbLine
 10
0.6603999999999992
 20
102.718
 11
0.9651999999999994
 21
102.718
  0
LINE
  5
1DA
100
AcDbEntity
  8
0
  6
ByLayer
 62
  256
370
   -1
100
AcDbLine
 10
0.9651999999999994
 20
102.718
 11
1.1684
 21
102.667
  0
LINE
  5
1DB
100
AcDbEntity
  8
0
  6
ByLayer
 62
  256
370
   -1
100
AcDbLine
 10
1.1684
 20
102.667
 11
1.27
 21
102.54
  0
LINE
  5
1DC
100
AcDbEntity
  8
0
  6
ByLayer
 62
  256
370
   -1
100
AcDbLine
 10
1.27
 20
102.54
 11
1.3462
 21
102.413
  0
LINE
  5
1DD
100
AcDbEntity
  8
0
  6
ByLayer
 62
  256
370
   -1
100
AcDbLine
 10
1.3462
 20
102.413
 11
1.397
 21
102.185
  0
LINE
  5
1DE
100
AcDbEntity
  8
0
  6
ByLayer
 62
  256
370
   -1
100
AcDbLine
 10
1.397
 20
102.185
 11
1.397
 21
101.981
  0
LINE
  5
1DF
100
AcDbEntity
  8
0
  6
ByLayer
 62
  256
370
   -1
100
AcDbLine
 10
1.397
 20
101.981
 11
1.3462
 21
101.753
  0
LINE
  5
1E0
100
AcDbEntity
  8
0
  6
ByLayer
 62
  256
370
   -1
100
AcDbLine
 10
1.3462
 20
101.753
 11
1.27
 21
101.626
  0
LINE
  5
1E1
100
AcDbEntity
  8
0
  6
ByLayer
 62
  256
370
   -1
100
AcDbLine
 10
1.27
 20
101.626
 11
1.1684
 21
101.499
  0
LINE
  5
1E2
100
AcDbEntity
  8
0
  6
ByLayer
 62
  256
370
   -1
100
AcDbLine
 10
1.1684
 20
101.499
 11
0.9651999999999994
 21
101.423
  0
LINE
  5
1E3
100
AcDbEntity
  8
0
  6
ByLayer
 62
  256
370
   -1
100
AcDbLine
 10
0.9651999999999994
 20
101.423
 11
0.6603999999999992
 21
101.423
  0
LINE
  5
1E4
100
AcDbEntity
  8
0
  6
ByLayer
 62
  256
370
   -1
100
AcDbLine
 10
0.7111999999999998
 20
52.096
 11
1.143000000000001
 21
52.096
  0
LINE
  5
1E5
100
AcDbEntity
  8
0
  6
ByLayer
 62
  256
370
   -1
100
AcDbLine
 10
1.3208
 20
51.41
 11
0.7111999999999998
 21
51.41
  0
LINE
  5
1E6
100
AcDbEntity
  8
0
  6
ByLayer
 62
  256
370
   -1
100
AcDbLine
 10
0.7111999999999998
 20
51.41
 11
0.7111999999999998
 21
52.70500000000001
  0
LINE
  5
1E7
100
AcDbEntity
  8
0
  6
ByLayer
 62
  256
370
   -1
100
AcDbLine
 10
0.7111999999999998
 20
52.70500000000001
 11
1.3208
 21
52.70500000000001
  0
LINE
  5
1E8
100
AcDbEntity
  8
0
  6
ByLayer
 62
  256
370
   -1
100
AcDbLine
 10
1.1684
 20
2.10899999999998
 11
0.7365999999999993
 21
2.10899999999998
  0
LINE
  5
1E9
100
AcDbEntity
  8
0
  6
ByLayer
 62
  256
370
   -1
100
AcDbLine
 10
0.7365999999999993
 20
1.423000000000002
 11
0.7365999999999993
 21
2.718000000000018
  0
LINE
  5
1EA
100
AcDbEntity
  8
0
  6
ByLayer
 62
  256
370
   -1
100
AcDbLine
 10
0.7365999999999993
 20
2.718000000000018
 11
1.3462
 21
2.718000000000018
  0
LINE
  5
1EB
100
AcDbEntity
  8
0
  6
ByLayer
 62
  256
370
   -1
100
AcDbLine
 10
399.9734
 20
227.0002
 11
397.9924
 21
227.0002
  0
LINE
  5
1EC
100
AcDbEntity
  8
0
  6
ByLayer
 62
  256
370
   -1
100
AcDbLine
 10
399.9734
 20
176.988
 11
397.9924
 21
176.988
  0
LINE
  5
1ED
100
AcDbEntity
  8
0
  6
ByLayer
 62
  256
370
   -1
100
AcDbLine
 10
399.9734
 20
127
 11
397.9924
 21
127
  0
LINE
  5
1EE
100
AcDbEntity
  8
0
  6
ByLayer
 62
  256
370
   -1
100
AcDbLine
 10
399.9734
 20
76.988
 11
397.9924
 21
76.988
  0
LINE
  5
1EF
100
AcDbEntity
  8
0
  6
ByLayer
 62
  256
370
   -1
100
AcDbLine
 10
399.9734
 20
27.00099999999998
 11
397.9924
 21
27.00099999999998
  0
LINE
  5
1F0
100
AcDbEntity
  8
0
  6
ByLayer
 62
  256
370
   -1
100
AcDbLine
 10
398.6784
 20
251.7906
 11
399.2884
 21
251.7906
  0
LINE
  5
1F1
100
AcDbEntity
  8
0
  6
ByLayer
 62
  256
370
   -1
100
AcDbLine
 10
398.5514
 20
251.4096
 11
398.9834
 21
252.705
  0
LINE
  5
1F2
100
AcDbEntity
  8
0
  6
ByLayer
 62
  256
370
   -1
100
AcDbLine
 10
398.9834
 20
252.705
 11
399.4154
 21
251.4096
  0
LINE
  5
1F3
100
AcDbEntity
  8
0
  6
ByLayer
 62
  256
370
   -1
100
AcDbLine
 10
399.0844
 20
202.1082
 11
399.2624
 21
202.0574
  0
LINE
  5
1F4
100
AcDbEntity
  8
0
  6
ByLayer
 62
  256
370
   -1
100
AcDbLine
 10
399.2624
 20
202.0574
 11
399.3384
 21
201.9812
  0
LINE
  5
1F5
100
AcDbEntity
  8
0
  6
ByLayer
 62
  256
370
   -1
100
AcDbLine
 10
399.3384
 20
201.9812
 11
399.3894
 21
201.8542
  0
LINE
  5
1F6
100
AcDbEntity
  8
0
  6
ByLayer
 62
  256
370
   -1
100
AcDbLine
 10
399.3894
 20
201.8542
 11
399.3894
 21
201.6764
  0
LINE
  5
1F7
100
AcDbEntity
  8
0
  6
ByLayer
 62
  256
370
   -1
100
AcDbLine
 10
399.3894
 20
201.6764
 11
399.3384
 21
201.5494
  0
LINE
  5
1F8
100
AcDbEntity
  8
0
  6
ByLayer
 62
  256
370
   -1
100
AcDbLine
 10
399.3384
 20
201.5494
 11
399.2624
 21
201.4986
  0
LINE
  5
1F9
100
AcDbEntity
  8
0
  6
ByLayer
 62
  256
370
   -1
100
AcDbLine
 10
399.2624
 20
201.4986
 11
399.1614
 21
201.4224
  0
LINE
  5
1FA
100
AcDbEntity
  8
0
  6
ByLayer
 62
  256
370
   -1
100
AcDbLine
 10
399.1614
 20
201.4224
 11
398.6534
 21
201.4224
  0
LINE
  5
1FB
100
AcDbEntity
  8
0
  6
ByLayer
 62
  256
370
   -1
100
AcDbLine
 10
398.6534
 20
201.4224
 11
398.6534
 21
202.7178
  0
LINE
  5
1FC
100
AcDbEntity
  8
0
  6
ByLayer
 62
  256
370
   -1
100
AcDbLine
 10
398.6534
 20
202.7178
 11
399.0844
 21
202.7178
  0
LINE
  5
1FD
100
AcDbEntity
  8
0
  6
ByLayer
 62
  256
370
   -1
100
AcDbLine
 10
399.0844
 20
202.7178
 11
399.2114
 21
202.667
  0
LINE
  5
1FE
100
AcDbEntity
  8
0
  6
ByLayer
 62
  256
370
   -1
100
AcDbLine
 10
399.2114
 20
202.667
 11
399.2624
 21
202.6162
  0
LINE
  5
1FF
100
AcDbEntity
  8
0
  6
ByLayer
 62
  256
370
   -1
100
AcDbLine
 10
399.2624
 20
202.6162
 11
399.3384
 21
202.4892
  0
LINE
  5
200
100
AcDbEntity
  8
0
  6
ByLayer
 62
  256
370
   -1
100
AcDbLine
 10
399.3384
 20
202.4892
 11
399.3384
 21
202.3622
  0
LINE
  5
201
100
AcDbEntity
  8
0
  6
ByLayer
 62
  256
370
   -1
100
AcDbLine
 10
399.3384
 20
202.3622
 11
399.2624
 21
202.2352
  0
LINE
  5
202
100
AcDbEntity
  8
0
  6
ByLayer
 62
  256
370
   -1
100
AcDbLine
 10
399.2624
 20
202.2352
 11
399.2114
 21
202.1844
  0
LINE
  5
203
100
AcDbEntity
  8
0
  6
ByLayer
 62
  256
370
   -1
100
AcDbLine
 10
399.2114
 20
202.1844
 11
399.0844
 21
202.1082
  0
LINE
  5
204
100
AcDbEntity
  8
0
  6
ByLayer
 62
  256
370
   -1
100
AcDbLine
 10
399.0844
 20
202.1082
 11
398.6534
 21
202.1082
  0
LINE
  5
205
100
AcDbEntity
  8
0
  6
ByLayer
 62
  256
370
   -1
100
AcDbLine
 10
399.3894
 20
151.537
 11
399.3384
 21
151.486
  0
LINE
  5
206
100
AcDbEntity
  8
0
  6
ByLayer
 62
  256
370
   -1
100
AcDbLine
 10
399.3384
 20
151.486
 11
399.1614
 21
151.41
  0
LINE
  5
207
100
AcDbEntity
  8
0
  6
ByLayer
 62
  256
370
   -1
100
AcDbLine
 10
399.1614
 20
151.41
 11
399.0343999999999
 21
151.41
  0
LINE
  5
208
100
AcDbEntity
  8
0
  6
ByLayer
 62
  256
370
   -1
100
AcDbLine
 10
399.0343999999999
 20
151.41
 11
398.8304
 21
151.486
  0
LINE
  5
209
100
AcDbEntity
  8
0
  6
ByLayer
 62
  256
370
   -1
100
AcDbLine
 10
398.8304
 20
151.486
 11
398.7294
 21
151.613
  0
LINE
  5
20A
100
AcDbEntity
  8
0
  6
ByLayer
 62
  256
370
   -1
100
AcDbLine
 10
398.7294
 20
151.613
 11
398.6534
 21
151.74
  0
LINE
  5
20B
100
AcDbEntity
  8
0
  6
ByLayer
 62
  256
370
   -1
100
AcDbLine
 10
398.6534
 20
151.74
 11
398.6024
 21
151.969
  0
LINE
  5
20C
100
AcDbEntity
  8
0
  6
ByLayer
 62
  256
370
   -1
100
AcDbLine
 10
398.6024
 20
151.969
 11
398.6024
 21
152.172
  0
LINE
  5
20D
100
AcDbEntity
  8
0
  6
ByLayer
 62
  256
370
   -1
100
AcDbLine
 10
398.6024
 20
152.172
 11
398.6534
 21
152.4
  0
LINE
  5
20E
100
AcDbEntity
  8
0
  6
ByLayer
 62
  256
370
   -1
100
AcDbLine
 10
398.6534
 20
152.4
 11
398.7294
 21
152.527
  0
LINE
  5
20F
100
AcDbEntity
  8
0
  6
ByLayer
 62
  256
370
   -1
100
AcDbLine
 10
398.7294
 20
152.527
 11
398.8304
 21
152.654
  0
LINE
  5
210
100
AcDbEntity
  8
0
  6
ByLayer
 62
  256
370
   -1
100
AcDbLine
 10
398.8304
 20
152.654
 11
399.0343999999999
 21
152.705
  0
LINE
  5
211
100
AcDbEntity
  8
0
  6
ByLayer
 62
  256
370
   -1
100
AcDbLine
 10
399.0343999999999
 20
152.705
 11
399.1614
 21
152.705
  0
LINE
  5
212
100
AcDbEntity
  8
0
  6
ByLayer
 62
  256
370
   -1
100
AcDbLine
 10
399.1614
 20
152.705
 11
399.3384
 21
152.654
  0
LINE
  5
213
100
AcDbEntity
  8
0
  6
ByLayer
 62
  256
370
   -1
100
AcDbLine
 10
399.3384
 20
152.654
 11
399.3894
 21
152.604
  0
LINE
  5
214
100
AcDbEntity
  8
0
  6
ByLayer
 62
  256
370
   -1
100
AcDbLine
 10
398.6534
 20
101.423
 11
398.6534
 21
102.718
  0
LINE
  5
215
100
AcDbEntity
  8
0
  6
ByLayer
 62
  256
370
   -1
100
AcDbLine
 10
398.6534
 20
102.718
 11
398.9574
 21
102.718
  0
LINE
  5
216
100
AcDbEntity
  8
0
  6
ByLayer
 62
  256
370
   -1
100
AcDbLine
 10
398.9574
 20
102.718
 11
399.1614
 21
102.667
  0
LINE
  5
217
100
AcDbEntity
  8
0
  6
ByLayer
 62
  256
370
   -1
100
AcDbLine
 10
399.1614
 20
102.667
 11
399.2624
 21
102.54
  0
LINE
  5
218
100
AcDbEntity
  8
0
  6
ByLayer
 62
  256
370
   -1
100
AcDbLine
 10
399.2624
 20
102.54
 11
399.3384
 21
102.413
  0
LINE
  5
219
100
AcDbEntity
  8
0
  6
ByLayer
 62
  256
370
   -1
100
AcDbLine
 10
399.3384
 20
102.413
 11
399.3894
 21
102.185
  0
LINE
  5
21A
100
AcDbEntity
  8
0
  6
ByLayer
 62
  256
370
   -1
100
AcDbLine
 10
399.3894
 20
102.185
 11
399.3894
 21
101.981
  0
LINE
  5
21B
100
AcDbEntity
  8
0
  6
ByLayer
 62
  256
370
   -1
100
AcDbLine
 10
399.3894
 20
101.981
 11
399.3384
 21
101.753
  0
LINE
  5
21C
100
AcDbEntity
  8
0
  6
ByLayer
 62
  256
370
   -1
100
AcDbLine
 10
399.3384
 20
101.753
 11
399.2624
 21
101.626
  0
LINE
  5
21D
100
AcDbEntity
  8
0
  6
ByLayer
 62
  256
370
   -1
100
AcDbLine
 10
399.2624
 20
101.626
 11
399.1614
 21
101.499
  0
LINE
  5
21E
100
AcDbEntity
  8
0
  6
ByLayer
 62
  256
370
   -1
100
AcDbLine
 10
399.1614
 20
101.499
 11
398.9574
 21
101.423
  0
LINE
  5
21F
100
AcDbEntity
  8
0
  6
ByLayer
 62
  256
370
   -1
100
AcDbLine
 10
398.9574
 20
101.423
 11
398.6534
 21
101.423
  0
LINE
  5
220
100
AcDbEntity
  8
0
  6
ByLayer
 62
  256
370
   -1
100
AcDbLine
 10
398.7034
 20
52.096
 11
399.1353999999999
 21
52.096
  0
LINE
  5
221
100
AcDbEntity
  8
0
  6
ByLayer
 62
  256
370
   -1
100
AcDbLine
 10
399.3134
 20
51.41
 11
398.7034
 21
51.41
  0
LINE
  5
222
100
AcDbEntity
  8
0
  6
ByLayer
 62
  256
370
   -1
100
AcDbLine
 10
398.7034
 20
51.41
 11
398.7034
 21
52.70500000000001
  0
LINE
  5
223
100
AcDbEntity
  8
0
  6
ByLayer
 62
  256
370
   -1
100
AcDbLine
 10
398.7034
 20
52.70500000000001
 11
399.3134
 21
52.70500000000001
  0
LINE
  5
224
100
AcDbEntity
  8
0
  6
ByLayer
 62
  256
370
   -1
100
AcDbLine
 10
399.1614
 20
2.10899999999998
 11
398.7294
 21
2.10899999999998
  0
LINE
  5
225
100
AcDbEntity
  8
0
  6
ByLayer
 62
  256
370
   -1
100
AcDbLine
 10
398.7294
 20
1.423000000000002
 11
398.7294
 21
2.718000000000018
  0
LINE
  5
226
100
AcDbEntity
  8
0
  6
ByLayer
 62
  256
370
   -1
100
AcDbLine
 10
398.7294
 20
2.718000000000018
 11
399.3384
 21
2.718000000000018
  0
LINE
  5
227
100
AcDbEntity
  8
0
  6
ByLayer
 62
  256
370
   -1
100
AcDbLine
 10
289.9914
 20
5.487000000000023
 11
397.9924
 21
5.487000000000023
  0
LINE
  5
228
100
AcDbEntity
  8
0
  6
ByLayer
 62
  256
370
   -1
100
AcDbLine
 10
289.9914
 20
8.48399999999998
 11
397.9924
 21
8.48399999999998
  0
LINE
  5
229
100
AcDbEntity
  8
0
  6
ByLayer
 62
  256
370
   -1
100
AcDbLine
 10
289.9914
 20
12.49700000000001
 11
397.9924
 21
12.49700000000001
  0
LINE
  5
22A
100
AcDbEntity
  8
0
  6
ByLayer
 62
  256
370
   -1
100
AcDbLine
 10
289.9914
 20
18.49200000000002
 11
397.9924
 21
18.49200000000002
  0
LINE
  5
22B
100
AcDbEntity
  8
0
  6
ByLayer
 62
  256
370
   -1
100
AcDbLine
 10
309.9814
 20
8.48399999999998
 11
309.9814
 21
5.487000000000023
  0
LINE
  5
22C
100
AcDbEntity
  8
0
  6
ByLayer
 62
  256
370
   -1
100
AcDbLine
 10
373.9894
 20
8.48399999999998
 11
373.9894
 21
1.982000000000028
  0
LWPOLYLINE
  5
22D
100
AcDbEntity
  8
0
  6
ByLayer
 62
  256
370
  100
100
AcDbPolyline
 90
    4
 70
    1
 43
0
 10
49.9924
 20
56.995
 10
349.9924
 20
56.995
 10
349.9924
 20
206.995
 10
49.9924
 20
206.995
  0
LWPOLYLINE
  5
22E
100
AcDbEntity
  8
0
  6
ByLayer
 62
  256
370
  100
100
AcDbPolyline
 90
    4
 70
    1
 43
0
 10
349.9924
 20
206.995
 10
49.9924
 20
206.995
 10
49.9924
 20
226.995
 10
349.9924
 20
226.995
  0
DIMENSION
  5
22F
100
AcDbEntity
  8
0
  6
ByLayer
 62
  256
370
   -1
100
AcDbDimension
  2
*D1
 10
369.9924
 20
206.995
 30
0
 11
368.1174
 21
131.995
 31
0
 70
   33
 71
    5
 72
    0
  3
Standard
 53
0
210
0
220
0
230
1
100
AcDbAlignedDimension
 13
349.9924
 23
56.995
 33
0
 14
349.9924
 24
206.995
 34
0
  0
DIMENSION
  5
230
100
AcDbEntity
  8
0
  6
ByLayer
 62
  256
370
   -1
100
AcDbDimension
  2
*D2
 10
369.9924
 20
226.995
 30
0
 11
368.1174
 21
216.995
 31
0
 70
   33
 71
    5
 72
    0
  3
Standard
 53
0
210
0
220
0
230
1
100
AcDbAlignedDimension
 13
339.9924
 23
206.995
 33
0
 14
339.9924
 24
226.995
 34
0
  0
DIMENSION
  5
231
100
AcDbEntity
  8
0
  6
ByLayer
 62
  256
370
   -1
100
AcDbDimension
  2
*D3
 10
349.9924
 20
246.995
 30
0
 11
199.9924
 21
248.87
 31
0
 70
   33
 71
    5
 72
    0
  3
Standard
 53
0
210
0
220
0
230
1
100
AcDbAlignedDimension
 13
49.9924
 23
226.995
 33
0
 14
349.9924
 24
226.995
 34
0
  0
LINE
  5
232
100
AcDbEntity
  8
0
  6
DASHDOT2
 62
  256
370
   -1
100
AcDbLine
 10
247.9924
 20
131.995
 11
39.9924
 21
131.995
  0
DIMENSION
  5
233
100
AcDbEntity
  8
0
  6
ByLayer
 62
  256
370
   -1
100
AcDbDimension
  2
*D4
 10
29.9924
 20
96.995
 30
0
 11
28.1174
 21
76.995
 31
0
 70
   33
 71
    5
 72
    0
  3
Standard
 53
0
210
0
220
0
230
1
100
AcDbAlignedDimension
 13
49.9924
 23
56.995
 33
0
 14
49.9924
 24
96.995
 34
0
  0
DIMENSION
  5
234
100
AcDbEntity
  8
0
  6
ByLayer
 62
  256
370
   -1
100
AcDbDimension
  2
*D5
 10
29.9924
 20
131.995
 30
0
 11
28.1174
 21
114.495
 31
0
 70
   33
 71
    5
 72
    0
  3
Standard
 53
0
210
0
220
0
230
1
100
AcDbAlignedDimension
 13
49.9924
 23
96.995
 33
0
 14
49.9924
 24
131.995
 34
0
  0
DIMENSION
  5
235
100
AcDbEntity
  8
0
  6
ByLayer
 62
  256
370
   -1
100
AcDbDimension
  2
*D6
 10
29.9924
 20
166.995
 30
0
 11
28.1174
 21
149.495
 31
0
 70
   33
 71
    5
 72
    0
  3
Standard
 53
0
210
0
220
0
230
1
100
AcDbAlignedDimension
 13
49.9924
 23
131.995
 33
0
 14
49.9924
 24
166.995
 34
0
  0
LINE
  5
236
100
AcDbEntity
  8
0
  6
DASHDOT2
 62
  256
370
   -1
100
AcDbLine
 10
265.9924
 20
166.995
 11
39.9924
 21
166.995
  0
LINE
  5
237
100
AcDbEntity
  8
0
  6
DASHDOT2
 62
  256
370
   -1
100
AcDbLine
 10
39.9924
 20
96.995
 11
265.9924
 21
96.995
  0
LINE
  5
238
100
AcDbEntity
  8
0
  6
DASHDOTTINY
 62
  256
370
   -1
100
AcDbLine
 10
181.9924
 20
51.995
 11
181.9924
 21
179.995
  0
CIRCLE
  5
239
100
AcDbEntity
  8
0
  6
ByLayer
 62
  256
370
  100
100
AcDbCircle
 10
145.9924
 20
166.995
 40
8
  0
CIRCLE
  5
23A
100
AcDbEntity
  8
0
  6
ByLayer
 62
  256
370
  100
100
AcDbCircle
 10
145.9924
 20
96.995
 40
8
  0
CIRCLE
  5
23B
100
AcDbEntity
  8
0
  6
DASHDOTTINY
 62
  256
370
   -1
100
AcDbCircle
 10
227.9924
 20
166.995
 40
0
  0
CIRCLE
  5
23C
100
AcDbEntity
  8
0
  6
ByLayer
 62
  256
370
  100
100
AcDbCircle
 10
164.0225865924476
 20
131.9993077297862
 40
7.986144258643125
  0
LINE
  5
23D
100
AcDbEntity
  8
0
  6
DASHDOT2
 62
  256
370
   -1
100
AcDbLine
 10
145.9924
 20
46.995
 11
145.9924
 21
179.995
  0
LINE
  5
23E
100
AcDbEntity
  8
0
  6
DASHDOTTINY
 62
  256
370
   -1
100
AcDbLine
 10
163.9924
 20
51.995
 11
163.9924
 21
144.995
  0
DIMENSION
  5
23F
100
AcDbEntity
  8
0
  6
ByLayer
 62
  256
370
   -1
100
AcDbDimension
  2
*D7
 10
49.9924
 20
36.995
 30
0
 11
97.9924
 21
38.87
 31
0
 70
   33
 71
    5
  3
Standard
 53
0
210
0
220
0
230
1
100
AcDbAlignedDimension
 13
145.9924
 23
56.995
 33
0
 14
49.9924
 24
56.995
 34
0
  0
DIMENSION
  5
240
100
AcDbEntity
  8
0
  6
ByLayer
 62
  256
370
   -1
100
AcDbDimension
  2
*D8
 10
163.9924
 20
36.995
 30
0
 11
154.9924
 21
38.87
 31
0
 70
   33
 71
    5
  3
Standard
 53
0
210
0
220
0
230
1
100
AcDbAlignedDimension
 13
145.9924
 23
56.995
 33
0
 14
163.9924
 24
56.995
 34
0
  0
DIMENSION
  5
241
100
AcDbEntity
  8
0
  6
ByLayer
 62
  256
370
   -1
100
AcDbDimension
  2
*D9
 10
181.9924
 20
36.995
 30
0
 11
172.9924
 21
38.87
 31
0
 70
   33
 71
    5
  3
Standard
 53
0
210
0
220
0
230
1
100
AcDbAlignedDimension
 13
163.9924
 23
56.995
 33
0
 14
181.9924
 24
56.995
 34
0
  0
DIMENSION
  5
242
100
AcDbEntity
  8
0
  6
ByLayer
 62
  256
370
   -1
100
AcDbDimension
  2
*D10
 10
199.9924
 20
36.995
 30
0
 11
190.9924
 21
38.87
 31
0
 70
   33
 71
    5
  3
Standard
 53
0
210
0
220
0
230
1
100
AcDbAlignedDimension
 13
181.9924
 23
56.995
 33
0
 14
199.9924
 24
56.995
 34
0
  0
DIMENSION
  5
243
100
AcDbEntity
  8
0
  6
ByLayer
 62
  256
370
   -1
100
AcDbDimension
  2
*D11
 10
217.9924
 20
36.995
 30
0
 11
208.9924
 21
38.87
 31
0
 70
   33
 71
    5
  3
Standard
 53
0
210
0
220
0
230
1
100
AcDbAlignedDimension
 13
199.9924
 23
56.995
 33
0
 14
217.9924
 24
56.995
 34
0
  0
DIMENSION
  5
244
100
AcDbEntity
  8
0
  6
ByLayer
 62
  256
370
   -1
100
AcDbDimension
  2
*D12
 10
235.9924
 20
36.995
 30
0
 11
226.9924
 21
38.87
 31
0
 70
   33
 71
    5
  3
Standard
 53
0
210
0
220
0
230
1
100
AcDbAlignedDimension
 13
217.9924
 23
56.995
 33
0
 14
235.9924
 24
56.995
 34
0
  0
DIMENSION
  5
245
100
AcDbEntity
  8
0
  6
ByLayer
 62
  256
370
   -1
100
AcDbDimension
  2
*D13
 10
253.9924
 20
36.995
 30
0
 11
244.9924
 21
38.87
 31
0
 70
   33
 71
    5
  3
Standard
 53
0
210
0
220
0
230
1
100
AcDbAlignedDimension
 13
235.9924
 23
56.995
 33
0
 14
253.9924
 24
56.995
 34
0
  0
LINE
  5
246
100
AcDbEntity
  8
0
  6
DASHDOTTINY
 62
  256
370
   -1
100
AcDbLine
 10
253.9924
 20
51.995
 11
253.9924
 21
179.995
  0
LINE
  5
247
100
AcDbEntity
  8
0
  6
DASHDOTTINY
 62
  256
370
   -1
100
AcDbLine
 10
235.9924
 20
51.995
 11
235.9924
 21
144.995
  0
LINE
  5
248
100
AcDbEntity
  8
0
  6
DASHDOTTINY
 62
  256
370
   -1
100
AcDbLine
 10
217.9924
 20
51.995
 11
217.9924
 21
179.995
  0
LINE
  5
249
100
AcDbEntity
  8
0
  6
DASHDOTTINY
 62
  256
370
   -1
100
AcDbLine
 10
199.9924
 20
51.995
 11
199.9924
 21
146.995
  0
CIRCLE
  5
24A
100
AcDbEntity
  8
0
  6
ByLayer
 62
  256
370
  100
100
AcDbCircle
 10
181.9924
 20
166.995
 40
8
  0
CIRCLE
  5
24B
100
AcDbEntity
  8
0
  6
ByLayer
 62
  256
370
  100
100
AcDbCircle
 10
217.9924
 20
166.995
 40
8
  0
CIRCLE
  5
24C
100
AcDbEntity
  8
0
  6
ByLayer
 62
  256
370
  100
100
AcDbCircle
 10
253.9924
 20
166.995
 40
8
  0
CIRCLE
  5
24D
100
AcDbEntity
  8
0
  6
ByLayer
 62
  256
370
  100
100
AcDbCircle
 10
235.997606969223
 20
131.995
 40
7.994793030777
  0
CIRCLE
  5
24E
100
AcDbEntity
  8
0
  6
ByLayer
 62
  256
370
  100
100
AcDbCircle
 10
199.9650280655992
 20
131.995
 40
8.027371934400826
  0
CIRCLE
  5
24F
100
AcDbEntity
  8
0
  6
ByLayer
 62
  256
370
  100
100
AcDbCircle
 10
253.9924
 20
96.995
 40
8
  0
CIRCLE
  5
250
100
AcDbEntity
  8
0
  6
ByLayer
 62
  256
370
  100
100
AcDbCircle
 10
181.9924
 20
96.995
 40
8
  0
CIRCLE
  5
251
100
AcDbEntity
  8
0
  6
ByLayer
 62
  256
370
  100
100
AcDbCircle
 10
217.9924
 20
96.995
 40
8
  0
DIMENSION
  5
252
100
AcDbEntity
  8
0
  6
ByLayer
 62
  256
370
   -1
100
AcDbDimension
  2
*D14
 10
272.8704477930629
 20
174.6761736912729
 30
0
 11
268.5486844141818
 21
181.6495874996034
 31
0
 70
   33
 71
    5
  3
Standard
 53
0
210
0
220
0
230
1
100
AcDbAlignedDimension
 13
248.1918524343019
 23
172.5879327069348
 33
0
 14
259.4870296215133
 24
161.2927555197234
 34
0
  0
MTEXT
  5
253
100
AcDbEntity
  8
text
  6
ByLayer
 62
  256
370
   -1
100
AcDbMText
 10
290.9924
 20
4.995000000000005
 30
0
 40
2
 41
19.94444444444444
 71
    1
 72
    1
  1
LibreCAD v2.1.3
  7
normallatin2
210
0
220
0
230
1
 50
0
 73
    2
 44
1
  0
MTEXT
  5
254
100
AcDbEntity
  8
text
  6
ByLayer
 62
  256
370
   -1
100
AcDbMText
 10
290.9924
 20
7.995000000000005
 30
0
 40
2
 41
12.16666674849477
 71
    1
 72
    1
  1
Size: A/3
  7
normallatin2
210
0
220
0
230
1
 50
0
 73
    2
 44
1
  0
MTEXT
  5
255
100
AcDbEntity
  8
text
  6
ByLayer
 62
  256
370
   -1
100
AcDbMText
 10
290.9924
 20
14.995
 30
0
 40
2
 41
20.61111111111111
 71
    1
 72
    1
  1
File: bottom.dxf
  7
normallatin2
210
0
220
0
230
1
 50
0
 73
    2
 44
1
  0
MTEXT
  5
256
100
AcDbEntity
  8
text
  6
ByLayer
 62
  256
370
   -1
100
AcDbMText
 10
290.9924
 20
17.995
 30
0
 40
2
 41
10.83333341516144
 71
    1
 72
    1
  1
Sheet: /
  7
normallatin2
210
0
220
0
230
1
 50
0
 73
    2
 44
1
  0
MTEXT
  5
257
100
AcDbEntity
  8
text
  6
ByLayer
 62
  256
370
   -1
100
AcDbMText
 10
290.9924
 20
11.995
 30
0
 40
2
 41
73.00000641399386
 71
    1
 72
    1
  1
Title: MM4A Electrical distribution and switching unit
  7
normallatin2
210
0
220
0
230
1
 50
0
 73
    2
 44
1
  0
MTEXT
  5
258
100
AcDbEntity
  8
text
  6
ByLayer
 62
  256
370
   -1
100
AcDbMText
 10
290.9924
 20
32.995
 30
0
 40
2
 41
23
 71
    1
 72
    1
  1
Draw no.: 59/4/3
  7
normallatin2
210
0
220
0
230
1
 50
0
 73
    2
 44
1
  0
MTEXT
  5
259
100
AcDbEntity
  8
text
  6
ByLayer
 62
  256
370
   -1
100
AcDbMText
 10
375.9924
 20
7.995000000000005
 30
0
 40
2
 41
14.83334822222222
 71
    1
 72
    1
  1
Rev: 190919
  7
normallatin2
210
0
220
0
230
1
 50
0
 73
    2
 44
1
  0
MTEXT
  5
25A
100
AcDbEntity
  8
text
  6
ByLayer
 62
  256
370
   -1
100
AcDbMText
 10
375.9924
 20
4.995000000000005
 30
0
 40
2
 41
7.5
 71
    1
 72
    1
  1
Id: 1/1
  7
normallatin2
210
0
220
0
230
1
 50
0
 73
    2
 44
1
  0
MTEXT
  5
25B
100
AcDbEntity
  8
text
  6
ByLayer
 62
  256
370
   -1
100
AcDbMText
 10
310.9924
 20
7.995000000000005
 30
0
 40
2
 41
24.722252
 71
    1
 72
    1
  1
Date: 2019. 09. 28.
  7
normallatin2
210
0
220
0
230
1
 50
0
 73
    2
 44
1
  0
MTEXT
  5
25C
100
AcDbEntity
  8
text
  6
ByLayer
 62
  256
370
   -1
100
AcDbMText
 10
291
 20
28
 30
0
 40
2
 41
5.722222222222222
 71
    1
 72
    1
  1
M 1:1
  7
normallatin2
210
0
220
0
230
1
 50
0
 73
    2
 44
1
  0
MTEXT
  5
25D
100
AcDbEntity
  8
text
  6
ByLayer
 62
  256
370
   -1
100
AcDbMText
 10
291
 20
22
 30
0
 40
2
 41
61.16667628765745
 71
    1
 72
    1
  1
Pozsar Zsolt - http://www.szerafingomba.hu
  7
normallatin2
210
0
220
0
230
1
 50
0
 73
    2
 44
1
  0
MTEXT
  5
25E
100
AcDbEntity
  8
text
  6
ByLayer
 62
  256
370
   -1
100
AcDbMText
 10
291
 20
25
 30
0
 40
2
 41
48.61111111111111
 71
    1
 72
    1
  1
Drilling draw for bottom of cabinet
  7
normallatin2
210
0
220
0
230
1
 50
0
 73
    2
 44
1
  0
ENDSEC
  0
SECTION
  2
OBJECTS
  0
DICTIONARY
  5
C
330
0
100
AcDbDictionary
281
    1
  3
ACAD_GROUP
350
D
  0
DICTIONARY
  5
D
330
C
100
AcDbDictionary
281
    1
  0
ENDSEC
  0
EOF
