999
dxfrw 0.6.3
  0
SECTION
  2
HEADER
  9
$ACADVER
  1
AC1021
  9
$DWGCODEPAGE
  3
ANSI_1250
  9
$INSBASE
 10
0
 20
0
 30
0
  9
$EXTMIN
 10
0
 20
0
 30
0
  9
$EXTMAX
 10
399.9734
 20
573.9893999999999
 30
0
  9
$LIMMIN
 10
0
 20
0
  9
$LIMMAX
 10
420
 20
297
  9
$ORTHOMODE
 70
    0
  9
$REGENMODE
 70
    1
  9
$FILLMODE
 70
    1
  9
$QTEXTMODE
 70
    0
  9
$MIRRTEXT
 70
    0
  9
$LTSCALE
 40
1
  9
$ATTMODE
 70
    0
  9
$TEXTSIZE
 40
2.5
  9
$TRACEWID
 40
15.68
  9
$TEXTSTYLE
  7
STANDARD
  9
$CLAYER
  8
text
  9
$CELTYPE
  6
BYLAYER
  9
$CECOLOR
 62
  256
  9
$CELTSCALE
 40
1
  9
$DISPSILH
 70
    0
  9
$DIMSCALE
 40
1
  9
$DIMASZ
 40
2.5
  9
$DIMEXO
 40
0.625
  9
$DIMDLI
 40
3.75
  9
$DIMRND
 40
0
  9
$DIMDLE
 40
0
  9
$DIMEXE
 40
1.25
  9
$DIMTP
 40
0
  9
$DIMTM
 40
0
  9
$DIMTXT
 40
2.5
  9
$DIMCEN
 40
2.5
  9
$DIMTSZ
 40
0
  9
$DIMTOL
 70
    0
  9
$DIMLIM
 70
    0
  9
$DIMTIH
 70
    0
  9
$DIMTOH
 70
    0
  9
$DIMSE1
 70
    0
  9
$DIMSE2
 70
    0
  9
$DIMTAD
 70
    1
  9
$DIMZIN
 70
    1
  9
$DIMBLK
  1

  9
$DIMASO
 70
    1
  9
$DIMSHO
 70
    1
  9
$DIMPOST
  1

  9
$DIMAPOST
  1

  9
$DIMALT
 70
    0
  9
$DIMALTD
 70
    3
  9
$DIMALTF
 40
0.03937
  9
$DIMLFAC
 40
1
  9
$DIMTOFL
 70
    1
  9
$DIMTVP
 40
0
  9
$DIMTIX
 70
    0
  9
$DIMSOXD
 70
    0
  9
$DIMSAH
 70
    0
  9
$DIMBLK1
  1

  9
$DIMBLK2
  1

  9
$DIMSTYLE
  2
Standard
  9
$DIMCLRD
 70
    0
  9
$DIMCLRE
 70
    0
  9
$DIMCLRT
 70
    0
  9
$DIMTFAC
 40
1
  9
$DIMGAP
 40
0.625
  9
$DIMJUST
 70
    0
  9
$DIMSD1
 70
    0
  9
$DIMSD2
 70
    0
  9
$DIMTOLJ
 70
    0
  9
$DIMTZIN
 70
    8
  9
$DIMALTZ
 70
    0
  9
$DIMALTTZ
 70
    0
  9
$DIMUPT
 70
    0
  9
$DIMDEC
 70
    0
  9
$DIMTDEC
 70
    2
  9
$DIMALTU
 70
    2
  9
$DIMALTTD
 70
    3
  9
$DIMTXSTY
  7
standard
  9
$DIMAUNIT
 70
    0
  9
$DIMADEC
 70
    2
  9
$DIMALTRND
 40
0
  9
$DIMAZIN
 70
    0
  9
$DIMDSEP
 70
    0
  9
$DIMATFIT
 70
    3
  9
$DIMFRAC
 70
    0
  9
$DIMLDRBLK
  1
STANDARD
  9
$DIMLUNIT
 70
    2
  9
$DIMLWD
 70
   -2
  9
$DIMLWE
 70
   -2
  9
$DIMTMOVE
 70
    0
  9
$DIMFXL
 40
1
  9
$DIMFXLON
 70
    0
  9
$DIMJOGANG
 40
0.7854
  9
$DIMTFILL
 70
    0
  9
$DIMTFILLCLR
 70
    0
  9
$DIMARCSYM
 70
    0
  9
$DIMLTYPE
  6

  9
$DIMLTEX1
  6

  9
$DIMLTEX2
  6

  9
$LUNITS
 70
    2
  9
$LUPREC
 70
    4
  9
$SKETCHINC
 40
1
  9
$FILLETRAD
 40
0
  9
$AUNITS
 70
    0
  9
$AUPREC
 70
    2
  9
$MENU
  1
.
  9
$ELEVATION
 40
0
  9
$PELEVATION
 40
0
  9
$THICKNESS
 40
0
  9
$LIMCHECK
 70
    0
  9
$CHAMFERA
 40
0
  9
$CHAMFERB
 40
0
  9
$CHAMFERC
 40
0
  9
$CHAMFERD
 40
0
  9
$SKPOLY
 70
    0
  9
$USRTIMER
 70
    1
  9
$ANGBASE
 50
0
  9
$ANGDIR
 70
    1
  9
$PDMODE
 70
   34
  9
$PDSIZE
 40
0
  9
$PLINEWID
 40
0
  9
$SPLFRAME
 70
    0
  9
$SPLINETYPE
 70
    2
  9
$SPLINESEGS
 70
    8
  9
$HANDSEED
  5
20000
  9
$SURFTAB1
 70
    6
  9
$SURFTAB2
 70
    6
  9
$SURFTYPE
 70
    6
  9
$SURFU
 70
    6
  9
$SURFV
 70
    6
  9
$UCSBASE
  2

  9
$UCSNAME
  2

  9
$UCSORG
 10
0
 20
0
 30
0
  9
$UCSXDIR
 10
1
 20
0
 30
0
  9
$UCSYDIR
 10
0
 20
1
 30
0
  9
$UCSORTHOREF
  2

  9
$UCSORTHOVIEW
 70
    0
  9
$UCSORGTOP
 10
0
 20
0
 30
0
  9
$UCSORGBOTTOM
 10
0
 20
0
 30
0
  9
$UCSORGLEFT
 10
0
 20
0
 30
0
  9
$UCSORGRIGHT
 10
0
 20
0
 30
0
  9
$UCSORGFRONT
 10
0
 20
0
 30
0
  9
$UCSORGBACK
 10
0
 20
0
 30
0
  9
$PUCSBASE
  2

  9
$PUCSNAME
  2

  9
$PUCSORG
 10
0
 20
0
 30
0
  9
$PUCSXDIR
 10
1
 20
0
 30
0
  9
$PUCSYDIR
 10
0
 20
1
 30
0
  9
$PUCSORTHOREF
  2

  9
$PUCSORTHOVIEW
 70
    0
  9
$PUCSORGTOP
 10
0
 20
0
 30
0
  9
$PUCSORGBOTTOM
 10
0
 20
0
 30
0
  9
$PUCSORGLEFT
 10
0
 20
0
 30
0
  9
$PUCSORGRIGHT
 10
0
 20
0
 30
0
  9
$PUCSORGFRONT
 10
0
 20
0
 30
0
  9
$PUCSORGBACK
 10
0
 20
0
 30
0
  9
$USERI1
 70
    0
  9
$USERI2
 70
    0
  9
$USERI3
 70
    0
  9
$USERI4
 70
    0
  9
$USERI5
 70
    0
  9
$USERR1
 40
0
  9
$USERR2
 40
0
  9
$USERR3
 40
0
  9
$USERR4
 40
0
  9
$USERR5
 40
0
  9
$WORLDVIEW
 70
    1
  9
$SHADEDGE
 70
    3
  9
$SHADEDIF
 70
   70
  9
$TILEMODE
 70
    1
  9
$MAXACTVP
 70
   64
  9
$PINSBASE
 10
12.5
 20
13.57388591341322
 30
0
  9
$PLIMCHECK
 70
    0
  9
$PEXTMIN
 10
0
 20
0
 30
0
  9
$PEXTMAX
 10
0
 20
0
 30
0
  9
$GRIDMODE
 70
    1
  9
$SNAPSTYLE
 70
    0
  9
$GRIDUNIT
 10
0
 20
0
  9
$PLIMMIN
 10
0
 20
0
  9
$PLIMMAX
 10
420
 20
594
  9
$UNITMODE
 70
    0
  9
$VISRETAIN
 70
    1
  9
$PLINEGEN
 70
    0
  9
$PSLTSCALE
 70
    1
  9
$TREEDEPTH
 70
 3020
  9
$CMLSTYLE
  2
Standard
  9
$CMLJUST
 70
    0
  9
$CMLSCALE
 40
20
  9
$PROXYGRAPHICS
 70
    1
  9
$MEASUREMENT
 70
    0
  9
$CELWEIGHT
370
   -1
  9
$ENDCAPS
280
    0
  9
$JOINSTYLE
280
    0
  9
$LWDISPLAY
290
    0
  9
$INSUNITS
 70
    4
  9
$HYPERLINKBASE
  1

  9
$STYLESHEET
  1

  9
$XEDIT
290
    1
  9
$CEPSNTYPE
380
    0
  9
$PSTYLEMODE
290
    1
  9
$EXTNAMES
290
    1
  9
$PSVPSCALE
 40
0.9875665372954502
  9
$OLESTARTUP
290
    0
  9
$SORTENTS
280
  127
  9
$INDEXCTL
280
    0
  9
$HIDETEXT
280
    1
  9
$XCLIPFRAME
290
    0
  9
$HALOGAP
280
    0
  9
$OBSCOLOR
 70
  257
  9
$OBSLTYPE
280
    0
  9
$INTERSECTIONDISPLAY
280
    0
  9
$INTERSECTIONCOLOR
 70
  257
  9
$DIMASSOC
280
    1
  9
$PROJECTNAME
  1

  9
$CAMERADISPLAY
290
    0
  9
$LENSLENGTH
 40
50
  9
$CAMERAHEIGHT
 40
0
  9
$STEPSPERSEC
 40
2
  9
$STEPSIZE
 40
50
  9
$3DDWFPREC
 40
2
  9
$PSOLWIDTH
 40
5
  9
$PSOLHEIGHT
 40
80
  9
$LOFTANG1
 40
1.570796326794897
  9
$LOFTANG2
 40
1.570796326794897
  9
$LOFTMAG1
 40
0
  9
$LOFTMAG2
 40
0
  9
$LOFTPARAM
 70
    7
  9
$LOFTNORMALS
280
    1
  9
$LATITUDE
 40
1
  9
$LONGITUDE
 40
1
  9
$NORTHDIRECTION
 40
0
  9
$TIMEZONE
 70
-8000
  9
$LIGHTGLYPHDISPLAY
280
    1
  9
$TILEMODELIGHTSYNCH
280
    1
  9
$SOLIDHIST
280
    1
  9
$SHOWHIST
280
    1
  9
$DWFFRAME
280
    2
  9
$DGNFRAME
280
    0
  9
$REALWORLDSCALE
290
    1
  9
$INTERFERECOLOR
 62
    1
  9
$CSHADOW
280
    0
  9
$SHADOWPLANELOCATION
 40
0
  0
ENDSEC
  0
SECTION
  2
CLASSES
  0
ENDSEC
  0
SECTION
  2
TABLES
  0
TABLE
  2
VPORT
  5
8
330
0
100
AcDbSymbolTable
 70
    1
  0
VPORT
  5
31
330
2
100
AcDbSymbolTableRecord
100
AcDbViewportTableRecord
  2
*ACTIVE
 70
    0
 10
0
 20
0
 11
1
 21
1
 12
326.3067162017537
 22
281.4494668942133
 13
0
 23
0
 14
10
 24
10
 15
10
 25
10
 16
0
 26
0
 36
1
 17
0
 27
0
 37
0
 40
491.4449083427872
 41
1.552504038772213
 42
50
 43
0
 44
0
 50
0
 51
0
 71
    0
 72
  100
 73
    1
 74
    3
 75
    0
 76
    1
 77
    0
 78
    0
281
    0
 65
    1
110
0
120
0
130
0
111
1
121
0
131
0
112
0
122
1
132
0
 79
    0
146
0
348
10020
 60
    7
 61
    5
292
1
282
    1
141
0
142
0
 63
  250
421
3358443
  0
ENDTAB
  0
TABLE
  2
LTYPE
  5
5
330
0
100
AcDbSymbolTable
 70
    4
  0
LTYPE
  5
14
330
5
100
AcDbSymbolTableRecord
100
AcDbLinetypeTableRecord
  2
ByBlock
 70
    0
  3

 72
   65
 73
    0
 40
0
  0
LTYPE
  5
15
330
5
100
AcDbSymbolTableRecord
100
AcDbLinetypeTableRecord
  2
ByLayer
 70
    0
  3

 72
   65
 73
    0
 40
0
  0
LTYPE
  5
16
330
5
100
AcDbSymbolTableRecord
100
AcDbLinetypeTableRecord
  2
Continuous
 70
    0
  3
Solid line
 72
   65
 73
    0
 40
0
  0
LTYPE
  5
32
330
5
100
AcDbSymbolTableRecord
100
AcDbLinetypeTableRecord
  2
DOT
 70
    0
  3
Dot . . . . . . . . . . . . . . . . . . . . . .
 72
   65
 73
    2
 40
6.35
 49
0
 74
    0
 49
-6.35
 74
    0
  0
LTYPE
  5
33
330
5
100
AcDbSymbolTableRecord
100
AcDbLinetypeTableRecord
  2
DOTTINY
 70
    0
  3
Dot (.15x) .....................................
 72
   65
 73
    2
 40
0.9525
 49
0
 74
    0
 49
-0.9525
 74
    0
  0
LTYPE
  5
34
330
5
100
AcDbSymbolTableRecord
100
AcDbLinetypeTableRecord
  2
DOT2
 70
    0
  3
Dot (.5x) .....................................
 72
   65
 73
    2
 40
3.175
 49
0
 74
    0
 49
-3.175
 74
    0
  0
LTYPE
  5
35
330
5
100
AcDbSymbolTableRecord
100
AcDbLinetypeTableRecord
  2
DOTX2
 70
    0
  3
Dot (2x) .  .  .  .  .  .  .  .  .  .  .  .  .
 72
   65
 73
    2
 40
12.7
 49
0
 74
    0
 49
-12.7
 74
    0
  0
LTYPE
  5
36
330
5
100
AcDbSymbolTableRecord
100
AcDbLinetypeTableRecord
  2
DASHED
 70
    0
  3
Dashed _ _ _ _ _ _ _ _ _ _ _ _ _ _ _ _ _
 72
   65
 73
    2
 40
19.05
 49
12.7
 74
    0
 49
-6.35
 74
    0
  0
LTYPE
  5
37
330
5
100
AcDbSymbolTableRecord
100
AcDbLinetypeTableRecord
  2
DASHEDTINY
 70
    0
  3
Dashed (.15x) _ _ _ _ _ _ _ _ _ _ _ _ _ _ _ _ _
 72
   65
 73
    2
 40
2.8575
 49
1.905
 74
    0
 49
-0.9525
 74
    0
  0
LTYPE
  5
38
330
5
100
AcDbSymbolTableRecord
100
AcDbLinetypeTableRecord
  2
DASHED2
 70
    0
  3
Dashed (.5x) _ _ _ _ _ _ _ _ _ _ _ _ _ _ _ _ _
 72
   65
 73
    2
 40
9.524999999999999
 49
6.35
 74
    0
 49
-3.175
 74
    0
  0
LTYPE
  5
39
330
5
100
AcDbSymbolTableRecord
100
AcDbLinetypeTableRecord
  2
DASHEDX2
 70
    0
  3
Dashed (2x) ____  ____  ____  ____  ____  ___
 72
   65
 73
    2
 40
38.09999999999999
 49
25.4
 74
    0
 49
-12.7
 74
    0
  0
LTYPE
  5
3A
330
5
100
AcDbSymbolTableRecord
100
AcDbLinetypeTableRecord
  2
DASHDOT
 70
    0
  3
Dash dot __ . __ . __ . __ . __ . __ . __ . __
 72
   65
 73
    4
 40
25.4
 49
12.7
 74
    0
 49
-6.35
 74
    0
 49
0
 74
    0
 49
-6.35
 74
    0
  0
LTYPE
  5
3B
330
5
100
AcDbSymbolTableRecord
100
AcDbLinetypeTableRecord
  2
DASHDOTTINY
 70
    0
  3
Dash dot (.15x) _._._._._._._._._._._._._._._.
 72
   65
 73
    4
 40
3.81
 49
1.905
 74
    0
 49
-0.9525
 74
    0
 49
0
 74
    0
 49
-0.9525
 74
    0
  0
LTYPE
  5
3C
330
5
100
AcDbSymbolTableRecord
100
AcDbLinetypeTableRecord
  2
DASHDOT2
 70
    0
  3
Dash dot (.5x) _._._._._._._._._._._._._._._.
 72
   65
 73
    4
 40
12.7
 49
6.35
 74
    0
 49
-3.175
 74
    0
 49
0
 74
    0
 49
-3.175
 74
    0
  0
LTYPE
  5
3D
330
5
100
AcDbSymbolTableRecord
100
AcDbLinetypeTableRecord
  2
DASHDOTX2
 70
    0
  3
Dash dot (2x) ____  .  ____  .  ____  .  ___
 72
   65
 73
    4
 40
50.8
 49
25.4
 74
    0
 49
-12.7
 74
    0
 49
0
 74
    0
 49
-12.7
 74
    0
  0
LTYPE
  5
3E
330
5
100
AcDbSymbolTableRecord
100
AcDbLinetypeTableRecord
  2
DIVIDE
 70
    0
  3
Divide ____ . . ____ . . ____ . . ____ . . ____
 72
   65
 73
    6
 40
31.75
 49
12.7
 74
    0
 49
-6.35
 74
    0
 49
0
 74
    0
 49
-6.35
 74
    0
 49
0
 74
    0
 49
-6.35
 74
    0
  0
LTYPE
  5
3F
330
5
100
AcDbSymbolTableRecord
100
AcDbLinetypeTableRecord
  2
DIVIDETINY
 70
    0
  3
Divide (.15x) __..__..__..__..__..__..__..__.._
 72
   65
 73
    6
 40
4.7625
 49
1.905
 74
    0
 49
-0.9525
 74
    0
 49
0
 74
    0
 49
-0.9525
 74
    0
 49
0
 74
    0
 49
-0.9525
 74
    0
  0
LTYPE
  5
40
330
5
100
AcDbSymbolTableRecord
100
AcDbLinetypeTableRecord
  2
DIVIDE2
 70
    0
  3
Divide (.5x) __..__..__..__..__..__..__..__.._
 72
   65
 73
    6
 40
15.875
 49
6.35
 74
    0
 49
-3.175
 74
    0
 49
0
 74
    0
 49
-3.175
 74
    0
 49
0
 74
    0
 49
-3.175
 74
    0
  0
LTYPE
  5
41
330
5
100
AcDbSymbolTableRecord
100
AcDbLinetypeTableRecord
  2
DIVIDEX2
 70
    0
  3
Divide (2x) ________  .  .  ________  .  .  _
 72
   65
 73
    6
 40
63.5
 49
25.4
 74
    0
 49
-12.7
 74
    0
 49
0
 74
    0
 49
-12.7
 74
    0
 49
0
 74
    0
 49
-12.7
 74
    0
  0
LTYPE
  5
42
330
5
100
AcDbSymbolTableRecord
100
AcDbLinetypeTableRecord
  2
BORDER
 70
    0
  3
Border __ __ . __ __ . __ __ . __ __ . __ __ .
 72
   65
 73
    6
 40
44.45
 49
12.7
 74
    0
 49
-6.35
 74
    0
 49
12.7
 74
    0
 49
-6.35
 74
    0
 49
0
 74
    0
 49
-6.35
 74
    0
  0
LTYPE
  5
43
330
5
100
AcDbSymbolTableRecord
100
AcDbLinetypeTableRecord
  2
BORDERTINY
 70
    0
  3
Border (.15x) __.__.__.__.__.__.__.__.__.__.__.
 72
   65
 73
    6
 40
6.6675
 49
1.905
 74
    0
 49
-0.9525
 74
    0
 49
1.905
 74
    0
 49
-0.9525
 74
    0
 49
0
 74
    0
 49
-0.9525
 74
    0
  0
LTYPE
  5
44
330
5
100
AcDbSymbolTableRecord
100
AcDbLinetypeTableRecord
  2
BORDER2
 70
    0
  3
Border (.5x) __.__.__.__.__.__.__.__.__.__.__.
 72
   65
 73
    6
 40
22.225
 49
6.35
 74
    0
 49
-3.175
 74
    0
 49
6.35
 74
    0
 49
-3.175
 74
    0
 49
0
 74
    0
 49
-3.175
 74
    0
  0
LTYPE
  5
45
330
5
100
AcDbSymbolTableRecord
100
AcDbLinetypeTableRecord
  2
BORDERX2
 70
    0
  3
Border (2x) ____  ____  .  ____  ____  .  ___
 72
   65
 73
    6
 40
88.89999999999999
 49
25.4
 74
    0
 49
-12.7
 74
    0
 49
25.4
 74
    0
 49
-12.7
 74
    0
 49
0
 74
    0
 49
-12.7
 74
    0
  0
LTYPE
  5
46
330
5
100
AcDbSymbolTableRecord
100
AcDbLinetypeTableRecord
  2
CENTER
 70
    0
  3
Center ____ _ ____ _ ____ _ ____ _ ____ _ ____
 72
   65
 73
    4
 40
50.8
 49
31.75
 74
    0
 49
-6.35
 74
    0
 49
6.35
 74
    0
 49
-6.35
 74
    0
  0
LTYPE
  5
47
330
5
100
AcDbSymbolTableRecord
100
AcDbLinetypeTableRecord
  2
CENTERTINY
 70
    0
  3
Center (.15x) ___ _ ___ _ ___ _ ___ _ ___ _ ___
 72
   65
 73
    4
 40
7.62
 49
4.7625
 74
    0
 49
-0.9525
 74
    0
 49
0.9525
 74
    0
 49
-0.9525
 74
    0
  0
LTYPE
  5
48
330
5
100
AcDbSymbolTableRecord
100
AcDbLinetypeTableRecord
  2
CENTER2
 70
    0
  3
Center (.5x) ___ _ ___ _ ___ _ ___ _ ___ _ ___
 72
   65
 73
    4
 40
28.575
 49
19.05
 74
    0
 49
-3.175
 74
    0
 49
3.175
 74
    0
 49
-3.175
 74
    0
  0
LTYPE
  5
49
330
5
100
AcDbSymbolTableRecord
100
AcDbLinetypeTableRecord
  2
CENTERX2
 70
    0
  3
Center (2x) ________  __  ________  __  _____
 72
   65
 73
    4
 40
101.6
 49
63.5
 74
    0
 49
-12.7
 74
    0
 49
12.7
 74
    0
 49
-12.7
 74
    0
  0
ENDTAB
  0
TABLE
  2
LAYER
  5
2
330
0
100
AcDbSymbolTable
 70
    1
  0
LAYER
  5
10
330
2
100
AcDbSymbolTableRecord
100
AcDbLayerTableRecord
  2
0
 70
    4
 62
    7
  6
CONTINUOUS
370
    0
390
F
  0
LAYER
  5
4A
330
2
100
AcDbSymbolTableRecord
100
AcDbLayerTableRecord
  2
frame
 70
    4
 62
    7
  6
CONTINUOUS
370
   -3
390
F
  0
LAYER
  5
4B
330
2
100
AcDbSymbolTableRecord
100
AcDbLayerTableRecord
  2
text
 70
    4
 62
    7
  6
CONTINUOUS
370
    0
390
F
  0
ENDTAB
  0
TABLE
  2
STYLE
  5
3
330
0
100
AcDbSymbolTable
 70
    3
  0
STYLE
  5
4C
330
2
100
AcDbSymbolTableRecord
100
AcDbTextStyleTableRecord
  2
normallatin2
 70
    0
 40
0
 41
1
 50
0
 71
    0
 42
1
  3
normallatin2
  4

  0
STYLE
  5
4D
330
2
100
AcDbSymbolTableRecord
100
AcDbTextStyleTableRecord
  2
standard
 70
    0
 40
0
 41
1
 50
0
 71
    0
 42
1
  3
standard
  4

  0
ENDTAB
  0
TABLE
  2
VIEW
  5
6
330
0
100
AcDbSymbolTable
 70
    0
  0
ENDTAB
  0
TABLE
  2
UCS
  5
7
330
0
100
AcDbSymbolTable
 70
    0
  0
ENDTAB
  0
TABLE
  2
APPID
  5
9
330
0
100
AcDbSymbolTable
 70
    1
  0
APPID
  5
12
330
9
100
AcDbSymbolTableRecord
100
AcDbRegAppTableRecord
  2
ACAD
 70
    0
  0
APPID
  5
4E
330
9
100
AcDbSymbolTableRecord
100
AcDbRegAppTableRecord
  2
LibreCad
 70
    0
  0
ENDTAB
  0
TABLE
  2
DIMSTYLE
  5
A
330
0
100
AcDbSymbolTable
 70
    1
100
AcDbDimStyleTable
 71
    1
  0
DIMSTYLE
105
4F
330
A
100
AcDbSymbolTableRecord
100
AcDbDimStyleTableRecord
  2
Standard
 70
    0
 40
1
 41
2.5
 42
0.625
 43
0.38
 44
1.25
 45
0
 46
0
 47
0
 48
0
 49
1
140
2.5
141
0.09
142
0
143
25.4
144
1
145
0
146
1
147
0.625
148
0
 71
    0
 72
    0
 73
    0
 74
    1
 75
    0
 76
    0
 77
    0
 78
    1
 79
    0
170
    0
171
    2
172
    0
173
    0
174
    0
175
    0
176
    0
177
    0
178
    0
179
    2
271
    0
272
    4
273
    2
274
    2
275
    0
276
    0
277
    2
278
    0
279
    0
280
    0
281
    0
282
    0
283
    1
284
    0
285
    0
286
    0
288
    0
289
    3
340
standard
341

371
   -2
372
   -2
  0
ENDTAB
  0
TABLE
  2
BLOCK_RECORD
  5
1
330
0
100
AcDbSymbolTable
 70
    2
  0
BLOCK_RECORD
  5
1F
330
1
100
AcDbSymbolTableRecord
100
AcDbBlockTableRecord
  2
*Model_Space
 70
    0
280
    1
281
    0
  0
BLOCK_RECORD
  5
1E
330
1
100
AcDbSymbolTableRecord
100
AcDbBlockTableRecord
  2
*Paper_Space
 70
    0
280
    1
281
    0
  0
BLOCK_RECORD
  5
50
330
1
100
AcDbSymbolTableRecord
100
AcDbBlockTableRecord
  2
*D9
 70
    0
280
    1
281
    0
  0
BLOCK_RECORD
  5
53
330
1
100
AcDbSymbolTableRecord
100
AcDbBlockTableRecord
  2
*D5
 70
    0
280
    1
281
    0
  0
BLOCK_RECORD
  5
56
330
1
100
AcDbSymbolTableRecord
100
AcDbBlockTableRecord
  2
*D10
 70
    0
280
    1
281
    0
  0
BLOCK_RECORD
  5
59
330
1
100
AcDbSymbolTableRecord
100
AcDbBlockTableRecord
  2
*D13
 70
    0
280
    1
281
    0
  0
BLOCK_RECORD
  5
5C
330
1
100
AcDbSymbolTableRecord
100
AcDbBlockTableRecord
  2
*D6
 70
    0
280
    1
281
    0
  0
BLOCK_RECORD
  5
5F
330
1
100
AcDbSymbolTableRecord
100
AcDbBlockTableRecord
  2
*D8
 70
    0
280
    1
281
    0
  0
BLOCK_RECORD
  5
62
330
1
100
AcDbSymbolTableRecord
100
AcDbBlockTableRecord
  2
*D3
 70
    0
280
    1
281
    0
  0
BLOCK_RECORD
  5
65
330
1
100
AcDbSymbolTableRecord
100
AcDbBlockTableRecord
  2
*D2
 70
    0
280
    1
281
    0
  0
BLOCK_RECORD
  5
68
330
1
100
AcDbSymbolTableRecord
100
AcDbBlockTableRecord
  2
*D4
 70
    0
280
    1
281
    0
  0
BLOCK_RECORD
  5
6B
330
1
100
AcDbSymbolTableRecord
100
AcDbBlockTableRecord
  2
*D11
 70
    0
280
    1
281
    0
  0
BLOCK_RECORD
  5
6E
330
1
100
AcDbSymbolTableRecord
100
AcDbBlockTableRecord
  2
*D7
 70
    0
280
    1
281
    0
  0
BLOCK_RECORD
  5
71
330
1
100
AcDbSymbolTableRecord
100
AcDbBlockTableRecord
  2
*D1
 70
    0
280
    1
281
    0
  0
BLOCK_RECORD
  5
74
330
1
100
AcDbSymbolTableRecord
100
AcDbBlockTableRecord
  2
*D12
 70
    0
280
    1
281
    0
  0
ENDTAB
  0
ENDSEC
  0
SECTION
  2
BLOCKS
  0
BLOCK
  5
20
330
1F
100
AcDbEntity
  8
0
100
AcDbBlockBegin
  2
*Model_Space
 70
    0
 10
0
 20
0
 30
0
  3
*Model_Space
  1

  0
ENDBLK
  5
21
330
1F
100
AcDbEntity
  8
0
100
AcDbBlockEnd
  0
BLOCK
  5
1C
330
1B
100
AcDbEntity
  8
0
100
AcDbBlockBegin
  2
*Paper_Space
 70
    0
 10
0
 20
0
 30
0
  3
*Paper_Space
  1

  0
ENDBLK
  5
1D
330
1F
100
AcDbEntity
  8
0
100
AcDbBlockEnd
  0
BLOCK
  5
51
330
50
100
AcDbEntity
  8
0
100
AcDbBlockBegin
  2
*D9
 70
    1
 10
0
 20
0
  3
*D9
  1

  0
LINE
  5
77
100
AcDbEntity
  8
0
  6
ByBlock
 62
    0
370
   -2
100
AcDbLine
 10
79.9924
 20
507.622
 11
79.9924
 21
525.247
  0
LINE
  5
78
100
AcDbEntity
  8
0
  6
ByBlock
 62
    0
370
   -2
100
AcDbLine
 10
99.9924
 20
507.622
 11
99.9924
 21
525.247
  0
LINE
  5
79
100
AcDbEntity
  8
0
  6
ByBlock
 62
    0
370
   -2
100
AcDbLine
 10
79.9924
 20
523.997
 11
99.9924
 21
523.997
  0
SOLID
  5
7A
100
AcDbEntity
  8
0
  6
ByBlock
 62
    0
370
   -2
100
AcDbTrace
 10
79.9924
 20
523.997
 30
0
 11
82.4924
 21
524.4132846577728
 31
0
 12
82.4924
 22
523.5807153422271
 32
0
 13
82.4924
 23
523.5807153422271
 33
0
  0
SOLID
  5
7B
100
AcDbEntity
  8
0
  6
ByBlock
 62
    0
370
   -2
100
AcDbTrace
 10
99.9924
 20
523.997
 30
0
 11
97.4924
 21
523.5807153422271
 31
0
 12
97.4924
 22
524.4132846577728
 32
0
 13
97.4924
 23
524.4132846577728
 33
0
  0
MTEXT
  5
7C
100
AcDbEntity
  8
0
  6
CONTINUOUS
 62
    0
370
   -2
100
AcDbMText
 10
89.9924
 20
525.872
 30
0
 40
2.5
 41
3.055555555555556
 71
    5
 72
    1
  1
20
  7
standard
210
0
220
0
230
1
 50
0
 73
    2
 44
1
  0
ENDBLK
  5
52
330
50
100
AcDbEntity
  8
0
100
AcDbBlockEnd
  0
BLOCK
  5
54
330
53
100
AcDbEntity
  8
0
100
AcDbBlockBegin
  2
*D5
 70
    1
 10
0
 20
0
  3
*D5
  1

  0
LINE
  5
7D
100
AcDbEntity
  8
0
  6
ByBlock
 62
    0
370
   -2
100
AcDbLine
 10
362.6174
 20
428.997
 11
381.2424
 21
428.997
  0
LINE
  5
7E
100
AcDbEntity
  8
0
  6
ByBlock
 62
    0
370
   -2
100
AcDbLine
 10
362.6174
 20
443.997
 11
381.2424
 21
443.997
  0
LINE
  5
7F
100
AcDbEntity
  8
0
  6
ByBlock
 62
    0
370
   -2
100
AcDbLine
 10
379.9924
 20
428.997
 11
379.9924
 21
443.997
  0
SOLID
  5
80
100
AcDbEntity
  8
0
  6
ByBlock
 62
    0
370
   -2
100
AcDbTrace
 10
379.9924
 20
428.997
 30
0
 11
379.5761153422271
 21
431.497
 31
0
 12
380.4086846577728
 22
431.497
 32
0
 13
380.4086846577728
 23
431.497
 33
0
  0
SOLID
  5
81
100
AcDbEntity
  8
0
  6
ByBlock
 62
    0
370
   -2
100
AcDbTrace
 10
379.9924
 20
443.997
 30
0
 11
380.4086846577728
 21
441.497
 31
0
 12
379.5761153422271
 22
441.497
 32
0
 13
379.5761153422271
 23
441.497
 33
0
  0
MTEXT
  5
82
100
AcDbEntity
  8
0
  6
CONTINUOUS
 62
    0
370
   -2
100
AcDbMText
 10
378.1174
 20
436.497
 30
0
 40
2.5
 41
2.500000000000155
 71
    5
 72
    1
  1
15
  7
standard
210
0
220
0
230
1
 50
90
 73
    2
 44
1
  0
ENDBLK
  5
55
330
53
100
AcDbEntity
  8
0
100
AcDbBlockEnd
  0
BLOCK
  5
57
330
56
100
AcDbEntity
  8
0
100
AcDbBlockBegin
  2
*D10
 70
    1
 10
0
 20
0
  3
*D10
  1

  0
LINE
  5
83
100
AcDbEntity
  8
0
  6
ByBlock
 62
    0
370
   -2
100
AcDbLine
 10
59.9924
 20
474.622
 11
59.9924
 21
525.247
  0
LINE
  5
84
100
AcDbEntity
  8
0
  6
ByBlock
 62
    0
370
   -2
100
AcDbLine
 10
79.9924
 20
474.622
 11
79.9924
 21
525.247
  0
LINE
  5
85
100
AcDbEntity
  8
0
  6
ByBlock
 62
    0
370
   -2
100
AcDbLine
 10
59.9924
 20
523.997
 11
79.9924
 21
523.997
  0
SOLID
  5
86
100
AcDbEntity
  8
0
  6
ByBlock
 62
    0
370
   -2
100
AcDbTrace
 10
59.9924
 20
523.997
 30
0
 11
62.4924
 21
524.4132846577728
 31
0
 12
62.4924
 22
523.5807153422271
 32
0
 13
62.4924
 23
523.5807153422271
 33
0
  0
SOLID
  5
87
100
AcDbEntity
  8
0
  6
ByBlock
 62
    0
370
   -2
100
AcDbTrace
 10
79.9924
 20
523.997
 30
0
 11
77.4924
 21
523.5807153422271
 31
0
 12
77.4924
 22
524.4132846577728
 32
0
 13
77.4924
 23
524.4132846577728
 33
0
  0
MTEXT
  5
88
100
AcDbEntity
  8
0
  6
CONTINUOUS
 62
    0
370
   -2
100
AcDbMText
 10
69.9924
 20
525.872
 30
0
 40
2.5
 41
3.055555555555556
 71
    5
 72
    1
  1
20
  7
standard
210
0
220
0
230
1
 50
0
 73
    2
 44
1
  0
ENDBLK
  5
58
330
56
100
AcDbEntity
  8
0
100
AcDbBlockEnd
  0
BLOCK
  5
5A
330
59
100
AcDbEntity
  8
0
100
AcDbBlockBegin
  2
*D13
 70
    1
 10
0
 20
0
  3
*D13
  1

  0
LINE
  5
89
100
AcDbEntity
  8
0
  6
ByBlock
 62
    0
370
   -2
100
AcDbLine
 10
79.99239999999998
 20
388.3720000000001
 11
79.99239999999998
 21
376.7470000000001
  0
LINE
  5
8A
100
AcDbEntity
  8
0
  6
ByBlock
 62
    0
370
   -2
100
AcDbLine
 10
279.9924
 20
388.372
 11
279.9924
 21
376.747
  0
LINE
  5
8B
100
AcDbEntity
  8
0
  6
ByBlock
 62
    0
370
   -2
100
AcDbLine
 10
79.99239999999998
 20
377.9970000000001
 11
279.9924
 21
377.997
  0
SOLID
  5
8C
100
AcDbEntity
  8
0
  6
ByBlock
 62
    0
370
   -2
100
AcDbTrace
 10
79.99239999999998
 20
377.9970000000001
 30
0
 11
82.49239999999998
 21
378.4132846577729
 31
0
 12
82.49239999999998
 22
377.5807153422272
 32
0
 13
82.49239999999998
 23
377.5807153422272
 33
0
  0
SOLID
  5
8D
100
AcDbEntity
  8
0
  6
ByBlock
 62
    0
370
   -2
100
AcDbTrace
 10
279.9924
 20
377.997
 30
0
 11
277.4924
 21
377.5807153422271
 31
0
 12
277.4924
 22
378.4132846577728
 32
0
 13
277.4924
 23
378.4132846577728
 33
0
  0
MTEXT
  5
8E
100
AcDbEntity
  8
0
  6
CONTINUOUS
 62
    0
370
   -2
100
AcDbMText
 10
179.9924
 20
379.872
 30
0
 40
2.5
 41
5
 71
    5
 72
    1
  1
200
  7
standard
210
0
220
0
230
1
 50
359.9999999999999
 73
    2
 44
1
  0
ENDBLK
  5
5B
330
59
100
AcDbEntity
  8
0
100
AcDbBlockEnd
  0
BLOCK
  5
5D
330
5C
100
AcDbEntity
  8
0
100
AcDbBlockBegin
  2
*D6
 70
    1
 10
0
 20
0
  3
*D6
  1

  0
LINE
  5
8F
100
AcDbEntity
  8
0
  6
ByBlock
 62
    0
370
   -2
100
AcDbLine
 10
362.6174
 20
413.997
 11
381.2424
 21
413.997
  0
LINE
  5
90
100
AcDbEntity
  8
0
  6
ByBlock
 62
    0
370
   -2
100
AcDbLine
 10
362.6174
 20
428.997
 11
381.2424
 21
428.997
  0
LINE
  5
91
100
AcDbEntity
  8
0
  6
ByBlock
 62
    0
370
   -2
100
AcDbLine
 10
379.9924
 20
413.997
 11
379.9924
 21
428.997
  0
SOLID
  5
92
100
AcDbEntity
  8
0
  6
ByBlock
 62
    0
370
   -2
100
AcDbTrace
 10
379.9924
 20
413.997
 30
0
 11
379.5761153422271
 21
416.497
 31
0
 12
380.4086846577728
 22
416.497
 32
0
 13
380.4086846577728
 23
416.497
 33
0
  0
SOLID
  5
93
100
AcDbEntity
  8
0
  6
ByBlock
 62
    0
370
   -2
100
AcDbTrace
 10
379.9924
 20
428.997
 30
0
 11
380.4086846577728
 21
426.497
 31
0
 12
379.5761153422271
 22
426.497
 32
0
 13
379.5761153422271
 23
426.497
 33
0
  0
MTEXT
  5
94
100
AcDbEntity
  8
0
  6
CONTINUOUS
 62
    0
370
   -2
100
AcDbMText
 10
378.1174
 20
421.497
 30
0
 40
2.5
 41
2.500000000000155
 71
    5
 72
    1
  1
15
  7
standard
210
0
220
0
230
1
 50
90
 73
    2
 44
1
  0
ENDBLK
  5
5E
330
5C
100
AcDbEntity
  8
0
100
AcDbBlockEnd
  0
BLOCK
  5
60
330
5F
100
AcDbEntity
  8
0
100
AcDbBlockBegin
  2
*D8
 70
    1
 10
0
 20
0
  3
*D8
  1

  0
LINE
  5
95
100
AcDbEntity
  8
0
  6
ByBlock
 62
    0
370
   -2
100
AcDbLine
 10
79.36739999999999
 20
473.997
 11
68.74239999999996
 21
473.997
  0
LINE
  5
96
100
AcDbEntity
  8
0
  6
ByBlock
 62
    0
370
   -2
100
AcDbLine
 10
79.36740000000003
 20
388.997
 11
68.7424
 21
388.997
  0
LINE
  5
97
100
AcDbEntity
  8
0
  6
ByBlock
 62
    0
370
   -2
100
AcDbLine
 10
69.99239999999996
 20
473.997
 11
69.9924
 21
388.997
  0
SOLID
  5
98
100
AcDbEntity
  8
0
  6
ByBlock
 62
    0
370
   -2
100
AcDbTrace
 10
69.99239999999996
 20
473.997
 30
0
 11
70.40868465777281
 21
471.497
 31
0
 12
69.57611534222713
 22
471.497
 32
0
 13
69.57611534222713
 23
471.497
 33
0
  0
SOLID
  5
99
100
AcDbEntity
  8
0
  6
ByBlock
 62
    0
370
   -2
100
AcDbTrace
 10
69.9924
 20
388.997
 30
0
 11
69.57611534222717
 21
391.497
 31
0
 12
70.40868465777284
 22
391.497
 32
0
 13
70.40868465777284
 23
391.497
 33
0
  0
MTEXT
  5
9A
100
AcDbEntity
  8
0
  6
CONTINUOUS
 62
    0
370
   -2
100
AcDbMText
 10
68.11739999999998
 20
431.497
 30
0
 40
2.5
 41
3.055555555555711
 71
    5
 72
    1
  1
85
  7
standard
210
0
220
0
230
1
 50
90
 73
    2
 44
1
  0
ENDBLK
  5
61
330
5F
100
AcDbEntity
  8
0
100
AcDbBlockEnd
  0
BLOCK
  5
63
330
62
100
AcDbEntity
  8
0
100
AcDbBlockBegin
  2
*D3
 70
    1
 10
0
 20
0
  3
*D3
  1

  0
LINE
  5
9B
100
AcDbEntity
  8
0
  6
ByBlock
 62
    0
370
   -2
100
AcDbLine
 10
99.9924
 20
507.622
 11
99.9924
 21
525.247
  0
LINE
  5
9C
100
AcDbEntity
  8
0
  6
ByBlock
 62
    0
370
   -2
100
AcDbLine
 10
159.9924
 20
507.622
 11
159.9924
 21
525.247
  0
LINE
  5
9D
100
AcDbEntity
  8
0
  6
ByBlock
 62
    0
370
   -2
100
AcDbLine
 10
99.9924
 20
523.997
 11
159.9924
 21
523.997
  0
SOLID
  5
9E
100
AcDbEntity
  8
0
  6
ByBlock
 62
    0
370
   -2
100
AcDbTrace
 10
99.9924
 20
523.997
 30
0
 11
102.4924
 21
524.4132846577728
 31
0
 12
102.4924
 22
523.5807153422271
 32
0
 13
102.4924
 23
523.5807153422271
 33
0
  0
SOLID
  5
9F
100
AcDbEntity
  8
0
  6
ByBlock
 62
    0
370
   -2
100
AcDbTrace
 10
159.9924
 20
523.997
 30
0
 11
157.4924
 21
523.5807153422271
 31
0
 12
157.4924
 22
524.4132846577728
 32
0
 13
157.4924
 23
524.4132846577728
 33
0
  0
MTEXT
  5
A0
100
AcDbEntity
  8
0
  6
CONTINUOUS
 62
    0
370
   -2
100
AcDbMText
 10
129.9924
 20
525.872
 30
0
 40
2.5
 41
3.055555555555711
 71
    5
 72
    1
  1
60
  7
standard
210
0
220
0
230
1
 50
0
 73
    2
 44
1
  0
ENDBLK
  5
64
330
62
100
AcDbEntity
  8
0
100
AcDbBlockEnd
  0
BLOCK
  5
66
330
65
100
AcDbEntity
  8
0
100
AcDbBlockBegin
  2
*D2
 70
    1
 10
0
 20
0
  3
*D2
  1

  0
LINE
  5
A1
100
AcDbEntity
  8
0
  6
ByBlock
 62
    0
370
   -2
100
AcDbLine
 10
59.9924
 20
113.372
 11
59.9924
 21
82.74699999999996
  0
LINE
  5
A2
100
AcDbEntity
  8
0
  6
ByBlock
 62
    0
370
   -2
100
AcDbLine
 10
359.9924
 20
113.372
 11
359.9924
 21
82.74699999999996
  0
LINE
  5
A3
100
AcDbEntity
  8
0
  6
ByBlock
 62
    0
370
   -2
100
AcDbLine
 10
59.9924
 20
83.99699999999996
 11
359.9924
 21
83.99699999999996
  0
SOLID
  5
A4
100
AcDbEntity
  8
0
  6
ByBlock
 62
    0
370
   -2
100
AcDbTrace
 10
59.9924
 20
83.99699999999996
 30
0
 11
62.4924
 21
84.41328465777279
 31
0
 12
62.4924
 22
83.58071534222712
 32
0
 13
62.4924
 23
83.58071534222712
 33
0
  0
SOLID
  5
A5
100
AcDbEntity
  8
0
  6
ByBlock
 62
    0
370
   -2
100
AcDbTrace
 10
359.9924
 20
83.99699999999996
 30
0
 11
357.4924
 21
83.58071534222712
 31
0
 12
357.4924
 22
84.41328465777279
 32
0
 13
357.4924
 23
84.41328465777279
 33
0
  0
MTEXT
  5
A6
100
AcDbEntity
  8
0
  6
CONTINUOUS
 62
    0
370
   -2
100
AcDbMText
 10
209.9924
 20
85.87199999999996
 30
0
 40
2.5
 41
5.000000000000155
 71
    5
 72
    1
  1
300
  7
standard
210
0
220
0
230
1
 50
0
 73
    2
 44
1
  0
ENDBLK
  5
67
330
65
100
AcDbEntity
  8
0
100
AcDbBlockEnd
  0
BLOCK
  5
69
330
68
100
AcDbEntity
  8
0
100
AcDbBlockBegin
  2
*D4
 70
    1
 10
0
 20
0
  3
*D4
  1

  0
LINE
  5
A7
100
AcDbEntity
  8
0
  6
ByBlock
 62
    0
370
   -2
100
AcDbLine
 10
159.9924
 20
506.622
 11
159.9924
 21
525.247
  0
LINE
  5
A8
100
AcDbEntity
  8
0
  6
ByBlock
 62
    0
370
   -2
100
AcDbLine
 10
219.9924
 20
506.622
 11
219.9924
 21
525.247
  0
LINE
  5
A9
100
AcDbEntity
  8
0
  6
ByBlock
 62
    0
370
   -2
100
AcDbLine
 10
159.9924
 20
523.997
 11
219.9924
 21
523.997
  0
SOLID
  5
AA
100
AcDbEntity
  8
0
  6
ByBlock
 62
    0
370
   -2
100
AcDbTrace
 10
159.9924
 20
523.997
 30
0
 11
162.4924
 21
524.4132846577728
 31
0
 12
162.4924
 22
523.5807153422271
 32
0
 13
162.4924
 23
523.5807153422271
 33
0
  0
SOLID
  5
AB
100
AcDbEntity
  8
0
  6
ByBlock
 62
    0
370
   -2
100
AcDbTrace
 10
219.9924
 20
523.997
 30
0
 11
217.4924
 21
523.5807153422271
 31
0
 12
217.4924
 22
524.4132846577728
 32
0
 13
217.4924
 23
524.4132846577728
 33
0
  0
MTEXT
  5
AC
100
AcDbEntity
  8
0
  6
CONTINUOUS
 62
    0
370
   -2
100
AcDbMText
 10
189.9924
 20
525.872
 30
0
 40
2.5
 41
3.055555555555711
 71
    5
 72
    1
  1
60
  7
standard
210
0
220
0
230
1
 50
0
 73
    2
 44
1
  0
ENDBLK
  5
6A
330
68
100
AcDbEntity
  8
0
100
AcDbBlockEnd
  0
BLOCK
  5
6C
330
6B
100
AcDbEntity
  8
0
100
AcDbBlockBegin
  2
*D11
 70
    1
 10
0
 20
0
  3
*D11
  1

  0
LINE
  5
AD
100
AcDbEntity
  8
0
  6
ByBlock
 62
    0
370
   -2
100
AcDbLine
 10
362.6174
 20
443.997
 11
381.2424
 21
443.997
  0
LINE
  5
AE
100
AcDbEntity
  8
0
  6
ByBlock
 62
    0
370
   -2
100
AcDbLine
 10
362.6174
 20
473.997
 11
381.2424
 21
473.997
  0
LINE
  5
AF
100
AcDbEntity
  8
0
  6
ByBlock
 62
    0
370
   -2
100
AcDbLine
 10
379.9924
 20
443.997
 11
379.9924
 21
473.997
  0
SOLID
  5
B0
100
AcDbEntity
  8
0
  6
ByBlock
 62
    0
370
   -2
100
AcDbTrace
 10
379.9924
 20
443.997
 30
0
 11
379.5761153422271
 21
446.497
 31
0
 12
380.4086846577728
 22
446.497
 32
0
 13
380.4086846577728
 23
446.497
 33
0
  0
SOLID
  5
B1
100
AcDbEntity
  8
0
  6
ByBlock
 62
    0
370
   -2
100
AcDbTrace
 10
379.9924
 20
473.997
 30
0
 11
380.4086846577728
 21
471.497
 31
0
 12
379.5761153422271
 22
471.497
 32
0
 13
379.5761153422271
 23
471.497
 33
0
  0
MTEXT
  5
B2
100
AcDbEntity
  8
0
  6
CONTINUOUS
 62
    0
370
   -2
100
AcDbMText
 10
378.1174
 20
458.997
 30
0
 40
2.5
 41
3.055555555555711
 71
    5
 72
    1
  1
30
  7
standard
210
0
220
0
230
1
 50
90
 73
    2
 44
1
  0
ENDBLK
  5
6D
330
6B
100
AcDbEntity
  8
0
100
AcDbBlockEnd
  0
BLOCK
  5
6F
330
6E
100
AcDbEntity
  8
0
100
AcDbBlockBegin
  2
*D7
 70
    1
 10
0
 20
0
  3
*D7
  1

  0
LINE
  5
B3
100
AcDbEntity
  8
0
  6
ByBlock
 62
    0
370
   -2
100
AcDbLine
 10
218.4343417382416
 20
446.4389417382416
 11
225.3762834764832
 21
453.3808834764831
  0
LINE
  5
B4
100
AcDbEntity
  8
0
  6
ByBlock
 62
    0
370
   -2
100
AcDbLine
 10
222.4343417382416
 20
442.4389417382416
 11
229.3762834764832
 21
449.3808834764831
  0
LINE
  5
B5
100
AcDbEntity
  8
0
  6
ByBlock
 62
    0
370
   -2
100
AcDbLine
 10
220.9568660940673
 20
456.0325339059327
 11
232.0279339059327
 21
444.9614660940672
  0
SOLID
  5
B6
100
AcDbEntity
  8
0
  6
ByBlock
 62
    0
370
   -2
100
AcDbTrace
 10
224.4924
 20
452.497
 30
0
 11
222.4302753426185
 21
453.9704092485512
 31
0
 12
223.0189907514487
 22
454.5591246573814
 32
0
 13
223.0189907514487
 23
454.5591246573814
 33
0
  0
SOLID
  5
B7
100
AcDbEntity
  8
0
  6
ByBlock
 62
    0
370
   -2
100
AcDbTrace
 10
228.4924
 20
448.497
 30
0
 11
230.5545246573815
 21
447.0235907514487
 31
0
 12
229.9658092485513
 22
446.4348753426185
 32
0
 13
229.9658092485513
 23
446.4348753426185
 33
0
  0
MTEXT
  5
B8
100
AcDbEntity
  8
0
  6
CONTINUOUS
 62
    0
370
   -2
100
AcDbMText
 10
227.8182252147248
 20
451.8228252147247
 30
0
 40
2.5
 41
1.111111111111266
 71
    5
 72
    1
  1
6
  7
standard
210
0
220
0
230
1
 50
314.9999999999998
 73
    2
 44
1
  0
ENDBLK
  5
70
330
6E
100
AcDbEntity
  8
0
100
AcDbBlockEnd
  0
BLOCK
  5
72
330
71
100
AcDbEntity
  8
0
100
AcDbBlockBegin
  2
*D1
 70
    1
 10
0
 20
0
  3
*D1
  1

  0
LINE
  5
B9
100
AcDbEntity
  8
0
  6
ByBlock
 62
    0
370
   -2
100
AcDbLine
 10
59.3674
 20
103.997
 11
38.7424
 21
103.997
  0
LINE
  5
BA
100
AcDbEntity
  8
0
  6
ByBlock
 62
    0
370
   -2
100
AcDbLine
 10
59.3674
 20
503.997
 11
38.7424
 21
503.997
  0
LINE
  5
BB
100
AcDbEntity
  8
0
  6
ByBlock
 62
    0
370
   -2
100
AcDbLine
 10
39.9924
 20
103.997
 11
39.9924
 21
503.997
  0
SOLID
  5
BC
100
AcDbEntity
  8
0
  6
ByBlock
 62
    0
370
   -2
100
AcDbTrace
 10
39.9924
 20
103.997
 30
0
 11
39.57611534222716
 21
106.497
 31
0
 12
40.40868465777285
 22
106.497
 32
0
 13
40.40868465777285
 23
106.497
 33
0
  0
SOLID
  5
BD
100
AcDbEntity
  8
0
  6
ByBlock
 62
    0
370
   -2
100
AcDbTrace
 10
39.9924
 20
503.997
 30
0
 11
40.40868465777285
 21
501.497
 31
0
 12
39.57611534222716
 22
501.497
 32
0
 13
39.57611534222716
 23
501.497
 33
0
  0
MTEXT
  5
BE
100
AcDbEntity
  8
0
  6
CONTINUOUS
 62
    0
370
   -2
100
AcDbMText
 10
38.1174
 20
303.997
 30
0
 40
2.5
 41
5.277777777777778
 71
    5
 72
    1
  1
400
  7
standard
210
0
220
0
230
1
 50
90
 73
    2
 44
1
  0
ENDBLK
  5
73
330
71
100
AcDbEntity
  8
0
100
AcDbBlockEnd
  0
BLOCK
  5
75
330
74
100
AcDbEntity
  8
0
100
AcDbBlockBegin
  2
*D12
 70
    1
 10
0
 20
0
  3
*D12
  1

  0
LINE
  5
BF
100
AcDbEntity
  8
0
  6
ByBlock
 62
    0
370
   -2
100
AcDbLine
 10
280.6174
 20
503.997
 11
381.2424
 21
503.997
  0
LINE
  5
C0
100
AcDbEntity
  8
0
  6
ByBlock
 62
    0
370
   -2
100
AcDbLine
 10
280.6174
 20
473.997
 11
381.2424
 21
473.997
  0
LINE
  5
C1
100
AcDbEntity
  8
0
  6
ByBlock
 62
    0
370
   -2
100
AcDbLine
 10
379.9924
 20
503.997
 11
379.9924
 21
473.997
  0
SOLID
  5
C2
100
AcDbEntity
  8
0
  6
ByBlock
 62
    0
370
   -2
100
AcDbTrace
 10
379.9924
 20
503.997
 30
0
 11
380.4086846577728
 21
501.497
 31
0
 12
379.5761153422271
 22
501.497
 32
0
 13
379.5761153422271
 23
501.497
 33
0
  0
SOLID
  5
C3
100
AcDbEntity
  8
0
  6
ByBlock
 62
    0
370
   -2
100
AcDbTrace
 10
379.9924
 20
473.997
 30
0
 11
379.5761153422271
 21
476.497
 31
0
 12
380.4086846577728
 22
476.497
 32
0
 13
380.4086846577728
 23
476.497
 33
0
  0
MTEXT
  5
C4
100
AcDbEntity
  8
0
  6
CONTINUOUS
 62
    0
370
   -2
100
AcDbMText
 10
378.1174
 20
488.997
 30
0
 40
2.5
 41
3.055555555555711
 71
    5
 72
    1
  1
30
  7
standard
210
0
220
0
230
1
 50
90
 73
    2
 44
1
  0
ENDBLK
  5
76
330
74
100
AcDbEntity
  8
0
100
AcDbBlockEnd
  0
ENDSEC
  0
SECTION
  2
ENTITIES
  0
LINE
  5
C5
100
AcDbEntity
  8
frame
  6
CONTINUOUS
 62
  256
370
   -1
100
AcDbLine
 10
289.9914
 20
33.98500000000001
 11
289.9914
 21
1.980999999999995
  0
LINE
  5
C6
100
AcDbEntity
  8
frame
  6
CONTINUOUS
 62
  256
370
   -1
100
AcDbLine
 10
289.9914
 20
1.980999999999995
 11
397.9924
 21
1.980999999999995
  0
LINE
  5
C7
100
AcDbEntity
  8
frame
  6
CONTINUOUS
 62
  256
370
   -1
100
AcDbLine
 10
397.9924
 20
1.980999999999995
 11
397.9924
 21
33.98500000000001
  0
LINE
  5
C8
100
AcDbEntity
  8
frame
  6
CONTINUOUS
 62
  256
370
   -1
100
AcDbLine
 10
397.9924
 20
33.98500000000001
 11
289.9914
 21
33.98500000000001
  0
LINE
  5
C9
100
AcDbEntity
  8
frame
  6
CONTINUOUS
 62
  256
370
   -1
100
AcDbLine
 10
0
 20
573.9893999999999
 11
0
 21
0
  0
LINE
  5
CA
100
AcDbEntity
  8
frame
  6
CONTINUOUS
 62
  256
370
   -1
100
AcDbLine
 10
0
 20
0
 11
399.9734
 21
0
  0
LINE
  5
CB
100
AcDbEntity
  8
frame
  6
CONTINUOUS
 62
  256
370
   -1
100
AcDbLine
 10
399.9734
 20
0
 11
399.9734
 21
573.9893999999999
  0
LINE
  5
CC
100
AcDbEntity
  8
frame
  6
CONTINUOUS
 62
  256
370
   -1
100
AcDbLine
 10
399.9734
 20
573.9893999999999
 11
0
 21
573.9893999999999
  0
LINE
  5
CD
100
AcDbEntity
  8
frame
  6
CONTINUOUS
 62
  256
370
   -1
100
AcDbLine
 10
1.981199999999999
 20
572.0082
 11
1.981199999999999
 21
1.980999999999995
  0
LINE
  5
CE
100
AcDbEntity
  8
frame
  6
CONTINUOUS
 62
  256
370
   -1
100
AcDbLine
 10
1.981199999999999
 20
1.980999999999995
 11
397.9924
 21
1.980999999999995
  0
LINE
  5
CF
100
AcDbEntity
  8
frame
  6
CONTINUOUS
 62
  256
370
   -1
100
AcDbLine
 10
397.9924
 20
1.980999999999995
 11
397.9924
 21
572.0082
  0
LINE
  5
D0
100
AcDbEntity
  8
frame
  6
CONTINUOUS
 62
  256
370
   -1
100
AcDbLine
 10
397.9924
 20
572.0082
 11
1.981199999999999
 21
572.0082
  0
LINE
  5
D1
100
AcDbEntity
  8
frame
  6
CONTINUOUS
 62
  256
370
   -1
100
AcDbLine
 10
49.9872
 20
572.0082
 11
49.9872
 21
573.9893999999999
  0
LINE
  5
D2
100
AcDbEntity
  8
frame
  6
CONTINUOUS
 62
  256
370
   -1
100
AcDbLine
 10
99.99940000000001
 20
572.0082
 11
99.99940000000001
 21
573.9893999999999
  0
LINE
  5
D3
100
AcDbEntity
  8
frame
  6
CONTINUOUS
 62
  256
370
   -1
100
AcDbLine
 10
149.9874
 20
572.0082
 11
149.9874
 21
573.9893999999999
  0
LINE
  5
D4
100
AcDbEntity
  8
frame
  6
CONTINUOUS
 62
  256
370
   -1
100
AcDbLine
 10
199.9994
 20
572.0082
 11
199.9994
 21
573.9893999999999
  0
LINE
  5
D5
100
AcDbEntity
  8
frame
  6
CONTINUOUS
 62
  256
370
   -1
100
AcDbLine
 10
249.9864
 20
572.0082
 11
249.9864
 21
573.9893999999999
  0
LINE
  5
D6
100
AcDbEntity
  8
frame
  6
CONTINUOUS
 62
  256
370
   -1
100
AcDbLine
 10
299.9994
 20
572.0082
 11
299.9994
 21
573.9893999999999
  0
LINE
  5
D7
100
AcDbEntity
  8
frame
  6
CONTINUOUS
 62
  256
370
   -1
100
AcDbLine
 10
349.9864
 20
572.0082
 11
349.9864
 21
573.9893999999999
  0
LINE
  5
D8
100
AcDbEntity
  8
frame
  6
CONTINUOUS
 62
  256
370
   -1
100
AcDbLine
 10
26.035
 20
572.4146
 11
25.2984
 21
572.4146
  0
LINE
  5
D9
100
AcDbEntity
  8
frame
  6
CONTINUOUS
 62
  256
370
   -1
100
AcDbLine
 10
25.6794
 20
572.4146
 11
25.6794
 21
573.7099999999999
  0
LINE
  5
DA
100
AcDbEntity
  8
frame
  6
CONTINUOUS
 62
  256
370
   -1
100
AcDbLine
 10
25.6794
 20
573.7099999999999
 11
25.5524
 21
573.5322
  0
LINE
  5
DB
100
AcDbEntity
  8
frame
  6
CONTINUOUS
 62
  256
370
   -1
100
AcDbLine
 10
25.5524
 20
573.5322
 11
25.4254
 21
573.4051999999999
  0
LINE
  5
DC
100
AcDbEntity
  8
frame
  6
CONTINUOUS
 62
  256
370
   -1
100
AcDbLine
 10
25.4254
 20
573.4051999999999
 11
25.2984
 21
573.3543999999999
  0
LINE
  5
DD
100
AcDbEntity
  8
frame
  6
CONTINUOUS
 62
  256
370
   -1
100
AcDbLine
 10
75.2856
 20
573.6084
 11
75.3618
 21
573.6591999999999
  0
LINE
  5
DE
100
AcDbEntity
  8
frame
  6
CONTINUOUS
 62
  256
370
   -1
100
AcDbLine
 10
75.3618
 20
573.6591999999999
 11
75.4888
 21
573.7099999999999
  0
LINE
  5
DF
100
AcDbEntity
  8
frame
  6
CONTINUOUS
 62
  256
370
   -1
100
AcDbLine
 10
75.4888
 20
573.7099999999999
 11
75.7936
 21
573.7099999999999
  0
LINE
  5
E0
100
AcDbEntity
  8
frame
  6
CONTINUOUS
 62
  256
370
   -1
100
AcDbLine
 10
75.7936
 20
573.7099999999999
 11
75.92060000000001
 21
573.6591999999999
  0
LINE
  5
E1
100
AcDbEntity
  8
frame
  6
CONTINUOUS
 62
  256
370
   -1
100
AcDbLine
 10
75.92060000000001
 20
573.6591999999999
 11
75.9714
 21
573.6084
  0
LINE
  5
E2
100
AcDbEntity
  8
frame
  6
CONTINUOUS
 62
  256
370
   -1
100
AcDbLine
 10
75.9714
 20
573.6084
 11
76.0222
 21
573.4814
  0
LINE
  5
E3
100
AcDbEntity
  8
frame
  6
CONTINUOUS
 62
  256
370
   -1
100
AcDbLine
 10
76.0222
 20
573.4814
 11
76.0222
 21
573.3543999999999
  0
LINE
  5
E4
100
AcDbEntity
  8
frame
  6
CONTINUOUS
 62
  256
370
   -1
100
AcDbLine
 10
76.0222
 20
573.3543999999999
 11
75.9714
 21
573.1766
  0
LINE
  5
E5
100
AcDbEntity
  8
frame
  6
CONTINUOUS
 62
  256
370
   -1
100
AcDbLine
 10
75.9714
 20
573.1766
 11
75.23480000000001
 21
572.4146
  0
LINE
  5
E6
100
AcDbEntity
  8
frame
  6
CONTINUOUS
 62
  256
370
   -1
100
AcDbLine
 10
75.23480000000001
 20
572.4146
 11
76.0222
 21
572.4146
  0
LINE
  5
E7
100
AcDbEntity
  8
frame
  6
CONTINUOUS
 62
  256
370
   -1
100
AcDbLine
 10
125.2474
 20
573.7099999999999
 11
126.0344
 21
573.7099999999999
  0
LINE
  5
E8
100
AcDbEntity
  8
frame
  6
CONTINUOUS
 62
  256
370
   -1
100
AcDbLine
 10
126.0344
 20
573.7099999999999
 11
125.6034
 21
573.2274
  0
LINE
  5
E9
100
AcDbEntity
  8
frame
  6
CONTINUOUS
 62
  256
370
   -1
100
AcDbLine
 10
125.6034
 20
573.2274
 11
125.8064
 21
573.2274
  0
LINE
  5
EA
100
AcDbEntity
  8
frame
  6
CONTINUOUS
 62
  256
370
   -1
100
AcDbLine
 10
125.8064
 20
573.2274
 11
125.9334
 21
573.1766
  0
LINE
  5
EB
100
AcDbEntity
  8
frame
  6
CONTINUOUS
 62
  256
370
   -1
100
AcDbLine
 10
125.9334
 20
573.1766
 11
125.9844
 21
573.1003999999999
  0
LINE
  5
EC
100
AcDbEntity
  8
frame
  6
CONTINUOUS
 62
  256
370
   -1
100
AcDbLine
 10
125.9844
 20
573.1003999999999
 11
126.0344
 21
572.9734
  0
LINE
  5
ED
100
AcDbEntity
  8
frame
  6
CONTINUOUS
 62
  256
370
   -1
100
AcDbLine
 10
126.0344
 20
572.9734
 11
126.0344
 21
572.6686
  0
LINE
  5
EE
100
AcDbEntity
  8
frame
  6
CONTINUOUS
 62
  256
370
   -1
100
AcDbLine
 10
126.0344
 20
572.6686
 11
125.9844
 21
572.5415999999999
  0
LINE
  5
EF
100
AcDbEntity
  8
frame
  6
CONTINUOUS
 62
  256
370
   -1
100
AcDbLine
 10
125.9844
 20
572.5415999999999
 11
125.9334
 21
572.4907999999999
  0
LINE
  5
F0
100
AcDbEntity
  8
frame
  6
CONTINUOUS
 62
  256
370
   -1
100
AcDbLine
 10
125.9334
 20
572.4907999999999
 11
125.8064
 21
572.4146
  0
LINE
  5
F1
100
AcDbEntity
  8
frame
  6
CONTINUOUS
 62
  256
370
   -1
100
AcDbLine
 10
125.8064
 20
572.4146
 11
125.4254
 21
572.4146
  0
LINE
  5
F2
100
AcDbEntity
  8
frame
  6
CONTINUOUS
 62
  256
370
   -1
100
AcDbLine
 10
125.4254
 20
572.4146
 11
125.2984
 21
572.4907999999999
  0
LINE
  5
F3
100
AcDbEntity
  8
frame
  6
CONTINUOUS
 62
  256
370
   -1
100
AcDbLine
 10
125.2984
 20
572.4907999999999
 11
125.2474
 21
572.5415999999999
  0
LINE
  5
F4
100
AcDbEntity
  8
frame
  6
CONTINUOUS
 62
  256
370
   -1
100
AcDbLine
 10
175.9204
 20
573.2782
 11
175.9204
 21
572.4146
  0
LINE
  5
F5
100
AcDbEntity
  8
frame
  6
CONTINUOUS
 62
  256
370
   -1
100
AcDbLine
 10
175.5904
 20
573.7862
 11
175.2854
 21
572.8463999999999
  0
LINE
  5
F6
100
AcDbEntity
  8
frame
  6
CONTINUOUS
 62
  256
370
   -1
100
AcDbLine
 10
175.2854
 20
572.8463999999999
 11
176.0984
 21
572.8463999999999
  0
LINE
  5
F7
100
AcDbEntity
  8
frame
  6
CONTINUOUS
 62
  256
370
   -1
100
AcDbLine
 10
225.9834
 20
573.7099999999999
 11
225.3744
 21
573.7099999999999
  0
LINE
  5
F8
100
AcDbEntity
  8
frame
  6
CONTINUOUS
 62
  256
370
   -1
100
AcDbLine
 10
225.3744
 20
573.7099999999999
 11
225.2984
 21
573.1003999999999
  0
LINE
  5
F9
100
AcDbEntity
  8
frame
  6
CONTINUOUS
 62
  256
370
   -1
100
AcDbLine
 10
225.2984
 20
573.1003999999999
 11
225.3744
 21
573.1766
  0
LINE
  5
FA
100
AcDbEntity
  8
frame
  6
CONTINUOUS
 62
  256
370
   -1
100
AcDbLine
 10
225.3744
 20
573.1766
 11
225.5014
 21
573.2274
  0
LINE
  5
FB
100
AcDbEntity
  8
frame
  6
CONTINUOUS
 62
  256
370
   -1
100
AcDbLine
 10
225.5014
 20
573.2274
 11
225.8064
 21
573.2274
  0
LINE
  5
FC
100
AcDbEntity
  8
frame
  6
CONTINUOUS
 62
  256
370
   -1
100
AcDbLine
 10
225.8064
 20
573.2274
 11
225.9334
 21
573.1766
  0
LINE
  5
FD
100
AcDbEntity
  8
frame
  6
CONTINUOUS
 62
  256
370
   -1
100
AcDbLine
 10
225.9334
 20
573.1766
 11
225.9834
 21
573.1003999999999
  0
LINE
  5
FE
100
AcDbEntity
  8
frame
  6
CONTINUOUS
 62
  256
370
   -1
100
AcDbLine
 10
225.9834
 20
573.1003999999999
 11
226.0344
 21
572.9734
  0
LINE
  5
FF
100
AcDbEntity
  8
frame
  6
CONTINUOUS
 62
  256
370
   -1
100
AcDbLine
 10
226.0344
 20
572.9734
 11
226.0344
 21
572.6686
  0
LINE
  5
100
100
AcDbEntity
  8
frame
  6
CONTINUOUS
 62
  256
370
   -1
100
AcDbLine
 10
226.0344
 20
572.6686
 11
225.9834
 21
572.5415999999999
  0
LINE
  5
101
100
AcDbEntity
  8
frame
  6
CONTINUOUS
 62
  256
370
   -1
100
AcDbLine
 10
225.9834
 20
572.5415999999999
 11
225.9334
 21
572.4907999999999
  0
LINE
  5
102
100
AcDbEntity
  8
frame
  6
CONTINUOUS
 62
  256
370
   -1
100
AcDbLine
 10
225.9334
 20
572.4907999999999
 11
225.8064
 21
572.4146
  0
LINE
  5
103
100
AcDbEntity
  8
frame
  6
CONTINUOUS
 62
  256
370
   -1
100
AcDbLine
 10
225.8064
 20
572.4146
 11
225.5014
 21
572.4146
  0
LINE
  5
104
100
AcDbEntity
  8
frame
  6
CONTINUOUS
 62
  256
370
   -1
100
AcDbLine
 10
225.5014
 20
572.4146
 11
225.3744
 21
572.4907999999999
  0
LINE
  5
105
100
AcDbEntity
  8
frame
  6
CONTINUOUS
 62
  256
370
   -1
100
AcDbLine
 10
225.3744
 20
572.4907999999999
 11
225.2984
 21
572.5415999999999
  0
LINE
  5
106
100
AcDbEntity
  8
frame
  6
CONTINUOUS
 62
  256
370
   -1
100
AcDbLine
 10
275.9204
 20
573.7099999999999
 11
275.6664
 21
573.7099999999999
  0
LINE
  5
107
100
AcDbEntity
  8
frame
  6
CONTINUOUS
 62
  256
370
   -1
100
AcDbLine
 10
275.6664
 20
573.7099999999999
 11
275.5394
 21
573.6591999999999
  0
LINE
  5
108
100
AcDbEntity
  8
frame
  6
CONTINUOUS
 62
  256
370
   -1
100
AcDbLine
 10
275.5394
 20
573.6591999999999
 11
275.4884
 21
573.6084
  0
LINE
  5
109
100
AcDbEntity
  8
frame
  6
CONTINUOUS
 62
  256
370
   -1
100
AcDbLine
 10
275.4884
 20
573.6084
 11
275.3614
 21
573.4051999999999
  0
LINE
  5
10A
100
AcDbEntity
  8
frame
  6
CONTINUOUS
 62
  256
370
   -1
100
AcDbLine
 10
275.3614
 20
573.4051999999999
 11
275.2854
 21
573.1766
  0
LINE
  5
10B
100
AcDbEntity
  8
frame
  6
CONTINUOUS
 62
  256
370
   -1
100
AcDbLine
 10
275.2854
 20
573.1766
 11
275.2854
 21
572.6686
  0
LINE
  5
10C
100
AcDbEntity
  8
frame
  6
CONTINUOUS
 62
  256
370
   -1
100
AcDbLine
 10
275.2854
 20
572.6686
 11
275.3614
 21
572.5415999999999
  0
LINE
  5
10D
100
AcDbEntity
  8
frame
  6
CONTINUOUS
 62
  256
370
   -1
100
AcDbLine
 10
275.3614
 20
572.5415999999999
 11
275.4124
 21
572.4907999999999
  0
LINE
  5
10E
100
AcDbEntity
  8
frame
  6
CONTINUOUS
 62
  256
370
   -1
100
AcDbLine
 10
275.4124
 20
572.4907999999999
 11
275.5394
 21
572.4146
  0
LINE
  5
10F
100
AcDbEntity
  8
frame
  6
CONTINUOUS
 62
  256
370
   -1
100
AcDbLine
 10
275.5394
 20
572.4146
 11
275.7934
 21
572.4146
  0
LINE
  5
110
100
AcDbEntity
  8
frame
  6
CONTINUOUS
 62
  256
370
   -1
100
AcDbLine
 10
275.7934
 20
572.4146
 11
275.9204
 21
572.4907999999999
  0
LINE
  5
111
100
AcDbEntity
  8
frame
  6
CONTINUOUS
 62
  256
370
   -1
100
AcDbLine
 10
275.9204
 20
572.4907999999999
 11
275.9714
 21
572.5415999999999
  0
LINE
  5
112
100
AcDbEntity
  8
frame
  6
CONTINUOUS
 62
  256
370
   -1
100
AcDbLine
 10
275.9714
 20
572.5415999999999
 11
276.0214
 21
572.6686
  0
LINE
  5
113
100
AcDbEntity
  8
frame
  6
CONTINUOUS
 62
  256
370
   -1
100
AcDbLine
 10
276.0214
 20
572.6686
 11
276.0214
 21
572.9734
  0
LINE
  5
114
100
AcDbEntity
  8
frame
  6
CONTINUOUS
 62
  256
370
   -1
100
AcDbLine
 10
276.0214
 20
572.9734
 11
275.9714
 21
573.1003999999999
  0
LINE
  5
115
100
AcDbEntity
  8
frame
  6
CONTINUOUS
 62
  256
370
   -1
100
AcDbLine
 10
275.9714
 20
573.1003999999999
 11
275.9204
 21
573.1766
  0
LINE
  5
116
100
AcDbEntity
  8
frame
  6
CONTINUOUS
 62
  256
370
   -1
100
AcDbLine
 10
275.9204
 20
573.1766
 11
275.7934
 21
573.2274
  0
LINE
  5
117
100
AcDbEntity
  8
frame
  6
CONTINUOUS
 62
  256
370
   -1
100
AcDbLine
 10
275.7934
 20
573.2274
 11
275.5394
 21
573.2274
  0
LINE
  5
118
100
AcDbEntity
  8
frame
  6
CONTINUOUS
 62
  256
370
   -1
100
AcDbLine
 10
275.5394
 20
573.2274
 11
275.4124
 21
573.1766
  0
LINE
  5
119
100
AcDbEntity
  8
frame
  6
CONTINUOUS
 62
  256
370
   -1
100
AcDbLine
 10
275.4124
 20
573.1766
 11
275.3614
 21
573.1003999999999
  0
LINE
  5
11A
100
AcDbEntity
  8
frame
  6
CONTINUOUS
 62
  256
370
   -1
100
AcDbLine
 10
275.3614
 20
573.1003999999999
 11
275.2854
 21
572.9734
  0
LINE
  5
11B
100
AcDbEntity
  8
frame
  6
CONTINUOUS
 62
  256
370
   -1
100
AcDbLine
 10
325.2474
 20
573.7099999999999
 11
326.1104
 21
573.7099999999999
  0
LINE
  5
11C
100
AcDbEntity
  8
frame
  6
CONTINUOUS
 62
  256
370
   -1
100
AcDbLine
 10
326.1104
 20
573.7099999999999
 11
325.5514
 21
572.4146
  0
LINE
  5
11D
100
AcDbEntity
  8
frame
  6
CONTINUOUS
 62
  256
370
   -1
100
AcDbLine
 10
375.5394
 20
573.1766
 11
375.4124
 21
573.2274
  0
LINE
  5
11E
100
AcDbEntity
  8
frame
  6
CONTINUOUS
 62
  256
370
   -1
100
AcDbLine
 10
375.4124
 20
573.2274
 11
375.3614
 21
573.2782
  0
LINE
  5
11F
100
AcDbEntity
  8
frame
  6
CONTINUOUS
 62
  256
370
   -1
100
AcDbLine
 10
375.3614
 20
573.2782
 11
375.2854
 21
573.4051999999999
  0
LINE
  5
120
100
AcDbEntity
  8
frame
  6
CONTINUOUS
 62
  256
370
   -1
100
AcDbLine
 10
375.2854
 20
573.4051999999999
 11
375.2854
 21
573.4814
  0
LINE
  5
121
100
AcDbEntity
  8
frame
  6
CONTINUOUS
 62
  256
370
   -1
100
AcDbLine
 10
375.2854
 20
573.4814
 11
375.3614
 21
573.6084
  0
LINE
  5
122
100
AcDbEntity
  8
frame
  6
CONTINUOUS
 62
  256
370
   -1
100
AcDbLine
 10
375.3614
 20
573.6084
 11
375.4124
 21
573.6591999999999
  0
LINE
  5
123
100
AcDbEntity
  8
frame
  6
CONTINUOUS
 62
  256
370
   -1
100
AcDbLine
 10
375.4124
 20
573.6591999999999
 11
375.5394
 21
573.7099999999999
  0
LINE
  5
124
100
AcDbEntity
  8
frame
  6
CONTINUOUS
 62
  256
370
   -1
100
AcDbLine
 10
375.5394
 20
573.7099999999999
 11
375.7934
 21
573.7099999999999
  0
LINE
  5
125
100
AcDbEntity
  8
frame
  6
CONTINUOUS
 62
  256
370
   -1
100
AcDbLine
 10
375.7934
 20
573.7099999999999
 11
375.9204
 21
573.6591999999999
  0
LINE
  5
126
100
AcDbEntity
  8
frame
  6
CONTINUOUS
 62
  256
370
   -1
100
AcDbLine
 10
375.9204
 20
573.6591999999999
 11
375.9704
 21
573.6084
  0
LINE
  5
127
100
AcDbEntity
  8
frame
  6
CONTINUOUS
 62
  256
370
   -1
100
AcDbLine
 10
375.9704
 20
573.6084
 11
376.0214
 21
573.4814
  0
LINE
  5
128
100
AcDbEntity
  8
frame
  6
CONTINUOUS
 62
  256
370
   -1
100
AcDbLine
 10
376.0214
 20
573.4814
 11
376.0214
 21
573.4051999999999
  0
LINE
  5
129
100
AcDbEntity
  8
frame
  6
CONTINUOUS
 62
  256
370
   -1
100
AcDbLine
 10
376.0214
 20
573.4051999999999
 11
375.9704
 21
573.2782
  0
LINE
  5
12A
100
AcDbEntity
  8
frame
  6
CONTINUOUS
 62
  256
370
   -1
100
AcDbLine
 10
375.9704
 20
573.2782
 11
375.9204
 21
573.2274
  0
LINE
  5
12B
100
AcDbEntity
  8
frame
  6
CONTINUOUS
 62
  256
370
   -1
100
AcDbLine
 10
375.9204
 20
573.2274
 11
375.7934
 21
573.1766
  0
LINE
  5
12C
100
AcDbEntity
  8
frame
  6
CONTINUOUS
 62
  256
370
   -1
100
AcDbLine
 10
375.7934
 20
573.1766
 11
375.5394
 21
573.1766
  0
LINE
  5
12D
100
AcDbEntity
  8
frame
  6
CONTINUOUS
 62
  256
370
   -1
100
AcDbLine
 10
375.5394
 20
573.1766
 11
375.4124
 21
573.1003999999999
  0
LINE
  5
12E
100
AcDbEntity
  8
frame
  6
CONTINUOUS
 62
  256
370
   -1
100
AcDbLine
 10
375.4124
 20
573.1003999999999
 11
375.3614
 21
573.0495999999999
  0
LINE
  5
12F
100
AcDbEntity
  8
frame
  6
CONTINUOUS
 62
  256
370
   -1
100
AcDbLine
 10
375.3614
 20
573.0495999999999
 11
375.2854
 21
572.9226
  0
LINE
  5
130
100
AcDbEntity
  8
frame
  6
CONTINUOUS
 62
  256
370
   -1
100
AcDbLine
 10
375.2854
 20
572.9226
 11
375.2854
 21
572.6686
  0
LINE
  5
131
100
AcDbEntity
  8
frame
  6
CONTINUOUS
 62
  256
370
   -1
100
AcDbLine
 10
375.2854
 20
572.6686
 11
375.3614
 21
572.5415999999999
  0
LINE
  5
132
100
AcDbEntity
  8
frame
  6
CONTINUOUS
 62
  256
370
   -1
100
AcDbLine
 10
375.3614
 20
572.5415999999999
 11
375.4124
 21
572.4907999999999
  0
LINE
  5
133
100
AcDbEntity
  8
frame
  6
CONTINUOUS
 62
  256
370
   -1
100
AcDbLine
 10
375.4124
 20
572.4907999999999
 11
375.5394
 21
572.4146
  0
LINE
  5
134
100
AcDbEntity
  8
frame
  6
CONTINUOUS
 62
  256
370
   -1
100
AcDbLine
 10
375.5394
 20
572.4146
 11
375.7934
 21
572.4146
  0
LINE
  5
135
100
AcDbEntity
  8
frame
  6
CONTINUOUS
 62
  256
370
   -1
100
AcDbLine
 10
375.7934
 20
572.4146
 11
375.9204
 21
572.4907999999999
  0
LINE
  5
136
100
AcDbEntity
  8
frame
  6
CONTINUOUS
 62
  256
370
   -1
100
AcDbLine
 10
375.9204
 20
572.4907999999999
 11
375.9704
 21
572.5415999999999
  0
LINE
  5
137
100
AcDbEntity
  8
frame
  6
CONTINUOUS
 62
  256
370
   -1
100
AcDbLine
 10
375.9704
 20
572.5415999999999
 11
376.0214
 21
572.6686
  0
LINE
  5
138
100
AcDbEntity
  8
frame
  6
CONTINUOUS
 62
  256
370
   -1
100
AcDbLine
 10
376.0214
 20
572.6686
 11
376.0214
 21
572.9226
  0
LINE
  5
139
100
AcDbEntity
  8
frame
  6
CONTINUOUS
 62
  256
370
   -1
100
AcDbLine
 10
376.0214
 20
572.9226
 11
375.9704
 21
573.0495999999999
  0
LINE
  5
13A
100
AcDbEntity
  8
frame
  6
CONTINUOUS
 62
  256
370
   -1
100
AcDbLine
 10
375.9704
 20
573.0495999999999
 11
375.9204
 21
573.1003999999999
  0
LINE
  5
13B
100
AcDbEntity
  8
frame
  6
CONTINUOUS
 62
  256
370
   -1
100
AcDbLine
 10
375.9204
 20
573.1003999999999
 11
375.7934
 21
573.1766
  0
LINE
  5
13C
100
AcDbEntity
  8
frame
  6
CONTINUOUS
 62
  256
370
   -1
100
AcDbLine
 10
49.9872
 20
1.980999999999995
 11
49.9872
 21
0
  0
LINE
  5
13D
100
AcDbEntity
  8
frame
  6
CONTINUOUS
 62
  256
370
   -1
100
AcDbLine
 10
99.99940000000001
 20
1.980999999999995
 11
99.99940000000001
 21
0
  0
LINE
  5
13E
100
AcDbEntity
  8
frame
  6
CONTINUOUS
 62
  256
370
   -1
100
AcDbLine
 10
149.9874
 20
1.980999999999995
 11
149.9874
 21
0
  0
LINE
  5
13F
100
AcDbEntity
  8
frame
  6
CONTINUOUS
 62
  256
370
   -1
100
AcDbLine
 10
199.9994
 20
1.980999999999995
 11
199.9994
 21
0
  0
LINE
  5
140
100
AcDbEntity
  8
frame
  6
CONTINUOUS
 62
  256
370
   -1
100
AcDbLine
 10
249.9864
 20
1.980999999999995
 11
249.9864
 21
0
  0
LINE
  5
141
100
AcDbEntity
  8
frame
  6
CONTINUOUS
 62
  256
370
   -1
100
AcDbLine
 10
299.9994
 20
1.980999999999995
 11
299.9994
 21
0
  0
LINE
  5
142
100
AcDbEntity
  8
frame
  6
CONTINUOUS
 62
  256
370
   -1
100
AcDbLine
 10
349.9864
 20
1.980999999999995
 11
349.9864
 21
0
  0
LINE
  5
143
100
AcDbEntity
  8
frame
  6
CONTINUOUS
 62
  256
370
   -1
100
AcDbLine
 10
26.035
 20
0.4069999999999254
 11
25.2984
 21
0.4069999999999254
  0
LINE
  5
144
100
AcDbEntity
  8
frame
  6
CONTINUOUS
 62
  256
370
   -1
100
AcDbLine
 10
25.6794
 20
0.4069999999999254
 11
25.6794
 21
1.701999999999998
  0
LINE
  5
145
100
AcDbEntity
  8
frame
  6
CONTINUOUS
 62
  256
370
   -1
100
AcDbLine
 10
25.6794
 20
1.701999999999998
 11
25.5524
 21
1.524000000000001
  0
LINE
  5
146
100
AcDbEntity
  8
frame
  6
CONTINUOUS
 62
  256
370
   -1
100
AcDbLine
 10
25.5524
 20
1.524000000000001
 11
25.4254
 21
1.396999999999935
  0
LINE
  5
147
100
AcDbEntity
  8
frame
  6
CONTINUOUS
 62
  256
370
   -1
100
AcDbLine
 10
25.4254
 20
1.396999999999935
 11
25.2984
 21
1.346000000000004
  0
LINE
  5
148
100
AcDbEntity
  8
frame
  6
CONTINUOUS
 62
  256
370
   -1
100
AcDbLine
 10
75.2856
 20
1.599999999999909
 11
75.3618
 21
1.650999999999954
  0
LINE
  5
149
100
AcDbEntity
  8
frame
  6
CONTINUOUS
 62
  256
370
   -1
100
AcDbLine
 10
75.3618
 20
1.650999999999954
 11
75.4888
 21
1.701999999999998
  0
LINE
  5
14A
100
AcDbEntity
  8
frame
  6
CONTINUOUS
 62
  256
370
   -1
100
AcDbLine
 10
75.4888
 20
1.701999999999998
 11
75.7936
 21
1.701999999999998
  0
LINE
  5
14B
100
AcDbEntity
  8
frame
  6
CONTINUOUS
 62
  256
370
   -1
100
AcDbLine
 10
75.7936
 20
1.701999999999998
 11
75.92060000000001
 21
1.650999999999954
  0
LINE
  5
14C
100
AcDbEntity
  8
frame
  6
CONTINUOUS
 62
  256
370
   -1
100
AcDbLine
 10
75.92060000000001
 20
1.650999999999954
 11
75.9714
 21
1.599999999999909
  0
LINE
  5
14D
100
AcDbEntity
  8
frame
  6
CONTINUOUS
 62
  256
370
   -1
100
AcDbLine
 10
75.9714
 20
1.599999999999909
 11
76.0222
 21
1.472999999999956
  0
LINE
  5
14E
100
AcDbEntity
  8
frame
  6
CONTINUOUS
 62
  256
370
   -1
100
AcDbLine
 10
76.0222
 20
1.472999999999956
 11
76.0222
 21
1.346000000000004
  0
LINE
  5
14F
100
AcDbEntity
  8
frame
  6
CONTINUOUS
 62
  256
370
   -1
100
AcDbLine
 10
76.0222
 20
1.346000000000004
 11
75.9714
 21
1.168999999999983
  0
LINE
  5
150
100
AcDbEntity
  8
frame
  6
CONTINUOUS
 62
  256
370
   -1
100
AcDbLine
 10
75.9714
 20
1.168999999999983
 11
75.23480000000001
 21
0.4069999999999254
  0
LINE
  5
151
100
AcDbEntity
  8
frame
  6
CONTINUOUS
 62
  256
370
   -1
100
AcDbLine
 10
75.23480000000001
 20
0.4069999999999254
 11
76.0222
 21
0.4069999999999254
  0
LINE
  5
152
100
AcDbEntity
  8
frame
  6
CONTINUOUS
 62
  256
370
   -1
100
AcDbLine
 10
125.2474
 20
1.701999999999998
 11
126.0344
 21
1.701999999999998
  0
LINE
  5
153
100
AcDbEntity
  8
frame
  6
CONTINUOUS
 62
  256
370
   -1
100
AcDbLine
 10
126.0344
 20
1.701999999999998
 11
125.6034
 21
1.218999999999937
  0
LINE
  5
154
100
AcDbEntity
  8
frame
  6
CONTINUOUS
 62
  256
370
   -1
100
AcDbLine
 10
125.6034
 20
1.218999999999937
 11
125.8064
 21
1.218999999999937
  0
LINE
  5
155
100
AcDbEntity
  8
frame
  6
CONTINUOUS
 62
  256
370
   -1
100
AcDbLine
 10
125.8064
 20
1.218999999999937
 11
125.9334
 21
1.168999999999983
  0
LINE
  5
156
100
AcDbEntity
  8
frame
  6
CONTINUOUS
 62
  256
370
   -1
100
AcDbLine
 10
125.9334
 20
1.168999999999983
 11
125.9844
 21
1.091999999999985
  0
LINE
  5
157
100
AcDbEntity
  8
frame
  6
CONTINUOUS
 62
  256
370
   -1
100
AcDbLine
 10
125.9844
 20
1.091999999999985
 11
126.0344
 21
0.9649999999999181
  0
LINE
  5
158
100
AcDbEntity
  8
frame
  6
CONTINUOUS
 62
  256
370
   -1
100
AcDbLine
 10
126.0344
 20
0.9649999999999181
 11
126.0344
 21
0.6609999999999445
  0
LINE
  5
159
100
AcDbEntity
  8
frame
  6
CONTINUOUS
 62
  256
370
   -1
100
AcDbLine
 10
126.0344
 20
0.6609999999999445
 11
125.9844
 21
0.5339999999999918
  0
LINE
  5
15A
100
AcDbEntity
  8
frame
  6
CONTINUOUS
 62
  256
370
   -1
100
AcDbLine
 10
125.9844
 20
0.5339999999999918
 11
125.9334
 21
0.4829999999999472
  0
LINE
  5
15B
100
AcDbEntity
  8
frame
  6
CONTINUOUS
 62
  256
370
   -1
100
AcDbLine
 10
125.9334
 20
0.4829999999999472
 11
125.8064
 21
0.4069999999999254
  0
LINE
  5
15C
100
AcDbEntity
  8
frame
  6
CONTINUOUS
 62
  256
370
   -1
100
AcDbLine
 10
125.8064
 20
0.4069999999999254
 11
125.4254
 21
0.4069999999999254
  0
LINE
  5
15D
100
AcDbEntity
  8
frame
  6
CONTINUOUS
 62
  256
370
   -1
100
AcDbLine
 10
125.4254
 20
0.4069999999999254
 11
125.2984
 21
0.4829999999999472
  0
LINE
  5
15E
100
AcDbEntity
  8
frame
  6
CONTINUOUS
 62
  256
370
   -1
100
AcDbLine
 10
125.2984
 20
0.4829999999999472
 11
125.2474
 21
0.5339999999999918
  0
LINE
  5
15F
100
AcDbEntity
  8
frame
  6
CONTINUOUS
 62
  256
370
   -1
100
AcDbLine
 10
175.9204
 20
1.269999999999982
 11
175.9204
 21
0.4069999999999254
  0
LINE
  5
160
100
AcDbEntity
  8
frame
  6
CONTINUOUS
 62
  256
370
   -1
100
AcDbLine
 10
175.5904
 20
1.777999999999906
 11
175.2854
 21
0.8379999999999654
  0
LINE
  5
161
100
AcDbEntity
  8
frame
  6
CONTINUOUS
 62
  256
370
   -1
100
AcDbLine
 10
175.2854
 20
0.8379999999999654
 11
176.0984
 21
0.8379999999999654
  0
LINE
  5
162
100
AcDbEntity
  8
frame
  6
CONTINUOUS
 62
  256
370
   -1
100
AcDbLine
 10
225.9834
 20
1.701999999999998
 11
225.3744
 21
1.701999999999998
  0
LINE
  5
163
100
AcDbEntity
  8
frame
  6
CONTINUOUS
 62
  256
370
   -1
100
AcDbLine
 10
225.3744
 20
1.701999999999998
 11
225.2984
 21
1.091999999999985
  0
LINE
  5
164
100
AcDbEntity
  8
frame
  6
CONTINUOUS
 62
  256
370
   -1
100
AcDbLine
 10
225.2984
 20
1.091999999999985
 11
225.3744
 21
1.168999999999983
  0
LINE
  5
165
100
AcDbEntity
  8
frame
  6
CONTINUOUS
 62
  256
370
   -1
100
AcDbLine
 10
225.3744
 20
1.168999999999983
 11
225.5014
 21
1.218999999999937
  0
LINE
  5
166
100
AcDbEntity
  8
frame
  6
CONTINUOUS
 62
  256
370
   -1
100
AcDbLine
 10
225.5014
 20
1.218999999999937
 11
225.8064
 21
1.218999999999937
  0
LINE
  5
167
100
AcDbEntity
  8
frame
  6
CONTINUOUS
 62
  256
370
   -1
100
AcDbLine
 10
225.8064
 20
1.218999999999937
 11
225.9334
 21
1.168999999999983
  0
LINE
  5
168
100
AcDbEntity
  8
frame
  6
CONTINUOUS
 62
  256
370
   -1
100
AcDbLine
 10
225.9334
 20
1.168999999999983
 11
225.9834
 21
1.091999999999985
  0
LINE
  5
169
100
AcDbEntity
  8
frame
  6
CONTINUOUS
 62
  256
370
   -1
100
AcDbLine
 10
225.9834
 20
1.091999999999985
 11
226.0344
 21
0.9649999999999181
  0
LINE
  5
16A
100
AcDbEntity
  8
frame
  6
CONTINUOUS
 62
  256
370
   -1
100
AcDbLine
 10
226.0344
 20
0.9649999999999181
 11
226.0344
 21
0.6609999999999445
  0
LINE
  5
16B
100
AcDbEntity
  8
frame
  6
CONTINUOUS
 62
  256
370
   -1
100
AcDbLine
 10
226.0344
 20
0.6609999999999445
 11
225.9834
 21
0.5339999999999918
  0
LINE
  5
16C
100
AcDbEntity
  8
frame
  6
CONTINUOUS
 62
  256
370
   -1
100
AcDbLine
 10
225.9834
 20
0.5339999999999918
 11
225.9334
 21
0.4829999999999472
  0
LINE
  5
16D
100
AcDbEntity
  8
frame
  6
CONTINUOUS
 62
  256
370
   -1
100
AcDbLine
 10
225.9334
 20
0.4829999999999472
 11
225.8064
 21
0.4069999999999254
  0
LINE
  5
16E
100
AcDbEntity
  8
frame
  6
CONTINUOUS
 62
  256
370
   -1
100
AcDbLine
 10
225.8064
 20
0.4069999999999254
 11
225.5014
 21
0.4069999999999254
  0
LINE
  5
16F
100
AcDbEntity
  8
frame
  6
CONTINUOUS
 62
  256
370
   -1
100
AcDbLine
 10
225.5014
 20
0.4069999999999254
 11
225.3744
 21
0.4829999999999472
  0
LINE
  5
170
100
AcDbEntity
  8
frame
  6
CONTINUOUS
 62
  256
370
   -1
100
AcDbLine
 10
225.3744
 20
0.4829999999999472
 11
225.2984
 21
0.5339999999999918
  0
LINE
  5
171
100
AcDbEntity
  8
frame
  6
CONTINUOUS
 62
  256
370
   -1
100
AcDbLine
 10
275.9204
 20
1.701999999999998
 11
275.6664
 21
1.701999999999998
  0
LINE
  5
172
100
AcDbEntity
  8
frame
  6
CONTINUOUS
 62
  256
370
   -1
100
AcDbLine
 10
275.6664
 20
1.701999999999998
 11
275.5394
 21
1.650999999999954
  0
LINE
  5
173
100
AcDbEntity
  8
frame
  6
CONTINUOUS
 62
  256
370
   -1
100
AcDbLine
 10
275.5394
 20
1.650999999999954
 11
275.4884
 21
1.599999999999909
  0
LINE
  5
174
100
AcDbEntity
  8
frame
  6
CONTINUOUS
 62
  256
370
   -1
100
AcDbLine
 10
275.4884
 20
1.599999999999909
 11
275.3614
 21
1.396999999999935
  0
LINE
  5
175
100
AcDbEntity
  8
frame
  6
CONTINUOUS
 62
  256
370
   -1
100
AcDbLine
 10
275.3614
 20
1.396999999999935
 11
275.2854
 21
1.168999999999983
  0
LINE
  5
176
100
AcDbEntity
  8
frame
  6
CONTINUOUS
 62
  256
370
   -1
100
AcDbLine
 10
275.2854
 20
1.168999999999983
 11
275.2854
 21
0.6609999999999445
  0
LINE
  5
177
100
AcDbEntity
  8
frame
  6
CONTINUOUS
 62
  256
370
   -1
100
AcDbLine
 10
275.2854
 20
0.6609999999999445
 11
275.3614
 21
0.5339999999999918
  0
LINE
  5
178
100
AcDbEntity
  8
frame
  6
CONTINUOUS
 62
  256
370
   -1
100
AcDbLine
 10
275.3614
 20
0.5339999999999918
 11
275.4124
 21
0.4829999999999472
  0
LINE
  5
179
100
AcDbEntity
  8
frame
  6
CONTINUOUS
 62
  256
370
   -1
100
AcDbLine
 10
275.4124
 20
0.4829999999999472
 11
275.5394
 21
0.4069999999999254
  0
LINE
  5
17A
100
AcDbEntity
  8
frame
  6
CONTINUOUS
 62
  256
370
   -1
100
AcDbLine
 10
275.5394
 20
0.4069999999999254
 11
275.7934
 21
0.4069999999999254
  0
LINE
  5
17B
100
AcDbEntity
  8
frame
  6
CONTINUOUS
 62
  256
370
   -1
100
AcDbLine
 10
275.7934
 20
0.4069999999999254
 11
275.9204
 21
0.4829999999999472
  0
LINE
  5
17C
100
AcDbEntity
  8
frame
  6
CONTINUOUS
 62
  256
370
   -1
100
AcDbLine
 10
275.9204
 20
0.4829999999999472
 11
275.9714
 21
0.5339999999999918
  0
LINE
  5
17D
100
AcDbEntity
  8
frame
  6
CONTINUOUS
 62
  256
370
   -1
100
AcDbLine
 10
275.9714
 20
0.5339999999999918
 11
276.0214
 21
0.6609999999999445
  0
LINE
  5
17E
100
AcDbEntity
  8
frame
  6
CONTINUOUS
 62
  256
370
   -1
100
AcDbLine
 10
276.0214
 20
0.6609999999999445
 11
276.0214
 21
0.9649999999999181
  0
LINE
  5
17F
100
AcDbEntity
  8
frame
  6
CONTINUOUS
 62
  256
370
   -1
100
AcDbLine
 10
276.0214
 20
0.9649999999999181
 11
275.9714
 21
1.091999999999985
  0
LINE
  5
180
100
AcDbEntity
  8
frame
  6
CONTINUOUS
 62
  256
370
   -1
100
AcDbLine
 10
275.9714
 20
1.091999999999985
 11
275.9204
 21
1.168999999999983
  0
LINE
  5
181
100
AcDbEntity
  8
frame
  6
CONTINUOUS
 62
  256
370
   -1
100
AcDbLine
 10
275.9204
 20
1.168999999999983
 11
275.7934
 21
1.218999999999937
  0
LINE
  5
182
100
AcDbEntity
  8
frame
  6
CONTINUOUS
 62
  256
370
   -1
100
AcDbLine
 10
275.7934
 20
1.218999999999937
 11
275.5394
 21
1.218999999999937
  0
LINE
  5
183
100
AcDbEntity
  8
frame
  6
CONTINUOUS
 62
  256
370
   -1
100
AcDbLine
 10
275.5394
 20
1.218999999999937
 11
275.4124
 21
1.168999999999983
  0
LINE
  5
184
100
AcDbEntity
  8
frame
  6
CONTINUOUS
 62
  256
370
   -1
100
AcDbLine
 10
275.4124
 20
1.168999999999983
 11
275.3614
 21
1.091999999999985
  0
LINE
  5
185
100
AcDbEntity
  8
frame
  6
CONTINUOUS
 62
  256
370
   -1
100
AcDbLine
 10
275.3614
 20
1.091999999999985
 11
275.2854
 21
0.9649999999999181
  0
LINE
  5
186
100
AcDbEntity
  8
frame
  6
CONTINUOUS
 62
  256
370
   -1
100
AcDbLine
 10
325.2474
 20
1.701999999999998
 11
326.1104
 21
1.701999999999998
  0
LINE
  5
187
100
AcDbEntity
  8
frame
  6
CONTINUOUS
 62
  256
370
   -1
100
AcDbLine
 10
326.1104
 20
1.701999999999998
 11
325.5514
 21
0.4069999999999254
  0
LINE
  5
188
100
AcDbEntity
  8
frame
  6
CONTINUOUS
 62
  256
370
   -1
100
AcDbLine
 10
375.5394
 20
1.168999999999983
 11
375.4124
 21
1.218999999999937
  0
LINE
  5
189
100
AcDbEntity
  8
frame
  6
CONTINUOUS
 62
  256
370
   -1
100
AcDbLine
 10
375.4124
 20
1.218999999999937
 11
375.3614
 21
1.269999999999982
  0
LINE
  5
18A
100
AcDbEntity
  8
frame
  6
CONTINUOUS
 62
  256
370
   -1
100
AcDbLine
 10
375.3614
 20
1.269999999999982
 11
375.2854
 21
1.396999999999935
  0
LINE
  5
18B
100
AcDbEntity
  8
frame
  6
CONTINUOUS
 62
  256
370
   -1
100
AcDbLine
 10
375.2854
 20
1.396999999999935
 11
375.2854
 21
1.472999999999956
  0
LINE
  5
18C
100
AcDbEntity
  8
frame
  6
CONTINUOUS
 62
  256
370
   -1
100
AcDbLine
 10
375.2854
 20
1.472999999999956
 11
375.3614
 21
1.599999999999909
  0
LINE
  5
18D
100
AcDbEntity
  8
frame
  6
CONTINUOUS
 62
  256
370
   -1
100
AcDbLine
 10
375.3614
 20
1.599999999999909
 11
375.4124
 21
1.650999999999954
  0
LINE
  5
18E
100
AcDbEntity
  8
frame
  6
CONTINUOUS
 62
  256
370
   -1
100
AcDbLine
 10
375.4124
 20
1.650999999999954
 11
375.5394
 21
1.701999999999998
  0
LINE
  5
18F
100
AcDbEntity
  8
frame
  6
CONTINUOUS
 62
  256
370
   -1
100
AcDbLine
 10
375.5394
 20
1.701999999999998
 11
375.7934
 21
1.701999999999998
  0
LINE
  5
190
100
AcDbEntity
  8
frame
  6
CONTINUOUS
 62
  256
370
   -1
100
AcDbLine
 10
375.7934
 20
1.701999999999998
 11
375.9204
 21
1.650999999999954
  0
LINE
  5
191
100
AcDbEntity
  8
frame
  6
CONTINUOUS
 62
  256
370
   -1
100
AcDbLine
 10
375.9204
 20
1.650999999999954
 11
375.9704
 21
1.599999999999909
  0
LINE
  5
192
100
AcDbEntity
  8
frame
  6
CONTINUOUS
 62
  256
370
   -1
100
AcDbLine
 10
375.9704
 20
1.599999999999909
 11
376.0214
 21
1.472999999999956
  0
LINE
  5
193
100
AcDbEntity
  8
frame
  6
CONTINUOUS
 62
  256
370
   -1
100
AcDbLine
 10
376.0214
 20
1.472999999999956
 11
376.0214
 21
1.396999999999935
  0
LINE
  5
194
100
AcDbEntity
  8
frame
  6
CONTINUOUS
 62
  256
370
   -1
100
AcDbLine
 10
376.0214
 20
1.396999999999935
 11
375.9704
 21
1.269999999999982
  0
LINE
  5
195
100
AcDbEntity
  8
frame
  6
CONTINUOUS
 62
  256
370
   -1
100
AcDbLine
 10
375.9704
 20
1.269999999999982
 11
375.9204
 21
1.218999999999937
  0
LINE
  5
196
100
AcDbEntity
  8
frame
  6
CONTINUOUS
 62
  256
370
   -1
100
AcDbLine
 10
375.9204
 20
1.218999999999937
 11
375.7934
 21
1.168999999999983
  0
LINE
  5
197
100
AcDbEntity
  8
frame
  6
CONTINUOUS
 62
  256
370
   -1
100
AcDbLine
 10
375.7934
 20
1.168999999999983
 11
375.5394
 21
1.168999999999983
  0
LINE
  5
198
100
AcDbEntity
  8
frame
  6
CONTINUOUS
 62
  256
370
   -1
100
AcDbLine
 10
375.5394
 20
1.168999999999983
 11
375.4124
 21
1.091999999999985
  0
LINE
  5
199
100
AcDbEntity
  8
frame
  6
CONTINUOUS
 62
  256
370
   -1
100
AcDbLine
 10
375.4124
 20
1.091999999999985
 11
375.3614
 21
1.041999999999916
  0
LINE
  5
19A
100
AcDbEntity
  8
frame
  6
CONTINUOUS
 62
  256
370
   -1
100
AcDbLine
 10
375.3614
 20
1.041999999999916
 11
375.2854
 21
0.9149999999999636
  0
LINE
  5
19B
100
AcDbEntity
  8
frame
  6
CONTINUOUS
 62
  256
370
   -1
100
AcDbLine
 10
375.2854
 20
0.9149999999999636
 11
375.2854
 21
0.6609999999999445
  0
LINE
  5
19C
100
AcDbEntity
  8
frame
  6
CONTINUOUS
 62
  256
370
   -1
100
AcDbLine
 10
375.2854
 20
0.6609999999999445
 11
375.3614
 21
0.5339999999999918
  0
LINE
  5
19D
100
AcDbEntity
  8
frame
  6
CONTINUOUS
 62
  256
370
   -1
100
AcDbLine
 10
375.3614
 20
0.5339999999999918
 11
375.4124
 21
0.4829999999999472
  0
LINE
  5
19E
100
AcDbEntity
  8
frame
  6
CONTINUOUS
 62
  256
370
   -1
100
AcDbLine
 10
375.4124
 20
0.4829999999999472
 11
375.5394
 21
0.4069999999999254
  0
LINE
  5
19F
100
AcDbEntity
  8
frame
  6
CONTINUOUS
 62
  256
370
   -1
100
AcDbLine
 10
375.5394
 20
0.4069999999999254
 11
375.7934
 21
0.4069999999999254
  0
LINE
  5
1A0
100
AcDbEntity
  8
frame
  6
CONTINUOUS
 62
  256
370
   -1
100
AcDbLine
 10
375.7934
 20
0.4069999999999254
 11
375.9204
 21
0.4829999999999472
  0
LINE
  5
1A1
100
AcDbEntity
  8
frame
  6
CONTINUOUS
 62
  256
370
   -1
100
AcDbLine
 10
375.9204
 20
0.4829999999999472
 11
375.9704
 21
0.5339999999999918
  0
LINE
  5
1A2
100
AcDbEntity
  8
frame
  6
CONTINUOUS
 62
  256
370
   -1
100
AcDbLine
 10
375.9704
 20
0.5339999999999918
 11
376.0214
 21
0.6609999999999445
  0
LINE
  5
1A3
100
AcDbEntity
  8
frame
  6
CONTINUOUS
 62
  256
370
   -1
100
AcDbLine
 10
376.0214
 20
0.6609999999999445
 11
376.0214
 21
0.9149999999999636
  0
LINE
  5
1A4
100
AcDbEntity
  8
frame
  6
CONTINUOUS
 62
  256
370
   -1
100
AcDbLine
 10
376.0214
 20
0.9149999999999636
 11
375.9704
 21
1.041999999999916
  0
LINE
  5
1A5
100
AcDbEntity
  8
frame
  6
CONTINUOUS
 62
  256
370
   -1
100
AcDbLine
 10
375.9704
 20
1.041999999999916
 11
375.9204
 21
1.091999999999985
  0
LINE
  5
1A6
100
AcDbEntity
  8
frame
  6
CONTINUOUS
 62
  256
370
   -1
100
AcDbLine
 10
375.9204
 20
1.091999999999985
 11
375.7934
 21
1.168999999999983
  0
LINE
  5
1A7
100
AcDbEntity
  8
frame
  6
CONTINUOUS
 62
  256
370
   -1
100
AcDbLine
 10
0
 20
524.0021999999999
 11
1.981199999999999
 21
524.0021999999999
  0
LINE
  5
1A8
100
AcDbEntity
  8
frame
  6
CONTINUOUS
 62
  256
370
   -1
100
AcDbLine
 10
0
 20
473.99
 11
1.981199999999999
 21
473.99
  0
LINE
  5
1A9
100
AcDbEntity
  8
frame
  6
CONTINUOUS
 62
  256
370
   -1
100
AcDbLine
 10
0
 20
424.002
 11
1.981199999999999
 21
424.002
  0
LINE
  5
1AA
100
AcDbEntity
  8
frame
  6
CONTINUOUS
 62
  256
370
   -1
100
AcDbLine
 10
0
 20
373.99
 11
1.981199999999999
 21
373.99
  0
LINE
  5
1AB
100
AcDbEntity
  8
frame
  6
CONTINUOUS
 62
  256
370
   -1
100
AcDbLine
 10
0
 20
324.0029999999999
 11
1.981199999999999
 21
324.0029999999999
  0
LINE
  5
1AC
100
AcDbEntity
  8
frame
  6
CONTINUOUS
 62
  256
370
   -1
100
AcDbLine
 10
0
 20
273.99
 11
1.981199999999999
 21
273.99
  0
LINE
  5
1AD
100
AcDbEntity
  8
frame
  6
CONTINUOUS
 62
  256
370
   -1
100
AcDbLine
 10
0
 20
224.0029999999999
 11
1.981199999999999
 21
224.0029999999999
  0
LINE
  5
1AE
100
AcDbEntity
  8
frame
  6
CONTINUOUS
 62
  256
370
   -1
100
AcDbLine
 10
0
 20
173.99
 11
1.981199999999999
 21
173.99
  0
LINE
  5
1AF
100
AcDbEntity
  8
frame
  6
CONTINUOUS
 62
  256
370
   -1
100
AcDbLine
 10
0
 20
124.0029999999999
 11
1.981199999999999
 21
124.0029999999999
  0
LINE
  5
1B0
100
AcDbEntity
  8
frame
  6
CONTINUOUS
 62
  256
370
   -1
100
AcDbLine
 10
0
 20
73.98999999999995
 11
1.981199999999999
 21
73.98999999999995
  0
LINE
  5
1B1
100
AcDbEntity
  8
frame
  6
CONTINUOUS
 62
  256
370
   -1
100
AcDbLine
 10
0
 20
24.00299999999993
 11
1.981199999999999
 21
24.00299999999993
  0
LINE
  5
1B2
100
AcDbEntity
  8
frame
  6
CONTINUOUS
 62
  256
370
   -1
100
AcDbLine
 10
0.6603999999999992
 20
548.7926
 11
1.295400000000001
 21
548.7926
  0
LINE
  5
1B3
100
AcDbEntity
  8
frame
  6
CONTINUOUS
 62
  256
370
   -1
100
AcDbLine
 10
0.5587999999999997
 20
548.4115999999999
 11
0.9906000000000006
 21
549.707
  0
LINE
  5
1B4
100
AcDbEntity
  8
frame
  6
CONTINUOUS
 62
  256
370
   -1
100
AcDbLine
 10
0.9906000000000006
 20
549.707
 11
1.4224
 21
548.4115999999999
  0
LINE
  5
1B5
100
AcDbEntity
  8
frame
  6
CONTINUOUS
 62
  256
370
   -1
100
AcDbLine
 10
1.066800000000001
 20
499.1102
 11
1.2446
 21
499.0594
  0
LINE
  5
1B6
100
AcDbEntity
  8
frame
  6
CONTINUOUS
 62
  256
370
   -1
100
AcDbLine
 10
1.2446
 20
499.0594
 11
1.3208
 21
498.9832
  0
LINE
  5
1B7
100
AcDbEntity
  8
frame
  6
CONTINUOUS
 62
  256
370
   -1
100
AcDbLine
 10
1.3208
 20
498.9832
 11
1.371600000000001
 21
498.8561999999999
  0
LINE
  5
1B8
100
AcDbEntity
  8
frame
  6
CONTINUOUS
 62
  256
370
   -1
100
AcDbLine
 10
1.371600000000001
 20
498.8561999999999
 11
1.371600000000001
 21
498.6784
  0
LINE
  5
1B9
100
AcDbEntity
  8
frame
  6
CONTINUOUS
 62
  256
370
   -1
100
AcDbLine
 10
1.371600000000001
 20
498.6784
 11
1.3208
 21
498.5513999999999
  0
LINE
  5
1BA
100
AcDbEntity
  8
frame
  6
CONTINUOUS
 62
  256
370
   -1
100
AcDbLine
 10
1.3208
 20
498.5513999999999
 11
1.2446
 21
498.5006
  0
LINE
  5
1BB
100
AcDbEntity
  8
frame
  6
CONTINUOUS
 62
  256
370
   -1
100
AcDbLine
 10
1.2446
 20
498.5006
 11
1.143000000000001
 21
498.4244
  0
LINE
  5
1BC
100
AcDbEntity
  8
frame
  6
CONTINUOUS
 62
  256
370
   -1
100
AcDbLine
 10
1.143000000000001
 20
498.4244
 11
0.6349999999999998
 21
498.4244
  0
LINE
  5
1BD
100
AcDbEntity
  8
frame
  6
CONTINUOUS
 62
  256
370
   -1
100
AcDbLine
 10
0.6349999999999998
 20
498.4244
 11
0.6349999999999998
 21
499.7198
  0
LINE
  5
1BE
100
AcDbEntity
  8
frame
  6
CONTINUOUS
 62
  256
370
   -1
100
AcDbLine
 10
0.6349999999999998
 20
499.7198
 11
1.066800000000001
 21
499.7198
  0
LINE
  5
1BF
100
AcDbEntity
  8
frame
  6
CONTINUOUS
 62
  256
370
   -1
100
AcDbLine
 10
1.066800000000001
 20
499.7198
 11
1.1938
 21
499.669
  0
LINE
  5
1C0
100
AcDbEntity
  8
frame
  6
CONTINUOUS
 62
  256
370
   -1
100
AcDbLine
 10
1.1938
 20
499.669
 11
1.2446
 21
499.6181999999999
  0
LINE
  5
1C1
100
AcDbEntity
  8
frame
  6
CONTINUOUS
 62
  256
370
   -1
100
AcDbLine
 10
1.2446
 20
499.6181999999999
 11
1.3208
 21
499.4911999999999
  0
LINE
  5
1C2
100
AcDbEntity
  8
frame
  6
CONTINUOUS
 62
  256
370
   -1
100
AcDbLine
 10
1.3208
 20
499.4911999999999
 11
1.3208
 21
499.3642
  0
LINE
  5
1C3
100
AcDbEntity
  8
frame
  6
CONTINUOUS
 62
  256
370
   -1
100
AcDbLine
 10
1.3208
 20
499.3642
 11
1.2446
 21
499.2372
  0
LINE
  5
1C4
100
AcDbEntity
  8
frame
  6
CONTINUOUS
 62
  256
370
   -1
100
AcDbLine
 10
1.2446
 20
499.2372
 11
1.1938
 21
499.1863999999999
  0
LINE
  5
1C5
100
AcDbEntity
  8
frame
  6
CONTINUOUS
 62
  256
370
   -1
100
AcDbLine
 10
1.1938
 20
499.1863999999999
 11
1.066800000000001
 21
499.1102
  0
LINE
  5
1C6
100
AcDbEntity
  8
frame
  6
CONTINUOUS
 62
  256
370
   -1
100
AcDbLine
 10
1.066800000000001
 20
499.1102
 11
0.6349999999999998
 21
499.1102
  0
LINE
  5
1C7
100
AcDbEntity
  8
frame
  6
CONTINUOUS
 62
  256
370
   -1
100
AcDbLine
 10
1.371600000000001
 20
448.539
 11
1.3208
 21
448.4879999999999
  0
LINE
  5
1C8
100
AcDbEntity
  8
frame
  6
CONTINUOUS
 62
  256
370
   -1
100
AcDbLine
 10
1.3208
 20
448.4879999999999
 11
1.143000000000001
 21
448.4119999999999
  0
LINE
  5
1C9
100
AcDbEntity
  8
frame
  6
CONTINUOUS
 62
  256
370
   -1
100
AcDbLine
 10
1.143000000000001
 20
448.4119999999999
 11
1.016
 21
448.4119999999999
  0
LINE
  5
1CA
100
AcDbEntity
  8
frame
  6
CONTINUOUS
 62
  256
370
   -1
100
AcDbLine
 10
1.016
 20
448.4119999999999
 11
0.8127999999999993
 21
448.4879999999999
  0
LINE
  5
1CB
100
AcDbEntity
  8
frame
  6
CONTINUOUS
 62
  256
370
   -1
100
AcDbLine
 10
0.8127999999999993
 20
448.4879999999999
 11
0.7111999999999998
 21
448.615
  0
LINE
  5
1CC
100
AcDbEntity
  8
frame
  6
CONTINUOUS
 62
  256
370
   -1
100
AcDbLine
 10
0.7111999999999998
 20
448.615
 11
0.6349999999999998
 21
448.742
  0
LINE
  5
1CD
100
AcDbEntity
  8
frame
  6
CONTINUOUS
 62
  256
370
   -1
100
AcDbLine
 10
0.6349999999999998
 20
448.742
 11
0.5841999999999992
 21
448.9709999999999
  0
LINE
  5
1CE
100
AcDbEntity
  8
frame
  6
CONTINUOUS
 62
  256
370
   -1
100
AcDbLine
 10
0.5841999999999992
 20
448.9709999999999
 11
0.5841999999999992
 21
449.174
  0
LINE
  5
1CF
100
AcDbEntity
  8
frame
  6
CONTINUOUS
 62
  256
370
   -1
100
AcDbLine
 10
0.5841999999999992
 20
449.174
 11
0.6349999999999998
 21
449.4019999999999
  0
LINE
  5
1D0
100
AcDbEntity
  8
frame
  6
CONTINUOUS
 62
  256
370
   -1
100
AcDbLine
 10
0.6349999999999998
 20
449.4019999999999
 11
0.7111999999999998
 21
449.529
  0
LINE
  5
1D1
100
AcDbEntity
  8
frame
  6
CONTINUOUS
 62
  256
370
   -1
100
AcDbLine
 10
0.7111999999999998
 20
449.529
 11
0.8127999999999993
 21
449.6559999999999
  0
LINE
  5
1D2
100
AcDbEntity
  8
frame
  6
CONTINUOUS
 62
  256
370
   -1
100
AcDbLine
 10
0.8127999999999993
 20
449.6559999999999
 11
1.016
 21
449.707
  0
LINE
  5
1D3
100
AcDbEntity
  8
frame
  6
CONTINUOUS
 62
  256
370
   -1
100
AcDbLine
 10
1.016
 20
449.707
 11
1.143000000000001
 21
449.707
  0
LINE
  5
1D4
100
AcDbEntity
  8
frame
  6
CONTINUOUS
 62
  256
370
   -1
100
AcDbLine
 10
1.143000000000001
 20
449.707
 11
1.3208
 21
449.6559999999999
  0
LINE
  5
1D5
100
AcDbEntity
  8
frame
  6
CONTINUOUS
 62
  256
370
   -1
100
AcDbLine
 10
1.3208
 20
449.6559999999999
 11
1.371600000000001
 21
449.606
  0
LINE
  5
1D6
100
AcDbEntity
  8
frame
  6
CONTINUOUS
 62
  256
370
   -1
100
AcDbLine
 10
0.6349999999999998
 20
398.425
 11
0.6349999999999998
 21
399.72
  0
LINE
  5
1D7
100
AcDbEntity
  8
frame
  6
CONTINUOUS
 62
  256
370
   -1
100
AcDbLine
 10
0.6349999999999998
 20
399.72
 11
0.9398
 21
399.72
  0
LINE
  5
1D8
100
AcDbEntity
  8
frame
  6
CONTINUOUS
 62
  256
370
   -1
100
AcDbLine
 10
0.9398
 20
399.72
 11
1.143000000000001
 21
399.669
  0
LINE
  5
1D9
100
AcDbEntity
  8
frame
  6
CONTINUOUS
 62
  256
370
   -1
100
AcDbLine
 10
1.143000000000001
 20
399.669
 11
1.2446
 21
399.5419999999999
  0
LINE
  5
1DA
100
AcDbEntity
  8
frame
  6
CONTINUOUS
 62
  256
370
   -1
100
AcDbLine
 10
1.2446
 20
399.5419999999999
 11
1.3208
 21
399.415
  0
LINE
  5
1DB
100
AcDbEntity
  8
frame
  6
CONTINUOUS
 62
  256
370
   -1
100
AcDbLine
 10
1.3208
 20
399.415
 11
1.371600000000001
 21
399.187
  0
LINE
  5
1DC
100
AcDbEntity
  8
frame
  6
CONTINUOUS
 62
  256
370
   -1
100
AcDbLine
 10
1.371600000000001
 20
399.187
 11
1.371600000000001
 21
398.9829999999999
  0
LINE
  5
1DD
100
AcDbEntity
  8
frame
  6
CONTINUOUS
 62
  256
370
   -1
100
AcDbLine
 10
1.371600000000001
 20
398.9829999999999
 11
1.3208
 21
398.755
  0
LINE
  5
1DE
100
AcDbEntity
  8
frame
  6
CONTINUOUS
 62
  256
370
   -1
100
AcDbLine
 10
1.3208
 20
398.755
 11
1.2446
 21
398.6279999999999
  0
LINE
  5
1DF
100
AcDbEntity
  8
frame
  6
CONTINUOUS
 62
  256
370
   -1
100
AcDbLine
 10
1.2446
 20
398.6279999999999
 11
1.143000000000001
 21
398.501
  0
LINE
  5
1E0
100
AcDbEntity
  8
frame
  6
CONTINUOUS
 62
  256
370
   -1
100
AcDbLine
 10
1.143000000000001
 20
398.501
 11
0.9398
 21
398.425
  0
LINE
  5
1E1
100
AcDbEntity
  8
frame
  6
CONTINUOUS
 62
  256
370
   -1
100
AcDbLine
 10
0.9398
 20
398.425
 11
0.6349999999999998
 21
398.425
  0
LINE
  5
1E2
100
AcDbEntity
  8
frame
  6
CONTINUOUS
 62
  256
370
   -1
100
AcDbLine
 10
0.7111999999999998
 20
349.098
 11
1.143000000000001
 21
349.098
  0
LINE
  5
1E3
100
AcDbEntity
  8
frame
  6
CONTINUOUS
 62
  256
370
   -1
100
AcDbLine
 10
1.3208
 20
348.4119999999999
 11
0.7111999999999998
 21
348.4119999999999
  0
LINE
  5
1E4
100
AcDbEntity
  8
frame
  6
CONTINUOUS
 62
  256
370
   -1
100
AcDbLine
 10
0.7111999999999998
 20
348.4119999999999
 11
0.7111999999999998
 21
349.707
  0
LINE
  5
1E5
100
AcDbEntity
  8
frame
  6
CONTINUOUS
 62
  256
370
   -1
100
AcDbLine
 10
0.7111999999999998
 20
349.707
 11
1.3208
 21
349.707
  0
LINE
  5
1E6
100
AcDbEntity
  8
frame
  6
CONTINUOUS
 62
  256
370
   -1
100
AcDbLine
 10
1.1684
 20
299.1109999999999
 11
0.7365999999999993
 21
299.1109999999999
  0
LINE
  5
1E7
100
AcDbEntity
  8
frame
  6
CONTINUOUS
 62
  256
370
   -1
100
AcDbLine
 10
0.7365999999999993
 20
298.425
 11
0.7365999999999993
 21
299.72
  0
LINE
  5
1E8
100
AcDbEntity
  8
frame
  6
CONTINUOUS
 62
  256
370
   -1
100
AcDbLine
 10
0.7365999999999993
 20
299.72
 11
1.3462
 21
299.72
  0
LINE
  5
1E9
100
AcDbEntity
  8
frame
  6
CONTINUOUS
 62
  256
370
   -1
100
AcDbLine
 10
1.3208
 20
249.657
 11
1.1938
 21
249.708
  0
LINE
  5
1EA
100
AcDbEntity
  8
frame
  6
CONTINUOUS
 62
  256
370
   -1
100
AcDbLine
 10
1.1938
 20
249.708
 11
1.016
 21
249.708
  0
LINE
  5
1EB
100
AcDbEntity
  8
frame
  6
CONTINUOUS
 62
  256
370
   -1
100
AcDbLine
 10
1.016
 20
249.708
 11
0.8127999999999993
 21
249.657
  0
LINE
  5
1EC
100
AcDbEntity
  8
frame
  6
CONTINUOUS
 62
  256
370
   -1
100
AcDbLine
 10
0.8127999999999993
 20
249.657
 11
0.7111999999999998
 21
249.53
  0
LINE
  5
1ED
100
AcDbEntity
  8
frame
  6
CONTINUOUS
 62
  256
370
   -1
100
AcDbLine
 10
0.7111999999999998
 20
249.53
 11
0.6349999999999998
 21
249.403
  0
LINE
  5
1EE
100
AcDbEntity
  8
frame
  6
CONTINUOUS
 62
  256
370
   -1
100
AcDbLine
 10
0.6349999999999998
 20
249.403
 11
0.5841999999999992
 21
249.174
  0
LINE
  5
1EF
100
AcDbEntity
  8
frame
  6
CONTINUOUS
 62
  256
370
   -1
100
AcDbLine
 10
0.5841999999999992
 20
249.174
 11
0.5841999999999992
 21
248.9709999999999
  0
LINE
  5
1F0
100
AcDbEntity
  8
frame
  6
CONTINUOUS
 62
  256
370
   -1
100
AcDbLine
 10
0.5841999999999992
 20
248.9709999999999
 11
0.6349999999999998
 21
248.742
  0
LINE
  5
1F1
100
AcDbEntity
  8
frame
  6
CONTINUOUS
 62
  256
370
   -1
100
AcDbLine
 10
0.6349999999999998
 20
248.742
 11
0.7111999999999998
 21
248.615
  0
LINE
  5
1F2
100
AcDbEntity
  8
frame
  6
CONTINUOUS
 62
  256
370
   -1
100
AcDbLine
 10
0.7111999999999998
 20
248.615
 11
0.8127999999999993
 21
248.4879999999999
  0
LINE
  5
1F3
100
AcDbEntity
  8
frame
  6
CONTINUOUS
 62
  256
370
   -1
100
AcDbLine
 10
0.8127999999999993
 20
248.4879999999999
 11
1.016
 21
248.412
  0
LINE
  5
1F4
100
AcDbEntity
  8
frame
  6
CONTINUOUS
 62
  256
370
   -1
100
AcDbLine
 10
1.016
 20
248.412
 11
1.143000000000001
 21
248.412
  0
LINE
  5
1F5
100
AcDbEntity
  8
frame
  6
CONTINUOUS
 62
  256
370
   -1
100
AcDbLine
 10
1.143000000000001
 20
248.412
 11
1.3208
 21
248.4879999999999
  0
LINE
  5
1F6
100
AcDbEntity
  8
frame
  6
CONTINUOUS
 62
  256
370
   -1
100
AcDbLine
 10
1.3208
 20
248.4879999999999
 11
1.371600000000001
 21
248.5389999999999
  0
LINE
  5
1F7
100
AcDbEntity
  8
frame
  6
CONTINUOUS
 62
  256
370
   -1
100
AcDbLine
 10
1.371600000000001
 20
248.5389999999999
 11
1.371600000000001
 21
248.9709999999999
  0
LINE
  5
1F8
100
AcDbEntity
  8
frame
  6
CONTINUOUS
 62
  256
370
   -1
100
AcDbLine
 10
1.371600000000001
 20
248.9709999999999
 11
1.143000000000001
 21
248.9709999999999
  0
LINE
  5
1F9
100
AcDbEntity
  8
frame
  6
CONTINUOUS
 62
  256
370
   -1
100
AcDbLine
 10
0.6096000000000004
 20
198.425
 11
0.6096000000000004
 21
199.72
  0
LINE
  5
1FA
100
AcDbEntity
  8
frame
  6
CONTINUOUS
 62
  256
370
   -1
100
AcDbLine
 10
0.6096000000000004
 20
199.1109999999999
 11
1.3462
 21
199.1109999999999
  0
LINE
  5
1FB
100
AcDbEntity
  8
frame
  6
CONTINUOUS
 62
  256
370
   -1
100
AcDbLine
 10
1.3462
 20
198.425
 11
1.3462
 21
199.72
  0
LINE
  5
1FC
100
AcDbEntity
  8
frame
  6
CONTINUOUS
 62
  256
370
   -1
100
AcDbLine
 10
0.9651999999999994
 20
148.412
 11
0.9651999999999994
 21
149.708
  0
LINE
  5
1FD
100
AcDbEntity
  8
frame
  6
CONTINUOUS
 62
  256
370
   -1
100
AcDbLine
 10
1.1684
 20
99.72099999999995
 11
1.1684
 21
98.80599999999998
  0
LINE
  5
1FE
100
AcDbEntity
  8
frame
  6
CONTINUOUS
 62
  256
370
   -1
100
AcDbLine
 10
1.1684
 20
98.80599999999998
 11
1.0922
 21
98.62799999999993
  0
LINE
  5
1FF
100
AcDbEntity
  8
frame
  6
CONTINUOUS
 62
  256
370
   -1
100
AcDbLine
 10
1.0922
 20
98.62799999999993
 11
0.9651999999999994
 21
98.50099999999998
  0
LINE
  5
200
100
AcDbEntity
  8
frame
  6
CONTINUOUS
 62
  256
370
   -1
100
AcDbLine
 10
0.9651999999999994
 20
98.50099999999998
 11
0.7873999999999999
 21
98.42499999999995
  0
LINE
  5
201
100
AcDbEntity
  8
frame
  6
CONTINUOUS
 62
  256
370
   -1
100
AcDbLine
 10
0.7873999999999999
 20
98.42499999999995
 11
0.6603999999999992
 21
98.42499999999995
  0
LINE
  5
202
100
AcDbEntity
  8
frame
  6
CONTINUOUS
 62
  256
370
   -1
100
AcDbLine
 10
0.6349999999999998
 20
48.41300000000001
 11
0.6349999999999998
 21
49.70799999999997
  0
LINE
  5
203
100
AcDbEntity
  8
frame
  6
CONTINUOUS
 62
  256
370
   -1
100
AcDbLine
 10
1.371600000000001
 20
48.41300000000001
 11
0.8127999999999993
 21
49.17499999999995
  0
LINE
  5
204
100
AcDbEntity
  8
frame
  6
CONTINUOUS
 62
  256
370
   -1
100
AcDbLine
 10
1.371600000000001
 20
49.70799999999997
 11
0.6349999999999998
 21
48.971
  0
LINE
  5
205
100
AcDbEntity
  8
frame
  6
CONTINUOUS
 62
  256
370
   -1
100
AcDbLine
 10
399.9734
 20
524.0021999999999
 11
397.9924
 21
524.0021999999999
  0
LINE
  5
206
100
AcDbEntity
  8
frame
  6
CONTINUOUS
 62
  256
370
   -1
100
AcDbLine
 10
399.9734
 20
473.99
 11
397.9924
 21
473.99
  0
LINE
  5
207
100
AcDbEntity
  8
frame
  6
CONTINUOUS
 62
  256
370
   -1
100
AcDbLine
 10
399.9734
 20
424.002
 11
397.9924
 21
424.002
  0
LINE
  5
208
100
AcDbEntity
  8
frame
  6
CONTINUOUS
 62
  256
370
   -1
100
AcDbLine
 10
399.9734
 20
373.99
 11
397.9924
 21
373.99
  0
LINE
  5
209
100
AcDbEntity
  8
frame
  6
CONTINUOUS
 62
  256
370
   -1
100
AcDbLine
 10
399.9734
 20
324.0029999999999
 11
397.9924
 21
324.0029999999999
  0
LINE
  5
20A
100
AcDbEntity
  8
frame
  6
CONTINUOUS
 62
  256
370
   -1
100
AcDbLine
 10
399.9734
 20
273.99
 11
397.9924
 21
273.99
  0
LINE
  5
20B
100
AcDbEntity
  8
frame
  6
CONTINUOUS
 62
  256
370
   -1
100
AcDbLine
 10
399.9734
 20
224.0029999999999
 11
397.9924
 21
224.0029999999999
  0
LINE
  5
20C
100
AcDbEntity
  8
frame
  6
CONTINUOUS
 62
  256
370
   -1
100
AcDbLine
 10
399.9734
 20
173.99
 11
397.9924
 21
173.99
  0
LINE
  5
20D
100
AcDbEntity
  8
frame
  6
CONTINUOUS
 62
  256
370
   -1
100
AcDbLine
 10
399.9734
 20
124.0029999999999
 11
397.9924
 21
124.0029999999999
  0
LINE
  5
20E
100
AcDbEntity
  8
frame
  6
CONTINUOUS
 62
  256
370
   -1
100
AcDbLine
 10
399.9734
 20
73.98999999999995
 11
397.9924
 21
73.98999999999995
  0
LINE
  5
20F
100
AcDbEntity
  8
frame
  6
CONTINUOUS
 62
  256
370
   -1
100
AcDbLine
 10
399.9734
 20
24.00299999999993
 11
397.9924
 21
24.00299999999993
  0
LINE
  5
210
100
AcDbEntity
  8
frame
  6
CONTINUOUS
 62
  256
370
   -1
100
AcDbLine
 10
398.6534
 20
548.7926
 11
399.2884
 21
548.7926
  0
LINE
  5
211
100
AcDbEntity
  8
frame
  6
CONTINUOUS
 62
  256
370
   -1
100
AcDbLine
 10
398.5264
 20
548.4115999999999
 11
398.9574
 21
549.707
  0
LINE
  5
212
100
AcDbEntity
  8
frame
  6
CONTINUOUS
 62
  256
370
   -1
100
AcDbLine
 10
398.9574
 20
549.707
 11
399.3894
 21
548.4115999999999
  0
LINE
  5
213
100
AcDbEntity
  8
frame
  6
CONTINUOUS
 62
  256
370
   -1
100
AcDbLine
 10
399.0594
 20
499.1102
 11
399.2374
 21
499.0594
  0
LINE
  5
214
100
AcDbEntity
  8
frame
  6
CONTINUOUS
 62
  256
370
   -1
100
AcDbLine
 10
399.2374
 20
499.0594
 11
399.3134
 21
498.9832
  0
LINE
  5
215
100
AcDbEntity
  8
frame
  6
CONTINUOUS
 62
  256
370
   -1
100
AcDbLine
 10
399.3134
 20
498.9832
 11
399.3644
 21
498.8561999999999
  0
LINE
  5
216
100
AcDbEntity
  8
frame
  6
CONTINUOUS
 62
  256
370
   -1
100
AcDbLine
 10
399.3644
 20
498.8561999999999
 11
399.3644
 21
498.6784
  0
LINE
  5
217
100
AcDbEntity
  8
frame
  6
CONTINUOUS
 62
  256
370
   -1
100
AcDbLine
 10
399.3644
 20
498.6784
 11
399.3134
 21
498.5513999999999
  0
LINE
  5
218
100
AcDbEntity
  8
frame
  6
CONTINUOUS
 62
  256
370
   -1
100
AcDbLine
 10
399.3134
 20
498.5513999999999
 11
399.2374
 21
498.5006
  0
LINE
  5
219
100
AcDbEntity
  8
frame
  6
CONTINUOUS
 62
  256
370
   -1
100
AcDbLine
 10
399.2374
 20
498.5006
 11
399.1353999999999
 21
498.4244
  0
LINE
  5
21A
100
AcDbEntity
  8
frame
  6
CONTINUOUS
 62
  256
370
   -1
100
AcDbLine
 10
399.1353999999999
 20
498.4244
 11
398.6274
 21
498.4244
  0
LINE
  5
21B
100
AcDbEntity
  8
frame
  6
CONTINUOUS
 62
  256
370
   -1
100
AcDbLine
 10
398.6274
 20
498.4244
 11
398.6274
 21
499.7198
  0
LINE
  5
21C
100
AcDbEntity
  8
frame
  6
CONTINUOUS
 62
  256
370
   -1
100
AcDbLine
 10
398.6274
 20
499.7198
 11
399.0594
 21
499.7198
  0
LINE
  5
21D
100
AcDbEntity
  8
frame
  6
CONTINUOUS
 62
  256
370
   -1
100
AcDbLine
 10
399.0594
 20
499.7198
 11
399.1864
 21
499.669
  0
LINE
  5
21E
100
AcDbEntity
  8
frame
  6
CONTINUOUS
 62
  256
370
   -1
100
AcDbLine
 10
399.1864
 20
499.669
 11
399.2374
 21
499.6181999999999
  0
LINE
  5
21F
100
AcDbEntity
  8
frame
  6
CONTINUOUS
 62
  256
370
   -1
100
AcDbLine
 10
399.2374
 20
499.6181999999999
 11
399.3134
 21
499.4911999999999
  0
LINE
  5
220
100
AcDbEntity
  8
frame
  6
CONTINUOUS
 62
  256
370
   -1
100
AcDbLine
 10
399.3134
 20
499.4911999999999
 11
399.3134
 21
499.3642
  0
LINE
  5
221
100
AcDbEntity
  8
frame
  6
CONTINUOUS
 62
  256
370
   -1
100
AcDbLine
 10
399.3134
 20
499.3642
 11
399.2374
 21
499.2372
  0
LINE
  5
222
100
AcDbEntity
  8
frame
  6
CONTINUOUS
 62
  256
370
   -1
100
AcDbLine
 10
399.2374
 20
499.2372
 11
399.1864
 21
499.1863999999999
  0
LINE
  5
223
100
AcDbEntity
  8
frame
  6
CONTINUOUS
 62
  256
370
   -1
100
AcDbLine
 10
399.1864
 20
499.1863999999999
 11
399.0594
 21
499.1102
  0
LINE
  5
224
100
AcDbEntity
  8
frame
  6
CONTINUOUS
 62
  256
370
   -1
100
AcDbLine
 10
399.0594
 20
499.1102
 11
398.6274
 21
499.1102
  0
LINE
  5
225
100
AcDbEntity
  8
frame
  6
CONTINUOUS
 62
  256
370
   -1
100
AcDbLine
 10
399.3644
 20
448.539
 11
399.3134
 21
448.4879999999999
  0
LINE
  5
226
100
AcDbEntity
  8
frame
  6
CONTINUOUS
 62
  256
370
   -1
100
AcDbLine
 10
399.3134
 20
448.4879999999999
 11
399.1353999999999
 21
448.4119999999999
  0
LINE
  5
227
100
AcDbEntity
  8
frame
  6
CONTINUOUS
 62
  256
370
   -1
100
AcDbLine
 10
399.1353999999999
 20
448.4119999999999
 11
399.0084
 21
448.4119999999999
  0
LINE
  5
228
100
AcDbEntity
  8
frame
  6
CONTINUOUS
 62
  256
370
   -1
100
AcDbLine
 10
399.0084
 20
448.4119999999999
 11
398.8054
 21
448.4879999999999
  0
LINE
  5
229
100
AcDbEntity
  8
frame
  6
CONTINUOUS
 62
  256
370
   -1
100
AcDbLine
 10
398.8054
 20
448.4879999999999
 11
398.7034
 21
448.615
  0
LINE
  5
22A
100
AcDbEntity
  8
frame
  6
CONTINUOUS
 62
  256
370
   -1
100
AcDbLine
 10
398.7034
 20
448.615
 11
398.6274
 21
448.742
  0
LINE
  5
22B
100
AcDbEntity
  8
frame
  6
CONTINUOUS
 62
  256
370
   -1
100
AcDbLine
 10
398.6274
 20
448.742
 11
398.5764
 21
448.9709999999999
  0
LINE
  5
22C
100
AcDbEntity
  8
frame
  6
CONTINUOUS
 62
  256
370
   -1
100
AcDbLine
 10
398.5764
 20
448.9709999999999
 11
398.5764
 21
449.174
  0
LINE
  5
22D
100
AcDbEntity
  8
frame
  6
CONTINUOUS
 62
  256
370
   -1
100
AcDbLine
 10
398.5764
 20
449.174
 11
398.6274
 21
449.4019999999999
  0
LINE
  5
22E
100
AcDbEntity
  8
frame
  6
CONTINUOUS
 62
  256
370
   -1
100
AcDbLine
 10
398.6274
 20
449.4019999999999
 11
398.7034
 21
449.529
  0
LINE
  5
22F
100
AcDbEntity
  8
frame
  6
CONTINUOUS
 62
  256
370
   -1
100
AcDbLine
 10
398.7034
 20
449.529
 11
398.8054
 21
449.6559999999999
  0
LINE
  5
230
100
AcDbEntity
  8
frame
  6
CONTINUOUS
 62
  256
370
   -1
100
AcDbLine
 10
398.8054
 20
449.6559999999999
 11
399.0084
 21
449.707
  0
LINE
  5
231
100
AcDbEntity
  8
frame
  6
CONTINUOUS
 62
  256
370
   -1
100
AcDbLine
 10
399.0084
 20
449.707
 11
399.1353999999999
 21
449.707
  0
LINE
  5
232
100
AcDbEntity
  8
frame
  6
CONTINUOUS
 62
  256
370
   -1
100
AcDbLine
 10
399.1353999999999
 20
449.707
 11
399.3134
 21
449.6559999999999
  0
LINE
  5
233
100
AcDbEntity
  8
frame
  6
CONTINUOUS
 62
  256
370
   -1
100
AcDbLine
 10
399.3134
 20
449.6559999999999
 11
399.3644
 21
449.606
  0
LINE
  5
234
100
AcDbEntity
  8
frame
  6
CONTINUOUS
 62
  256
370
   -1
100
AcDbLine
 10
398.6274
 20
398.425
 11
398.6274
 21
399.72
  0
LINE
  5
235
100
AcDbEntity
  8
frame
  6
CONTINUOUS
 62
  256
370
   -1
100
AcDbLine
 10
398.6274
 20
399.72
 11
398.9324
 21
399.72
  0
LINE
  5
236
100
AcDbEntity
  8
frame
  6
CONTINUOUS
 62
  256
370
   -1
100
AcDbLine
 10
398.9324
 20
399.72
 11
399.1353999999999
 21
399.669
  0
LINE
  5
237
100
AcDbEntity
  8
frame
  6
CONTINUOUS
 62
  256
370
   -1
100
AcDbLine
 10
399.1353999999999
 20
399.669
 11
399.2374
 21
399.5419999999999
  0
LINE
  5
238
100
AcDbEntity
  8
frame
  6
CONTINUOUS
 62
  256
370
   -1
100
AcDbLine
 10
399.2374
 20
399.5419999999999
 11
399.3134
 21
399.415
  0
LINE
  5
239
100
AcDbEntity
  8
frame
  6
CONTINUOUS
 62
  256
370
   -1
100
AcDbLine
 10
399.3134
 20
399.415
 11
399.3644
 21
399.187
  0
LINE
  5
23A
100
AcDbEntity
  8
frame
  6
CONTINUOUS
 62
  256
370
   -1
100
AcDbLine
 10
399.3644
 20
399.187
 11
399.3644
 21
398.9829999999999
  0
LINE
  5
23B
100
AcDbEntity
  8
frame
  6
CONTINUOUS
 62
  256
370
   -1
100
AcDbLine
 10
399.3644
 20
398.9829999999999
 11
399.3134
 21
398.755
  0
LINE
  5
23C
100
AcDbEntity
  8
frame
  6
CONTINUOUS
 62
  256
370
   -1
100
AcDbLine
 10
399.3134
 20
398.755
 11
399.2374
 21
398.6279999999999
  0
LINE
  5
23D
100
AcDbEntity
  8
frame
  6
CONTINUOUS
 62
  256
370
   -1
100
AcDbLine
 10
399.2374
 20
398.6279999999999
 11
399.1353999999999
 21
398.501
  0
LINE
  5
23E
100
AcDbEntity
  8
frame
  6
CONTINUOUS
 62
  256
370
   -1
100
AcDbLine
 10
399.1353999999999
 20
398.501
 11
398.9324
 21
398.425
  0
LINE
  5
23F
100
AcDbEntity
  8
frame
  6
CONTINUOUS
 62
  256
370
   -1
100
AcDbLine
 10
398.9324
 20
398.425
 11
398.6274
 21
398.425
  0
LINE
  5
240
100
AcDbEntity
  8
frame
  6
CONTINUOUS
 62
  256
370
   -1
100
AcDbLine
 10
398.7034
 20
349.098
 11
399.1353999999999
 21
349.098
  0
LINE
  5
241
100
AcDbEntity
  8
frame
  6
CONTINUOUS
 62
  256
370
   -1
100
AcDbLine
 10
399.3134
 20
348.4119999999999
 11
398.7034
 21
348.4119999999999
  0
LINE
  5
242
100
AcDbEntity
  8
frame
  6
CONTINUOUS
 62
  256
370
   -1
100
AcDbLine
 10
398.7034
 20
348.4119999999999
 11
398.7034
 21
349.707
  0
LINE
  5
243
100
AcDbEntity
  8
frame
  6
CONTINUOUS
 62
  256
370
   -1
100
AcDbLine
 10
398.7034
 20
349.707
 11
399.3134
 21
349.707
  0
LINE
  5
244
100
AcDbEntity
  8
frame
  6
CONTINUOUS
 62
  256
370
   -1
100
AcDbLine
 10
399.1614
 20
299.1109999999999
 11
398.7294
 21
299.1109999999999
  0
LINE
  5
245
100
AcDbEntity
  8
frame
  6
CONTINUOUS
 62
  256
370
   -1
100
AcDbLine
 10
398.7294
 20
298.425
 11
398.7294
 21
299.72
  0
LINE
  5
246
100
AcDbEntity
  8
frame
  6
CONTINUOUS
 62
  256
370
   -1
100
AcDbLine
 10
398.7294
 20
299.72
 11
399.3384
 21
299.72
  0
LINE
  5
247
100
AcDbEntity
  8
frame
  6
CONTINUOUS
 62
  256
370
   -1
100
AcDbLine
 10
399.3134
 20
249.657
 11
399.1864
 21
249.708
  0
LINE
  5
248
100
AcDbEntity
  8
frame
  6
CONTINUOUS
 62
  256
370
   -1
100
AcDbLine
 10
399.1864
 20
249.708
 11
399.0084
 21
249.708
  0
LINE
  5
249
100
AcDbEntity
  8
frame
  6
CONTINUOUS
 62
  256
370
   -1
100
AcDbLine
 10
399.0084
 20
249.708
 11
398.8054
 21
249.657
  0
LINE
  5
24A
100
AcDbEntity
  8
frame
  6
CONTINUOUS
 62
  256
370
   -1
100
AcDbLine
 10
398.8054
 20
249.657
 11
398.7034
 21
249.53
  0
LINE
  5
24B
100
AcDbEntity
  8
frame
  6
CONTINUOUS
 62
  256
370
   -1
100
AcDbLine
 10
398.7034
 20
249.53
 11
398.6274
 21
249.403
  0
LINE
  5
24C
100
AcDbEntity
  8
frame
  6
CONTINUOUS
 62
  256
370
   -1
100
AcDbLine
 10
398.6274
 20
249.403
 11
398.5764
 21
249.174
  0
LINE
  5
24D
100
AcDbEntity
  8
frame
  6
CONTINUOUS
 62
  256
370
   -1
100
AcDbLine
 10
398.5764
 20
249.174
 11
398.5764
 21
248.9709999999999
  0
LINE
  5
24E
100
AcDbEntity
  8
frame
  6
CONTINUOUS
 62
  256
370
   -1
100
AcDbLine
 10
398.5764
 20
248.9709999999999
 11
398.6274
 21
248.742
  0
LINE
  5
24F
100
AcDbEntity
  8
frame
  6
CONTINUOUS
 62
  256
370
   -1
100
AcDbLine
 10
398.6274
 20
248.742
 11
398.7034
 21
248.615
  0
LINE
  5
250
100
AcDbEntity
  8
frame
  6
CONTINUOUS
 62
  256
370
   -1
100
AcDbLine
 10
398.7034
 20
248.615
 11
398.8054
 21
248.4879999999999
  0
LINE
  5
251
100
AcDbEntity
  8
frame
  6
CONTINUOUS
 62
  256
370
   -1
100
AcDbLine
 10
398.8054
 20
248.4879999999999
 11
399.0084
 21
248.412
  0
LINE
  5
252
100
AcDbEntity
  8
frame
  6
CONTINUOUS
 62
  256
370
   -1
100
AcDbLine
 10
399.0084
 20
248.412
 11
399.1353999999999
 21
248.412
  0
LINE
  5
253
100
AcDbEntity
  8
frame
  6
CONTINUOUS
 62
  256
370
   -1
100
AcDbLine
 10
399.1353999999999
 20
248.412
 11
399.3134
 21
248.4879999999999
  0
LINE
  5
254
100
AcDbEntity
  8
frame
  6
CONTINUOUS
 62
  256
370
   -1
100
AcDbLine
 10
399.3134
 20
248.4879999999999
 11
399.3644
 21
248.5389999999999
  0
LINE
  5
255
100
AcDbEntity
  8
frame
  6
CONTINUOUS
 62
  256
370
   -1
100
AcDbLine
 10
399.3644
 20
248.5389999999999
 11
399.3644
 21
248.9709999999999
  0
LINE
  5
256
100
AcDbEntity
  8
frame
  6
CONTINUOUS
 62
  256
370
   -1
100
AcDbLine
 10
399.3644
 20
248.9709999999999
 11
399.1353999999999
 21
248.9709999999999
  0
LINE
  5
257
100
AcDbEntity
  8
frame
  6
CONTINUOUS
 62
  256
370
   -1
100
AcDbLine
 10
398.6024
 20
198.425
 11
398.6024
 21
199.72
  0
LINE
  5
258
100
AcDbEntity
  8
frame
  6
CONTINUOUS
 62
  256
370
   -1
100
AcDbLine
 10
398.6024
 20
199.1109999999999
 11
399.3384
 21
199.1109999999999
  0
LINE
  5
259
100
AcDbEntity
  8
frame
  6
CONTINUOUS
 62
  256
370
   -1
100
AcDbLine
 10
399.3384
 20
198.425
 11
399.3384
 21
199.72
  0
LINE
  5
25A
100
AcDbEntity
  8
frame
  6
CONTINUOUS
 62
  256
370
   -1
100
AcDbLine
 10
398.9834
 20
148.412
 11
398.9834
 21
149.708
  0
LINE
  5
25B
100
AcDbEntity
  8
frame
  6
CONTINUOUS
 62
  256
370
   -1
100
AcDbLine
 10
399.1614
 20
99.72099999999995
 11
399.1614
 21
98.80599999999998
  0
LINE
  5
25C
100
AcDbEntity
  8
frame
  6
CONTINUOUS
 62
  256
370
   -1
100
AcDbLine
 10
399.1614
 20
98.80599999999998
 11
399.0844
 21
98.62799999999993
  0
LINE
  5
25D
100
AcDbEntity
  8
frame
  6
CONTINUOUS
 62
  256
370
   -1
100
AcDbLine
 10
399.0844
 20
98.62799999999993
 11
398.9834
 21
98.50099999999998
  0
LINE
  5
25E
100
AcDbEntity
  8
frame
  6
CONTINUOUS
 62
  256
370
   -1
100
AcDbLine
 10
398.9834
 20
98.50099999999998
 11
398.7804
 21
98.42499999999995
  0
LINE
  5
25F
100
AcDbEntity
  8
frame
  6
CONTINUOUS
 62
  256
370
   -1
100
AcDbLine
 10
398.7804
 20
98.42499999999995
 11
398.6534
 21
98.42499999999995
  0
LINE
  5
260
100
AcDbEntity
  8
frame
  6
CONTINUOUS
 62
  256
370
   -1
100
AcDbLine
 10
398.6274
 20
48.41300000000001
 11
398.6274
 21
49.70799999999997
  0
LINE
  5
261
100
AcDbEntity
  8
frame
  6
CONTINUOUS
 62
  256
370
   -1
100
AcDbLine
 10
399.3644
 20
48.41300000000001
 11
398.8054
 21
49.17499999999995
  0
LINE
  5
262
100
AcDbEntity
  8
frame
  6
CONTINUOUS
 62
  256
370
   -1
100
AcDbLine
 10
399.3644
 20
49.70799999999997
 11
398.6274
 21
48.971
  0
LINE
  5
263
100
AcDbEntity
  8
frame
  6
CONTINUOUS
 62
  256
370
   -1
100
AcDbLine
 10
289.9914
 20
5.486999999999966
 11
397.9924
 21
5.486999999999966
  0
LINE
  5
264
100
AcDbEntity
  8
frame
  6
CONTINUOUS
 62
  256
370
   -1
100
AcDbLine
 10
289.9914
 20
8.483999999999924
 11
397.9924
 21
8.483999999999924
  0
LINE
  5
265
100
AcDbEntity
  8
frame
  6
CONTINUOUS
 62
  256
370
   -1
100
AcDbLine
 10
289.9914
 20
12.49699999999996
 11
397.9924
 21
12.49699999999996
  0
LINE
  5
266
100
AcDbEntity
  8
frame
  6
CONTINUOUS
 62
  256
370
   -1
100
AcDbLine
 10
289.9914
 20
18.49099999999999
 11
397.9924
 21
18.49099999999999
  0
LINE
  5
267
100
AcDbEntity
  8
frame
  6
CONTINUOUS
 62
  256
370
   -1
100
AcDbLine
 10
309.9814
 20
8.483999999999924
 11
309.9814
 21
5.486999999999966
  0
LINE
  5
268
100
AcDbEntity
  8
frame
  6
CONTINUOUS
 62
  256
370
   -1
100
AcDbLine
 10
373.9894
 20
8.483999999999924
 11
373.9894
 21
1.980999999999995
  0
LWPOLYLINE
  5
269
100
AcDbEntity
  8
0
  6
ByLayer
 62
  256
370
   -1
100
AcDbPolyline
 90
    4
 70
    1
 43
0
 10
59.9924
 20
103.997
 10
359.9924
 20
103.997
 10
359.9924
 20
503.997
 10
59.9924
 20
503.997
  0
DIMENSION
  5
26A
100
AcDbEntity
  8
0
  6
ByLayer
 62
  256
370
   -1
100
AcDbDimension
  2
*D1
 10
39.9924
 20
503.997
 30
0
 11
38.1174
 21
303.997
 31
0
 70
   33
 71
    5
  3
Standard
 53
0
210
0
220
0
230
1
100
AcDbAlignedDimension
 13
59.9924
 23
103.997
 33
0
 14
59.9924
 24
503.997
 34
0
  0
CIRCLE
  5
26B
100
AcDbEntity
  8
0
  6
ByLayer
 62
  256
370
   -1
100
AcDbCircle
 10
319.9924
 20
393.997
 40
15
  0
CIRCLE
  5
26C
100
AcDbEntity
  8
0
  6
ByLayer
 62
  256
370
   -1
100
AcDbCircle
 10
319.9924
 20
393.997
 40
10
  0
LINE
  5
26D
100
AcDbEntity
  8
0
  6
ByLayer
 62
  256
370
   -1
100
AcDbLine
 10
313.9924
 20
385.997
 11
313.9924
 21
401.997
  0
LINE
  5
26E
100
AcDbEntity
  8
0
  6
ByLayer
 62
  256
370
   -1
100
AcDbLine
 10
313.9924
 20
401.997
 11
329.9924
 21
393.997
  0
LINE
  5
26F
100
AcDbEntity
  8
0
  6
ByLayer
 62
  256
370
   -1
100
AcDbLine
 10
329.9924
 20
393.997
 11
313.9924
 21
385.997
  0
CIRCLE
  5
270
100
AcDbEntity
  8
0
  6
ByLayer
 62
  256
370
   -1
100
AcDbCircle
 10
319.9924
 20
213.997
 40
15
  0
CIRCLE
  5
271
100
AcDbEntity
  8
0
  6
ByLayer
 62
  256
370
   -1
100
AcDbCircle
 10
319.9924
 20
213.997
 40
10
  0
LINE
  5
272
100
AcDbEntity
  8
0
  6
ByLayer
 62
  256
370
   -1
100
AcDbLine
 10
313.9924
 20
205.997
 11
313.9924
 21
221.997
  0
LINE
  5
273
100
AcDbEntity
  8
0
  6
ByLayer
 62
  256
370
   -1
100
AcDbLine
 10
313.9924
 20
221.997
 11
329.9924
 21
213.997
  0
LINE
  5
274
100
AcDbEntity
  8
0
  6
ByLayer
 62
  256
370
   -1
100
AcDbLine
 10
329.9924
 20
213.997
 11
313.9924
 21
205.997
  0
DIMENSION
  5
275
100
AcDbEntity
  8
0
  6
ByLayer
 62
  256
370
   -1
100
AcDbDimension
  2
*D2
 10
359.9924
 20
83.99699999999996
 30
0
 11
209.9924
 21
85.87199999999996
 31
0
 70
   33
 71
    5
 72
    0
  3
Standard
 53
0
210
0
220
0
230
1
100
AcDbAlignedDimension
 13
59.9924
 23
113.997
 33
0
 14
359.9924
 24
113.997
 34
0
  0
LWPOLYLINE
  5
276
100
AcDbEntity
  8
0
  6
ByLayer
 62
  256
370
  100
100
AcDbPolyline
 90
    4
 70
    1
 43
0
 10
59.9924
 20
503.997
 10
359.9924
 20
503.997
 10
359.9924
 20
103.997
 10
59.9924
 20
103.997
  0
CIRCLE
  5
277
100
AcDbEntity
  8
0
  6
ByLayer
 62
  256
370
  100
100
AcDbCircle
 10
99.9924
 20
443.997
 40
3
  0
CIRCLE
  5
278
100
AcDbEntity
  8
0
  6
ByLayer
 62
  256
370
  100
100
AcDbCircle
 10
99.9924
 20
428.997
 40
3.16227766016838
  0
CIRCLE
  5
279
100
AcDbEntity
  8
0
  6
ByLayer
 62
  256
370
  100
100
AcDbCircle
 10
99.9924
 20
413.997
 40
3
  0
CIRCLE
  5
27A
100
AcDbEntity
  8
0
  6
ByLayer
 62
  256
370
  100
100
AcDbCircle
 10
159.9924
 20
428.997
 40
3
  0
CIRCLE
  5
27B
100
AcDbEntity
  8
0
  6
ByLayer
 62
  256
370
  100
100
AcDbCircle
 10
219.9924
 20
443.997
 40
3
  0
CIRCLE
  5
27C
100
AcDbEntity
  8
0
  6
ByLayer
 62
  256
370
  100
100
AcDbCircle
 10
219.9924
 20
428.997
 40
3.16227766016838
  0
CIRCLE
  5
27D
100
AcDbEntity
  8
0
  6
ByLayer
 62
  256
370
  100
100
AcDbCircle
 10
219.9924
 20
413.997
 40
3
  0
LINE
  5
27E
100
AcDbEntity
  8
0
  6
DASHDOT2
 62
  256
370
   -1
100
AcDbLine
 10
159.9924
 20
422.997
 11
159.9924
 21
508.997
  0
LINE
  5
27F
100
AcDbEntity
  8
0
  6
DASHDOT2
 62
  256
370
   -1
100
AcDbLine
 10
99.9924
 20
407.997
 11
99.9924
 21
508.997
  0
LINE
  5
280
100
AcDbEntity
  8
0
  6
DASHDOT2
 62
  256
370
   -1
100
AcDbLine
 10
219.9924
 20
508.997
 11
219.9924
 21
407.997
  0
DIMENSION
  5
281
100
AcDbEntity
  8
0
  6
ByLayer
 62
  256
370
   -1
100
AcDbDimension
  2
*D3
 10
159.9924
 20
523.997
 30
0
 11
129.9924
 21
525.872
 31
0
 70
   33
 71
    5
 72
    0
  3
Standard
 53
0
210
0
220
0
230
1
100
AcDbAlignedDimension
 13
99.9924
 23
506.997
 33
0
 14
159.9924
 24
506.997
 34
0
  0
DIMENSION
  5
282
100
AcDbEntity
  8
0
  6
ByLayer
 62
  256
370
   -1
100
AcDbDimension
  2
*D4
 10
219.9924
 20
523.997
 30
0
 11
189.9924
 21
525.872
 31
0
 70
   33
 71
    5
 72
    0
  3
Standard
 53
0
210
0
220
0
230
1
100
AcDbAlignedDimension
 13
159.9924
 23
505.997
 33
0
 14
219.9924
 24
505.997
 34
0
  0
LINE
  5
283
100
AcDbEntity
  8
0
  6
DASHDOT2
 62
  256
370
   -1
100
AcDbLine
 10
93.9924
 20
428.997
 11
362.9924
 21
428.997
  0
LINE
  5
284
100
AcDbEntity
  8
0
  6
DASHDOT2
 62
  256
370
   -1
100
AcDbLine
 10
362.9924
 20
413.997
 11
93.9924
 21
413.997
  0
LINE
  5
285
100
AcDbEntity
  8
0
  6
DASHDOT2
 62
  256
370
   -1
100
AcDbLine
 10
93.9924
 20
443.997
 11
362.9924
 21
443.997
  0
DIMENSION
  5
286
100
AcDbEntity
  8
0
  6
ByLayer
 62
  256
370
   -1
100
AcDbDimension
  2
*D5
 10
379.9924
 20
443.997
 30
0
 11
378.1174
 21
436.497
 31
0
 70
   33
 71
    5
 72
    0
  3
Standard
 53
0
210
0
220
0
230
1
100
AcDbAlignedDimension
 13
361.9924
 23
428.997
 33
0
 14
361.9924
 24
443.997
 34
0
  0
DIMENSION
  5
287
100
AcDbEntity
  8
0
  6
ByLayer
 62
  256
370
   -1
100
AcDbDimension
  2
*D6
 10
379.9924
 20
428.997
 30
0
 11
378.1174
 21
421.497
 31
0
 70
   33
 71
    5
 72
    0
  3
Standard
 53
0
210
0
220
0
230
1
100
AcDbAlignedDimension
 13
361.9924
 23
413.997
 33
0
 14
361.9924
 24
428.997
 34
0
  0
DIMENSION
  5
288
100
AcDbEntity
  8
0
  6
ByLayer
 62
  256
370
   -1
100
AcDbDimension
  2
*D7
 10
228.4924
 20
448.497
 30
0
 11
227.8182252147248
 21
451.8228252147247
 31
0
 70
   33
 71
    5
 72
    0
  3
Standard
 53
0
210
0
220
0
230
1
100
AcDbAlignedDimension
 13
217.9924
 23
445.997
 33
0
 14
221.9924
 24
441.997
 34
0
  0
LWPOLYLINE
  5
289
100
AcDbEntity
  8
0
  6
DOT2
 62
  256
370
   -1
100
AcDbPolyline
 90
    4
 70
    1
 43
0
 10
79.9924
 20
388.997
 10
279.9924
 20
388.997
 10
279.9924
 20
473.997
 10
79.9924
 20
473.997
  0
DIMENSION
  5
28A
100
AcDbEntity
  8
0
  6
ByLayer
 62
  256
370
   -1
100
AcDbDimension
  2
*D8
 10
69.9924
 20
388.997
 30
0
 11
68.11739999999998
 21
431.497
 31
0
 70
   33
 71
    5
 72
    0
  3
Standard
 53
0
210
0
220
0
230
1
100
AcDbAlignedDimension
 13
79.99239999999999
 23
473.997
 33
0
 14
79.99240000000003
 24
388.997
 34
0
  0
DIMENSION
  5
28B
100
AcDbEntity
  8
0
  6
ByLayer
 62
  256
370
   -1
100
AcDbDimension
  2
*D9
 10
99.9924
 20
523.997
 30
0
 11
89.9924
 21
525.872
 31
0
 70
   33
 71
    5
 72
    0
  3
Standard
 53
0
210
0
220
0
230
1
100
AcDbAlignedDimension
 13
79.9924
 23
506.997
 33
0
 14
99.9924
 24
506.997
 34
0
  0
DIMENSION
  5
28C
100
AcDbEntity
  8
0
  6
ByLayer
 62
  256
370
   -1
100
AcDbDimension
  2
*D10
 10
79.9924
 20
523.997
 30
0
 11
69.9924
 21
525.872
 31
0
 70
   33
 71
    5
 72
    0
  3
Standard
 53
0
210
0
220
0
230
1
100
AcDbAlignedDimension
 13
59.9924
 23
473.997
 33
0
 14
79.9924
 24
473.997
 34
0
  0
DIMENSION
  5
28D
100
AcDbEntity
  8
0
  6
ByLayer
 62
  256
370
   -1
100
AcDbDimension
  2
*D11
 10
379.9924
 20
473.997
 30
0
 11
378.1174
 21
458.997
 31
0
 70
   33
 71
    5
 72
    0
  3
Standard
 53
0
210
0
220
0
230
1
100
AcDbAlignedDimension
 13
361.9924
 23
443.997
 33
0
 14
361.9924
 24
473.997
 34
0
  0
DIMENSION
  5
28E
100
AcDbEntity
  8
0
  6
ByLayer
 62
  256
370
   -1
100
AcDbDimension
  2
*D12
 10
379.9924
 20
473.997
 30
0
 11
378.1174
 21
488.997
 31
0
 70
   33
 71
    5
 72
    0
  3
Standard
 53
0
210
0
220
0
230
1
100
AcDbAlignedDimension
 13
279.9924
 23
503.997
 33
0
 14
279.9924
 24
473.997
 34
0
  0
DIMENSION
  5
28F
100
AcDbEntity
  8
0
  6
ByLayer
 62
  256
370
   -1
100
AcDbDimension
  2
*D13
 10
279.9924
 20
377.997
 30
0
 11
179.9924
 21
379.872
 31
0
 70
   33
 71
    5
 72
    0
  3
Standard
 53
0
210
0
220
0
230
1
100
AcDbAlignedDimension
 13
79.99239999999998
 23
388.9970000000001
 33
0
 14
279.9924
 24
388.997
 34
0
  0
MTEXT
  5
290
100
AcDbEntity
  8
0
  6
ByLayer
 62
  256
370
   -1
100
AcDbMText
 10
162.8812888888889
 20
404.997
 30
0
 40
5
 41
31.52777777777801
 71
    1
 72
    1
  1
Front foil
  7
standard
210
0
220
0
230
1
 50
0
 73
    2
 44
1
  0
MTEXT
  5
291
100
AcDbEntity
  8
text
  6
ByLayer
 62
  256
370
   -1
100
AcDbMText
 10
291
 20
8
 30
0
 40
2
 41
12.16666674849477
 71
    1
 72
    1
  1
Size: A/2
  7
normallatin2
210
0
220
0
230
1
 50
0
 73
    2
 44
1
  0
MTEXT
  5
292
100
AcDbEntity
  8
text
  6
ByLayer
 62
  256
370
   -1
100
AcDbMText
 10
311.0555555555555
 20
8
 30
0
 40
2
 41
24.722252
 71
    1
 72
    1
  1
Date: 2019. 09. 29.
  7
normallatin2
210
0
220
0
230
1
 50
0
 73
    2
 44
1
  0
MTEXT
  5
293
100
AcDbEntity
  8
text
  6
ByLayer
 62
  256
370
   -1
100
AcDbMText
 10
291
 20
5
 30
0
 40
2
 41
19.94444444444444
 71
    1
 72
    1
  1
LibreCAD v2.1.3
  7
normallatin2
210
0
220
0
230
1
 50
0
 73
    2
 44
1
  0
MTEXT
  5
294
100
AcDbEntity
  8
text
  6
ByLayer
 62
  256
370
   -1
100
AcDbMText
 10
291
 20
22
 30
0
 40
2
 41
61.16667628765745
 71
    1
 72
    1
  1
Pozsar Zsolt - http://www.szerafingomba.hu
  7
normallatin2
210
0
220
0
230
1
 50
0
 73
    2
 44
1
  0
MTEXT
  5
295
100
AcDbEntity
  8
text
  6
ByLayer
 62
  256
370
   -1
100
AcDbMText
 10
291
 20
33
 30
0
 40
2
 41
23.22222222222222
 71
    1
 72
    1
  1
Draw no.: 59/4/4
  7
normallatin2
210
0
220
0
230
1
 50
0
 73
    2
 44
1
  0
MTEXT
  5
296
100
AcDbEntity
  8
text
  6
ByLayer
 62
  256
370
   -1
100
AcDbMText
 10
291
 20
25
 30
0
 40
2
 41
46.38888888888889
 71
    1
 72
    1
  1
Drilling draw for front of cabinet
  7
normallatin2
210
0
220
0
230
1
 50
0
 73
    2
 44
1
  0
MTEXT
  5
297
100
AcDbEntity
  8
text
  6
ByLayer
 62
  256
370
   -1
100
AcDbMText
 10
291
 20
28
 30
0
 40
2
 41
5.722222222222222
 71
    1
 72
    1
  1
M 1:1
  7
normallatin2
210
0
220
0
230
1
 50
0
 73
    2
 44
1
  0
MTEXT
  5
298
100
AcDbEntity
  8
text
  6
ByLayer
 62
  256
370
   -1
100
AcDbMText
 10
291
 20
18
 30
0
 40
2
 41
10.83333341516144
 71
    1
 72
    1
  1
Sheet: /
  7
normallatin2
210
0
220
0
230
1
 50
0
 73
    2
 44
1
  0
MTEXT
  5
299
100
AcDbEntity
  8
text
  6
ByLayer
 62
  256
370
   -1
100
AcDbMText
 10
291
 20
15
 30
0
 40
2
 41
18.38888888888889
 71
    1
 72
    1
  1
File: front.dxf
  7
normallatin2
210
0
220
0
230
1
 50
0
 73
    2
 44
1
  0
MTEXT
  5
29A
100
AcDbEntity
  8
text
  6
ByLayer
 62
  256
370
   -1
100
AcDbMText
 10
375
 20
8
 30
0
 40
2
 41
14.83334822222222
 71
    1
 72
    1
  1
Rev: 190919
  7
normallatin2
210
0
220
0
230
1
 50
0
 73
    2
 44
1
  0
MTEXT
  5
29B
100
AcDbEntity
  8
text
  6
ByLayer
 62
  256
370
   -1
100
AcDbMText
 10
375
 20
5
 30
0
 40
2
 41
7.5
 71
    1
 72
    1
  1
Id: 1/1
  7
normallatin2
210
0
220
0
230
1
 50
0
 73
    2
 44
1
  0
MTEXT
  5
29C
100
AcDbEntity
  8
text
  6
ByLayer
 62
  256
370
   -1
100
AcDbMText
 10
291
 20
12
 30
0
 40
2
 41
73.00000641399386
 71
    1
 72
    1
  1
Title: MM4A Electrical distribution and switching unit
  7
normallatin2
210
0
220
0
230
1
 50
0
 73
    2
 44
1
  0
ENDSEC
  0
SECTION
  2
OBJECTS
  0
DICTIONARY
  5
C
330
0
100
AcDbDictionary
281
    1
  3
ACAD_GROUP
350
D
  0
DICTIONARY
  5
D
330
C
100
AcDbDictionary
281
    1
  0
ENDSEC
  0
EOF
