<?xml version="1.0" encoding="UTF-8" standalone="no"?>
<!-- Created with Inkscape (http://www.inkscape.org/) -->

<svg
   xmlns:dc="http://purl.org/dc/elements/1.1/"
   xmlns:cc="http://creativecommons.org/ns#"
   xmlns:rdf="http://www.w3.org/1999/02/22-rdf-syntax-ns#"
   xmlns:svg="http://www.w3.org/2000/svg"
   xmlns="http://www.w3.org/2000/svg"
   xmlns:sodipodi="http://sodipodi.sourceforge.net/DTD/sodipodi-0.dtd"
   xmlns:inkscape="http://www.inkscape.org/namespaces/inkscape"
   version="1.1"
   id="svg11080"
   xml:space="preserve"
   width="1122.6667"
   height="793.33331"
   viewBox="0 0 1122.6667 793.33331"
   sodipodi:docname="frontpage.svg"
   inkscape:version="0.92.1 r15371"><metadata
     id="metadata11086"><rdf:RDF><cc:Work
         rdf:about=""><dc:format>image/svg+xml</dc:format><dc:type
           rdf:resource="http://purl.org/dc/dcmitype/StillImage" /><dc:title></dc:title></cc:Work></rdf:RDF></metadata><defs
     id="defs11084"><clipPath
       clipPathUnits="userSpaceOnUse"
       id="clipPath11096"><path
         d="M 0,-0.2 H 841.8 V 595 H 0 Z"
         id="path11094"
         inkscape:connector-curvature="0"
         style="clip-rule:evenodd" /></clipPath></defs><sodipodi:namedview
     pagecolor="#ffffff"
     bordercolor="#666666"
     borderopacity="1"
     objecttolerance="10"
     gridtolerance="10"
     guidetolerance="10"
     inkscape:pageopacity="0"
     inkscape:pageshadow="2"
     inkscape:window-width="1022"
     inkscape:window-height="736"
     id="namedview11082"
     showgrid="false"
     inkscape:zoom="0.65168069"
     inkscape:cx="561.33337"
     inkscape:cy="396.66666"
     inkscape:window-x="0"
     inkscape:window-y="0"
     inkscape:window-maximized="1"
     inkscape:current-layer="g11088" /><g
     id="g11088"
     inkscape:groupmode="layer"
     inkscape:label="frontpage"
     transform="matrix(1.3333333,0,0,-1.3333333,0,793.33333)"><g
       id="g11090"
       transform="matrix(-1,0,0,1,623.6,0)"><g
         id="g11092"
         clip-path="url(#clipPath11096)"><g
           id="g11098"><path
             d="M 311.8,326.7 H 28.3 v 240 h 567 v -240 z"
             style="fill:none;stroke:#000000;stroke-width:0.75;stroke-linecap:butt;stroke-linejoin:round;stroke-miterlimit:10;stroke-dasharray:none;stroke-opacity:1"
             id="path11100"
             inkscape:connector-curvature="0" /></g><g
           id="g11102"><text
             transform="matrix(1,0,0,-1,63.8,529.8)"
             style="font-variant:normal;font-weight:bold;font-size:18px;font-family:'Liberation Sans';-inkscape-font-specification:LiberationSans-Bold;writing-mode:lr-tb;fill:#000000;fill-opacity:1;fill-rule:nonzero;stroke:none"
             id="text11106"><tspan
               x="0 14.994 29.988001 39.888"
               y="0"
               sodipodi:role="line"
               id="tspan11104">MM4A</tspan></text>
</g><g
           id="g11108" /><g
           id="g11110"><text
             transform="matrix(1,0,0,-1,271.6,529.8)"
             style="font-variant:normal;font-weight:bold;font-size:15px;font-family:'Liberation Sans';-inkscape-font-specification:LiberationSans-Bold;writing-mode:lr-tb;fill:#000000;fill-opacity:1;fill-rule:nonzero;stroke:none"
             id="text11114"><tspan
               x="0 9.9899998 14.175 22.559999 30.945 35.939999 41.82 46.005001 54.389999 62.775002 66.959999 71.144997 80.25 84.434998 92.82 97.904999 103.71 107.895 117.075 126.18 131.175 135.36 144.465 153.645 157.74001 166.23 175.33501 184.44 188.625 197.00999 208.605 212.78999 217.875 226.25999 235.36501 239.55 248.655 257.76001 261.94501 271.125 280.23001 284.41501"
               y="0"
               sodipodi:role="line"
               id="tspan11112">Electrical distribution and switching unit</tspan></text>
</g><g
           id="g11116"><path
             d="m 62.4,523.3 498.9,0.8"
             style="fill:none;stroke:#000000;stroke-width:2.26398993;stroke-linecap:butt;stroke-linejoin:round;stroke-miterlimit:10;stroke-dasharray:none;stroke-opacity:1"
             id="path11118"
             inkscape:connector-curvature="0" /></g><g
           id="g11120"><path
             d="m 425.3,485 c 2.1,0 3.6,-1.5 3.6,-3.5 0,-2 -1.5,-3.6 -3.6,-3.6 -2,0 -3.5,1.6 -3.5,3.6 0,2 1.5,3.5 3.5,3.5 z"
             style="fill:none;stroke:#e6e6e6;stroke-width:0.75;stroke-linecap:butt;stroke-linejoin:round;stroke-miterlimit:10;stroke-dasharray:none;stroke-opacity:1"
             id="path11122"
             inkscape:connector-curvature="0" /></g><g
           id="g11124"><path
             d="M 421.8,485 Z"
             style="fill:none;stroke:#e6e6e6;stroke-width:0.75;stroke-linecap:butt;stroke-linejoin:round;stroke-miterlimit:10;stroke-dasharray:none;stroke-opacity:1"
             id="path11126"
             inkscape:connector-curvature="0" /></g><g
           id="g11128"><path
             d="M 428.9,477.9 Z"
             style="fill:none;stroke:#e6e6e6;stroke-width:0.75;stroke-linecap:butt;stroke-linejoin:round;stroke-miterlimit:10;stroke-dasharray:none;stroke-opacity:1"
             id="path11130"
             inkscape:connector-curvature="0" /></g><g
           id="g11132"><path
             d="m 425.3,442.5 c 2.1,0 3.6,-1.5 3.6,-3.5 0,-2.1 -1.5,-3.6 -3.6,-3.6 -2,0 -3.5,1.5 -3.5,3.6 0,2 1.5,3.5 3.5,3.5 z"
             style="fill:none;stroke:#e6e6e6;stroke-width:0.75;stroke-linecap:butt;stroke-linejoin:round;stroke-miterlimit:10;stroke-dasharray:none;stroke-opacity:1"
             id="path11134"
             inkscape:connector-curvature="0" /></g><g
           id="g11136"><path
             d="M 421.8,442.5 Z"
             style="fill:none;stroke:#e6e6e6;stroke-width:0.75;stroke-linecap:butt;stroke-linejoin:round;stroke-miterlimit:10;stroke-dasharray:none;stroke-opacity:1"
             id="path11138"
             inkscape:connector-curvature="0" /></g><g
           id="g11140"><path
             d="M 428.9,435.4 Z"
             style="fill:none;stroke:#e6e6e6;stroke-width:0.75;stroke-linecap:butt;stroke-linejoin:round;stroke-miterlimit:10;stroke-dasharray:none;stroke-opacity:1"
             id="path11142"
             inkscape:connector-curvature="0" /></g><g
           id="g11144"><path
             d="m 425.3,400 c 2.1,0 3.6,-1.6 3.6,-3.6 0,-2 -1.5,-3.5 -3.6,-3.5 -2,0 -3.5,1.5 -3.5,3.5 0,2 1.5,3.6 3.5,3.6 z"
             style="fill:none;stroke:#e6e6e6;stroke-width:0.75;stroke-linecap:butt;stroke-linejoin:round;stroke-miterlimit:10;stroke-dasharray:none;stroke-opacity:1"
             id="path11146"
             inkscape:connector-curvature="0" /></g><g
           id="g11148"><path
             d="M 421.8,400 Z"
             style="fill:none;stroke:#e6e6e6;stroke-width:0.75;stroke-linecap:butt;stroke-linejoin:round;stroke-miterlimit:10;stroke-dasharray:none;stroke-opacity:1"
             id="path11150"
             inkscape:connector-curvature="0" /></g><g
           id="g11152"><path
             d="M 428.9,392.9 Z"
             style="fill:none;stroke:#e6e6e6;stroke-width:0.75;stroke-linecap:butt;stroke-linejoin:round;stroke-miterlimit:10;stroke-dasharray:none;stroke-opacity:1"
             id="path11154"
             inkscape:connector-curvature="0" /></g><g
           id="g11156"><path
             d="m 255.3,442.5 c 2,0 3.5,-1.5 3.5,-3.5 0,-2.1 -1.5,-3.6 -3.5,-3.6 -2.1,0 -3.6,1.5 -3.6,3.6 0,2 1.5,3.5 3.6,3.5 z"
             style="fill:none;stroke:#e6e6e6;stroke-width:0.75;stroke-linecap:butt;stroke-linejoin:round;stroke-miterlimit:10;stroke-dasharray:none;stroke-opacity:1"
             id="path11158"
             inkscape:connector-curvature="0" /></g><g
           id="g11160"><path
             d="M 251.7,442.5 Z"
             style="fill:none;stroke:#e6e6e6;stroke-width:0.75;stroke-linecap:butt;stroke-linejoin:round;stroke-miterlimit:10;stroke-dasharray:none;stroke-opacity:1"
             id="path11162"
             inkscape:connector-curvature="0" /></g><g
           id="g11164"><path
             d="M 258.8,435.4 Z"
             style="fill:none;stroke:#e6e6e6;stroke-width:0.75;stroke-linecap:butt;stroke-linejoin:round;stroke-miterlimit:10;stroke-dasharray:none;stroke-opacity:1"
             id="path11166"
             inkscape:connector-curvature="0" /></g><g
           id="g11168"><path
             d="m 85.2,485 c 2,0 3.5,-1.5 3.5,-3.5 0,-2 -1.5,-3.6 -3.5,-3.6 -2,0 -3.6,1.6 -3.6,3.6 0,2 1.6,3.5 3.6,3.5 z"
             style="fill:none;stroke:#e6e6e6;stroke-width:0.75;stroke-linecap:butt;stroke-linejoin:round;stroke-miterlimit:10;stroke-dasharray:none;stroke-opacity:1"
             id="path11170"
             inkscape:connector-curvature="0" /></g><g
           id="g11172"><path
             d="M 81.6,485 Z"
             style="fill:none;stroke:#e6e6e6;stroke-width:0.75;stroke-linecap:butt;stroke-linejoin:round;stroke-miterlimit:10;stroke-dasharray:none;stroke-opacity:1"
             id="path11174"
             inkscape:connector-curvature="0" /></g><g
           id="g11176"><path
             d="M 88.8,477.9 Z"
             style="fill:none;stroke:#e6e6e6;stroke-width:0.75;stroke-linecap:butt;stroke-linejoin:round;stroke-miterlimit:10;stroke-dasharray:none;stroke-opacity:1"
             id="path11178"
             inkscape:connector-curvature="0" /></g><g
           id="g11180"><path
             d="m 85.2,442.5 c 2,0 3.5,-1.5 3.5,-3.5 0,-2.1 -1.5,-3.6 -3.5,-3.6 -2,0 -3.6,1.5 -3.6,3.6 0,2 1.6,3.5 3.6,3.5 z"
             style="fill:none;stroke:#e6e6e6;stroke-width:0.75;stroke-linecap:butt;stroke-linejoin:round;stroke-miterlimit:10;stroke-dasharray:none;stroke-opacity:1"
             id="path11182"
             inkscape:connector-curvature="0" /></g><g
           id="g11184"><path
             d="M 81.6,442.5 Z"
             style="fill:none;stroke:#e6e6e6;stroke-width:0.75;stroke-linecap:butt;stroke-linejoin:round;stroke-miterlimit:10;stroke-dasharray:none;stroke-opacity:1"
             id="path11186"
             inkscape:connector-curvature="0" /></g><g
           id="g11188"><path
             d="M 88.8,435.4 Z"
             style="fill:none;stroke:#e6e6e6;stroke-width:0.75;stroke-linecap:butt;stroke-linejoin:round;stroke-miterlimit:10;stroke-dasharray:none;stroke-opacity:1"
             id="path11190"
             inkscape:connector-curvature="0" /></g><g
           id="g11192"><text
             transform="matrix(1,0,0,-1,106.1,477.6)"
             style="font-variant:normal;font-weight:bold;font-size:13px;font-family:'Liberation Sans';-inkscape-font-specification:LiberationSans-Bold;writing-mode:lr-tb;fill:#000000;fill-opacity:1;fill-rule:nonzero;stroke:none"
             id="text11196"><tspan
               x="0 11.505 18.707001 22.308001 30.212 37.414001 41.014999 48.216999 56.199001 59.799999 64.102997 71.305 79.209"
               y="0"
               sodipodi:role="line"
               id="tspan11194">mains voltage</tspan></text>
</g><g
           id="g11198"><text
             transform="matrix(1,0,0,-1,446.1,477.6)"
             style="font-variant:normal;font-weight:bold;font-size:13px;font-family:'Liberation Sans';-inkscape-font-specification:LiberationSans-Bold;writing-mode:lr-tb;fill:#000000;fill-opacity:1;fill-rule:nonzero;stroke:none"
             id="text11202"><tspan
               x="0 7.9039998 15.106 22.308001 26.611 30.212 38.116001"
               y="0"
               sodipodi:role="line"
               id="tspan11200">heating</tspan></text>
</g><g
           id="g11204"><text
             transform="matrix(1,0,0,-1,106.1,435.1)"
             style="font-variant:normal;font-weight:bold;font-size:13px;font-family:'Liberation Sans';-inkscape-font-specification:LiberationSans-Bold;writing-mode:lr-tb;fill:#000000;fill-opacity:1;fill-rule:nonzero;stroke:none"
             id="text11208"><tspan
               x="0 7.2020001 15.106 22.308001 25.909 29.51 33.111 40.313 45.396 52.598 56.199001 63.401001 71.305 74.905998 79.209 86.411003 94.315002"
               y="0"
               sodipodi:role="line"
               id="tspan11206">auxiliary voltage</tspan></text>
</g><g
           id="g11210"><text
             transform="matrix(1,0,0,-1,276.1,435.1)"
             style="font-variant:normal;font-weight:bold;font-size:13px;font-family:'Liberation Sans';-inkscape-font-specification:LiberationSans-Bold;writing-mode:lr-tb;fill:#000000;fill-opacity:1;fill-rule:nonzero;stroke:none"
             id="text11214"><tspan
               x="0 11.505 18.707001 26.611 34.514999 41.716999 45.318001 48.918999 60.501999 68.405998 76.309998"
               y="0"
               sodipodi:role="line"
               id="tspan11212">manual mode</tspan></text>
</g><g
           id="g11216"><text
             transform="matrix(1,0,0,-1,446.1,435.1)"
             style="font-variant:normal;font-weight:bold;font-size:13px;font-family:'Liberation Sans';-inkscape-font-specification:LiberationSans-Bold;writing-mode:lr-tb;fill:#000000;fill-opacity:1;fill-rule:nonzero;stroke:none"
             id="text11220"><tspan
               x="0 3.6010001 7.2020001 15.106 23.01 27.313 30.914 38.896"
               y="0"
               sodipodi:role="line"
               id="tspan11218">lighting</tspan></text>
</g><path
           d="m 150.2,377.3 h -85 v 35.4 h 170.1 v -35.4 z"
           style="fill:#dc2300;fill-opacity:1;fill-rule:evenodd;stroke:none"
           id="path11222"
           inkscape:connector-curvature="0" /><g
           id="g11224"><path
             d="m 150.2,377.3 h -85 v 35.4 h 170.1 v -35.4 z"
             style="fill:none;stroke:#3465a4;stroke-width:0.75;stroke-linecap:butt;stroke-linejoin:round;stroke-miterlimit:10;stroke-dasharray:none;stroke-opacity:1"
             id="path11226"
             inkscape:connector-curvature="0" /></g><g
           id="g11228"><text
             transform="matrix(1,0,0,-1,106.1,392)"
             style="font-variant:normal;font-weight:bold;font-size:13px;font-family:'Liberation Sans';-inkscape-font-specification:LiberationSans-Bold;writing-mode:lr-tb;fill:#ffffff;fill-opacity:1;fill-rule:nonzero;stroke:none"
             id="text11232"><tspan
               x="0 7.9039998 12.987 20.891001 25.194 32.396 39.598 43.901001 47.501999 55.405998 63.388 66.988998 74.191002 79.195999 84.200996 92.182999"
               y="0"
               sodipodi:role="line"
               id="tspan11230">protection error</tspan></text>
</g><g
           id="g11234"><text
             transform="matrix(1,0,0,-1,446.1,392)"
             style="font-variant:normal;font-weight:bold;font-size:13px;font-family:'Liberation Sans';-inkscape-font-specification:LiberationSans-Bold;writing-mode:lr-tb;fill:#000000;fill-opacity:1;fill-rule:nonzero;stroke:none"
             id="text11238"><tspan
               x="0 7.2020001 14.404 22.308001 26.611 30.212 33.813 41.014999 45.318001 48.918999 56.901001"
               y="0"
               sodipodi:role="line"
               id="tspan11236">ventilating</tspan></text>
</g><g
           id="g11240"><path
             d="m 85.2,400 c 2,0 3.5,-1.6 3.5,-3.6 0,-2 -1.5,-3.5 -3.5,-3.5 -2,0 -3.6,1.5 -3.6,3.5 0,2 1.6,3.6 3.6,3.6 z"
             style="fill:none;stroke:#e6e6e6;stroke-width:0.75;stroke-linecap:butt;stroke-linejoin:round;stroke-miterlimit:10;stroke-dasharray:none;stroke-opacity:1"
             id="path11242"
             inkscape:connector-curvature="0" /></g><g
           id="g11244"><path
             d="M 81.6,400 Z"
             style="fill:none;stroke:#e6e6e6;stroke-width:0.75;stroke-linecap:butt;stroke-linejoin:round;stroke-miterlimit:10;stroke-dasharray:none;stroke-opacity:1"
             id="path11246"
             inkscape:connector-curvature="0" /></g><g
           id="g11248"><path
             d="M 88.8,392.9 Z"
             style="fill:none;stroke:#e6e6e6;stroke-width:0.75;stroke-linecap:butt;stroke-linejoin:round;stroke-miterlimit:10;stroke-dasharray:none;stroke-opacity:1"
             id="path11250"
             inkscape:connector-curvature="0" /></g><g
           id="g11252"><path
             d="m 366,439.1 h 44"
             style="fill:none;stroke:#000000;stroke-width:2.26398993;stroke-linecap:butt;stroke-linejoin:round;stroke-miterlimit:10;stroke-dasharray:none;stroke-opacity:1"
             id="path11254"
             inkscape:connector-curvature="0" /></g><g
           id="g11256"><path
             d="m 409.9,396.6 -21,-0.1"
             style="fill:none;stroke:#000000;stroke-width:2.26398993;stroke-linecap:butt;stroke-linejoin:round;stroke-miterlimit:10;stroke-dasharray:none;stroke-opacity:1"
             id="path11258"
             inkscape:connector-curvature="0" /></g><g
           id="g11260"><path
             d="m 389.4,396.3 0.4,43.8"
             style="fill:none;stroke:#000000;stroke-width:2.26398993;stroke-linecap:butt;stroke-linejoin:round;stroke-miterlimit:10;stroke-dasharray:none;stroke-opacity:1"
             id="path11262"
             inkscape:connector-curvature="0" /></g></g></g></g></svg>